<svg xmlns="http://www.w3.org/2000/svg" width="277.42" height="251.113" viewBox="0 0 277.42 251.113">
  <g id="Data_processing-amico_1_" data-name="Data processing-amico (1)" transform="translate(-6.29 -38.726)">
    <g id="freepik--Floor--inject-11" transform="translate(6.29 129.665)">
      <ellipse id="freepik--floor--inject-11-2" data-name="freepik--floor--inject-11" cx="138.71" cy="80.087" rx="138.71" ry="80.087" fill="#fcd3c4"/>
    </g>
    <g id="freepik--Machine--inject-11" transform="translate(73.753 38.726)">
      <g id="freepik--machine--inject-11-2" data-name="freepik--machine--inject-11" transform="translate(0 0)">
        <g id="freepik--Print--inject-11" transform="translate(103.536 103.239)">
          <path id="Trazado_798940" data-name="Trazado 798940" d="M389.554,310.011a7.336,7.336,0,0,1-3.364-.82h-.063L355,291.172a7.547,7.547,0,0,0,2.328.376,7.359,7.359,0,0,0,3.739-1.019l30.991-17.889,32.1,18.532-30.911,17.849a7.251,7.251,0,0,1-3.665.99Z" transform="translate(-327.527 -247.893)" fill="#fff"/>
          <path id="Trazado_798941" data-name="Trazado 798941" d="M391.185,272.643l31.947,18.446-30.8,17.781a7.16,7.16,0,0,1-3.626.985,7.348,7.348,0,0,1-3.341-.814h-.04l-.569-.347-.04-.028-29.995-17.337a7.693,7.693,0,0,0,1.708.216,7.513,7.513,0,0,0,3.779-1.024l21.1-12.186,9.852-5.692m0-.176-9.926,5.731L360.16,290.407a7.359,7.359,0,0,1-3.705,1.007,7.451,7.451,0,0,1-3.415-.82l31.549,18.213h.028l.609.353h.057a7.325,7.325,0,0,0,7.1-.176l31.031-17.911L391.157,272.45Z" transform="translate(-326.682 -247.811)" fill="#e0e0e0"/>
          <g id="freepik--Chart--inject-11" transform="translate(61.406 42.355)">
            <path id="Trazado_798942" data-name="Trazado 798942" d="M416.828,306.92l6.261,3.6-1.2,5.122c-4.274-.4-7.809-3.045-7.2-5.914A4.105,4.105,0,0,1,416.828,306.92Z" transform="translate(-414.62 -305.017)" fill="#ff5a20"/>
            <path id="Trazado_798943" data-name="Trazado 798943" d="M416.828,306.92l6.261,3.6-1.2,5.122c-4.274-.4-7.809-3.045-7.2-5.914A4.105,4.105,0,0,1,416.828,306.92Z" transform="translate(-414.62 -305.017)" fill="#fff" opacity="0.2"/>
            <path id="Trazado_798944" data-name="Trazado 798944" d="M438.686,308.55c2.356,2.516.882,5.692-3.415,7.177a14.451,14.451,0,0,1-5.521.757l1.138-5.225Z" transform="translate(-421.138 -305.719)" fill="#ff5a20"/>
            <path id="Trazado_798945" data-name="Trazado 798945" d="M438.686,308.55c2.356,2.516.882,5.692-3.415,7.177a14.451,14.451,0,0,1-5.521.757l1.138-5.225Z" transform="translate(-421.138 -305.719)" fill="#fff" opacity="0.3"/>
            <path id="Trazado_798946" data-name="Trazado 798946" d="M437.59,305.986l-7.479,2.6-1.821-4.929C431.961,303.3,435.524,304.193,437.59,305.986Z" transform="translate(-420.509 -303.577)" fill="#ff5a20"/>
            <path id="Trazado_798947" data-name="Trazado 798947" d="M423.647,304l1.639,4.445-5.566-3.216A11.383,11.383,0,0,1,423.647,304Z" transform="translate(-416.817 -303.759)" fill="#ff5a20"/>
            <path id="Trazado_798948" data-name="Trazado 798948" d="M423.647,304l1.639,4.445-5.566-3.216A11.383,11.383,0,0,1,423.647,304Z" transform="translate(-416.817 -303.759)" fill="#fff" opacity="0.5"/>
          </g>
          <path id="Trazado_798949" data-name="Trazado 798949" d="M405.876,299.7a.308.308,0,0,1-.154-.04l-9.926-5.731a.3.3,0,0,1,.307-.524l9.926,5.726a.3.3,0,0,1,.114.415A.313.313,0,0,1,405.876,299.7Z" transform="translate(-345.039 -256.823)" fill="#455a64"/>
          <path id="Trazado_798950" data-name="Trazado 798950" d="M401.489,302.187a.273.273,0,0,1-.148-.04l-9.926-5.726a.307.307,0,1,1,.3-.529l9.926,5.726a.3.3,0,0,1-.154.569Z" transform="translate(-343.133 -257.884)" fill="#455a64"/>
          <path id="Trazado_798951" data-name="Trazado 798951" d="M410.257,297.2a.273.273,0,0,1-.148-.04l-9.932-5.726a.313.313,0,0,1-.108-.421.307.307,0,0,1,.415-.108l9.915,5.726a.3.3,0,0,1-.142.569Z" transform="translate(-346.927 -255.747)" fill="#455a64"/>
          <path id="Trazado_798952" data-name="Trazado 798952" d="M414.622,294.678a.273.273,0,0,1-.148-.04l-9.926-5.726a.307.307,0,0,1,.3-.529l9.926,5.726a.3.3,0,0,1-.154.569Z" transform="translate(-348.822 -254.666)" fill="#455a64"/>
          <path id="Trazado_798953" data-name="Trazado 798953" d="M438.226,298.2a.319.319,0,0,1-.154-.046L413.3,283.867a.313.313,0,0,1-.108-.421.3.3,0,0,1,.415-.108l24.776,14.292a.313.313,0,0,1,.108.421.3.3,0,0,1-.262.154Z" transform="translate(-352.579 -252.484)" fill="#455a64"/>
          <path id="Trazado_798954" data-name="Trazado 798954" d="M442.586,295.712a.3.3,0,0,1-.154-.04l-24.8-14.32a.307.307,0,0,1,.3-.529l24.81,14.32a.313.313,0,0,1,.108.421A.3.3,0,0,1,442.586,295.712Z" transform="translate(-354.457 -251.409)" fill="#455a64"/>
          <path id="Trazado_798955" data-name="Trazado 798955" d="M375.662,284.839V256.177a7.353,7.353,0,0,0-3.369-6.261l-.677-.393L340.05,231.31a7.337,7.337,0,0,1,3.387,6.221v28.686a7.365,7.365,0,0,0,3.347,6.215h.04l.672.387,31.549,18.213a7.365,7.365,0,0,1-3.381-6.192Z" transform="translate(-321.086 -230.086)" fill="#e0e0e0"/>
          <path id="Trazado_798956" data-name="Trazado 798956" d="M375.662,284.839V256.177a7.353,7.353,0,0,0-3.369-6.261l-.677-.393L340.05,231.31a7.337,7.337,0,0,1,3.387,6.221v28.686a7.365,7.365,0,0,0,3.347,6.215h.04l.672.387,31.549,18.213a7.365,7.365,0,0,1-3.381-6.192Z" transform="translate(-321.086 -230.086)" opacity="0.15"/>
          <path id="Trazado_798957" data-name="Trazado 798957" d="M307,236.7l11.07-6.392a7.263,7.263,0,0,1,3.671-1,7.4,7.4,0,0,1,3.29.785l31.275,18.054a7.513,7.513,0,0,0-2.322-.376,7.4,7.4,0,0,0-3.745,1.024L339.1,255.224Z" transform="translate(-306.846 -229.225)" fill="#fff"/>
          <path id="Trazado_798958" data-name="Trazado 798958" d="M321.625,229.319a7.279,7.279,0,0,1,3.25.774l.746.427,30,17.331a7.311,7.311,0,0,0-1.753-.211,7.479,7.479,0,0,0-3.785,1.03l-11.1,6.4-9.846-5.692-22.1-12.755,10.951-6.323a7.223,7.223,0,0,1,3.637-.99m0-.154a7.4,7.4,0,0,0-3.711,1.007l-11.184,6.46,22.351,12.891,9.9,5.731L350.14,248.8a7.393,7.393,0,0,1,7.12-.182L325.694,230.4l-.746-.427a7.4,7.4,0,0,0-3.324-.8Z" transform="translate(-306.73 -229.16)" fill="#e0e0e0"/>
        </g>
        <path id="Trazado_798959" data-name="Trazado 798959" d="M335.76,368.476q-.837-2.385-4.957-2.846L276.22,397.144v5.692Z" transform="translate(-190.049 -184.718)" fill="#455a64"/>
        <path id="Trazado_798960" data-name="Trazado 798960" d="M171.61,368.476q.842-2.385,4.963-2.846l54.577,31.514v5.692Z" transform="translate(-144.979 -184.718)" fill="#37474f"/>
        <path id="Trazado_798961" data-name="Trazado 798961" d="M246.173,334.219V251.144L231.29,233.956,206.48,219.63V311.3Z" transform="translate(-160.002 -121.815)" fill="#ff5a20"/>
        <path id="Trazado_798962" data-name="Trazado 798962" d="M246.173,334.219V251.144L231.29,233.956,206.48,219.63V311.3Z" transform="translate(-160.002 -121.815)" fill="#fff" opacity="0.45"/>
        <path id="Trazado_798963" data-name="Trazado 798963" d="M276.22,334.219,330.8,302.7V219.63L276.22,251.144Z" transform="translate(-190.049 -121.815)" fill="#ff5a20"/>
        <path id="Trazado_798964" data-name="Trazado 798964" d="M276.22,334.219,330.8,302.7V219.63L276.22,251.144Z" transform="translate(-190.049 -121.815)" fill="#fff" opacity="0.65"/>
        <path id="Trazado_798965" data-name="Trazado 798965" d="M300.756,195.779,285.866,178.6l-24.81-14.326L206.48,195.779,231.29,210.1l14.884,17.189Z" transform="translate(-160.002 -97.964)" fill="#ff5a20"/>
        <path id="Trazado_798966" data-name="Trazado 798966" d="M300.756,195.779,285.866,178.6l-24.81-14.326L206.48,195.779,231.29,210.1l14.884,17.189Z" transform="translate(-160.002 -97.964)" fill="#fff" opacity="0.75"/>
        <path id="Trazado_798967" data-name="Trazado 798967" d="M285.866,178.6,231.29,210.1l-24.81-14.326,54.577-31.509Z" transform="translate(-160.002 -97.964)" fill="#fff" opacity="0.25"/>
        <path id="Trazado_798968" data-name="Trazado 798968" d="M353.426,267.831l-5.84,3.352a3.671,3.671,0,0,0-1.656,2.846v3.347c0,1.059.746,1.486,1.656.956l5.84-3.352a3.654,3.654,0,0,0,1.656-2.846v-3.347C355.076,267.734,354.342,267.307,353.426,267.831Z" transform="translate(-220.083 -142.486)" fill="#455a64"/>
        <path id="Trazado_798969" data-name="Trazado 798969" d="M353.906,274.24l-.763-.438h0a1.013,1.013,0,0,0-1.013.1A3.193,3.193,0,0,0,350.7,276.4a1.013,1.013,0,0,0,.415.928h0l.706.4.125-.216a1.406,1.406,0,0,0,.415-.159,3.193,3.193,0,0,0,1.434-2.493,1.417,1.417,0,0,0-.046-.364Z" transform="translate(-222.134 -145.115)" fill="#ff5a20"/>
        <path id="Trazado_798970" data-name="Trazado 798970" d="M353.906,274.24l-.763-.438h0a1.013,1.013,0,0,0-1.013.1A3.193,3.193,0,0,0,350.7,276.4a1.013,1.013,0,0,0,.415.928h0l.706.4.125-.216a1.406,1.406,0,0,0,.415-.159,3.193,3.193,0,0,0,1.434-2.493,1.417,1.417,0,0,0-.046-.364Z" transform="translate(-222.134 -145.115)" opacity="0.2"/>
        <path id="Trazado_798971" data-name="Trazado 798971" d="M353.41,274.644a3.165,3.165,0,0,0-1.44,2.493c0,.916.643,1.286,1.44.831a3.193,3.193,0,0,0,1.434-2.493C354.833,274.553,354.2,274.194,353.41,274.644Z" transform="translate(-222.685 -145.434)" fill="#ff5a20"/>
        <path id="Trazado_798972" data-name="Trazado 798972" d="M353.41,274.644a3.165,3.165,0,0,0-1.44,2.493c0,.916.643,1.286,1.44.831a3.193,3.193,0,0,0,1.434-2.493C354.833,274.553,354.2,274.194,353.41,274.644Z" transform="translate(-222.685 -145.434)" fill="#fff" opacity="0.25"/>
        <path id="Trazado_798973" data-name="Trazado 798973" d="M353.426,242.825l-5.84,3.358a3.671,3.671,0,0,0-1.656,2.846v3.347c0,1.059.746,1.486,1.656.956l5.84-3.352a3.666,3.666,0,0,0,1.656-2.846v-3.352C355.076,242.717,354.342,242.29,353.426,242.825Z" transform="translate(-220.083 -131.709)" fill="#455a64"/>
        <path id="Trazado_798974" data-name="Trazado 798974" d="M353.906,249.22l-.763-.438h0a1.013,1.013,0,0,0-1.013.1,3.182,3.182,0,0,0-1.434,2.493,1.013,1.013,0,0,0,.415.928h0l.706.4.125-.211a1.405,1.405,0,0,0,.415-.159,3.193,3.193,0,0,0,1.434-2.493,1.5,1.5,0,0,0-.046-.37Z" transform="translate(-222.134 -134.336)" fill="#ff5a20"/>
        <path id="Trazado_798975" data-name="Trazado 798975" d="M353.906,249.22l-.763-.438h0a1.013,1.013,0,0,0-1.013.1,3.182,3.182,0,0,0-1.434,2.493,1.013,1.013,0,0,0,.415.928h0l.706.4.125-.211a1.405,1.405,0,0,0,.415-.159,3.193,3.193,0,0,0,1.434-2.493,1.5,1.5,0,0,0-.046-.37Z" transform="translate(-222.134 -134.336)" opacity="0.2"/>
        <path id="Trazado_798976" data-name="Trazado 798976" d="M353.41,249.628a3.165,3.165,0,0,0-1.44,2.487c0,.922.643,1.292,1.44.831a3.17,3.17,0,0,0,1.434-2.487C354.833,249.536,354.2,249.189,353.41,249.628Z" transform="translate(-222.685 -134.658)" fill="#ff5a20"/>
        <path id="Trazado_798977" data-name="Trazado 798977" d="M353.41,249.628a3.165,3.165,0,0,0-1.44,2.487c0,.922.643,1.292,1.44.831a3.17,3.17,0,0,0,1.434-2.487C354.833,249.536,354.2,249.189,353.41,249.628Z" transform="translate(-222.685 -134.658)" fill="#fff" opacity="0.25"/>
        <path id="Trazado_798978" data-name="Trazado 798978" d="M315.562,252.958l-28.316,16.335a2.021,2.021,0,0,0-.916,1.588v7.82c0,.569.41.82.916.529L315.562,262.9a2.021,2.021,0,0,0,.916-1.588V253.5C316.478,252.929,316.069,252.662,315.562,252.958Z" transform="translate(-194.405 -136.122)" fill="#455a64"/>
        <path id="Trazado_798979" data-name="Trazado 798979" d="M316.078,258.651a1.969,1.969,0,0,1-.916,1.525L290.306,274.53c-.507.29-.916.08-.916-.467a1.981,1.981,0,0,1,.916-1.525L315.184,258.2C315.668,257.894,316.078,258.1,316.078,258.651Z" transform="translate(-195.723 -138.371)" fill="#ff5a20"/>
        <path id="Trazado_798980" data-name="Trazado 798980" d="M316.078,258.651a1.969,1.969,0,0,1-.916,1.525L290.306,274.53c-.507.29-.916.08-.916-.467a1.981,1.981,0,0,1,.916-1.525L315.184,258.2C315.668,257.894,316.078,258.1,316.078,258.651Z" transform="translate(-195.723 -138.371)" fill="#fff" opacity="0.45"/>
        <path id="Trazado_798981" data-name="Trazado 798981" d="M290.306,287.637c-.5.3-.916.085-.916-.461a2,2,0,0,1,.916-1.531l11.133-6.414V281.2Z" transform="translate(-195.723 -147.493)" fill="#ff5a20"/>
        <path id="Trazado_798982" data-name="Trazado 798982" d="M325.176,265.629a1.964,1.964,0,0,1-.916,1.531l-13.74,7.911v-1.981l13.74-7.923C324.772,264.872,325.176,265.083,325.176,265.629Z" transform="translate(-204.827 -141.377)" fill="#263238"/>
        <path id="Trazado_798983" data-name="Trazado 798983" d="M315.562,278.054l-28.316,16.335a2.021,2.021,0,0,0-.916,1.588v7.82c0,.569.41.82.916.529l28.316-16.335a2.037,2.037,0,0,0,.916-1.588v-7.82C316.478,278,316.069,277.758,315.562,278.054Z" transform="translate(-194.405 -146.932)" fill="#455a64"/>
        <path id="Trazado_798984" data-name="Trazado 798984" d="M316.078,283.748a1.981,1.981,0,0,1-.916,1.525l-24.855,14.343c-.507.3-.916.085-.916-.461a1.969,1.969,0,0,1,.916-1.525l24.878-14.349C315.668,282.991,316.078,283.2,316.078,283.748Z" transform="translate(-195.723 -149.182)" fill="#ff5a20"/>
        <path id="Trazado_798985" data-name="Trazado 798985" d="M316.078,283.748a1.981,1.981,0,0,1-.916,1.525l-24.855,14.343c-.507.3-.916.085-.916-.461a1.969,1.969,0,0,1,.916-1.525l24.878-14.349C315.668,282.991,316.078,283.2,316.078,283.748Z" transform="translate(-195.723 -149.182)" fill="#fff" opacity="0.45"/>
        <path id="Trazado_798986" data-name="Trazado 798986" d="M290.306,314.206c-.5.3-.916.085-.916-.461a2,2,0,0,1,.916-1.531L298,307.78v1.986Z" transform="translate(-195.723 -159.794)" fill="#ff5a20"/>
        <path id="Trazado_798987" data-name="Trazado 798987" d="M322.569,290.729a1.964,1.964,0,0,1-.916,1.531l-17.183,9.9v-1.986l17.183-9.909C322.165,289.972,322.569,290.183,322.569,290.729Z" transform="translate(-202.22 -152.191)" fill="#263238"/>
        <path id="Trazado_798988" data-name="Trazado 798988" d="M326.546,297.584a.917.917,0,0,0-.933.091l-37.047,21.389a2.92,2.92,0,0,0-1.32,2.277v31.3a.922.922,0,0,0,.387.854l1.172.677a.922.922,0,0,0,.928-.091L326.785,332.7a2.943,2.943,0,0,0,1.32-2.277v-31.3a.922.922,0,0,0-.381-.848Z" transform="translate(-194.797 -155.363)" fill="#ff5a20"/>
        <path id="Trazado_798989" data-name="Trazado 798989" d="M326.546,297.584a.917.917,0,0,0-.933.091l-37.047,21.389a2.92,2.92,0,0,0-1.32,2.277v31.3a.922.922,0,0,0,.387.854l1.172.677a.922.922,0,0,0,.928-.091L326.785,332.7a2.943,2.943,0,0,0,1.32-2.277v-31.3a.922.922,0,0,0-.381-.848Z" transform="translate(-194.797 -155.363)" fill="#fff" opacity="0.45"/>
        <path id="Trazado_798990" data-name="Trazado 798990" d="M290.62,320.247l37.052-21.383c.729-.421,1.32-.08,1.32.763v31.3a2.942,2.942,0,0,1-1.32,2.277L290.62,354.641c-.729.421-1.32.08-1.32-.763v-31.3a2.92,2.92,0,0,1,1.32-2.328Z" transform="translate(-195.685 -155.874)" fill="#ff5a20"/>
        <path id="Trazado_798991" data-name="Trazado 798991" d="M290.62,320.247l37.052-21.383c.729-.421,1.32-.08,1.32.763v31.3a2.942,2.942,0,0,1-1.32,2.277L290.62,354.641c-.729.421-1.32.08-1.32-.763v-31.3a2.92,2.92,0,0,1,1.32-2.328Z" transform="translate(-195.685 -155.874)" fill="#fff" opacity="0.35"/>
        <path id="Trazado_798992" data-name="Trazado 798992" d="M289.92,397.08a.467.467,0,0,0,.2.1.962.962,0,0,1-.159-.068Z" transform="translate(-195.952 -198.268)" fill="#ff5a20"/>
        <path id="Trazado_798993" data-name="Trazado 798993" d="M290.74,397.246a1.352,1.352,0,0,0,.194-.046A1.352,1.352,0,0,1,290.74,397.246Z" transform="translate(-196.305 -198.319)" fill="#ff5a20"/>
        <path id="Trazado_798994" data-name="Trazado 798994" d="M290.42,397.27a.966.966,0,0,0,.182,0A.966.966,0,0,1,290.42,397.27Z" transform="translate(-196.167 -198.35)" fill="#ff5a20"/>
        <path id="Trazado_798995" data-name="Trazado 798995" d="M288.412,370.439a1.03,1.03,0,0,0,.29.791l-1.076-.615a.911.911,0,0,1-.381-.848v-31.3a2.652,2.652,0,0,1,.387-1.3l1.138.672a2.722,2.722,0,0,0-.381,1.309Z" transform="translate(-194.797 -172.452)" fill="#ff5a20" opacity="0.5"/>
        <path id="Trazado_798996" data-name="Trazado 798996" d="M321.718,324.164c-2.186-1.264-5.009-1.025-7.968.666-5.692,3.278-10.12,10.973-10.12,17.524,0,3.387,1.207,5.948,3.415,7.211a6.1,6.1,0,0,0,3.079.8,9.864,9.864,0,0,0,4.861-1.468c5.692-3.273,10.12-10.973,10.12-17.524C325.116,327.989,323.909,325.433,321.718,324.164Zm.956,7.211a16.505,16.505,0,0,1-1.3,6.079,12,12,0,0,1-6.039-.837,36.325,36.325,0,0,1,6.54-8.879,7.5,7.5,0,0,1,.8,3.637Zm-4.035-5.566a3.665,3.665,0,0,1,1.873.472,3.273,3.273,0,0,1,.433.3,38.861,38.861,0,0,0-6.153,7.968,24.1,24.1,0,0,1,.131-7.53l.085-.057A7.444,7.444,0,0,1,318.639,325.809Zm-5.4,2.362a28.071,28.071,0,0,0,.268,7.854,11.719,11.719,0,0,1-4.866-2.277,19.659,19.659,0,0,1,4.587-5.578Zm-5.293,6.9a13.757,13.757,0,0,0,4.849,2.322,44.435,44.435,0,0,0-6.2,7.923,8.219,8.219,0,0,1-.489-2.96,17.326,17.326,0,0,1,1.827-7.285Zm.336,12.379a3.522,3.522,0,0,1-.831-.689,43.62,43.62,0,0,1,5.874-7.78,25.538,25.538,0,0,0,.125,7.968c-2.026,1.087-3.848,1.252-5.179.5Zm6.523-1.326a25.874,25.874,0,0,1,.142-8.048,12.914,12.914,0,0,0,5.02.951h.717a19.59,19.59,0,0,1-5.891,7.1Z" transform="translate(-201.859 -166.508)" fill="#ff5a20" opacity="0.5"/>
        <path id="Trazado_798997" data-name="Trazado 798997" d="M320.067,346.715a12.426,12.426,0,0,1-7.587-3.546l1.07-1.019a10.784,10.784,0,0,0,6.517,3.085Z" transform="translate(-205.671 -174.602)" fill="#37474f"/>
        <path id="Trazado_798998" data-name="Trazado 798998" d="M311.711,359.245l-1.281-.734a44.706,44.706,0,0,1,8.241-10.581l1.019,1.076A43.454,43.454,0,0,0,311.711,359.245Z" transform="translate(-204.788 -177.092)" fill="#37474f"/>
        <path id="Trazado_798999" data-name="Trazado 798999" d="M324.088,359.926a26.247,26.247,0,0,1,0-11.286l1.451.268a24.971,24.971,0,0,0,0,10.66Z" transform="translate(-210.41 -177.398)" fill="#37474f"/>
        <path id="Trazado_799000" data-name="Trazado 799000" d="M331.007,350.619c-2.277,0-4.906-.569-6.067-1.611l.99-1.1c1.167,1.059,5.692,1.622,7.319.916l.569,1.355A7.548,7.548,0,0,1,331.007,350.619Z" transform="translate(-211.04 -177.083)" fill="#37474f"/>
        <path id="Trazado_799001" data-name="Trazado 799001" d="M325.988,340.717l-1.338-.626a36.677,36.677,0,0,1,8.207-10.871l.951,1.138A35.065,35.065,0,0,0,325.988,340.717Z" transform="translate(-210.915 -169.031)" fill="#37474f"/>
        <path id="Trazado_799002" data-name="Trazado 799002" d="M324.076,340.566a26.747,26.747,0,0,1,0-11.286l1.44.347a25.32,25.32,0,0,0,0,10.666Z" transform="translate(-210.409 -169.057)" fill="#37474f"/>
        <path id="Trazado_799003" data-name="Trazado 799003" d="M313.42,352.148a6.1,6.1,0,0,1-3.085-.8c-2.186-1.269-3.415-3.83-3.415-7.217,0-6.551,4.445-14.229,10.114-17.519,2.937-1.708,5.754-1.929,7.968-.666s3.415,3.825,3.415,7.211c0,6.551-4.439,14.229-10.114,17.524a9.852,9.852,0,0,1-4.883,1.463Zm8.492-24.559a7.49,7.49,0,0,0-3.631,1.138c-4.906,2.846-8.9,9.744-8.9,15.407,0,2.482.774,4.291,2.174,5.122s3.352.569,5.5-.666h0c4.906-2.846,8.9-9.744,8.9-15.407,0-2.476-.768-4.286-2.174-5.122A3.7,3.7,0,0,0,321.912,327.589Z" transform="translate(-203.276 -167.275)" fill="#455a64"/>
        <path id="Trazado_799004" data-name="Trazado 799004" d="M328.437,346.037l-2.778-1.611h0a1.292,1.292,0,0,0-1.275.131,3.984,3.984,0,0,0-1.81,3.136,1.275,1.275,0,0,0,.529,1.172h0l2.732,1.571.159-.268a2,2,0,0,0,.524-.2,4.024,4.024,0,0,0,1.81-3.142,1.929,1.929,0,0,0-.057-.461Z" transform="translate(-210.018 -175.535)" fill="#263238"/>
        <path id="Trazado_799005" data-name="Trazado 799005" d="M329.19,347.334a4.018,4.018,0,0,0-1.81,3.136c0,1.138.814,1.628,1.81,1.047a3.984,3.984,0,0,0,1.816-3.136C331.006,347.226,330.192,346.759,329.19,347.334Z" transform="translate(-212.091 -176.729)" fill="#455a64"/>
        <g id="freepik--Keyboard--inject-11" transform="translate(79.506 85.723)">
          <path id="Trazado_799006" data-name="Trazado 799006" d="M318.1,209.892a.632.632,0,0,0-.148-.569l-9.192-10.592a1.138,1.138,0,0,0-1.372-.154l-42.032,24.292a.848.848,0,0,0-.415.518c-.051.2-.37,1.486-.415,1.707a.632.632,0,0,0,.148.569l9.186,10.586a1.138,1.138,0,0,0,1.372.159l42.021-24.263a.854.854,0,0,0,.421-.518C317.721,211.423,318.051,210.1,318.1,209.892Z" transform="translate(-264.511 -198.399)" fill="#37474f"/>
          <path id="Trazado_799007" data-name="Trazado 799007" d="M274.605,234.507l-9.2-10.547a.711.711,0,0,1,.268-1.1l42.032-24.309a1.138,1.138,0,0,1,1.372.154l9.192,10.592A.717.717,0,0,1,318,210.4l-42.021,24.258A1.138,1.138,0,0,1,274.605,234.507Z" transform="translate(-264.828 -198.386)" fill="#455a64"/>
          <path id="Trazado_799008" data-name="Trazado 799008" d="M274.869,253.72l-.421,1.707a1,1,0,0,1-.569-.3l-9.2-10.575a.632.632,0,0,1-.148-.569l.415-1.707a.632.632,0,0,0,.148.569l9.192,10.552A.979.979,0,0,0,274.869,253.72Z" transform="translate(-264.511 -217.297)" fill="#263238"/>
          <path id="Trazado_799009" data-name="Trazado 799009" d="M277.242,234.519h0l-.911-1.053,1.85-1.064.945,1.059-1.85,1.064Zm-1.429-1.639-.911-1.047L276.36,231l.945,1.059-1.451.837Zm3.984.148h0l-.9-1.03,1.451-.837.945,1.059-1.451.837Zm-5.435-1.793h0l-.911-1.047,2.345-1.355.951,1.059-2.345,1.355Zm3.614.381a.034.034,0,0,1-.028,0l-.911-1.047,1.138-.666.951,1.059-1.138.666Zm3.984.154h-.028l-.9-1.047,1.451-.842.945,1.059-1.406.825Zm-2.123-1.241h0l-.911-1.047,1.138-.666.945,1.059-1.138.666Zm-6.921-.933h0l-.911-1.047,1.85-1.064.945,1.059-1.844,1.064Zm11.23.911h0l-.911-1.047,10.49-6.062.951,1.064-10.5,6.056Zm-6.682-1.047h0l-.911-1.047,1.138-.666.945,1.059-1.138.666Zm4.309,0h0l-.911-1.047,1.138-.666.945,1.059-1.138.666Zm-10.245-1.48H271.5l-.865-1.1,1.138-.666.951,1.059-1.138.666Zm3.984.148h0l-.894-1.081,1.138-.666.945,1.059-1.138.666Zm3.808.267h0l-.911-1.047,1.138-.666.945,1.059-1.138.666Zm4.309,0h0l-.911-1.047,1.138-.666.951,1.059-1.138.666Zm-10.245-1.486h-.028l-.911-1.053,1.138-.666.945,1.059-1.138.666Zm3.984.154h0l-.9-1.047,1.138-.666.951,1.059-1.138.666Zm3.808.262h0l-.911-1.047,1.138-.666.951,1.059-1.138.666Zm-11.434-1.315h0l-.911-1.047,1.451-.837.945,1.059-1.446.837Zm15.737,1.292h0l-.911-1.047,1.138-.666.945,1.059-1.138.666Zm-10.245-1.48h0l-.911-1.047,1.138-.666.945,1.059-1.138.666Zm3.984.148h0l-.911-1.047,1.138-.666.945,1.059-1.138.666Zm3.808.268h0l-.911-1.047,1.138-.666.945,1.059-1.138.666Zm4.309,0h0l-.911-1.047,1.138-.666.945,1.059-1.138.666ZM272.712,224.3h0l-.911-1.047,1.138-.666.945,1.059-1.138.666Zm4.388.455h-.028l-.9-1.053,1.138-.666,1.07,1-1.138.66Zm3.984.154h0l-.911-1.047,1.138-.666.945,1.059-1.138.666Zm3.808.262h0l-.911-1.047,1.138-.666.945,1.059-1.138.666Zm4.309,0h-.028l-.78-1.138,1.138-.666.951,1.064-1.138.66Zm-14.622-1.941h0l-.911-1.053,1.138-.666.945,1.059-1.138.666Zm4.383.461-.911-1.047,1.138-.666.945,1.059L279,223.7Zm4.013.148a.034.034,0,0,1-.028,0l-.9-1.047,1.138-.666.951,1.059-1.138.666Zm3.808.268h0l-.911-1.047,1.138-.666.951,1.059-1.138.666Zm4.3,0h0l-.911-1.047,1.138-.666.945,1.059-1.138.666Zm-14.616-1.941a.034.034,0,0,1-.028,0l-.9-1.047,1.138-.666.951,1.059-1.138.666Zm4.383.455h0l-.911-1.053,1.138-.666.945,1.064-1.138.66Zm14.57,1.412h0l-.911-1.047,1.451-.837.951,1.059-1.474.825Zm-10.433-1.366h0l-.911-1.047,1.138-.666.945,1.059-1.138.666Zm3.808.262h0l-.911-1.053,1.138-.666.945,1.059-1.138.666Zm4.309,0h0l-.911-1.053,1.138-.666.945,1.064-1.138.66Zm-14.622-1.941h0l-.911-1.053,1.138-.666.945,1.059-1.138.666Zm4.388.461h-.028l-.9-1.047,1.138-.666.951,1.059-1.138.666Zm3.984.148h0l-.911-1.047,1.138-.666.945,1.059-1.138.666Zm10.729,1.2h0l-.911-1.047,1.451-.837.968,1.019-1.451.837Zm-6.921-.928h0l-.911-1.047,1.138-.666.945,1.059-1.138.666Zm4.309,0h-.028l-.911-1.047,1.138-.666.945,1.059-1.138.666Zm-10.245-1.486h0l-.911-1.053,1.138-.666.945,1.064-1.138.66Zm4.013.154h-.028l-.911-1.047,1.138-.666.945,1.059-1.138.666Zm3.808.262h0l-.911-1.053,1.138-.666.951,1.059-1.138.666Zm-11.383-1.349h0l-.911-1.047,1.138-.666.945,1.059-1.138.666Zm18.6,2.106h0l-.911-1.047,1.451-.842.951,1.059-1.451.842Zm-2.914-.78h0l-.911-1.053,1.138-.666.945,1.064-1.138.66Zm-10.245-1.48h0l-.911-1.047,1.138-.666.945,1.059-1.138.666Zm3.984.148h0l-.911-1.053,1.138-.666.945,1.059-1.138.666Zm3.808.268h0l-.911-1.047,1.138-.666.945,1.059-1.138.666Zm-11.383-1.349h0l-.911-1.047,1.138-.666.945,1.059-1.138.666Zm18.9,1.935h0L301,219.243l1.85-1.07.945,1.059-1.844,1.07Zm-3.21-.609h0l-.911-1.047,3.637-2.1.945,1.059-3.637,2.1ZM288.455,218.2h-.028l-.9-1.053,1.138-.66.951,1.059-1.138.66Zm3.984.154h0l-.911-1.047,1.138-.666.945,1.059-1.138.666Zm3.808.262h0l-.911-1.053,1.138-.666.945,1.059-1.138.666Zm-11.383-1.343h0l-.911-1.047,1.138-.666.951,1.059-1.138.666Zm5.447-.159h0l-.911-1.047,1.138-.666.945,1.059-1.138.666Zm14.542,1.457h0l-.911-1.053,1.138-.66.945,1.059-1.138.66Zm-10.529-1.309h-.028l-.911-1.053,1.138-.666.945,1.059-1.138.666Zm3.808.267h0l-.911-1.047,1.053-.609a.347.347,0,0,0,.154-.211.29.29,0,0,0-.046-.25l-1.2-1.377,1.349-.78,2.373,2.7-2.743,1.588Zm-11.383-1.349h0l-.911-1.047,1.138-.666.945,1.059-1.138.666Zm5.453-.159h0l-.911-1.047,1.138-.666.945,1.059-1.138.66Zm14.542,1.463a.034.034,0,0,1-.028,0l-.791-1.11,1.138-.666.951,1.059-1.138.666Zm-10.535-1.309h0l-.911-1.047,1.138-.666.945,1.059-1.138.666Zm-6.75-1.56h0l-.911-1.053,1.138-.666.945,1.059-1.138.666Zm4.633.319-.9-1.047,1.138-.666.951,1.059-1.138.666Zm14.536,1.457h0l-.911-1.047,1.138-.666.945,1.059-1.138.66Zm-3.313-.569h0l-.911-1.047,1.138-.666.945,1.059-1.138.666ZM291.346,213.5h0l-.911-1.047,1.138-.666.945,1.059-1.138.666Zm4.627.313h0l-.911-1.047,2.049-1.184.951,1.059-2.049,1.178Zm15.071,1.207h0l-.911-1.047,3.039-1.759.951,1.059Zm-10.336-1.429h0l-.911-1.053,1.138-.666.945,1.059-1.138.666Zm-7.342-1.212h0l-.9-1.053,1.138-.666.951,1.059-1.138.666Zm16.255,1h0l-.9-1.053,1.138-.666.951,1.059-1.138.666ZM302.6,212.5h0l-.911-1.047,1.138-.666.945,1.059-1.138.666Zm-3.312-.569h0l-.911-1.047,1.138-.666.945,1.059-1.138.666Zm-4.035-.66h0l-.911-1.047,1.138-.666.945,1.059-1.138.666Zm19.568,1.548h0l-.911-1.047,1.138-.666.945,1.059-1.138.666Zm-3.312-.569h0l-.911-1.047,1.138-.666.945,1.059-1.138.666Zm-7.018-.876h-.028l-.928-1.007,1.138-.666.951,1.064-1.138.66Zm3.705.324-.911-1.047,1.138-.666.945,1.059-1.138.666Zm-7.018-.877h-.028l-.916-1.024,1.138-.666.951,1.059-1.138.66Zm-3.62-.9h0l-.911-1.047,1.138-.666.945,1.059-1.138.666Zm19.152,1.787a.034.034,0,0,1-.028,0l-2.334-2.686,1.138-.666,2.373,2.7-1.138.666Zm-3.312-.569h0l-.911-1.053,1.138-.666.945,1.059-1.138.666Zm-3.313-.569h0l-.911-1.047,1.138-.666.945,1.059-1.138.66Zm-7.046-.774h0l-.911-1.047,1.138-.666.945,1.059-1.133.655Zm3.711.324h0l-.911-1.047,1.138-.666.945,1.059-1.138.666Zm-7.325-1.229h0l-.911-1.047,1.138-.666.945,1.059-1.138.66Zm12.522.689-.9-1.087,1.138-.666.951,1.059-1.138.666Zm-3.312-.569h0l-.911-1.047,1.138-.666.951,1.059-1.138.666Zm-3.312-.569h0l-.911-1.053,1.138-.666.951,1.059-1.138.666Zm-4.013-.672-.9-1.047,1.138-.666.951,1.059-1.138.666Zm12.521.683h0l-2.334-2.692,1.138-.666,2.373,2.7-1.138.666Zm-3.312-.569h0l-.911-1.047,1.138-.666.945,1.059-1.138.666Zm-3.312-.569h0l-.916-1.047,1.138-.666.945,1.059-1.138.666Zm-3.984-1.326h0l-.4-.444,1.138-.666.427.461-1.138.66Zm5.868.233h0l-.911-1.053,1.138-.666.945,1.059-1.138.666Zm-3.984-1.32h0l-.393-.45,1.138-.666.433.461-1.138.666Zm5.868.233h0l-.911-1.047,1.138-.666.951,1.059-1.138.666Zm-3.984-1.326h0l-.4-.444,1.138-.666.427.461-1.138.66Zm1.89-1.087h0l-.4-.45,1.138-.666.427.461-1.138.666Z" transform="translate(-266.372 -199.775)" fill="#ff5a20"/>
          <path id="Trazado_799010" data-name="Trazado 799010" d="M277.242,234.519h0l-.911-1.053,1.85-1.064.945,1.059-1.85,1.064Zm-1.429-1.639-.911-1.047L276.36,231l.945,1.059-1.451.837Zm3.984.148h0l-.9-1.03,1.451-.837.945,1.059-1.451.837Zm-5.435-1.793h0l-.911-1.047,2.345-1.355.951,1.059-2.345,1.355Zm3.614.381a.034.034,0,0,1-.028,0l-.911-1.047,1.138-.666.951,1.059-1.138.666Zm3.984.154h-.028l-.9-1.047,1.451-.842.945,1.059-1.406.825Zm-2.123-1.241h0l-.911-1.047,1.138-.666.945,1.059-1.138.666Zm-6.921-.933h0l-.911-1.047,1.85-1.064.945,1.059-1.844,1.064Zm11.23.911h0l-.911-1.047,10.49-6.062.951,1.064-10.5,6.056Zm-6.682-1.047h0l-.911-1.047,1.138-.666.945,1.059-1.138.666Zm4.309,0h0l-.911-1.047,1.138-.666.945,1.059-1.138.666Zm-10.245-1.48H271.5l-.865-1.1,1.138-.666.951,1.059-1.138.666Zm3.984.148h0l-.894-1.081,1.138-.666.945,1.059-1.138.666Zm3.808.267h0l-.911-1.047,1.138-.666.945,1.059-1.138.666Zm4.309,0h0l-.911-1.047,1.138-.666.951,1.059-1.138.666Zm-10.245-1.486h-.028l-.911-1.053,1.138-.666.945,1.059-1.138.666Zm3.984.154h0l-.9-1.047,1.138-.666.951,1.059-1.138.666Zm3.808.262h0l-.911-1.047,1.138-.666.951,1.059-1.138.666Zm-11.434-1.315h0l-.911-1.047,1.451-.837.945,1.059-1.446.837Zm15.737,1.292h0l-.911-1.047,1.138-.666.945,1.059-1.138.666Zm-10.245-1.48h0l-.911-1.047,1.138-.666.945,1.059-1.138.666Zm3.984.148h0l-.911-1.047,1.138-.666.945,1.059-1.138.666Zm3.808.268h0l-.911-1.047,1.138-.666.945,1.059-1.138.666Zm4.309,0h0l-.911-1.047,1.138-.666.945,1.059-1.138.666ZM272.712,224.3h0l-.911-1.047,1.138-.666.945,1.059-1.138.666Zm4.388.455h-.028l-.9-1.053,1.138-.666,1.07,1-1.138.66Zm3.984.154h0l-.911-1.047,1.138-.666.945,1.059-1.138.666Zm3.808.262h0l-.911-1.047,1.138-.666.945,1.059-1.138.666Zm4.309,0h-.028l-.78-1.138,1.138-.666.951,1.064-1.138.66Zm-14.622-1.941h0l-.911-1.053,1.138-.666.945,1.059-1.138.666Zm4.383.461-.911-1.047,1.138-.666.945,1.059L279,223.7Zm4.013.148a.034.034,0,0,1-.028,0l-.9-1.047,1.138-.666.951,1.059-1.138.666Zm3.808.268h0l-.911-1.047,1.138-.666.951,1.059-1.138.666Zm4.3,0h0l-.911-1.047,1.138-.666.945,1.059-1.138.666Zm-14.616-1.941a.034.034,0,0,1-.028,0l-.9-1.047,1.138-.666.951,1.059-1.138.666Zm4.383.455h0l-.911-1.053,1.138-.666.945,1.064-1.138.66Zm14.57,1.412h0l-.911-1.047,1.451-.837.951,1.059-1.474.825Zm-10.433-1.366h0l-.911-1.047,1.138-.666.945,1.059-1.138.666Zm3.808.262h0l-.911-1.053,1.138-.666.945,1.059-1.138.666Zm4.309,0h0l-.911-1.053,1.138-.666.945,1.064-1.138.66Zm-14.622-1.941h0l-.911-1.053,1.138-.666.945,1.059-1.138.666Zm4.388.461h-.028l-.9-1.047,1.138-.666.951,1.059-1.138.666Zm3.984.148h0l-.911-1.047,1.138-.666.945,1.059-1.138.666Zm10.729,1.2h0l-.911-1.047,1.451-.837.968,1.019-1.451.837Zm-6.921-.928h0l-.911-1.047,1.138-.666.945,1.059-1.138.666Zm4.309,0h-.028l-.911-1.047,1.138-.666.945,1.059-1.138.666Zm-10.245-1.486h0l-.911-1.053,1.138-.666.945,1.064-1.138.66Zm4.013.154h-.028l-.911-1.047,1.138-.666.945,1.059-1.138.666Zm3.808.262h0l-.911-1.053,1.138-.666.951,1.059-1.138.666Zm-11.383-1.349h0l-.911-1.047,1.138-.666.945,1.059-1.138.666Zm18.6,2.106h0l-.911-1.047,1.451-.842.951,1.059-1.451.842Zm-2.914-.78h0l-.911-1.053,1.138-.666.945,1.064-1.138.66Zm-10.245-1.48h0l-.911-1.047,1.138-.666.945,1.059-1.138.666Zm3.984.148h0l-.911-1.053,1.138-.666.945,1.059-1.138.666Zm3.808.268h0l-.911-1.047,1.138-.666.945,1.059-1.138.666Zm-11.383-1.349h0l-.911-1.047,1.138-.666.945,1.059-1.138.666Zm18.9,1.935h0L301,219.243l1.85-1.07.945,1.059-1.844,1.07Zm-3.21-.609h0l-.911-1.047,3.637-2.1.945,1.059-3.637,2.1ZM288.455,218.2h-.028l-.9-1.053,1.138-.66.951,1.059-1.138.66Zm3.984.154h0l-.911-1.047,1.138-.666.945,1.059-1.138.666Zm3.808.262h0l-.911-1.053,1.138-.666.945,1.059-1.138.666Zm-11.383-1.343h0l-.911-1.047,1.138-.666.951,1.059-1.138.666Zm5.447-.159h0l-.911-1.047,1.138-.666.945,1.059-1.138.666Zm14.542,1.457h0l-.911-1.053,1.138-.66.945,1.059-1.138.66Zm-10.529-1.309h-.028l-.911-1.053,1.138-.666.945,1.059-1.138.666Zm3.808.267h0l-.911-1.047,1.053-.609a.347.347,0,0,0,.154-.211.29.29,0,0,0-.046-.25l-1.2-1.377,1.349-.78,2.373,2.7-2.743,1.588Zm-11.383-1.349h0l-.911-1.047,1.138-.666.945,1.059-1.138.666Zm5.453-.159h0l-.911-1.047,1.138-.666.945,1.059-1.138.66Zm14.542,1.463a.034.034,0,0,1-.028,0l-.791-1.11,1.138-.666.951,1.059-1.138.666Zm-10.535-1.309h0l-.911-1.047,1.138-.666.945,1.059-1.138.666Zm-6.75-1.56h0l-.911-1.053,1.138-.666.945,1.059-1.138.666Zm4.633.319-.9-1.047,1.138-.666.951,1.059-1.138.666Zm14.536,1.457h0l-.911-1.047,1.138-.666.945,1.059-1.138.66Zm-3.313-.569h0l-.911-1.047,1.138-.666.945,1.059-1.138.666ZM291.346,213.5h0l-.911-1.047,1.138-.666.945,1.059-1.138.666Zm4.627.313h0l-.911-1.047,2.049-1.184.951,1.059-2.049,1.178Zm15.071,1.207h0l-.911-1.047,3.039-1.759.951,1.059Zm-10.336-1.429h0l-.911-1.053,1.138-.666.945,1.059-1.138.666Zm-7.342-1.212h0l-.9-1.053,1.138-.666.951,1.059-1.138.666Zm16.255,1h0l-.9-1.053,1.138-.666.951,1.059-1.138.666ZM302.6,212.5h0l-.911-1.047,1.138-.666.945,1.059-1.138.666Zm-3.312-.569h0l-.911-1.047,1.138-.666.945,1.059-1.138.666Zm-4.035-.66h0l-.911-1.047,1.138-.666.945,1.059-1.138.666Zm19.568,1.548h0l-.911-1.047,1.138-.666.945,1.059-1.138.666Zm-3.312-.569h0l-.911-1.047,1.138-.666.945,1.059-1.138.666Zm-7.018-.876h-.028l-.928-1.007,1.138-.666.951,1.064-1.138.66Zm3.705.324-.911-1.047,1.138-.666.945,1.059-1.138.666Zm-7.018-.877h-.028l-.916-1.024,1.138-.666.951,1.059-1.138.66Zm-3.62-.9h0l-.911-1.047,1.138-.666.945,1.059-1.138.666Zm19.152,1.787a.034.034,0,0,1-.028,0l-2.334-2.686,1.138-.666,2.373,2.7-1.138.666Zm-3.312-.569h0l-.911-1.053,1.138-.666.945,1.059-1.138.666Zm-3.313-.569h0l-.911-1.047,1.138-.666.945,1.059-1.138.66Zm-7.046-.774h0l-.911-1.047,1.138-.666.945,1.059-1.133.655Zm3.711.324h0l-.911-1.047,1.138-.666.945,1.059-1.138.666Zm-7.325-1.229h0l-.911-1.047,1.138-.666.945,1.059-1.138.66Zm12.522.689-.9-1.087,1.138-.666.951,1.059-1.138.666Zm-3.312-.569h0l-.911-1.047,1.138-.666.951,1.059-1.138.666Zm-3.312-.569h0l-.911-1.053,1.138-.666.951,1.059-1.138.666Zm-4.013-.672-.9-1.047,1.138-.666.951,1.059-1.138.666Zm12.521.683h0l-2.334-2.692,1.138-.666,2.373,2.7-1.138.666Zm-3.312-.569h0l-.911-1.047,1.138-.666.945,1.059-1.138.666Zm-3.312-.569h0l-.916-1.047,1.138-.666.945,1.059-1.138.666Zm-3.984-1.326h0l-.4-.444,1.138-.666.427.461-1.138.66Zm5.868.233h0l-.911-1.053,1.138-.666.945,1.059-1.138.666Zm-3.984-1.32h0l-.393-.45,1.138-.666.433.461-1.138.666Zm5.868.233h0l-.911-1.047,1.138-.666.951,1.059-1.138.666Zm-3.984-1.326h0l-.4-.444,1.138-.666.427.461-1.138.66Zm1.89-1.087h0l-.4-.45,1.138-.666.427.461-1.138.666Z" transform="translate(-266.372 -199.775)" fill="#fff" opacity="0.25"/>
        </g>
        <g id="freepik--Pipe--inject-11" transform="translate(0 118.956)">
          <g id="freepik--pipe--inject-11-2" data-name="freepik--pipe--inject-11" transform="translate(9.585 21.642)">
            <path id="Trazado_799011" data-name="Trazado 799011" d="M234.689,355.284a9.146,9.146,0,0,1-4.553-1.372c-5.265-3.034-9.385-10.171-9.385-16.25,0-3.159,1.138-5.549,3.182-6.733s4.69-.968,7.4.615c5.265,3.034,9.385,10.171,9.385,16.25,0,3.159-1.138,5.549-3.182,6.733A5.691,5.691,0,0,1,234.689,355.284Zm-7.832-22.664a3.341,3.341,0,0,0-1.679.421c-1.264.734-1.958,2.373-1.958,4.622,0,5.2,3.66,11.537,8.156,14.138,1.952,1.138,3.722,1.343,4.98.615s1.958-2.373,1.958-4.622c0-5.2-3.66-11.537-8.156-14.138a6.8,6.8,0,0,0-3.3-1.036Z" transform="translate(-175.735 -310.042)" fill="#263238"/>
            <path id="Trazado_799012" data-name="Trazado 799012" d="M204.232,329.4a19.061,19.061,0,0,0-5.424-9.4c-3.529-3.341-6.893-4.081-9.107-2.812l-21.23,12.254a1.349,1.349,0,0,1-2.026-1.167V294.8H141.67v45.806a19.05,19.05,0,0,0,28.543,16.506l31.907-18.418h0C204.323,337.407,205.359,334.123,204.232,329.4Z" transform="translate(-141.664 -294.8)" fill="#455a64"/>
            <path id="Trazado_799013" data-name="Trazado 799013" d="M146.309,340.384V294.8H141.67v45.806a19.05,19.05,0,0,0,28.543,16.506l31.907-18.418h0c1.855-1.07,2.88-3.574,2.482-7.16l-36.825,21.258a14.309,14.309,0,0,1-21.469-12.408Z" transform="translate(-141.664 -294.8)" fill="#37474f"/>
            <g id="Grupo_1065069" data-name="Grupo 1065069" transform="translate(24.798 21.807)" opacity="0.1">
              <path id="Trazado_799014" data-name="Trazado 799014" d="M208.486,333.7l-21.23,12.254a1.349,1.349,0,0,1-2.026-1.167v2.277a5.009,5.009,0,0,0,7.513,4.337l25.168-14.531c-.114-.114-.222-.233-.336-.341C214.047,333.169,210.711,332.429,208.486,333.7Z" transform="translate(-185.23 -333.115)" fill="#fff"/>
            </g>
            <path id="Trazado_799015" data-name="Trazado 799015" d="M141.66,342.113c0,1.827,1.218,3.654,3.631,5.043,4.844,2.8,12.7,2.8,17.542,0,2.425-1.4,3.637-3.233,3.637-5.066v.831c0,1.833-1.212,3.665-3.637,5.066-4.844,2.795-12.7,2.795-17.542,0-2.413-1.394-3.626-3.221-3.631-5.048Z" transform="translate(-141.66 -315.174)" fill="#263238"/>
            <path id="Trazado_799016" data-name="Trazado 799016" d="M201.439,376.251c1.577-.922,2.556-2.886,2.556-5.692,0-5.589-3.927-12.4-8.771-15.191-2.425-1.4-4.616-1.531-6.2-.615l.723-.416c1.588-.916,3.779-.785,6.2.615,4.844,2.795,8.771,9.6,8.771,15.191,0,2.789-.973,4.752-2.55,5.692Z" transform="translate(-162.065 -320.2)" fill="#263238"/>
            <path id="Trazado_799017" data-name="Trazado 799017" d="M146.8,316.19a.746.746,0,1,0,.746.746A.746.746,0,0,0,146.8,316.19Zm5.3,1.981a.746.746,0,1,0,.535.22.746.746,0,0,0-.535-.22Zm13.017-1.981a.74.74,0,1,0,.525.219A.746.746,0,0,0,165.117,316.19Zm-5.3,1.981a.746.746,0,1,0,.74.746A.746.746,0,0,0,159.812,318.171Z" transform="translate(-143.551 -304.016)" fill="#263238"/>
            <path id="Trazado_799018" data-name="Trazado 799018" d="M146.8,358a.746.746,0,1,0,.746.746A.746.746,0,0,0,146.8,358Zm5.3,1.986a.734.734,0,1,1,0,.023ZM165.117,358a.746.746,0,1,0,.74.746.746.746,0,0,0-.74-.746Zm-5.3,1.986a.734.734,0,1,1,0,.023Z" transform="translate(-143.551 -322.029)" fill="#263238"/>
            <path id="Trazado_799019" data-name="Trazado 799019" d="M215.985,367.324a.74.74,0,1,0,.273-1.013A.74.74,0,0,0,215.985,367.324Zm-.933-5.583a.289.289,0,1,0-.011,0Zm-8.224-10.279a.289.289,0,1,0-.011,0Zm4.371,3.6a.289.289,0,1,0-.011,0Z" transform="translate(-169.689 -318.729)" fill="#263238"/>
          </g>
          <g id="freepik--Funnel--inject-11">
            <path id="Trazado_799020" data-name="Trazado 799020" d="M168.175,288H129.33l8.019,11.019h0a8.429,8.429,0,0,0,2.618,2.237c4.844,2.795,12.7,2.795,17.541,0a8.537,8.537,0,0,0,2.624-2.237h0Z" transform="translate(-126.763 -270.228)" fill="#263238"/>
            <ellipse id="Elipse_8340" data-name="Elipse 8340" cx="21.053" cy="12.152" rx="21.053" ry="12.152" transform="translate(0.933 0.896)" fill="#455a64"/>
            <path id="Trazado_799021" data-name="Trazado 799021" d="M166.241,294.227a8.338,8.338,0,0,0-2.715-2.356c-4.844-2.8-12.7-2.8-17.542,0a8.4,8.4,0,0,0-2.715,2.356A34.571,34.571,0,0,0,166.241,294.227Z" transform="translate(-132.769 -270.991)" fill="#263238"/>
            <path id="Trazado_799022" data-name="Trazado 799022" d="M146.807,282.874a31.555,31.555,0,0,1-15.367-3.66h0c-4.269-2.47-6.619-5.8-6.619-9.391s2.351-6.921,6.619-9.385c8.463-4.883,22.2-4.883,30.689,0,4.269,2.464,6.625,5.8,6.625,9.385s-2.356,6.921-6.625,9.391A31.08,31.08,0,0,1,146.807,282.874Zm-14.428-5.248c7.968,4.593,20.9,4.593,28.856,0,3.682-2.123,5.692-4.895,5.692-7.8s-2.026-5.692-5.692-7.8c-7.968-4.593-20.9-4.593-28.856,0-3.677,2.123-5.692,4.895-5.692,7.8S128.713,275.515,132.378,277.626Z" transform="translate(-124.82 -256.775)" fill="#37474f"/>
            <path id="Trazado_799023" data-name="Trazado 799023" d="M149.247,278.835c-.689-2.311-1.673-4.553-2.476-6.83s-1.44-4.61-2.322-6.83c-.1-.245-.336-.137-.3.1a38.906,38.906,0,0,0,1.85,6.83,44.821,44.821,0,0,0,2.846,7C149.042,279.438,149.333,279.131,149.247,278.835Z" transform="translate(-133.146 -260.334)" fill="#37474f"/>
            <path id="Trazado_799024" data-name="Trazado 799024" d="M141.106,273.2a.746.746,0,1,0,.746.746A.746.746,0,0,0,141.106,273.2Zm2.157,6.01a.746.746,0,1,0,.74.74.746.746,0,0,0-.74-.74Z" transform="translate(-131.515 -263.852)" fill="#263238"/>
          </g>
        </g>
        <g id="freepik--Screen--inject-11" transform="translate(41.514)">
          <path id="Trazado_799025" data-name="Trazado 799025" d="M198.8,159.878c-1.093-.632-1.036-1.707-1.036-3.045V96.445a4.661,4.661,0,0,1,2.112-3.654l77.138-44.52a3.637,3.637,0,0,1,3.853.108,3.035,3.035,0,0,1,1.275,2.846v60.422a4.661,4.661,0,0,1-2.112,3.66l-77.138,44.5A4.553,4.553,0,0,1,198.8,159.878Z" transform="translate(-197.759 -47.772)" fill="#37474f"/>
          <path id="Trazado_799026" data-name="Trazado 799026" d="M282.6,51.237c0-1.343-.945-1.89-2.112-1.218l-77.133,44.52a4.217,4.217,0,0,0-1.491,1.582l-3.017-1.753h0a4.309,4.309,0,0,1,1.491-1.582l77.138-44.514a3.616,3.616,0,0,1,3.848.108A3.081,3.081,0,0,1,282.6,51.237Z" transform="translate(-198.229 -47.772)" fill="#455a64"/>
          <path id="Trazado_799027" data-name="Trazado 799027" d="M202.642,195.2a4.553,4.553,0,0,1-3.842-.051c-1.093-.632-1.03-1.707-1.03-3.045V131.717a4.286,4.286,0,0,1,.615-2.077l3.017,1.742h0a4.331,4.331,0,0,0-.62,2.077v60.4C200.78,195.1,201.594,195.668,202.642,195.2Z" transform="translate(-197.763 -83.044)" fill="#263238"/>
          <path id="Trazado_799028" data-name="Trazado 799028" d="M207.809,101.681l74.2-42.812c.7-.4,1.269-.08,1.269.729v56.165a2.806,2.806,0,0,1-1.269,2.191l-74.2,42.8c-.7.4-1.269.08-1.269-.729V103.878A2.806,2.806,0,0,1,207.809,101.681Z" transform="translate(-201.542 -52.478)"/>
          <path id="Trazado_799029" data-name="Trazado 799029" d="M207.809,102.17a2.806,2.806,0,0,0-1.269,2.2V159.53L279.9,117.19a2.8,2.8,0,0,0,1.264-2.2V59.83Z" transform="translate(-201.542 -52.967)" fill="#263238"/>
        </g>
      </g>
    </g>
    <g id="freepik--Charts--inject-11" transform="translate(123.566 51.314)">
      <g id="freepik--chart--inject-11-2" data-name="freepik--chart--inject-11" transform="translate(0 19.414)">
        <path id="Trazado_799030" data-name="Trazado 799030" d="M248.511,105.451a.842.842,0,0,0-.37-.8h0l-.956-.569h0a.848.848,0,0,0-.877.08L213.57,123.112a2.692,2.692,0,0,0-1.224,2.117v46.045a.854.854,0,0,0,.364.791h0l.979.569h0a.871.871,0,0,0,.865-.085l32.738-18.93a2.715,2.715,0,0,0,1.224-2.117Z" transform="translate(-212.342 -103.998)" fill="#ff5a20" opacity="0.4"/>
        <path id="Trazado_799031" data-name="Trazado 799031" d="M249.277,105.888v46.045a2.686,2.686,0,0,1-1.218,2.117l-32.738,18.93c-.569.347-1.1.137-1.2-.461a1.053,1.053,0,0,0,.216-.1l32.727-18.93a2.692,2.692,0,0,0,1.218-2.112V105.325a1.6,1.6,0,0,0,0-.245C248.844,104.864,249.277,105.194,249.277,105.888Z" transform="translate(-213.108 -104.436)" fill="#ff5a20" opacity="0.4"/>
        <path id="Trazado_799032" data-name="Trazado 799032" d="M247.9,105.31l-29.813,17.5-1.668.962-.837.478c-.131.08-.29.165-.4.239a1.906,1.906,0,0,0-.33.279,2.533,2.533,0,0,0-.7,1.577v9.613l-.046,9.835c0,10.245-.091,16.358-.154,26.614-.063-10.245-.137-16.358-.159-26.614l-.046-9.835v-9.619a2.937,2.937,0,0,1,.814-1.867,2.329,2.329,0,0,1,.4-.347c.159-.1.285-.165.427-.25l.831-.484,1.668-.962,6.653-3.859Z" transform="translate(-212.949 -104.564)" fill="#fff"/>
        <g id="freepik--chart--inject-11-3" data-name="freepik--chart--inject-11" transform="translate(3.942 14.204)">
          <path id="Trazado_799033" data-name="Trazado 799033" d="M232.3,133v17.775L221.483,168c-3.808-4.883-2.7-17.075,3.256-26.722C227.169,137.365,229.3,134.878,232.3,133Z" transform="translate(-219.267 -130.697)" fill="#ff5a20"/>
          <path id="Trazado_799034" data-name="Trazado 799034" d="M232.3,133v17.775L221.483,168c-3.808-4.883-2.7-17.075,3.256-26.722C227.169,137.365,229.3,134.878,232.3,133Z" transform="translate(-219.267 -130.697)" fill="#fff" opacity="0.2"/>
          <path id="Trazado_799035" data-name="Trazado 799035" d="M249.593,160.49c-2.14,10.814-9.59,20.837-16.927,22.63a7.193,7.193,0,0,1-7.3-1.787l10.865-17.576Z" transform="translate(-221.897 -142.541)" fill="#ff5a20"/>
          <path id="Trazado_799036" data-name="Trazado 799036" d="M249.593,160.49c-2.14,10.814-9.59,20.837-16.927,22.63a7.193,7.193,0,0,1-7.3-1.787l10.865-17.576Z" transform="translate(-221.897 -142.541)" fill="#fff" opacity="0.3"/>
          <path id="Trazado_799037" data-name="Trazado 799037" d="M258.761,145.28,246,148.416l7.177-18.9C257.725,131.245,259.882,137.295,258.761,145.28Z" transform="translate(-230.785 -129.198)" fill="#ff5a20"/>
          <path id="Trazado_799038" data-name="Trazado 799038" d="M251.283,129.145,244.8,146.22V130.329A9.015,9.015,0,0,1,251.283,129.145Z" transform="translate(-230.268 -128.954)" fill="#ff5a20"/>
          <path id="Trazado_799039" data-name="Trazado 799039" d="M251.283,129.145,244.8,146.22V130.329A9.015,9.015,0,0,1,251.283,129.145Z" transform="translate(-230.268 -128.954)" fill="#fff" opacity="0.5"/>
        </g>
      </g>
      <g id="freepik--chart--inject-11-4" data-name="freepik--chart--inject-11" transform="translate(38.606 25.777)">
        <path id="Trazado_799040" data-name="Trazado 799040" d="M311.378,116.625a.837.837,0,0,0-.37-.791h0l-.962-.569h0a.848.848,0,0,0-.877.08L281.4,131.395a2.692,2.692,0,0,0-1.224,2.117v20.069a.871.871,0,0,0,.364.8h0l.979.569h0a.854.854,0,0,0,.865-.085l27.775-16.05a2.7,2.7,0,0,0,1.218-2.106Z" transform="translate(-280.173 -115.178)" fill="#ff5a20" opacity="0.4"/>
        <path id="Trazado_799041" data-name="Trazado 799041" d="M312.144,117.068v20.074a2.7,2.7,0,0,1-1.218,2.117l-27.775,16.05c-.569.347-1.1.137-1.2-.461a1.054,1.054,0,0,0,.216-.1l27.775-16.05a2.692,2.692,0,0,0,1.235-2.123V116.505a1.087,1.087,0,0,0,0-.245C311.728,116.044,312.144,116.374,312.144,117.068Z" transform="translate(-280.938 -115.616)" fill="#ff5a20" opacity="0.4"/>
        <path id="Trazado_799042" data-name="Trazado 799042" d="M310.779,116.49l-24.85,14.616-1.668.962-.837.478c-.131.08-.29.165-.4.239a1.907,1.907,0,0,0-.33.279,2.533,2.533,0,0,0-.7,1.577s-.148,9.829-.211,20.086c-.068-10.245-.216-20.091-.216-20.091a2.937,2.937,0,0,1,.814-1.867,2.276,2.276,0,0,1,.4-.341c.159-.108.285-.171.427-.256l.831-.484,1.668-.962,6.653-3.859Z" transform="translate(-280.775 -115.744)" fill="#fff"/>
        <g id="freepik--chart--inject-11-5" data-name="freepik--chart--inject-11" transform="translate(2.395 10.183)">
          <path id="Trazado_799043" data-name="Trazado 799043" d="M312.168,133.07l-2.738,1.582v14.531l2.738-1.582Z" transform="translate(-295.172 -133.07)" fill="#ff5a20"/>
          <path id="Trazado_799044" data-name="Trazado 799044" d="M285.879,165.554c-.091.046-.159,0-.159-.154V148.076a.4.4,0,0,1,.159-.33c.085-.051.154,0,.154.148v17.325A.421.421,0,0,1,285.879,165.554Z" transform="translate(-284.957 -139.384)" fill="#fafafa"/>
          <path id="Trazado_799045" data-name="Trazado 799045" d="M310.618,152.929l-26.079,15.066c-.091.051-.159,0-.159-.154a.4.4,0,0,1,.159-.33l26.079-15.066c.085-.051.154,0,.154.154A.415.415,0,0,1,310.618,152.929Z" transform="translate(-284.38 -141.409)" fill="#fafafa"/>
          <path id="Trazado_799046" data-name="Trazado 799046" d="M291.668,146.26l-2.738,1.582V161.6l2.738-1.582Z" transform="translate(-286.34 -138.753)" fill="#ff5a20"/>
          <path id="Trazado_799047" data-name="Trazado 799047" d="M291.668,146.26l-2.738,1.582V161.6l2.738-1.582Z" transform="translate(-286.34 -138.753)" fill="#fff" opacity="0.2"/>
          <path id="Trazado_799048" data-name="Trazado 799048" d="M325.838,134.07l-2.738,1.582v9.471l2.738-1.582Z" transform="translate(-301.062 -133.501)" fill="#ff5a20"/>
          <path id="Trazado_799049" data-name="Trazado 799049" d="M298.5,159.09l-2.738,1.582v4.212l2.738-1.577Z" transform="translate(-289.283 -144.28)" fill="#ff5a20"/>
          <path id="Trazado_799050" data-name="Trazado 799050" d="M305.338,151.25l-2.738,1.582v6.432l2.738-1.582Z" transform="translate(-292.23 -140.903)" fill="#ff5a20"/>
          <path id="Trazado_799051" data-name="Trazado 799051" d="M305.338,151.25l-2.738,1.582v6.432l2.738-1.582Z" transform="translate(-292.23 -140.903)" fill="#fff" opacity="0.3"/>
          <path id="Trazado_799052" data-name="Trazado 799052" d="M319,143.66l-2.738,1.577V151.5L319,149.921Z" transform="translate(-298.115 -137.633)" fill="#ff5a20"/>
          <path id="Trazado_799053" data-name="Trazado 799053" d="M319,143.66l-2.738,1.577V151.5L319,149.921Z" transform="translate(-298.115 -137.633)" fill="#fff" opacity="0.4"/>
        </g>
      </g>
      <g id="freepik--chart--inject-11-6" data-name="freepik--chart--inject-11" transform="translate(38.606)">
        <path id="Trazado_799054" data-name="Trazado 799054" d="M311.378,71.341a.842.842,0,0,0-.37-.8h0l-.962-.569h0a.848.848,0,0,0-.877.08L281.4,86.1a2.692,2.692,0,0,0-1.224,2.117v20.069a.871.871,0,0,0,.364.8h0l.979.569h0a.842.842,0,0,0,.865-.085l27.775-16.05a2.7,2.7,0,0,0,1.218-2.112Z" transform="translate(-280.173 -69.888)" fill="#ff5a20" opacity="0.4"/>
        <path id="Trazado_799055" data-name="Trazado 799055" d="M312.144,71.778V91.853a2.7,2.7,0,0,1-1.218,2.112l-27.775,16.05c-.569.347-1.1.137-1.2-.461a1.411,1.411,0,0,0,.216-.1L309.941,93.4a2.692,2.692,0,0,0,1.218-2.112V71.215a1.087,1.087,0,0,0,0-.245C311.728,70.754,312.144,71.084,312.144,71.778Z" transform="translate(-280.938 -70.326)" fill="#ff5a20" opacity="0.4"/>
        <path id="Trazado_799056" data-name="Trazado 799056" d="M310.779,71.2,285.93,85.816l-1.668.962-.837.478c-.131.08-.29.165-.4.239a1.908,1.908,0,0,0-.33.279,2.533,2.533,0,0,0-.7,1.577s-.148,9.829-.211,20.086c-.068-10.245-.216-20.086-.216-20.086a2.937,2.937,0,0,1,.814-1.873,2.276,2.276,0,0,1,.4-.341c.159-.108.285-.171.427-.256l.831-.484,1.668-.962,6.653-3.859Z" transform="translate(-280.775 -70.454)" fill="#fff"/>
        <path id="Trazado_799057" data-name="Trazado 799057" d="M286.51,114.176a.159.159,0,0,1-.137-.08.165.165,0,0,1,.057-.222l.837-.478a.159.159,0,0,1,.222.057.165.165,0,0,1-.057.222l-.842.478a.131.131,0,0,1-.08.023Zm1.679-.968a.165.165,0,0,1-.142-.08.154.154,0,0,1,.063-.216l.837-.484a.154.154,0,0,1,.216.057.165.165,0,0,1-.057.222l-.837.484Zm1.673-.968a.171.171,0,0,1-.142-.08.159.159,0,0,1,.063-.216l.837-.484a.161.161,0,1,1,.159.279l-.837.484a.182.182,0,0,1-.08.017Zm1.673-.962a.165.165,0,0,1-.08-.3l.837-.484a.165.165,0,0,1,.222.057.159.159,0,0,1-.063.222l-.837.484a.188.188,0,0,1-.08.023Zm1.673-.968a.159.159,0,0,1-.137-.08.165.165,0,0,1,.057-.222l.842-.484a.159.159,0,0,1,.216.057.165.165,0,0,1-.057.222l-.837.484a.24.24,0,0,1-.085.017Zm1.707-.968a.171.171,0,0,1-.142-.08.159.159,0,0,1,.063-.222l.837-.484a.161.161,0,1,1,.159.279l-.837.484a.142.142,0,0,1-.108.023Zm1.673-.968a.154.154,0,0,1-.137-.08.159.159,0,0,1,.057-.222l.837-.484a.165.165,0,0,1,.222.057.159.159,0,0,1-.063.222l-.837.484a.131.131,0,0,1-.108.023Zm1.673-.968a.159.159,0,0,1-.137-.08.165.165,0,0,1,.057-.222l.837-.484a.165.165,0,0,1,.222.063.159.159,0,0,1-.057.216l-.837.484a.159.159,0,0,1-.114.023Zm1.679-.968a.162.162,0,0,1-.085-.3l.842-.484a.159.159,0,0,1,.216.063.154.154,0,0,1-.057.216l-.837.484a.154.154,0,0,1-.108.023Zm1.673-.968a.171.171,0,0,1-.142-.08.165.165,0,0,1,.046-.211l.837-.484a.161.161,0,1,1,.159.279l-.837.484a.131.131,0,0,1-.091.011Zm1.673-.968a.154.154,0,0,1-.137-.08.159.159,0,0,1,.057-.222l.837-.484a.165.165,0,0,1,.165.285l-.842.478a.131.131,0,0,1-.108.023Zm1.679-.968a.165.165,0,0,1-.142-.08.159.159,0,0,1,.057-.216l.842-.484a.154.154,0,0,1,.216.057.165.165,0,0,1-.057.222l-.837.484Zm1.673-.968a.171.171,0,0,1-.142-.08.159.159,0,0,1,.063-.216l.837-.484a.161.161,0,0,1,.159.279l-.837.484a.182.182,0,0,1-.08.017Zm1.673-.962a.159.159,0,0,1-.137-.085.154.154,0,0,1,.057-.216l.837-.484a.161.161,0,1,1,.159.279l-.837.484a.188.188,0,0,1-.108.023Zm1.673-.968a.154.154,0,0,1-.137-.085.159.159,0,0,1,.057-.216l.307-.176a.165.165,0,0,1,.222.057.159.159,0,0,1-.063.222l-.319.188a.239.239,0,0,1-.1,0Z" transform="translate(-282.835 -82.923)" fill="#fafafa"/>
        <path id="Trazado_799058" data-name="Trazado 799058" d="M286.51,107.746a.159.159,0,0,1-.137-.08.165.165,0,0,1,.057-.222l.859-.472a.165.165,0,0,1,.222.063.159.159,0,0,1-.057.216l-.842.484A.131.131,0,0,1,286.51,107.746Zm1.679-.968a.159.159,0,0,1-.08-.3l.837-.484a.161.161,0,0,1,.159.279l-.837.484a.154.154,0,0,1-.08.023Zm1.673-.968a.171.171,0,0,1-.142-.08.165.165,0,0,1,.063-.222l.837-.484a.165.165,0,0,1,.222.063.159.159,0,0,1-.063.216l-.837.484a.131.131,0,0,1-.08.046Zm1.673-.968a.154.154,0,0,1-.137-.08.165.165,0,0,1,.057-.222l.837-.478a.154.154,0,0,1,.222.057.165.165,0,0,1-.063.222l-.837.478a.131.131,0,0,1-.08.023Zm1.673-.968a.159.159,0,0,1-.08-.3l.842-.484a.154.154,0,0,1,.216.057.165.165,0,0,1-.057.222l-.837.484a.228.228,0,0,1-.085.017Zm1.707-.968a.171.171,0,0,1-.142-.08.154.154,0,0,1,.063-.216l.837-.484a.161.161,0,1,1,.159.279l-.837.484a.2.2,0,0,1-.108.017Zm1.673-.962a.159.159,0,0,1-.137-.085.154.154,0,0,1,.057-.216l.837-.484a.165.165,0,0,1,.222.057.159.159,0,0,1-.063.222l-.837.484a.188.188,0,0,1-.108.023Zm1.673-.968a.154.154,0,0,1-.137-.085.159.159,0,0,1,.057-.216l.837-.484a.162.162,0,0,1,.165.279l-.837.484a.239.239,0,0,1-.114.023Zm1.679-.968a.162.162,0,0,1-.085-.3l.842-.484a.161.161,0,0,1,.159.279l-.837.484a.245.245,0,0,1-.108.023Zm1.673-.968a.171.171,0,0,1-.142-.08.165.165,0,0,1,.063-.222l.837-.484a.161.161,0,1,1,.159.279l-.837.484a.131.131,0,0,1-.108.023Zm1.673-.968a.154.154,0,0,1-.137-.08.159.159,0,0,1,.057-.222l.837-.484a.171.171,0,0,1,.222.057.165.165,0,0,1-.057.222l-.842.484a.131.131,0,0,1-.108.023Zm1.679-.968a.162.162,0,0,1-.085-.3l.842-.484a.161.161,0,0,1,.159.279l-.837.484a.154.154,0,0,1-.114.023Zm1.673-.951a.171.171,0,0,1-.142-.08.165.165,0,0,1,.063-.222l.837-.484a.159.159,0,0,1,.216.063.154.154,0,0,1-.057.216l-.837.484a.131.131,0,0,1-.08.023Zm1.673-.968a.154.154,0,0,1-.137-.08.159.159,0,0,1,.057-.222l.837-.484a.165.165,0,0,1,.222.063.154.154,0,0,1-.063.216l-.837.484a.131.131,0,0,1-.108.006Zm1.673-.968a.159.159,0,0,1-.137-.08.165.165,0,0,1,.057-.222l.307-.176a.165.165,0,0,1,.222.063.154.154,0,0,1-.063.216l-.3.176a.159.159,0,0,1-.114.006Z" transform="translate(-282.835 -80.158)" fill="#fafafa"/>
        <path id="Trazado_799059" data-name="Trazado 799059" d="M286.511,101.292a.154.154,0,0,1-.137-.085.159.159,0,0,1,.057-.216l.837-.484a.162.162,0,0,1,.165.279l-.842.484a.188.188,0,0,1-.08.023Zm1.679-.968a.159.159,0,0,1-.08-.3l.837-.484a.159.159,0,0,1,.216.057.165.165,0,0,1-.057.222l-.837.484a.245.245,0,0,1-.08.023Zm1.673-.968a.171.171,0,0,1-.142-.08.165.165,0,0,1,.063-.222l.837-.484a.161.161,0,1,1,.159.279l-.837.484a.131.131,0,0,1-.08.023Zm1.673-.968a.154.154,0,0,1-.137-.08.165.165,0,0,1,.057-.222l.837-.484a.165.165,0,0,1,.222.057.159.159,0,0,1-.063.222l-.837.484a.131.131,0,0,1-.08.023Zm1.673-.968a.159.159,0,0,1-.137-.08.165.165,0,0,1,.057-.222l.842-.484a.154.154,0,0,1,.216.063.159.159,0,0,1-.057.216l-.837.484a.159.159,0,0,1-.085.023Zm1.707-.968a.171.171,0,0,1-.142-.08.159.159,0,0,1,.063-.222l.837-.484a.159.159,0,0,1,.216.063.154.154,0,0,1-.057.216l-.837.484a.142.142,0,0,1-.108.023Zm1.673-.968a.154.154,0,0,1-.137-.08.159.159,0,0,1,.057-.222l.837-.484a.165.165,0,0,1,.222.063.154.154,0,0,1-.063.216l-.837.484a.131.131,0,0,1-.108.023Zm1.673-.968a.159.159,0,0,1-.137-.08.165.165,0,0,1,.057-.222l.837-.484a.165.165,0,0,1,.165.285l-.837.478a.159.159,0,0,1-.114.011Zm1.679-.968a.165.165,0,0,1-.142-.08.159.159,0,0,1,.057-.216l.842-.484a.154.154,0,0,1,.216.057.159.159,0,0,1-.057.222l-.837.484Zm1.673-.968a.171.171,0,0,1-.142-.08.159.159,0,0,1,.063-.216l.837-.484a.161.161,0,1,1,.159.279l-.837.484a.182.182,0,0,1-.108.017Zm1.673-.962a.159.159,0,0,1-.137-.085.154.154,0,0,1,.057-.216l.837-.484a.162.162,0,1,1,.165.279l-.842.484a.188.188,0,0,1-.108.023Zm1.679-.968a.154.154,0,0,1-.142-.085.159.159,0,0,1,.057-.216l.837-.484a.162.162,0,1,1,.165.279l-.837.484a.245.245,0,0,1-.114.023Zm1.673-.968a.171.171,0,0,1-.142-.08.159.159,0,0,1,.063-.222l.837-.484a.161.161,0,0,1,.159.279l-.837.484a.21.21,0,0,1-.08.023Zm1.673-.968a.154.154,0,0,1-.137-.08.159.159,0,0,1,.057-.222l.837-.484a.165.165,0,0,1,.222.057.159.159,0,0,1-.063.222l-.837.484a.131.131,0,0,1-.108.023Zm1.673-.968a.159.159,0,0,1-.137-.08.165.165,0,0,1,.057-.222l.307-.176a.165.165,0,0,1,.222.057.159.159,0,0,1-.063.222l-.3.176a.16.16,0,0,1-.114.023Z" transform="translate(-282.835 -77.369)" fill="#fafafa"/>
        <path id="Trazado_799060" data-name="Trazado 799060" d="M286.51,94.845a.159.159,0,0,1-.137-.08.165.165,0,0,1,.057-.222l.837-.484a.165.165,0,0,1,.165.285l-.842.478a.131.131,0,0,1-.08.023Zm1.679-.968a.165.165,0,0,1-.142-.08.154.154,0,0,1,.063-.216l.837-.484a.154.154,0,0,1,.216.057.165.165,0,0,1-.057.222l-.837.484Zm1.673-.968a.171.171,0,0,1-.142-.08.159.159,0,0,1,.063-.216l.837-.484a.161.161,0,1,1,.159.279l-.837.484a.182.182,0,0,1-.08.017Zm1.673-.962a.165.165,0,0,1-.08-.3l.837-.484a.165.165,0,0,1,.222.057.159.159,0,0,1-.063.222l-.837.484a.188.188,0,0,1-.08.023Zm1.673-.968a.154.154,0,0,1-.137-.085.159.159,0,0,1,.057-.216l.842-.484a.159.159,0,0,1,.216.057.165.165,0,0,1-.057.222l-.837.484a.239.239,0,0,1-.085.023Zm1.707-.968a.171.171,0,0,1-.142-.08.159.159,0,0,1,.063-.222l.837-.484a.154.154,0,0,1,.216.057.159.159,0,0,1-.057.222L295,89.99a.142.142,0,0,1-.108.034Zm1.673-.968a.154.154,0,0,1-.137-.08.159.159,0,0,1,.057-.222l.837-.484a.165.165,0,0,1,.222.057.159.159,0,0,1-.063.222l-.837.484a.131.131,0,0,1-.108.023Zm1.673-.968a.159.159,0,0,1-.137-.08.165.165,0,0,1,.057-.222l.837-.484a.162.162,0,0,1,.165.279l-.837.484a.159.159,0,0,1-.114.023Zm1.679-.968a.162.162,0,0,1-.085-.3l.842-.484a.159.159,0,0,1,.216.063.154.154,0,0,1-.057.216l-.837.484a.154.154,0,0,1-.108.023Zm1.673-.968a.171.171,0,0,1-.142-.08.165.165,0,0,1,.063-.222l.837-.484a.165.165,0,0,1,.222.063.159.159,0,0,1-.063.216l-.837.484a.131.131,0,0,1-.108.023Zm1.673-.968a.154.154,0,0,1-.137-.08.159.159,0,0,1,.057-.222l.837-.484a.165.165,0,0,1,.222.063.159.159,0,0,1-.057.216l-.842.484a.131.131,0,0,1-.108.023Zm1.679-.968a.162.162,0,0,1-.085-.3l.837-.484a.165.165,0,0,1,.222.063.159.159,0,0,1-.057.216l-.837.484a.154.154,0,0,1-.114.023Zm1.673-.968a.171.171,0,0,1-.142-.08.165.165,0,0,1,.063-.222l.837-.478a.154.154,0,0,1,.216.057.159.159,0,0,1-.057.222l-.837.484a.2.2,0,0,1-.08.017Zm1.673-.968a.159.159,0,0,1-.08-.3l.837-.484a.165.165,0,0,1,.222.057.159.159,0,0,1-.063.222l-.837.484a.182.182,0,0,1-.108.017Zm1.673-.962a.154.154,0,0,1-.137-.085.159.159,0,0,1,.057-.216l.307-.176a.161.161,0,1,1,.159.279l-.3.176a.239.239,0,0,1-.114.023Z" transform="translate(-282.835 -74.593)" fill="#fafafa"/>
        <path id="Trazado_799061" data-name="Trazado 799061" d="M286.505,105.05a.142.142,0,0,1-.08,0,.165.165,0,0,1-.063-.228l2.766-5.009c1.03-1.873,2.618-3.119,3.984-3.119h.182c1.3,0,2.874-1.332,3.83-3.256l1.178-2.373c1.269-2.544,3.449-3.984,4.963-3.267l1.013.478c.956.45,2.322-.148,3.478-1.52a9.072,9.072,0,0,0,.9-1.429c.512-.916,1-1.781,1.611-1.85a.171.171,0,0,1,.188.148.165.165,0,0,1-.154.182c-.444.051-.9.882-1.349,1.707a9.869,9.869,0,0,1-.939,1.48c-1.258,1.491-2.778,2.123-3.876,1.605l-1.019-.478c-1.32-.62-3.347.774-4.513,3.113l-1.178,2.373c-1.013,2.038-2.709,3.443-4.138,3.443h-.182c-1.224,0-2.686,1.178-3.665,2.943l-2.766,5.014a.171.171,0,0,1-.171.04Z" transform="translate(-282.83 -75.743)" fill="#ff5a20"/>
        <g id="Grupo_1065070" data-name="Grupo 1065070" transform="translate(3.51 7.734)" opacity="0.4">
          <path id="Trazado_799062" data-name="Trazado 799062" d="M286.505,105.05a.142.142,0,0,1-.08,0,.165.165,0,0,1-.063-.228l2.766-5.009c1.03-1.873,2.618-3.119,3.984-3.119h.182c1.3,0,2.874-1.332,3.83-3.256l1.178-2.373c1.269-2.544,3.449-3.984,4.963-3.267l1.013.478c.956.45,2.322-.148,3.478-1.52a9.786,9.786,0,0,0,.888-1.389c.524-.922,1.019-1.793,1.616-1.89a.167.167,0,1,1,.051.33c-.438.068-.939.95-1.377,1.707a10.159,10.159,0,0,1-.922,1.44c-1.258,1.491-2.777,2.123-3.876,1.605l-1.019-.478c-1.32-.62-3.347.774-4.513,3.113l-1.178,2.373c-1.013,2.038-2.709,3.443-4.138,3.443h-.182c-1.224,0-2.686,1.178-3.665,2.943l-2.766,5.014A.171.171,0,0,1,286.505,105.05Z" transform="translate(-286.34 -83.476)" fill="#fff"/>
        </g>
        <path id="Trazado_799063" data-name="Trazado 799063" d="M293.64,108.355a1.1,1.1,0,0,1,.478-.871c.268-.154.484,0,.484.319a1.093,1.093,0,0,1-.484.865C293.845,108.822,293.64,108.68,293.64,108.355Z" transform="translate(-285.975 -86.06)" fill="#ff5a20"/>
        <path id="Trazado_799064" data-name="Trazado 799064" d="M310.58,91.94a1.093,1.093,0,0,1,.484-.865c.262-.154.478,0,.478.313a1.093,1.093,0,0,1-.478.865C310.819,92.406,310.58,92.27,310.58,91.94Z" transform="translate(-293.273 -78.99)" fill="#ff5a20"/>
        <path id="Trazado_799065" data-name="Trazado 799065" d="M327.53,83.525a1.1,1.1,0,0,1,.478-.871c.268-.154.484,0,.484.313a1.093,1.093,0,0,1-.484.871C327.746,83.992,327.53,83.85,327.53,83.525Z" transform="translate(-300.576 -75.363)" fill="#ff5a20"/>
        <path id="Trazado_799066" data-name="Trazado 799066" d="M290.742,126.7l-2.561,1.48c-.233.131-.421.04-.421-.211v-.347a.9.9,0,0,1,.421-.694l2.561-1.474c.233-.137.421-.04.421.2V126a.9.9,0,0,1-.421.694Z" transform="translate(-283.442 -93.801)" fill="#fafafa"/>
        <path id="Trazado_799067" data-name="Trazado 799067" d="M307.742,116.881l-2.561,1.48c-.233.137-.421.04-.421-.2v-.347a.9.9,0,0,1,.421-.694l2.561-1.48c.233-.131.421-.04.421.211v.341A.888.888,0,0,1,307.742,116.881Z" transform="translate(-290.766 -89.572)" fill="#fafafa"/>
        <path id="Trazado_799068" data-name="Trazado 799068" d="M324.742,107.068l-2.561,1.474c-.233.137-.421.046-.421-.2v-.347a.9.9,0,0,1,.421-.694l2.561-1.474c.233-.137.421-.046.421.2v.347A.9.9,0,0,1,324.742,107.068Z" transform="translate(-298.09 -85.343)" fill="#fafafa"/>
      </g>
    </g>
    <g id="freepik--speech-bubble--inject-11" transform="translate(230.493 95.584)">
      <g id="freepik--speech-bubble--inject-11-2" data-name="freepik--speech-bubble--inject-11">
        <g id="freepik--speech-bubble--inject-11-3" data-name="freepik--speech-bubble--inject-11">
          <path id="Trazado_799069" data-name="Trazado 799069" d="M401.236,192.13c-.393,0-.626-.33-.626-.882V168.379a2.971,2.971,0,0,1,.421-1.417,2.925,2.925,0,0,1,1.007-1.076l30.547-17.644a1.218,1.218,0,0,1,.569-.182.569.569,0,0,1,.569.5,1.835,1.835,0,0,1,.046.381v22.88a2.183,2.183,0,0,1-1.286,2.385l-12.709,7.365L417.4,188.4a.091.091,0,0,1-.1.068h0a.091.091,0,0,1-.091-.051l-2.328-4.03-13.091,7.547a1.509,1.509,0,0,1-.233.12A1.1,1.1,0,0,1,401.236,192.13Z" transform="translate(-400.382 -147.838)" fill="#fafafa"/>
          <path id="Trazado_799070" data-name="Trazado 799070" d="M433,148.125c.074,0,.268,0,.353.324a1.355,1.355,0,0,1,.045.33v22.869a1.966,1.966,0,0,1-1.184,2.191l-12.63,7.319-.148.085-.057.159-2.277,6.511-2.06-3.631-.228-.387-.387.222-12.9,7.445a1.084,1.084,0,0,1-.182.091H401.3a.745.745,0,0,1-.233.04c-.347,0-.4-.41-.4-.655V168.211a2.72,2.72,0,0,1,.4-1.309,2.607,2.607,0,0,1,.916-.985l30.547-17.644a1.036,1.036,0,0,1,.472-.154m0-.45a1.423,1.423,0,0,0-.694.211l-30.552,17.644a3.091,3.091,0,0,0-1.087,1.138,3.193,3.193,0,0,0-.455,1.531v22.869c0,.706.347,1.11.854,1.11a1.139,1.139,0,0,0,.376-.068h.051a1.507,1.507,0,0,0,.273-.131l12.886-7.439,2.22,3.836a.313.313,0,0,0,.285.165.324.324,0,0,0,.313-.222l2.339-6.762,12.635-7.319a2.4,2.4,0,0,0,1.406-2.584V148.78a2.037,2.037,0,0,0-.051-.438.808.808,0,0,0-.8-.666Z" transform="translate(-400.21 -147.67)" fill="#ff5a20"/>
        </g>
        <path id="Trazado_799071" data-name="Trazado 799071" d="M411.411,187.232a2.846,2.846,0,0,1,1.3-.444,1.224,1.224,0,0,1,.922.33,2.276,2.276,0,0,1,.569,1.025,7.148,7.148,0,0,1,.239,1.639v2.277a11.265,11.265,0,0,1-.239,1.907,7.862,7.862,0,0,1-.569,1.679,6.043,6.043,0,0,1-.9,1.383,5.088,5.088,0,0,1-1.269,1.036l-2.544,1.468a.148.148,0,0,1-.194,0,.347.347,0,0,1-.08-.25V189.247a.831.831,0,0,1,.08-.342.512.512,0,0,1,.194-.233Zm1.656,3.335a3.652,3.652,0,0,0-.125-.854,1.218,1.218,0,0,0-.313-.569.729.729,0,0,0-.518-.2,1.548,1.548,0,0,0-.751.256l-1.349.78v7l1.4-.808a2.606,2.606,0,0,0,.717-.6,3.414,3.414,0,0,0,.507-.78,3.983,3.983,0,0,0,.307-.922,5.947,5.947,0,0,0,.125-1.007c.028-.78.028-1.548,0-2.3Z" transform="translate(-403.841 -164.522)" fill="#ff5a20"/>
        <path id="Trazado_799072" data-name="Trazado 799072" d="M423.688,179.964c.108-.063.188-.063.245,0a.848.848,0,0,1,.142.313l2.47,8.4a.513.513,0,0,1,0,.1.831.831,0,0,1-.08.341.529.529,0,0,1-.194.239l-.729.415c-.131.08-.228.091-.279.034a.449.449,0,0,1-.114-.194l-.433-1.474-3.193,1.844-.433,1.975a1.623,1.623,0,0,1-.108.319.705.705,0,0,1-.285.3l-.729.421a.148.148,0,0,1-.193,0,.33.33,0,0,1-.08-.245.709.709,0,0,1,0-.114l2.476-11.258a2.486,2.486,0,0,1,.137-.478.62.62,0,0,1,.245-.268Zm.569,6.505-1.11-3.791-1.138,5.071Z" transform="translate(-408.605 -161.564)" fill="#ff5a20"/>
        <path id="Trazado_799073" data-name="Trazado 799073" d="M436.379,172.034a.154.154,0,0,1,.194,0,.33.33,0,0,1,.08.245v1.1a.877.877,0,0,1-.08.347.569.569,0,0,1-.194.233l-1.816,1.047v8.537a.831.831,0,0,1-.08.342.512.512,0,0,1-.194.233l-.82.472a.137.137,0,0,1-.188,0,.324.324,0,0,1-.085-.25v-8.537l-1.816,1.053a.154.154,0,0,1-.194,0,.33.33,0,0,1-.08-.245v-1.1a.831.831,0,0,1,.08-.342.569.569,0,0,1,.194-.239Z" transform="translate(-413.522 -158.152)" fill="#ff5a20"/>
        <path id="Trazado_799074" data-name="Trazado 799074" d="M444.178,168.084c.108-.063.188-.063.245,0a.769.769,0,0,1,.142.313l2.47,8.4a.513.513,0,0,1,0,.1.831.831,0,0,1-.08.341.529.529,0,0,1-.194.239l-.729.415c-.131.08-.228.091-.279.034a.45.45,0,0,1-.114-.194l-.433-1.474-3.193,1.844-.433,1.975a1.623,1.623,0,0,1-.108.319.705.705,0,0,1-.285.3l-.729.421a.148.148,0,0,1-.194,0,.33.33,0,0,1-.08-.245.7.7,0,0,1,0-.114l2.476-11.258a2.486,2.486,0,0,1,.137-.478.62.62,0,0,1,.245-.268Zm.569,6.505-1.11-3.791-1.138,5.071Z" transform="translate(-417.433 -156.445)" fill="#ff5a20"/>
      </g>
    </g>
  </g>
</svg>
