<svg xmlns="http://www.w3.org/2000/svg" xmlns:xlink="http://www.w3.org/1999/xlink" width="505" height="397" viewBox="0 0 505 397">
  <defs>
    <clipPath id="clip-path">
      <path id="Trazado_798298" data-name="Trazado 798298" d="M282.106,226.455s8.71,18.59,8.71,19.571-7.729,5.185-9.2,6.069a35.762,35.762,0,0,1-3.525,1.758l.883,8.612s13.307-3.034,18.884-6.069,5.382-6.461,4.089-11.548-9.888-24.749-9.888-24.749Z" transform="translate(-278.09 -220.1)" fill="#fff" stroke="#263238" stroke-linecap="round" stroke-linejoin="round" stroke-width="1"/>
    </clipPath>
    <clipPath id="clip-path-2">
      <path id="Trazado_798302" data-name="Trazado 798302" d="M204.7,222.85s-6.355,23.285-6.543,27.4,12.62,12.227,13.086,12.718-.728-14.149-.728-14.149l4.343-21.264Z" transform="translate(-198.158 -222.85)" fill="#fff" stroke="#263238" stroke-linecap="round" stroke-linejoin="round" stroke-width="1"/>
    </clipPath>
    <clipPath id="clip-path-3">
      <path id="Trazado_798321" data-name="Trazado 798321" d="M230.944,171.034s2.544,9,7.361,14.288,6.543,6.543,9.1,6.159,5.283-3.713,9.095-10.632,4.089-12.227,4.408-12.718-.818-10.272-6.265-14.484-11.548-6.06-16.832-1.464S229.178,164.278,230.944,171.034Z" transform="translate(-230.469 -149.497)" fill="#fff" stroke="#263238" stroke-linecap="round" stroke-linejoin="round" stroke-width="1"/>
    </clipPath>
  </defs>
  <g id="Grupo_1066782" data-name="Grupo 1066782" transform="translate(1145 10909)">
    <path id="Trazado_800405" data-name="Trazado 800405" d="M20,0H485a20,20,0,0,1,20,20V377a20,20,0,0,1-20,20H20A20,20,0,0,1,0,377V20A20,20,0,0,1,20,0Z" transform="translate(-1145 -10909)" fill="#6936c1"/>
    <g id="Blog_post-bro" data-name="Blog post-bro" transform="translate(-1113.956 -10918.229)">
      <g id="freepik--background-simple--inject-1--inject-3" transform="translate(80.317 94.492)">
        <path id="Trazado_798282" data-name="Trazado 798282" d="M361.869,198.252c1.251-33.876-10.919-68.161-37.744-84.477-13.241-8.056-28.723-12.775-44.214-12.08-16.619.744-32.265,7.508-47.935,13.086s-32.641,10.035-48.794,6.077C171.495,118,161.214,110.92,149.65,107.7c-45.563-12.685-85.238,39.012-62.943,80.11,5.472,10.076,13.9,18.157,20.995,27.178s13.037,19.915,12.08,31.341c-.818,9.463-6.183,17.887-8.416,27.112-4.269,17.674,4.2,37.115,18.852,47.886s34.408,13.282,52.073,8.849S215.5,314.9,227.739,301.466c6.543-7.2,12.955-15.6,22.369-18.05,9.037-2.339,18.353,1.472,27.521,3.222a63.376,63.376,0,0,0,48.884-11.123C348.636,259.15,360.74,228.865,361.869,198.252Z" transform="translate(-80.317 -101.627)" fill="#ffce1f"/>
        <path id="Trazado_798283" data-name="Trazado 798283" d="M361.869,198.252c1.251-33.876-10.919-68.161-37.744-84.477-13.241-8.056-28.723-12.775-44.214-12.08-16.619.744-32.265,7.508-47.935,13.086s-32.641,10.035-48.794,6.077C171.495,118,161.214,110.92,149.65,107.7c-45.563-12.685-85.238,39.012-62.943,80.11,5.472,10.076,13.9,18.157,20.995,27.178s13.037,19.915,12.08,31.341c-.818,9.463-6.183,17.887-8.416,27.112-4.269,17.674,4.2,37.115,18.852,47.886s34.408,13.282,52.073,8.849S215.5,314.9,227.739,301.466c6.543-7.2,12.955-15.6,22.369-18.05,9.037-2.339,18.353,1.472,27.521,3.222a63.376,63.376,0,0,0,48.884-11.123C348.636,259.15,360.74,228.865,361.869,198.252Z" transform="translate(-80.317 -101.627)" fill="#fff" opacity="0.7"/>
      </g>
      <g id="freepik--Shadow--inject-1--inject-3" transform="translate(105.559 334.529)">
        <ellipse id="Elipse_8321" data-name="Elipse 8321" cx="110.583" cy="22.115" rx="110.583" ry="22.115" fill="#581ac4"/>
      </g>
      <g id="freepik--graphics-2--inject-1--inject-3" transform="translate(248.873 62.45)">
        <rect id="Rectángulo_374127" data-name="Rectángulo 374127" width="89.597" height="97.759" rx="6.03" transform="translate(0 0)" fill="#fff" stroke="#263238" stroke-linecap="round" stroke-linejoin="round" stroke-width="1"/>
        <path id="Trazado_798284" data-name="Trazado 798284" d="M291.342,62.45h79.725a4.907,4.907,0,0,1,4.907,4.907v5.12H286.41v-5.1a4.907,4.907,0,0,1,4.932-4.932Z" transform="translate(-286.41 -62.45)" fill="#263238" stroke="#263238" stroke-linecap="round" stroke-linejoin="round" stroke-width="1"/>
        <line id="Línea_314" data-name="Línea 314" x2="36.051" transform="translate(4.883 52.196)" fill="none" stroke="#263238" stroke-linecap="round" stroke-linejoin="round" stroke-width="1"/>
        <line id="Línea_315" data-name="Línea 315" x2="36.051" transform="translate(4.883 56.85)" fill="none" stroke="#263238" stroke-linecap="round" stroke-linejoin="round" stroke-width="1"/>
        <line id="Línea_316" data-name="Línea 316" x2="36.051" transform="translate(4.883 61.503)" fill="none" stroke="#263238" stroke-linecap="round" stroke-linejoin="round" stroke-width="1"/>
        <line id="Línea_317" data-name="Línea 317" x2="36.051" transform="translate(4.883 66.157)" fill="none" stroke="#263238" stroke-linecap="round" stroke-linejoin="round" stroke-width="1"/>
        <line id="Línea_318" data-name="Línea 318" x2="36.051" transform="translate(4.883 70.811)" fill="none" stroke="#263238" stroke-linecap="round" stroke-linejoin="round" stroke-width="1"/>
        <line id="Línea_319" data-name="Línea 319" x2="36.051" transform="translate(4.883 75.473)" fill="none" stroke="#263238" stroke-linecap="round" stroke-linejoin="round" stroke-width="1"/>
        <line id="Línea_320" data-name="Línea 320" x2="36.051" transform="translate(4.883 80.126)" fill="none" stroke="#263238" stroke-linecap="round" stroke-linejoin="round" stroke-width="1"/>
        <line id="Línea_321" data-name="Línea 321" x2="36.051" transform="translate(4.883 84.78)" fill="none" stroke="#263238" stroke-linecap="round" stroke-linejoin="round" stroke-width="1"/>
        <line id="Línea_322" data-name="Línea 322" x2="36.051" transform="translate(4.883 89.433)" fill="none" stroke="#263238" stroke-linecap="round" stroke-linejoin="round" stroke-width="1"/>
        <line id="Línea_323" data-name="Línea 323" x2="36.051" transform="translate(47.273 52.196)" fill="none" stroke="#263238" stroke-linecap="round" stroke-linejoin="round" stroke-width="1"/>
        <line id="Línea_324" data-name="Línea 324" x2="36.051" transform="translate(47.273 56.85)" fill="none" stroke="#263238" stroke-linecap="round" stroke-linejoin="round" stroke-width="1"/>
        <line id="Línea_325" data-name="Línea 325" x2="36.051" transform="translate(47.273 61.503)" fill="none" stroke="#263238" stroke-linecap="round" stroke-linejoin="round" stroke-width="1"/>
        <line id="Línea_326" data-name="Línea 326" x2="36.051" transform="translate(47.273 66.157)" fill="none" stroke="#263238" stroke-linecap="round" stroke-linejoin="round" stroke-width="1"/>
        <line id="Línea_327" data-name="Línea 327" x2="36.051" transform="translate(47.273 70.811)" fill="none" stroke="#263238" stroke-linecap="round" stroke-linejoin="round" stroke-width="1"/>
        <line id="Línea_328" data-name="Línea 328" x2="36.051" transform="translate(47.273 75.473)" fill="none" stroke="#263238" stroke-linecap="round" stroke-linejoin="round" stroke-width="1"/>
        <line id="Línea_329" data-name="Línea 329" x2="36.051" transform="translate(47.273 80.126)" fill="none" stroke="#263238" stroke-linecap="round" stroke-linejoin="round" stroke-width="1"/>
        <line id="Línea_330" data-name="Línea 330" x2="36.051" transform="translate(47.273 84.78)" fill="none" stroke="#263238" stroke-linecap="round" stroke-linejoin="round" stroke-width="1"/>
        <line id="Línea_331" data-name="Línea 331" x2="36.051" transform="translate(47.273 89.433)" fill="none" stroke="#263238" stroke-linecap="round" stroke-linejoin="round" stroke-width="1"/>
        <path id="Trazado_798285" data-name="Trazado 798285" d="M316.312,89.249a5.792,5.792,0,0,0,.278-1.709c0-2.118-2.151-2.241-4.261-2.241H311.8v-.5h9.209v.5c-2.4,0-3.271,1.529-4.016,3.795l-4.907,14.648c-.368,1.088-.679,1.9-1.832,1.9h-.1l-4.318-13.994-4.016,12.129c-.376,1.088-.687,1.9-1.84,1.9h-.09L293.608,85.3H291.4v-.5h8.081v.5h-2.3l4.662,16.046h.188l3.517-10.657-1.636-5.349h-2.208V84.8h8.089v.5h-2.3l4.662,16.046h.18Z" transform="translate(-287.319 -66.521)" fill="#ffce1f"/>
        <rect id="Rectángulo_374128" data-name="Rectángulo 374128" width="37.098" height="33.532" transform="translate(46.479 13.642)" fill="#ffce1f" stroke="#263238" stroke-linecap="round" stroke-linejoin="round" stroke-width="2"/>
        <path id="Trazado_798286" data-name="Trazado 798286" d="M380.335,96.27a22.9,22.9,0,0,0-3.7.515C371,98.012,369.531,106.1,363.16,106.1c-5.643,0-6.126-7.6-14.214-8.579a8.931,8.931,0,0,0-5.725,1.014v17.249h37.115Z" transform="translate(-296.757 -68.61)" fill="#263238" stroke="#263238" stroke-linecap="round" stroke-linejoin="round" stroke-width="1"/>
        <path id="Trazado_798287" data-name="Trazado 798287" d="M356.452,87.583a4.171,4.171,0,1,1-4.163-4.163A4.171,4.171,0,0,1,356.452,87.583Z" transform="translate(-297.648 -66.269)" fill="#fff" stroke="#263238" stroke-linecap="round" stroke-linejoin="round" stroke-width="1"/>
        <rect id="Rectángulo_374129" data-name="Rectángulo 374129" width="82.58" height="3.181" transform="translate(2.691 2.936)" fill="#fff" stroke="#263238" stroke-linecap="round" stroke-linejoin="round" stroke-width="1"/>
        <path id="Trazado_798288" data-name="Trazado 798288" d="M375.165,205.83H339.416a5.3,5.3,0,0,0-5.3,5.3v19.122a5.3,5.3,0,0,0,5.3,5.3h1.1C339.4,238,337.24,241.767,333.83,244c0,0,7.254-.507,14.812-8.449h26.507a5.3,5.3,0,0,0,5.3-5.3V211.13a5.3,5.3,0,0,0-5.283-5.3Z" transform="translate(-295.047 -88.565)" fill="#263238" stroke="#263238" stroke-linecap="round" stroke-linejoin="round" stroke-width="1"/>
        <path id="Trazado_798289" data-name="Trazado 798289" d="M353.783,222.56a2.732,2.732,0,1,0-2.723,2.723,2.732,2.732,0,0,0,2.723-2.723Z" transform="translate(-297.686 -91.113)" fill="#ffce1f" stroke="#263238" stroke-linecap="round" stroke-linejoin="round" stroke-width="1"/>
        <path id="Trazado_798290" data-name="Trazado 798290" d="M365.117,222.563a2.723,2.723,0,1,0-2.723,2.724,2.723,2.723,0,0,0,2.723-2.724Z" transform="translate(-299.753 -91.116)" fill="#ffce1f" stroke="#263238" stroke-linecap="round" stroke-linejoin="round" stroke-width="1"/>
        <path id="Trazado_798291" data-name="Trazado 798291" d="M376.453,222.56a2.732,2.732,0,1,0-2.732,2.724A2.732,2.732,0,0,0,376.453,222.56Z" transform="translate(-301.815 -91.113)" fill="#ffce1f" stroke="#263238" stroke-linecap="round" stroke-linejoin="round" stroke-width="1"/>
      </g>
      <g id="freepik--graphics-1--inject-1--inject-3" transform="translate(98.353 74.047)">
        <path id="Trazado_798292" data-name="Trazado 798292" d="M142.829,76.63h58.886A5.283,5.283,0,0,1,207,81.913v40.82H137.57V81.913a5.283,5.283,0,0,1,5.259-5.283Z" transform="translate(-108.781 -76.63)" fill="#ffce1f" stroke="#263238" stroke-linecap="round" stroke-linejoin="round" stroke-width="1"/>
        <rect id="Rectángulo_374130" data-name="Rectángulo 374130" width="69.396" height="6.559" transform="translate(28.789 39.519)" fill="#263238" stroke="#263238" stroke-linecap="round" stroke-linejoin="round" stroke-width="1"/>
        <rect id="Rectángulo_374131" data-name="Rectángulo 374131" width="63.041" height="2.077" transform="translate(31.97 41.76)" fill="#fff" stroke="#263238" stroke-linecap="round" stroke-linejoin="round" stroke-width="1"/>
        <circle id="Elipse_8323" data-name="Elipse 8323" cx="9.585" cy="9.585" r="9.585" transform="translate(53.905 11.336)" fill="#263238" stroke="#263238" stroke-linecap="round" stroke-linejoin="round" stroke-width="1"/>
        <path id="Trazado_798293" data-name="Trazado 798293" d="M174.71,94.92l10.346,5.97-10.346,5.97Z" transform="translate(-115.546 -79.961)" fill="#fff" stroke="#263238" stroke-linecap="round" stroke-linejoin="round" stroke-width="1"/>
        <rect id="Rectángulo_374132" data-name="Rectángulo 374132" width="70.475" height="29.713" rx="2.82" transform="translate(0 62.869)" fill="#263238" stroke="#263238" stroke-linecap="round" stroke-linejoin="round" stroke-width="1"/>
        <path id="Trazado_798294" data-name="Trazado 798294" d="M111.892,158.45l.343.573c-1.554.867-3,2.388-3,4.171a2.306,2.306,0,0,0,2.2,2.454c.229,0,.384-.115.384-.343s-.114-.3-.343-.344a1.349,1.349,0,0,1-.99-1.439A1.873,1.873,0,0,1,112.5,161.7a2.061,2.061,0,0,1,2.053,2.126,2.576,2.576,0,0,1-2.7,2.544,3.075,3.075,0,0,1-3.271-3.19C108.555,161.108,110.15,159.44,111.892,158.45Zm7.025,0,.344.573c-1.562.867-3,2.388-3,4.171a2.3,2.3,0,0,0,2.2,2.454c.229,0,.384-.114.384-.343s-.115-.3-.344-.344a1.349,1.349,0,0,1-.99-1.439,1.865,1.865,0,0,1,2.012-1.824,2.061,2.061,0,0,1,2.053,2.126,2.584,2.584,0,0,1-2.7,2.544,3.083,3.083,0,0,1-3.271-3.19C115.572,161.108,117.167,159.44,118.917,158.45Z" transform="translate(-103.501 -91.532)" fill="#ffce1f"/>
        <line id="Línea_332" data-name="Línea 332" x2="40.108" transform="translate(22.14 72.97)" fill="none" stroke="#fff" stroke-linecap="round" stroke-linejoin="round" stroke-width="1"/>
        <line id="Línea_333" data-name="Línea 333" x2="40.108" transform="translate(22.14 76.413)" fill="none" stroke="#fff" stroke-linecap="round" stroke-linejoin="round" stroke-width="1"/>
        <line id="Línea_334" data-name="Línea 334" x2="40.108" transform="translate(22.14 79.856)" fill="none" stroke="#fff" stroke-linecap="round" stroke-linejoin="round" stroke-width="1"/>
        <line id="Línea_335" data-name="Línea 335" x2="40.108" transform="translate(22.14 83.308)" fill="none" stroke="#fff" stroke-linecap="round" stroke-linejoin="round" stroke-width="1"/>
        <circle id="Elipse_8324" data-name="Elipse 8324" cx="15.188" cy="15.188" r="15.188" transform="matrix(0.987, -0.161, 0.161, 0.987, 35.269, 111.119)" fill="#263238" stroke="#263238" stroke-linecap="round" stroke-linejoin="round" stroke-width="1"/>
        <circle id="Elipse_8325" data-name="Elipse 8325" cx="12.816" cy="12.816" r="12.816" transform="translate(34.622 124.853) rotate(-48.71)" fill="#fff" stroke="#263238" stroke-linecap="round" stroke-linejoin="round" stroke-width="1"/>
        <path id="Trazado_798295" data-name="Trazado 798295" d="M166.82,216.5v9.266h6.265" transform="translate(-114.109 -102.105)" fill="none" stroke="#263238" stroke-linecap="round" stroke-linejoin="round" stroke-width="2"/>
      </g>
      <g id="freepik--Character--inject-1--inject-3" transform="translate(139.05 112.372)">
        <path id="Trazado_798296" data-name="Trazado 798296" d="M282.106,226.455s8.71,18.59,8.71,19.571-7.729,5.185-9.2,6.069a35.762,35.762,0,0,1-3.525,1.758l.883,8.612s13.307-3.034,18.884-6.069,5.382-6.461,4.089-11.548-9.888-24.749-9.888-24.749Z" transform="translate(-175.072 -141.086)" fill="#fff"/>
        <g id="Grupo_1064956" data-name="Grupo 1064956" transform="translate(103.018 79.014)" clip-path="url(#clip-path)">
          <path id="Trazado_798297" data-name="Trazado 798297" d="M299.216,256.4c5.578-3.034,5.382-6.461,4.089-11.548s-9.888-24.749-9.888-24.749l-1.39.883-.442.818s8.023,19.694,8.506,26.253c.327,4.408-8.547,9.9-14.411,13.045C290.031,259.946,295.952,258.172,299.216,256.4Z" transform="translate(-279.472 -220.1)" fill="#ffce1f" opacity="0.5"/>
        </g>
        <path id="Trazado_798299" data-name="Trazado 798299" d="M282.106,226.455s8.71,18.59,8.71,19.571-7.729,5.185-9.2,6.069a35.762,35.762,0,0,1-3.525,1.758l.883,8.612s13.307-3.034,18.884-6.069,5.382-6.461,4.089-11.548-9.888-24.749-9.888-24.749Z" transform="translate(-175.072 -141.086)" fill="none" stroke="#263238" stroke-linecap="round" stroke-linejoin="round" stroke-width="1"/>
        <path id="Trazado_798300" data-name="Trazado 798300" d="M204.7,222.85s-6.355,23.285-6.543,27.4,12.62,12.227,13.086,12.718-.728-14.149-.728-14.149l4.343-21.264Z" transform="translate(-160.513 -141.587)" fill="#fff"/>
        <g id="Grupo_1064957" data-name="Grupo 1064957" transform="translate(37.644 81.263)" clip-path="url(#clip-path-2)">
          <path id="Trazado_798301" data-name="Trazado 798301" d="M207.614,224.756l-.139-.63L204.7,222.85s-6.355,23.285-6.543,27.4,12.62,12.227,13.086,12.718c.188.2.115-2-.041-4.7-3.811-3.231-9.283-7.778-9.921-9.692" transform="translate(-198.158 -222.85)" fill="#ffce1f" opacity="0.5"/>
        </g>
        <path id="Trazado_798303" data-name="Trazado 798303" d="M204.7,222.85s-6.355,23.285-6.543,27.4,12.62,12.227,13.086,12.718-.728-14.149-.728-14.149l4.343-21.264Z" transform="translate(-160.513 -141.587)" fill="none" stroke="#263238" stroke-linecap="round" stroke-linejoin="round" stroke-width="1"/>
        <path id="Trazado_798304" data-name="Trazado 798304" d="M234.98,193.847s-2.454,1.767-7.238,1.963-5.014-3.271-10.959-3.271c-7.205,0-16.243,22.794-16.243,22.794s4.5,4.408,8.907,6.265a31.586,31.586,0,0,0,7.631,2.249l.687,14.975H266.3l.581-14.975,15.171-9.839s-7.443-13.307-11.058-18.3-9.692-3.132-11.548-1.865-7.361,1.57-9.389,1.276a81.093,81.093,0,0,1-7.835-2.151S239.094,190.371,234.98,193.847Z" transform="translate(-160.947 -135.975)" fill="#ffce1f" stroke="#263238" stroke-linecap="round" stroke-linejoin="round" stroke-width="1"/>
        <line id="Línea_336" data-name="Línea 336" x1="0.196" y2="24.855" transform="translate(56.424 63.155)" fill="none" stroke="#263238" stroke-linecap="round" stroke-linejoin="round" stroke-width="0.5"/>
        <path id="Trazado_798305" data-name="Trazado 798305" d="M223.51,203.47s.687,12.129,3.271,18.884" transform="translate(-165.131 -138.057)" fill="none" stroke="#263238" stroke-linecap="round" stroke-linejoin="round" stroke-width="0.5"/>
        <path id="Trazado_798306" data-name="Trazado 798306" d="M228.06,227.75a33.361,33.361,0,0,0,2.053,4.793" transform="translate(-165.96 -142.479)" fill="none" stroke="#263238" stroke-linecap="round" stroke-linejoin="round" stroke-width="0.5"/>
        <path id="Trazado_798307" data-name="Trazado 798307" d="M225.42,201.79a77.625,77.625,0,0,0,3.918,12.914" transform="translate(-165.479 -137.751)" fill="none" stroke="#263238" stroke-linecap="round" stroke-linejoin="round" stroke-width="0.5"/>
        <path id="Trazado_798308" data-name="Trazado 798308" d="M276.018,204.42s-2.347,9.594-4.408,13.9" transform="translate(-173.892 -138.23)" fill="none" stroke="#263238" stroke-linecap="round" stroke-linejoin="round" stroke-width="0.5"/>
        <line id="Línea_337" data-name="Línea 337" x1="0.098" y1="19.375" transform="translate(105.832 68.537)" fill="none" stroke="#263238" stroke-linecap="round" stroke-linejoin="round" stroke-width="0.5"/>
        <path id="Trazado_798309" data-name="Trazado 798309" d="M278.989,207.77s-1.767,12.268-6.069,18.688" transform="translate(-174.13 -138.84)" fill="none" stroke="#263238" stroke-linecap="round" stroke-linejoin="round" stroke-width="0.5"/>
        <path id="Trazado_798310" data-name="Trazado 798310" d="M276.969,227.63s-1.963,3.721-3.329,5.676" transform="translate(-174.261 -142.458)" fill="none" stroke="#263238" stroke-linecap="round" stroke-linejoin="round" stroke-width="0.5"/>
        <path id="Trazado_798311" data-name="Trazado 798311" d="M239.3,196.05s1.374,8.416,3.329,12.718,5.382,5.185,8.318,3.918,5.087-7.541,4.907-15.539" transform="translate(-168.007 -136.706)" fill="none" stroke="#263238" stroke-linecap="round" stroke-linejoin="round" stroke-width="0.5"/>
        <path id="Trazado_798312" data-name="Trazado 798312" d="M229.973,174.056s-1.865-3.222-3.329-1.562,1.178,5.48,2.642,6.747,2.544.491,2.454-.875S229.973,174.056,229.973,174.056Z" transform="translate(-165.624 -132.329)" fill="#ffce1f" stroke="#263238" stroke-linecap="round" stroke-linejoin="round" stroke-width="1"/>
        <path id="Trazado_798313" data-name="Trazado 798313" d="M229.973,174.056s-1.865-3.222-3.329-1.562,1.178,5.48,2.642,6.747,2.544.491,2.454-.875S229.973,174.056,229.973,174.056Z" transform="translate(-165.624 -132.329)" fill="#fff" opacity="0.5"/>
        <path id="Trazado_798314" data-name="Trazado 798314" d="M229.973,174.056s-1.865-3.222-3.329-1.562,1.178,5.48,2.642,6.747,2.544.491,2.454-.875S229.973,174.056,229.973,174.056Z" transform="translate(-165.624 -132.329)" fill="none" stroke="#263238" stroke-linecap="round" stroke-linejoin="round" stroke-width="1"/>
        <path id="Trazado_798315" data-name="Trazado 798315" d="M266.605,174.056s1.857-3.222,3.329-1.562-1.178,5.48-2.642,6.747-2.552.491-2.454-.875S266.605,174.056,266.605,174.056Z" transform="translate(-172.657 -132.329)" fill="#ffce1f" stroke="#263238" stroke-linecap="round" stroke-linejoin="round" stroke-width="1"/>
        <path id="Trazado_798316" data-name="Trazado 798316" d="M266.605,174.056s1.857-3.222,3.329-1.562-1.178,5.48-2.642,6.747-2.552.491-2.454-.875S266.605,174.056,266.605,174.056Z" transform="translate(-172.657 -132.329)" fill="#fff" opacity="0.5"/>
        <path id="Trazado_798317" data-name="Trazado 798317" d="M266.605,174.056s1.857-3.222,3.329-1.562-1.178,5.48-2.642,6.747-2.552.491-2.454-.875S266.605,174.056,266.605,174.056Z" transform="translate(-172.657 -132.329)" fill="none" stroke="#263238" stroke-linecap="round" stroke-linejoin="round" stroke-width="1"/>
        <path id="Trazado_798318" data-name="Trazado 798318" d="M241.57,193.42a105.385,105.385,0,0,0,3.525,12.325c1.767,4.4,5.087,4.4,6.461,1.562s2.249-13.413,2.249-13.413S244.6,195.178,241.57,193.42Z" transform="translate(-168.42 -136.227)" fill="#fff" stroke="#263238" stroke-linecap="round" stroke-linejoin="round" stroke-width="1"/>
        <path id="Trazado_798319" data-name="Trazado 798319" d="M230.944,171.034s2.544,9,7.361,14.288,6.543,6.543,9.1,6.159,5.283-3.713,9.095-10.632,4.089-12.227,4.408-12.718-.818-10.272-6.265-14.484-11.548-6.06-16.832-1.464S229.178,164.278,230.944,171.034Z" transform="translate(-166.398 -128.227)" fill="#fff"/>
        <g id="Grupo_1064958" data-name="Grupo 1064958" transform="translate(64.071 21.271)" clip-path="url(#clip-path-3)">
          <path id="Trazado_798320" data-name="Trazado 798320" d="M254.621,153.607c-5.48-4.2-11.548-6.06-16.832-1.464s-8.612,12.129-6.846,18.884a41.974,41.974,0,0,0,1.439,4.089,3.091,3.091,0,0,1,.123-.891c1.17-3.7,4.621-10.878,16.235-7.59,9.225,2.6,8.1,10.714,7.238,15.041l.5-.9c3.819-6.944,4.089-12.227,4.408-12.718S260.1,157.819,254.621,153.607Z" transform="translate(-230.469 -149.491)" fill="#ffce1f" opacity="0.5"/>
        </g>
        <path id="Trazado_798322" data-name="Trazado 798322" d="M230.944,171.034s2.544,9,7.361,14.288,6.543,6.543,9.1,6.159,5.283-3.713,9.095-10.632,4.089-12.227,4.408-12.718-.818-10.272-6.265-14.484-11.548-6.06-16.832-1.464S229.178,164.278,230.944,171.034Z" transform="translate(-166.398 -128.227)" fill="none" stroke="#263238" stroke-linecap="round" stroke-linejoin="round" stroke-width="1"/>
        <path id="Trazado_798323" data-name="Trazado 798323" d="M250.584,181.57a39.887,39.887,0,0,0-.491,5.774c.1,1.955.687,2.544-.2,2.74s-1.857-1.178-1.857-1.178" transform="translate(-169.599 -134.068)" fill="none" stroke="#263238" stroke-linecap="round" stroke-linejoin="round" stroke-width="1"/>
        <path id="Trazado_798324" data-name="Trazado 798324" d="M239.18,183.49a3.468,3.468,0,0,0,3.918.1" transform="translate(-167.985 -134.418)" fill="none" stroke="#263238" stroke-linecap="round" stroke-linejoin="round" stroke-width="1"/>
        <path id="Trazado_798325" data-name="Trazado 798325" d="M254.38,183.49a3.46,3.46,0,0,0,3.909.1" transform="translate(-170.753 -134.418)" fill="none" stroke="#263238" stroke-linecap="round" stroke-linejoin="round" stroke-width="1"/>
        <path id="Trazado_798326" data-name="Trazado 798326" d="M245.033,178.786s-1.865-4.6-8.023-2.454" transform="translate(-167.59 -133.01)" fill="none" stroke="#263238" stroke-linecap="round" stroke-linejoin="round" stroke-width="1"/>
        <path id="Trazado_798327" data-name="Trazado 798327" d="M253.09,178.17s1.562-4.506,7.14-1.865" transform="translate(-170.518 -132.958)" fill="none" stroke="#263238" stroke-linecap="round" stroke-linejoin="round" stroke-width="1"/>
        <path id="Trazado_798328" data-name="Trazado 798328" d="M245.394,183.106c0,2.519-2.887,4.556-6.453,4.556s-6.461-2.036-6.461-4.556,2.7-3.566,6.265-3.566S245.394,180.6,245.394,183.106Z" transform="translate(-166.765 -133.699)" fill="none" stroke="#263238" stroke-linecap="round" stroke-linejoin="round" stroke-width="1"/>
        <path id="Trazado_798329" data-name="Trazado 798329" d="M263.584,183.106c0,2.519-2.9,4.556-6.461,4.556s-6.453-2.036-6.453-4.556,2.691-3.566,6.257-3.566S263.584,180.6,263.584,183.106Z" transform="translate(-170.078 -133.699)" fill="none" stroke="#263238" stroke-linecap="round" stroke-linejoin="round" stroke-width="1"/>
        <path id="Trazado_798330" data-name="Trazado 798330" d="M165.541,279.83l-.4,99.15a1.178,1.178,0,0,0,1.178,1.178h0a1.17,1.17,0,0,0,1.17-1.137l2.83-99.051Z" transform="translate(-154.5 -151.965)" fill="#fff" stroke="#263238" stroke-linecap="round" stroke-linejoin="round" stroke-width="1"/>
        <path id="Trazado_798331" data-name="Trazado 798331" d="M157.384,308.17,157,410.673a1.17,1.17,0,0,0,1.178,1.178h0a1.178,1.178,0,0,0,1.178-1.129L162.177,308.3Z" transform="translate(-153.017 -157.127)" fill="#fff" stroke="#263238" stroke-linecap="round" stroke-linejoin="round" stroke-width="1"/>
        <path id="Trazado_798332" data-name="Trazado 798332" d="M332.168,279.83l.4,99.15a1.17,1.17,0,0,1-1.17,1.178h0a1.178,1.178,0,0,1-1.178-1.137L327.4,279.969Z" transform="translate(-184.053 -151.965)" fill="#fff" stroke="#263238" stroke-linecap="round" stroke-linejoin="round" stroke-width="1"/>
        <path id="Trazado_798333" data-name="Trazado 798333" d="M340.336,308.17l.4,102.5a1.17,1.17,0,0,1-1.178,1.178h0a1.17,1.17,0,0,1-1.17-1.129L335.56,308.3Z" transform="translate(-185.539 -157.127)" fill="#fff" stroke="#263238" stroke-linecap="round" stroke-linejoin="round" stroke-width="1"/>
        <path id="Trazado_798334" data-name="Trazado 798334" d="M214.236,313.38,214,404.359a.883.883,0,0,0,.744.973h0a.875.875,0,0,0,.752-.932l1.775-90.914Z" transform="translate(-163.397 -158.076)" fill="#fff" stroke="#263238" stroke-linecap="round" stroke-linejoin="round" stroke-width="1"/>
        <path id="Trazado_798335" data-name="Trazado 798335" d="M284.13,309.8l.221,79.4a.752.752,0,0,1-.638.818h0a.744.744,0,0,1-.63-.818l-1.513-79.333Z" transform="translate(-175.706 -157.424)" fill="#fff" stroke="#263238" stroke-linecap="round" stroke-linejoin="round" stroke-width="1"/>
        <path id="Trazado_798336" data-name="Trazado 798336" d="M212.63,309.8l.221,79.4a.752.752,0,0,1-.638.818h0a.744.744,0,0,1-.63-.818l-1.513-79.333Z" transform="translate(-162.683 -157.424)" fill="#fff" stroke="#263238" stroke-linecap="round" stroke-linejoin="round" stroke-width="1"/>
        <path id="Trazado_798337" data-name="Trazado 798337" d="M282.018,313.38l.254,90.979a.883.883,0,0,1-.744.973h0a.883.883,0,0,1-.753-.932L279,313.486Z" transform="translate(-175.238 -158.076)" fill="#fff" stroke="#263238" stroke-linecap="round" stroke-linejoin="round" stroke-width="1"/>
        <ellipse id="Elipse_8326" data-name="Elipse 8326" cx="36.395" cy="8.318" rx="36.395" ry="8.318" transform="translate(42.014 145.04)" fill="#fff" stroke="#263238" stroke-linecap="round" stroke-linejoin="round" stroke-width="1"/>
        <path id="Trazado_798338" data-name="Trazado 798338" d="M225.735,396.867s-1.906,2.732-.54,4.089,2.723.818,2.584,2.184-2.315,5.995-4.22,10.9,2.045,9.814,5.725,8.457,3.271-15,3.811-17.453.957-2.863.818-5.177-.27-4.768-2.045-5.046A9.745,9.745,0,0,0,225.735,396.867Z" transform="translate(-165.05 -172.903)" fill="#fff" stroke="#263238" stroke-linecap="round" stroke-linejoin="round" stroke-width="1"/>
        <path id="Trazado_798339" data-name="Trazado 798339" d="M231.624,423.913c-2.454-.932-6.216-.744-8.334-.532.712,3.083,3.435,5.251,6.036,4.294C230.414,427.274,231.125,425.819,231.624,423.913Z" transform="translate(-165.091 -178.079)" fill="#ffce1f" stroke="#263238" stroke-linecap="round" stroke-linejoin="round" stroke-width="1"/>
        <path id="Trazado_798340" data-name="Trazado 798340" d="M221.17,389.545s3.95,6.682,5.038,8.449,4.776,1.227,5.185-1.227-1.5-9.266-1.5-9.266l-8.179,2.045Z" transform="translate(-164.705 -171.576)" fill="#fff" stroke="#263238" stroke-linecap="round" stroke-linejoin="round" stroke-width="1"/>
        <path id="Trazado_798341" data-name="Trazado 798341" d="M209.514,375.938s-1.1,1.775-.548,3,2.045,4.768,3,6.543,5.316,2.863,10.354,2.045,7.909-3.141,8.048-5.185-.818-4.768-1.5-8.04-2.454-3.132-4.907-3.132S211.558,374.032,209.514,375.938Z" transform="translate(-162.454 -168.601)" fill="#ffce1f" stroke="#263238" stroke-linecap="round" stroke-linejoin="round" stroke-width="1"/>
        <path id="Trazado_798342" data-name="Trazado 798342" d="M221.958,323.223c.074-3.353,2.012-5.005,2.159-7.3a28.9,28.9,0,0,0-.744-9.054l-3.729-5.1c-10.73.139-18.418.319-18.541.36-.409.131-.687,2.454-.957,4.359,0,0-4.556.581-3.738,13.258.115,1.767,4.711,22.2,5.046,24.536,2.045,14.239,6.6,21.371,6.6,21.371s.409,1.775,5.725,1.366,10.632-3.95,10.632-3.95S221.68,335.352,221.958,323.223Z" transform="translate(-160.177 -155.961)" fill="#263238" stroke="#263238" stroke-linecap="round" stroke-linejoin="round" stroke-width="1"/>
        <path id="Trazado_798343" data-name="Trazado 798343" d="M197.752,304.852s-5.635.818-9.086,4.76-.523,6.543,6.183,5.84,14.443-7.565,14.771-7.933S202.627,302.488,197.752,304.852Z" transform="translate(-158.519 -156.401)" fill="#fff" stroke="#263238" stroke-linecap="round" stroke-linejoin="round" stroke-width="1"/>
        <path id="Trazado_798344" data-name="Trazado 798344" d="M211.892,306.907a53.217,53.217,0,0,1,10.632,1.636c4.637,1.366,12.816,4.089,14.722,4.089s1.366-7.091,1.366-8.449S214.075,302,211.074,302,211.892,306.907,211.892,306.907Z" transform="translate(-162.656 -156.003)" fill="#fff" stroke="#263238" stroke-linecap="round" stroke-linejoin="round" stroke-width="1"/>
        <path id="Trazado_798345" data-name="Trazado 798345" d="M244.082,304.669s-2.184,1.088-3,5.177-1.906,6.273-.27,7.361,8.727,1.906,9.814.818a26.894,26.894,0,0,0,4.637-10.084C255.811,304.4,244.082,304.669,244.082,304.669Z" transform="translate(-168.127 -156.488)" fill="#ffce1f" stroke="#263238" stroke-linecap="round" stroke-linejoin="round" stroke-width="1"/>
        <path id="Trazado_798346" data-name="Trazado 798346" d="M255.359,304.717a17.085,17.085,0,0,0-2.993,4.907A45.6,45.6,0,0,0,251,315.349a53.2,53.2,0,0,1,7.631,2.732c4.367,1.906,11.728,3.271,18.811,4.907s9,3.271,11.45,3.271,5.455-1.914,9.275-6.543.54-14.452-3.271-17.453-24.266-5.447-26.99-4.629S255.359,304.717,255.359,304.717Z" transform="translate(-170.138 -155.179)" fill="#263238" stroke="#263238" stroke-linecap="round" stroke-linejoin="round" stroke-width="1"/>
        <path id="Trazado_798347" data-name="Trazado 798347" d="M192.591,316.558a16.431,16.431,0,0,0-3.19-6.7c-.254.237-.5.483-.736.752C185.631,314.064,187.529,316.517,192.591,316.558Z" transform="translate(-158.519 -157.435)" fill="#ffce1f" stroke="#263238" stroke-linecap="round" stroke-linejoin="round" stroke-width="1"/>
        <path id="Trazado_798348" data-name="Trazado 798348" d="M225.255,320.69s-2.813,30.106-8.555,34.792" transform="translate(-163.891 -159.407)" fill="none" stroke="#fff" stroke-linecap="round" stroke-linejoin="round" stroke-width="0.5"/>
        <path id="Trazado_798349" data-name="Trazado 798349" d="M222.929,355.63s-2.233,9.814-8.089,13.716" transform="translate(-163.552 -165.771)" fill="none" stroke="#fff" stroke-linecap="round" stroke-linejoin="round" stroke-width="0.5"/>
        <path id="Trazado_798350" data-name="Trazado 798350" d="M267.9,314s-8.727.548-3,4.359,16.087,6.273,16.087,6.273" transform="translate(-172.314 -158.189)" fill="none" stroke="#fff" stroke-linecap="round" stroke-linejoin="round" stroke-width="0.5"/>
        <path id="Trazado_798351" data-name="Trazado 798351" d="M311.065,297.028l-2.944-2.65-6.8-14.722a3.918,3.918,0,0,0-3.566-2.216H165.584a3.918,3.918,0,0,0-3.574,2.216l-8.481,18.337-1.4-.515v4.2l.065-.049a2.331,2.331,0,0,0,2.347,1.987H308.784a2.3,2.3,0,0,0,2.347-2.167Z" transform="translate(-152.13 -151.53)" fill="#263238" stroke="#263238" stroke-linecap="round" stroke-linejoin="round" stroke-width="1"/>
        <path id="Trazado_798352" data-name="Trazado 798352" d="M308.8,298.922H154.557a2.257,2.257,0,0,1-2.159-3.157l9.626-20.8a3.9,3.9,0,0,1,3.574-2.216H297.765a3.9,3.9,0,0,1,3.566,2.216l9.626,20.8a2.257,2.257,0,0,1-2.159,3.157Z" transform="translate(-152.145 -150.676)" fill="#fff" stroke="#263238" stroke-linecap="round" stroke-linejoin="round" stroke-width="1"/>
        <path id="Trazado_798353" data-name="Trazado 798353" d="M164.179,285.451s-3.492,2.4-1.309,3.271,27.284.221,30.343-.654,6.543-8.947,6.543-10.256-4.4-2.249-6.019-2.323-23.015,1.227-23.015,1.227Z" transform="translate(-153.955 -151.174)" fill="#ffce1f" opacity="0.5"/>
        <ellipse id="Elipse_8327" data-name="Elipse 8327" cx="8.947" cy="3.713" rx="8.947" ry="3.713" transform="translate(126.131 130.997)" fill="#ffce1f" opacity="0.5"/>
        <ellipse id="Elipse_8328" data-name="Elipse 8328" cx="32.085" cy="6.003" rx="32.085" ry="6.003" transform="translate(46.029 131.005)" fill="#ffce1f" opacity="0.5"/>
        <path id="Trazado_798354" data-name="Trazado 798354" d="M308.362,269.956s-.589-2.347-2.544-1.562-1.758,5.97-1.374,8.907,3.034,1.562,3.034,1.562V277.1s-.973.777-1.464-.294-.393-6.461.1-6.363,1.464,1.758,1.464,1.758S307.871,272.017,308.362,269.956Z" transform="translate(-179.826 -149.853)" fill="#ffce1f" stroke="#263238" stroke-linecap="round" stroke-linejoin="round" stroke-width="1"/>
        <path id="Trazado_798355" data-name="Trazado 798355" d="M307.57,270.82v12.857c0,1.513,3.476,2.74,7.77,2.74s7.762-1.227,7.762-2.74V270.82Z" transform="translate(-180.441 -150.324)" fill="#ffce1f" stroke="#263238" stroke-linecap="round" stroke-linejoin="round" stroke-width="1"/>
        <path id="Trazado_798356" data-name="Trazado 798356" d="M323.1,270.294c0,1.309-3.476,2.364-7.762,2.364s-7.77-1.055-7.77-2.364,3.476-2.364,7.77-2.364S323.1,268.993,323.1,270.294Z" transform="translate(-180.441 -149.798)" fill="#fff" stroke="#263238" stroke-linecap="round" stroke-linejoin="round" stroke-width="1"/>
        <path id="Trazado_798357" data-name="Trazado 798357" d="M322.313,270.363c0,1.137-3.026,2.053-6.747,2.053s-6.756-.916-6.756-2.053,3.026-2.053,6.756-2.053S322.313,269.226,322.313,270.363Z" transform="translate(-180.667 -149.867)" fill="#fff" stroke="#263238" stroke-linecap="round" stroke-linejoin="round" stroke-width="1"/>
        <path id="Trazado_798358" data-name="Trazado 798358" d="M310.7,272.254a18.582,18.582,0,0,0,10.411,0,18.582,18.582,0,0,0-10.411,0Z" transform="translate(-181.011 -150.45)" fill="#263238" stroke="#263238" stroke-linecap="round" stroke-linejoin="round" stroke-width="1"/>
        <path id="Trazado_798359" data-name="Trazado 798359" d="M163.45,277.913l.1,4.4,29.648.294V277.52Z" transform="translate(-154.192 -151.544)" fill="#fff" stroke="#263238" stroke-linecap="round" stroke-linejoin="round" stroke-width="1"/>
        <path id="Trazado_798360" data-name="Trazado 798360" d="M199.776,281.061l4.31-9.291v-2.74l-4.506,7.827Z" transform="translate(-160.772 -149.998)" fill="#fff" stroke="#263238" stroke-linecap="round" stroke-linejoin="round" stroke-width="1"/>
        <path id="Trazado_798361" data-name="Trazado 798361" d="M163.45,282.814l.1,4.408,29.648.294V282.43Z" transform="translate(-154.192 -152.439)" fill="#fff" stroke="#263238" stroke-linecap="round" stroke-linejoin="round" stroke-width="1"/>
        <path id="Trazado_798362" data-name="Trazado 798362" d="M199.776,285.969l4.31-9.3v-2.74l-4.506,7.827Z" transform="translate(-160.772 -150.891)" fill="#fff" stroke="#263238" stroke-linecap="round" stroke-linejoin="round" stroke-width="1"/>
        <path id="Trazado_798363" data-name="Trazado 798363" d="M173.8,263.893s.687-1.366-.294-1.955-2.053.818-2.642,1.268-12.914,8.612-13.307,9.888,0,4.089,2.642,4.4,4.989-1.464,6.167-1.758,1.636-.393,1.636-.393l8.121-10.959Z" transform="translate(-153.096 -148.681)" fill="#fff" stroke="#263238" stroke-linecap="round" stroke-linejoin="round" stroke-width="1"/>
        <path id="Trazado_798364" data-name="Trazado 798364" d="M160.2,279.931c2.642.294,4.989-1.464,6.167-1.758S168,277.78,168,277.78l.294-.4-7.631-1.554a2.56,2.56,0,0,0-3.132-.294C157.166,276.79,157.558,279.628,160.2,279.931Z" transform="translate(-153.093 -151.109)" fill="#fff" stroke="#263238" stroke-linecap="round" stroke-linejoin="round" stroke-width="1"/>
        <path id="Trazado_798365" data-name="Trazado 798365" d="M161.42,273.885h22.9a64.161,64.161,0,0,0,9.3-.393l4.4-9.1s-13.9.883-18.2.589a32.379,32.379,0,0,1-5.283-.589Z" transform="translate(-153.822 -149.153)" fill="#fff" stroke="#263238" stroke-linecap="round" stroke-linejoin="round" stroke-width="1"/>
        <path id="Trazado_798366" data-name="Trazado 798366" d="M161.42,275.911l.393,1.758s18.59.1,23.481.1,8.612.2,8.612.2l-.294-2.454Z" transform="translate(-153.822 -151.178)" fill="#fff" stroke="#263238" stroke-linecap="round" stroke-linejoin="round" stroke-width="1"/>
        <path id="Trazado_798367" data-name="Trazado 798367" d="M201.074,275.908l4.106-9.4V264.36l-4.4,9.1Z" transform="translate(-160.991 -149.147)" fill="#fff" stroke="#263238" stroke-linecap="round" stroke-linejoin="round" stroke-width="1"/>
        <path id="Trazado_798368" data-name="Trazado 798368" d="M269.2,291.5H213.139a.941.941,0,0,1-.949-.941h0a.941.941,0,0,1,.949-.941H269.2a.932.932,0,0,1,.941.941h0a.932.932,0,0,1-.941.941Z" transform="translate(-163.069 -153.748)" fill="#fff" stroke="#263238" stroke-linecap="round" stroke-linejoin="round" stroke-width="1"/>
        <path id="Trazado_798369" data-name="Trazado 798369" d="M268.908,280.929H211.886a.818.818,0,0,1-.818-.769l-3.1-37.254a.818.818,0,0,1,.818-.916h63.229a.818.818,0,0,1,.818.916l-3.1,37.254A.818.818,0,0,1,268.908,280.929Z" transform="translate(-162.299 -145.073)" fill="#fff" stroke="#263238" stroke-linecap="round" stroke-linejoin="round" stroke-width="1"/>
        <path id="Trazado_798370" data-name="Trazado 798370" d="M251.8,265.686c0,2.225-2.413,4.024-5.382,4.024s-5.39-1.8-5.39-4.024,2.413-4.016,5.39-4.016S251.8,263.469,251.8,265.686Z" transform="translate(-168.322 -148.658)" fill="#fff" stroke="#263238" stroke-linecap="round" stroke-linejoin="round" stroke-width="1"/>
        <path id="Trazado_798371" data-name="Trazado 798371" d="M322.33,229.847a4.859,4.859,0,0,0,1.742-2.723,5.03,5.03,0,0,0-.057-2.454" transform="translate(-183.13 -141.919)" fill="none" stroke="#263238" stroke-linecap="round" stroke-linejoin="round" stroke-width="1"/>
        <path id="Trazado_798372" data-name="Trazado 798372" d="M313.434,260.438s5.439-3.271,3.664-7.009-7.778-6.216-7.778-12.039c0-5.022,5.341-6.878,8.825-8.89" transform="translate(-180.76 -143.345)" fill="none" stroke="#263238" stroke-linecap="round" stroke-linejoin="round" stroke-width="1"/>
        <path id="Trazado_798373" data-name="Trazado 798373" d="M319.978,263.8s3.034-2.02,3.034-5.226c0-2.151-2.3-3.558-5.332-7.017" transform="translate(-182.283 -146.816)" fill="none" stroke="#263238" stroke-linecap="round" stroke-linejoin="round" stroke-width="1"/>
        <path id="Trazado_798374" data-name="Trazado 798374" d="M315.394,248s-1.987-1.562-.523-4.5" transform="translate(-181.673 -145.348)" fill="none" stroke="#263238" stroke-linecap="round" stroke-linejoin="round" stroke-width="1"/>
        <path id="Trazado_798375" data-name="Trazado 798375" d="M253.356,140.469c.973-.2,3.059-1.006,4.466-4.269a.409.409,0,0,0-.213-.54.417.417,0,0,0-.54.213c-1.292,2.993-3.141,3.656-3.909,3.8a9.389,9.389,0,0,0,2.151-5.913c0-5.676-5.259-10.272-11.745-10.272s-11.744,4.6-11.744,10.272a9.389,9.389,0,0,0,1.963,5.725c-1.235-.065-3.321.458-5.962,3.541a.417.417,0,0,0,0,.581.425.425,0,0,0,.27.1.4.4,0,0,0,.311-.147c3.378-3.934,5.611-3.271,6.06-3.092a12.023,12.023,0,0,0-2.135,1.5c-3.77,3.394-6.069,9.814-5.774,15.163a19.719,19.719,0,0,0,3.721,9.814,22.818,22.818,0,0,0,6.649-7.443,62.494,62.494,0,0,0,3.271-6.682c0,2.4.311,5.292,1.57,7.361a10.436,10.436,0,0,0,9.176,5.365,8.645,8.645,0,0,0,1.922-.188.409.409,0,0,0,.262-.2c3.157.671,6.3.613,6.78-.057.777-1.071,1.881-4.416,2.249-8.506C262.827,149.653,258.459,143.634,253.356,140.469ZM242.527,159.68c-1.587-2.593-1.538-6.821-1.349-9.25l.106-.278a16.652,16.652,0,0,0,6.649,12.816,11.981,11.981,0,0,0,3.623,1.693A9.555,9.555,0,0,1,242.527,159.68Z" transform="translate(-165.681 -123.49)" fill="#263238"/>
        <path id="Trazado_798376" data-name="Trazado 798376" d="M246.255,152s-.671,4.956,5.627,9.814,12.268,2.944,12.268,2.944" transform="translate(-169.27 -128.683)" fill="none" stroke="#fff" stroke-linecap="round" stroke-linejoin="round" stroke-width="0.5"/>
        <path id="Trazado_798377" data-name="Trazado 798377" d="M247.39,150s6.633,9.659,15.793,7.14" transform="translate(-169.48 -128.318)" fill="none" stroke="#fff" stroke-linecap="round" stroke-linejoin="round" stroke-width="0.5"/>
        <path id="Trazado_798378" data-name="Trazado 798378" d="M240.724,145.915a6.4,6.4,0,0,0-6.633.507c-3.525,2.347-5.292,7.892-5.292,7.892" transform="translate(-166.094 -127.448)" fill="none" stroke="#fff" stroke-linecap="round" stroke-linejoin="round" stroke-width="0.5"/>
        <path id="Trazado_798379" data-name="Trazado 798379" d="M242.075,149.324s-2.854-.761-4.621,1.006a11.385,11.385,0,0,0-2.184,2.691" transform="translate(-167.273 -128.166)" fill="none" stroke="#fff" stroke-linecap="round" stroke-linejoin="round" stroke-width="0.5"/>
      </g>
    </g>
    <path id="Trazado_800406" data-name="Trazado 800406" d="M186.457,17V4.2h4.6a6.509,6.509,0,0,1,3.757.905A3.012,3.012,0,0,1,196.1,7.736a3.045,3.045,0,0,1-.457,1.7A2.663,2.663,0,0,1,194.3,10.47a2.7,2.7,0,0,1,1.538.984,2.862,2.862,0,0,1,.536,1.758,3.388,3.388,0,0,1-1.191,2.826,5.667,5.667,0,0,1-3.529.962Zm3.085-5.44v3.067h2.021a1.923,1.923,0,0,0,1.283-.382,1.338,1.338,0,0,0,.448-1.077A1.419,1.419,0,0,0,191.7,11.56Zm0-2.021h1.608a2.285,2.285,0,0,0,1.441-.37,1.314,1.314,0,0,0,.431-1.067,1.379,1.379,0,0,0-.466-1.168,2.493,2.493,0,0,0-1.5-.357h-1.512ZM201.056,17h-2.971V3.5h2.971Zm1.45-4.843a5.613,5.613,0,0,1,.554-2.536,3.96,3.96,0,0,1,1.591-1.709,4.791,4.791,0,0,1,2.435-.6,4.373,4.373,0,0,1,3.366,1.323,5.076,5.076,0,0,1,1.23,3.6v.105a4.925,4.925,0,0,1-1.235,3.529,4.384,4.384,0,0,1-3.344,1.305,4.434,4.434,0,0,1-3.261-1.217,4.761,4.761,0,0,1-1.327-3.3Zm2.962.185a3.538,3.538,0,0,0,.413,1.934,1.376,1.376,0,0,0,1.222.615q1.582,0,1.617-2.435v-.3q0-2.558-1.635-2.558-1.485,0-1.608,2.206Zm7.172-.167a6.421,6.421,0,0,1,.475-2.549,3.821,3.821,0,0,1,1.362-1.709,3.591,3.591,0,0,1,2.065-.6,2.855,2.855,0,0,1,2.32,1l.105-.826h2.689V16.64a4.009,4.009,0,0,1-.584,2.184,3.75,3.75,0,0,1-1.692,1.424,6.219,6.219,0,0,1-2.566.5,5.365,5.365,0,0,1-2.026-.4,3.657,3.657,0,0,1-1.5-1.028l1.239-1.74a2.716,2.716,0,0,0,2.18.976,1.764,1.764,0,0,0,1.969-2.021v-.3a2.781,2.781,0,0,1-2.153.94,3.437,3.437,0,0,1-2.812-1.332,5.517,5.517,0,0,1-1.072-3.564Zm2.971.185a3.383,3.383,0,0,0,.439,1.85,1.387,1.387,0,0,0,1.23.681,1.573,1.573,0,0,0,1.4-.642v-4a1.534,1.534,0,0,0-1.38-.65,1.4,1.4,0,0,0-1.239.708A3.858,3.858,0,0,0,215.61,12.359Z" transform="translate(-1096 -10889)" fill="#fff"/>
  </g>
</svg>
