<svg xmlns="http://www.w3.org/2000/svg" xmlns:xlink="http://www.w3.org/1999/xlink" width="85" height="85" viewBox="0 0 85 85">
  <defs>
    <clipPath id="clip-path">
      <rect id="Rect치ngulo_373847" data-name="Rect치ngulo 373847" width="57" height="57" transform="translate(194 460)" fill="#fff"/>
    </clipPath>
  </defs>
  <g id="Grupo_1063897" data-name="Grupo 1063897" transform="translate(-180 -446)">
    <rect id="Rect치ngulo_373435" data-name="Rect치ngulo 373435" width="85" height="85" rx="5" transform="translate(180 446)" fill="#6936c1"/>
    <g id="Enmascarar_grupo_1059016" data-name="Enmascarar grupo 1059016" clip-path="url(#clip-path)">
      <g id="redes-sociales" transform="translate(194 460)">
        <g id="Grupo_1064670" data-name="Grupo 1064670">
          <g id="Grupo_1064658" data-name="Grupo 1064658">
            <g id="Grupo_1064657" data-name="Grupo 1064657">
              <g id="Grupo_1064656" data-name="Grupo 1064656">
                <g id="Grupo_1064655" data-name="Grupo 1064655">
                  <g id="Grupo_1064654" data-name="Grupo 1064654">
                    <path id="Trazado_797405" data-name="Trazado 797405" d="M41.356,55.877H16.238a4.407,4.407,0,0,1-4.407-4.407V5.53a4.407,4.407,0,0,1,4.407-4.407H41.356A4.407,4.407,0,0,1,45.763,5.53V51.47A4.407,4.407,0,0,1,41.356,55.877Z" fill="#3d6d93"/>
                    <path id="Trazado_797406" data-name="Trazado 797406" d="M41.356,1.123H38.051A4.407,4.407,0,0,1,42.458,5.53V51.47a4.407,4.407,0,0,1-4.407,4.407h3.305a4.407,4.407,0,0,0,4.407-4.407V5.53a4.407,4.407,0,0,0-4.407-4.407Z" fill="#335e80"/>
                    <path id="Trazado_797407" data-name="Trazado 797407" d="M36.889,5.31A1.489,1.489,0,0,1,35.4,6.8H22.194A1.489,1.489,0,0,1,20.705,5.31a.881.881,0,0,0-.881-.881H16.789a1.653,1.653,0,0,0-1.653,1.653V50.919a1.653,1.653,0,0,0,1.653,1.653H40.805a1.653,1.653,0,0,0,1.653-1.653V6.081a1.653,1.653,0,0,0-1.653-1.653H37.771a.881.881,0,0,0-.881.881Z" fill="#f9f7f8"/>
                  </g>
                </g>
              </g>
            </g>
          </g>
          <g id="Grupo_1064661" data-name="Grupo 1064661">
            <g id="Grupo_1064659" data-name="Grupo 1064659">
              <circle id="Elipse_8270" data-name="Elipse 8270" cx="9.526" cy="9.526" r="9.526" transform="translate(1.42 7.139)" fill="#ffe179"/>
              <path id="Trazado_797408" data-name="Trazado 797408" d="M10.947,7.139a9.576,9.576,0,0,0-1.653.146,9.524,9.524,0,0,1,0,18.76A9.525,9.525,0,1,0,10.947,7.139Z" fill="#fbd268"/>
            </g>
            <g id="Grupo_1064660" data-name="Grupo 1064660">
              <path id="Trazado_797409" data-name="Trazado 797409" d="M14.251,21.623H7.641A1.653,1.653,0,0,1,5.989,19.97V13.36a1.653,1.653,0,0,1,1.653-1.653h6.61A1.653,1.653,0,0,1,15.9,13.36v6.61A1.652,1.652,0,0,1,14.251,21.623Z" fill="#f58a97"/>
              <path id="Trazado_797410" data-name="Trazado 797410" d="M14.252,11.707H10.947A1.653,1.653,0,0,1,12.6,13.36v6.61a1.653,1.653,0,0,1-1.653,1.653h3.305A1.653,1.653,0,0,0,15.9,19.97V13.36a1.653,1.653,0,0,0-1.653-1.653Z" fill="#f07281"/>
              <circle id="Elipse_8271" data-name="Elipse 8271" cx="1.653" cy="1.653" r="1.653" transform="translate(9.294 15.012)" fill="#fff"/>
            </g>
          </g>
          <g id="Grupo_1064663" data-name="Grupo 1064663">
            <g id="Grupo_1064662" data-name="Grupo 1064662">
              <circle id="Elipse_8272" data-name="Elipse 8272" cx="9.526" cy="9.526" r="9.526" transform="translate(0.826 29.62)" fill="#8fd8fa"/>
              <path id="Trazado_797411" data-name="Trazado 797411" d="M10.352,29.62a9.567,9.567,0,0,0-1.762.165,9.525,9.525,0,0,1,0,18.721A9.525,9.525,0,1,0,10.352,29.62Z" fill="#6bcdfe"/>
            </g>
            <g id="Shape_2_">
              <path id="Trazado_797412" data-name="Trazado 797412" d="M13.386,35.493A2.1,2.1,0,0,0,9.693,36.9v.47a5.009,5.009,0,0,1-3.919-1.731.281.281,0,0,0-.484.1,4.372,4.372,0,0,0,2.524,5.61,5.469,5.469,0,0,1-2.2.874c-.2.033-.1.409-.052.543.355.925,4.354,1.309,6.8-.705a6.425,6.425,0,0,0,2.118-3.941,4.332,4.332,0,0,0,1.165-2.29.5.5,0,0,0-.72-.534,2.411,2.411,0,0,1-.528.184,2.461,2.461,0,0,1-1.015.01Z" fill="#fff"/>
            </g>
          </g>
          <g id="Grupo_1064666" data-name="Grupo 1064666">
            <g id="Grupo_1064664" data-name="Grupo 1064664">
              <circle id="Elipse_8273" data-name="Elipse 8273" cx="9.526" cy="9.526" r="9.526" transform="translate(37.122 29.62)" fill="#f58a97"/>
              <path id="Trazado_797413" data-name="Trazado 797413" d="M46.648,29.62A9.576,9.576,0,0,0,45,29.766a9.524,9.524,0,0,1,0,18.76A9.525,9.525,0,1,0,46.648,29.62Z" fill="#f07281"/>
            </g>
            <g id="Grupo_1064665" data-name="Grupo 1064665">
              <path id="Trazado_797414" data-name="Trazado 797414" d="M44.309,35.906a.32.32,0,0,1,.48-.277l5.794,3.347a.32.32,0,0,1,0,.554l-5.794,3.347a.32.32,0,0,1-.48-.277Z" fill="#fff"/>
            </g>
          </g>
          <g id="Grupo_1064668" data-name="Grupo 1064668">
            <g id="Grupo_1064667" data-name="Grupo 1064667">
              <circle id="Elipse_8274" data-name="Elipse 8274" cx="9.526" cy="9.526" r="9.526" transform="translate(37.122 7.139)" fill="#8fd8fa"/>
              <path id="Trazado_797415" data-name="Trazado 797415" d="M46.648,7.139A9.576,9.576,0,0,0,45,7.285a9.524,9.524,0,0,1,0,18.76A9.525,9.525,0,1,0,46.648,7.139Z" fill="#6bcdfe"/>
            </g>
          </g>
          <path id="Trazado_797416" data-name="Trazado 797416" d="M28.618,21.844a6.658,6.658,0,0,0-6.124,8.8.761.761,0,0,1,0,.5L21.6,33.665a.441.441,0,0,0,.562.562l1.774-.624a.778.778,0,0,1,.741.128,6.658,6.658,0,1,0,3.939-11.888Z" fill="#aee69c"/>
          <g id="Grupo_1064669" data-name="Grupo 1064669">
            <path id="Trazado_797417" data-name="Trazado 797417" d="M28.618,21.844a6.577,6.577,0,0,0-1.47.207,6.657,6.657,0,0,1-.008,12.9,6.658,6.658,0,1,0,1.479-13.1Z" fill="#89daa4"/>
          </g>
        </g>
        <g id="Grupo_1064671" data-name="Grupo 1064671">
          <path id="Trazado_797418" data-name="Trazado 797418" d="M43.759,17.231H45.09v5.252a.826.826,0,1,0,1.653,0V17.231h1.331a.826.826,0,0,0,0-1.653H46.742v-2.4a.837.837,0,0,1,.837-.837h1.958a.826.826,0,1,0,0-1.653H47.579a2.492,2.492,0,0,0-2.489,2.489v2.4H43.759a.826.826,0,0,0,0,1.653ZM28.8,4.788a.826.826,0,1,0-.826-.826A.826.826,0,0,0,28.8,4.788ZM10.946,19.144a2.479,2.479,0,1,0-2.479-2.479A2.482,2.482,0,0,0,10.946,19.144Zm0-3.305a.826.826,0,1,1-.826.826A.827.827,0,0,1,10.946,15.839Zm3.305,6.61A2.482,2.482,0,0,0,16.73,19.97V13.36a2.482,2.482,0,0,0-2.479-2.479H7.641A2.482,2.482,0,0,0,5.163,13.36v6.61a2.482,2.482,0,0,0,2.479,2.479ZM6.815,19.97V13.36a.827.827,0,0,1,.826-.826h6.61a.827.827,0,0,1,.826.826v6.61a.827.827,0,0,1-.826.826H7.641A.827.827,0,0,1,6.815,19.97Zm9.139,14.718a1.331,1.331,0,0,0-1.386-.133,1.6,1.6,0,0,1-.347.121,1.585,1.585,0,0,1-.443.035,2.932,2.932,0,0,0-4.886,1.782A4.163,4.163,0,0,1,6.4,35.1a1.107,1.107,0,0,0-1.9.407,5.3,5.3,0,0,0,1.577,5.765c-.466.142-1,.131-1.269.6a1.421,1.421,0,0,0-.014,1.188A2.02,2.02,0,0,0,6.3,44.156a6.7,6.7,0,0,0,1.669.192A7.82,7.82,0,0,0,12.891,42.7a7.1,7.1,0,0,0,2.363-4.2,5.158,5.158,0,0,0,1.209-2.533,1.321,1.321,0,0,0-.509-1.284Zm-2.063,2.86a.826.826,0,0,0-.222.44,5.571,5.571,0,0,1-1.827,3.438A6.5,6.5,0,0,1,7.156,42.64a6.294,6.294,0,0,0,1.122-.6A.826.826,0,0,0,8.149,40.6,3.4,3.4,0,0,1,5.9,36.905,5.8,5.8,0,0,0,9.714,38.2a.826.826,0,0,0,.8-.826V36.9s0-.007,0-.011a1.279,1.279,0,0,1,2.243-.856.826.826,0,0,0,.462.268,3.261,3.261,0,0,0,1.462-.039,3.516,3.516,0,0,1-.8,1.284Zm32.757-8.754h-.059V27.017h.059a10.352,10.352,0,1,0-.059-20.7V5.53A5.239,5.239,0,0,0,41.356.3H16.238A5.239,5.239,0,0,0,11.005,5.53v.784a10.308,10.308,0,0,0-5.68,1.657.826.826,0,0,0,.9,1.387,8.7,8.7,0,1,1-2.5,2.454.826.826,0,1,0-1.371-.923,10.354,10.354,0,0,0,8.592,16.129h.059v1.8c-.216-.014-.434-.021-.653-.021a10.352,10.352,0,0,0,0,20.7c.219,0,.437-.008.653-.021V51.47A5.239,5.239,0,0,0,16.238,56.7H41.356a5.239,5.239,0,0,0,5.233-5.233V49.5h.059a10.352,10.352,0,0,0,0-20.7Zm0-20.829a8.7,8.7,0,1,1-8.7,8.7A8.71,8.71,0,0,1,46.648,7.965Zm-1.711,18.91v2.059a10.3,10.3,0,0,0-1.653.415V26.456a10.247,10.247,0,0,0,1.653.419ZM14.31,6.081v.793a10.261,10.261,0,0,0-1.653-.419V5.53a3.584,3.584,0,0,1,3.58-3.58H41.356a3.584,3.584,0,0,1,3.58,3.58v.925a10.261,10.261,0,0,0-1.653.419V6.081A2.482,2.482,0,0,0,40.805,3.6H37.77A1.709,1.709,0,0,0,36.063,5.31a.664.664,0,0,1-.663.663h-13.2a.664.664,0,0,1-.663-.663A1.707,1.707,0,0,0,19.824,3.6H16.789A2.482,2.482,0,0,0,14.31,6.081ZM12.658,26.875a10.262,10.262,0,0,0,1.653-.419v3.125a10.257,10.257,0,0,0-1.653-.528ZM10.352,47.846a8.7,8.7,0,1,1,8.7-8.7A8.6,8.6,0,0,1,10.352,47.846ZM44.937,51.47a3.584,3.584,0,0,1-3.58,3.58H16.238a3.584,3.584,0,0,1-3.58-3.58v-2.23a10.257,10.257,0,0,0,1.653-.528v2.208A2.482,2.482,0,0,0,16.789,53.4H40.805a2.482,2.482,0,0,0,2.479-2.479V48.937a10.262,10.262,0,0,0,1.653.419Zm1.711-3.624a8.708,8.708,0,0,1-8.419-10.9.826.826,0,1,0-1.6-.417,10.361,10.361,0,0,0,5,11.669v2.72a.827.827,0,0,1-.826.826H16.789a.827.827,0,0,1-.826-.826V47.842a10.345,10.345,0,0,0,0-17.392V25.718a10.347,10.347,0,0,0,0-18.106V6.081a.827.827,0,0,1,.826-.826h3.035a.055.055,0,0,1,.039.016.052.052,0,0,1,.016.039A2.318,2.318,0,0,0,22.2,7.625H35.4A2.318,2.318,0,0,0,37.715,5.31a.055.055,0,0,1,.055-.055h3.035a.827.827,0,0,1,.826.826V7.612a10.347,10.347,0,0,0,.006,18.109.843.843,0,0,0-.006.095v4.267a10.373,10.373,0,0,0-3.187,2.747.826.826,0,0,0,1.309,1.009,8.593,8.593,0,0,1,6.894-3.393,8.7,8.7,0,1,1,0,17.4ZM31.825,28.227a.827.827,0,0,0-1.135.278,1.984,1.984,0,0,1-.617.629.75.75,0,0,1-.792.011l-1.237-.751a.766.766,0,0,1-.354-.729,1.94,1.94,0,0,1,.271-.817.826.826,0,1,0-1.412-.858,3.606,3.606,0,0,0-.5,1.521l0,.017a2.412,2.412,0,0,0,1.143,2.279l1.237.751a2.411,2.411,0,0,0,2.549-.037A3.645,3.645,0,0,0,32.1,29.362.826.826,0,0,0,31.825,28.227ZM51,38.26,45.2,34.914a1.155,1.155,0,0,0-1.719.993V42.6a1.158,1.158,0,0,0,1.719.993L51,40.246A1.159,1.159,0,0,0,51,38.26Zm-5.86,3.462V36.783l4.275,2.47ZM28.6,21.018a7.485,7.485,0,0,0-6.893,9.87l-.88,2.5a1.267,1.267,0,0,0,1.615,1.615l1.745-.613A7.484,7.484,0,1,0,28.6,21.018ZM28.96,34.33a5.852,5.852,0,0,1-3.768-1.247,1.609,1.609,0,0,0-1-.349,1.59,1.59,0,0,0-.528.09l-1.016.357.62-1.763a1.592,1.592,0,0,0,.007-1.038,5.832,5.832,0,1,1,5.684,3.95Z"/>
        </g>
      </g>
    </g>
  </g>
</svg>
