<svg xmlns="http://www.w3.org/2000/svg" xmlns:xlink="http://www.w3.org/1999/xlink" width="295" height="315" viewBox="0 0 295 315">
  <defs>
    <clipPath id="clip-path">
      <rect id="Rectángulo_374872" data-name="Rectángulo 374872" width="293.681" height="314.178" fill="none"/>
    </clipPath>
    <clipPath id="clip-path-3">
      <rect id="Rectángulo_374865" data-name="Rectángulo 374865" width="26.863" height="23.933" fill="none"/>
    </clipPath>
    <clipPath id="clip-path-4">
      <rect id="Rectángulo_374866" data-name="Rectángulo 374866" width="12.802" height="13.394" fill="none"/>
    </clipPath>
    <clipPath id="clip-path-5">
      <rect id="Rectángulo_374867" data-name="Rectángulo 374867" width="18.41" height="9.914" fill="none"/>
    </clipPath>
    <clipPath id="clip-path-6">
      <rect id="Rectángulo_374868" data-name="Rectángulo 374868" width="34.099" height="12.488" fill="none"/>
    </clipPath>
    <clipPath id="clip-path-7">
      <rect id="Rectángulo_374869" data-name="Rectángulo 374869" width="15.639" height="17.338" fill="none"/>
    </clipPath>
    <clipPath id="clip-path-8">
      <rect id="Rectángulo_374870" data-name="Rectángulo 374870" width="14.544" height="30.743" fill="none"/>
    </clipPath>
  </defs>
  <g id="Grupo_1066780" data-name="Grupo 1066780" transform="translate(-1125 -8006)">
    <path id="Rectángulo_373750" data-name="Rectángulo 373750" d="M147.5,0h0A147.5,147.5,0,0,1,295,147.5V289a0,0,0,0,1,0,0H0a0,0,0,0,1,0,0V147.5A147.5,147.5,0,0,1,147.5,0Z" transform="translate(1125 8006)" fill="#6936c1"/>
    <g id="Grupo_1066779" data-name="Grupo 1066779" transform="translate(1125 8006.822)">
      <g id="Grupo_1066778" data-name="Grupo 1066778" clip-path="url(#clip-path)">
        <g id="Grupo_1066777" data-name="Grupo 1066777">
          <g id="Grupo_1066776" data-name="Grupo 1066776" clip-path="url(#clip-path)">
            <path id="Trazado_800251" data-name="Trazado 800251" d="M162.939,84.34S131.248,41.917,92.824,45.164,49.543,93.3,74.254,131.587s-34.827,83.17,14.46,107.986,98.16-26.411,146.511-30.683,48.947-49.982,34.9-71.128S178.708,106.335,162.939,84.34" transform="translate(-15.088 -11.496)" fill="#ffce1f"/>
            <path id="Trazado_800252" data-name="Trazado 800252" d="M49.421,82.774h0a.916.916,0,0,1-.912-.921,47.1,47.1,0,0,1,4.9-21.46A41.351,41.351,0,0,1,64.02,47.281a43.682,43.682,0,0,1,15.412-8.3.917.917,0,0,1,.453,1.777,42.688,42.688,0,0,0-14.758,7.984c-9.744,8.049-14.72,19.191-14.789,33.116a.916.916,0,0,1-.916.912" transform="translate(-12.395 -9.955)" fill="#ffce1f"/>
            <path id="Trazado_800253" data-name="Trazado 800253" d="M348.239,201.078a.889.889,0,0,1-.176-.017.917.917,0,0,1-.724-1.076,62.563,62.563,0,0,0-5.024-34.522c-4.236-9.172-11.962-15.133-17.7-18.518a54.865,54.865,0,0,0-11.552-5.2.917.917,0,0,1,.5-1.765,55.833,55.833,0,0,1,11.986,5.388c5.96,3.518,14,9.727,18.43,19.328a64.941,64.941,0,0,1,5.777,24.709,52.717,52.717,0,0,1-.618,10.934.917.917,0,0,1-.9.741" transform="translate(-79.831 -35.761)" fill="#ffce1f"/>
            <path id="Trazado_800254" data-name="Trazado 800254" d="M244.541,55.226s2.447-8.36,7.748-7.748,6.117,3.059,10.6,1.223,6.117-7.748,13.458-6.32,8.156,9.583,16.517,8.971,11.214-.815,14.273,3.874Z" transform="translate(-62.491 -10.774)" fill="#ffce1f"/>
            <path id="Trazado_800255" data-name="Trazado 800255" d="M58.195,25.418S61.549,18,70.706,20.213C79.76,22.4,83.66,9.432,91.722,10.266s5.172,8.28,15.458,9.947,13.263-2.39,17.6,5.205Z" transform="translate(-14.871 -2.613)" fill="#ffce1f"/>
            <path id="Trazado_800256" data-name="Trazado 800256" d="M26.344,168.622a1.14,1.14,0,0,1-1.114-.888c-.439-1.9-1.044-2.5-2.941-2.941a1.143,1.143,0,0,1,0-2.228c1.9-.438,2.5-1.043,2.941-2.941a1.143,1.143,0,0,1,2.228,0c.438,1.9,1.044,2.5,2.941,2.941a1.143,1.143,0,0,1,0,2.228c-1.9.439-2.5,1.044-2.941,2.941a1.14,1.14,0,0,1-1.114.888m-2.991-4.943a4.1,4.1,0,0,1,2.991,2.991,4.1,4.1,0,0,1,2.991-2.991,4.1,4.1,0,0,1-2.991-2.991,4.1,4.1,0,0,1-2.991,2.991m6.894.454h0Z" transform="translate(-5.469 -40.564)" fill="#ff4b61"/>
            <path id="Trazado_800257" data-name="Trazado 800257" d="M48.04,182.4a3.521,3.521,0,1,1,3.521-3.521A3.526,3.526,0,0,1,48.04,182.4m0-5.688a2.167,2.167,0,1,0,2.166,2.166,2.169,2.169,0,0,0-2.166-2.166" transform="translate(-11.376 -44.811)" fill="#ffb109"/>
            <path id="Trazado_800258" data-name="Trazado 800258" d="M51.926,150a.678.678,0,0,1-.677-.677v-1.793a.677.677,0,1,1,1.355,0v1.793a.678.678,0,0,1-.677.677" transform="translate(-13.096 -37.528)" fill="#259bff"/>
            <path id="Trazado_800259" data-name="Trazado 800259" d="M51.926,156.441a.678.678,0,0,1-.677-.677V153.97a.677.677,0,1,1,1.355,0v1.793a.678.678,0,0,1-.677.677" transform="translate(-13.096 -39.173)" fill="#259bff"/>
            <path id="Trazado_800260" data-name="Trazado 800260" d="M49.41,152.427H47.616a.677.677,0,1,1,0-1.355H49.41a.677.677,0,1,1,0,1.355" transform="translate(-11.995 -38.605)" fill="#259bff"/>
            <path id="Trazado_800261" data-name="Trazado 800261" d="M55.621,152.427H53.827a.677.677,0,1,1,0-1.355h1.793a.677.677,0,1,1,0,1.355" transform="translate(-13.582 -38.605)" fill="#259bff"/>
            <path id="Trazado_800262" data-name="Trazado 800262" d="M27.686,192.3a.678.678,0,0,1-.677-.677V189.83a.677.677,0,1,1,1.355,0v1.793a.678.678,0,0,1-.677.677" transform="translate(-6.902 -48.337)" fill="#9c5bff"/>
            <path id="Trazado_800263" data-name="Trazado 800263" d="M27.686,198.738a.678.678,0,0,1-.677-.677v-1.793a.677.677,0,1,1,1.355,0v1.793a.678.678,0,0,1-.677.677" transform="translate(-6.902 -49.982)" fill="#9c5bff"/>
            <path id="Trazado_800264" data-name="Trazado 800264" d="M25.17,194.724H23.376a.677.677,0,1,1,0-1.354H25.17a.677.677,0,1,1,0,1.354" transform="translate(-5.801 -49.414)" fill="#9c5bff"/>
            <path id="Trazado_800265" data-name="Trazado 800265" d="M31.381,194.724H29.587a.677.677,0,1,1,0-1.354h1.793a.677.677,0,1,1,0,1.354" transform="translate(-7.388 -49.414)" fill="#9c5bff"/>
            <path id="Trazado_800266" data-name="Trazado 800266" d="M312.747,94.358c-.438-1.9-1.043-2.5-2.94-2.941a1.142,1.142,0,0,1,0-2.227c1.9-.439,2.5-1.044,2.94-2.941a1.143,1.143,0,0,1,2.229,0c.439,1.9,1.044,2.5,2.941,2.941a1.142,1.142,0,0,1,0,2.227c-1.9.439-2.5,1.044-2.941,2.941a1.143,1.143,0,0,1-2.229,0m1.115-7.046A4.1,4.1,0,0,1,310.87,90.3a4.1,4.1,0,0,1,2.992,2.991,4.1,4.1,0,0,1,2.991-2.991,4.1,4.1,0,0,1-2.991-2.991m-3.9,3.445h0Z" transform="translate(-78.942 -21.813)" fill="#ff4b61"/>
            <path id="Trazado_800267" data-name="Trazado 800267" d="M289.622,105.5a3.521,3.521,0,1,1,3.521,3.521,3.525,3.525,0,0,1-3.521-3.521m1.354,0a2.166,2.166,0,1,0,2.166-2.166,2.168,2.168,0,0,0-2.166,2.166" transform="translate(-74.011 -26.06)" fill="#ffb109"/>
            <path id="Trazado_800268" data-name="Trazado 800268" d="M291.208,76.627a.678.678,0,0,0,.677-.677V74.156a.677.677,0,0,0-1.355,0V75.95a.678.678,0,0,0,.677.677" transform="translate(-74.243 -18.777)" fill="#259bff"/>
            <path id="Trazado_800269" data-name="Trazado 800269" d="M291.208,83.065a.678.678,0,0,0,.677-.677V80.594a.677.677,0,0,0-1.355,0v1.793a.678.678,0,0,0,.677.677" transform="translate(-74.243 -20.422)" fill="#259bff"/>
            <path id="Trazado_800270" data-name="Trazado 800270" d="M293.109,79.051H294.9a.677.677,0,1,0,0-1.355h-1.793a.677.677,0,1,0,0,1.355" transform="translate(-74.729 -19.855)" fill="#259bff"/>
            <path id="Trazado_800271" data-name="Trazado 800271" d="M286.9,79.051h1.793a.677.677,0,1,0,0-1.355H286.9a.677.677,0,1,0,0,1.355" transform="translate(-73.141 -19.855)" fill="#259bff"/>
            <path id="Trazado_800272" data-name="Trazado 800272" d="M315.448,118.925a.677.677,0,0,0,.677-.677v-1.793a.677.677,0,1,0-1.355,0v1.793a.678.678,0,0,0,.677.677" transform="translate(-80.437 -29.586)" fill="#9c5bff"/>
            <path id="Trazado_800273" data-name="Trazado 800273" d="M315.448,125.362a.677.677,0,0,0,.677-.677v-1.793a.677.677,0,1,0-1.355,0v1.793a.678.678,0,0,0,.677.677" transform="translate(-80.437 -31.231)" fill="#9c5bff"/>
            <path id="Trazado_800274" data-name="Trazado 800274" d="M317.349,121.348h1.794a.677.677,0,0,0,0-1.354h-1.794a.677.677,0,1,0,0,1.354" transform="translate(-80.923 -30.664)" fill="#9c5bff"/>
            <path id="Trazado_800275" data-name="Trazado 800275" d="M311.138,121.348h1.793a.677.677,0,1,0,0-1.354h-1.793a.677.677,0,1,0,0,1.354" transform="translate(-79.336 -30.664)" fill="#9c5bff"/>
            <path id="Trazado_800276" data-name="Trazado 800276" d="M293.681,381.505c0,13.268-65.743,24.024-146.84,24.024S0,394.774,0,381.505s65.742-24.024,146.84-24.024,146.84,10.756,146.84,24.024" transform="translate(0 -91.352)" fill="#6936c1"/>
            <path id="Trazado_800277" data-name="Trazado 800277" d="M245,333.66H71.315a.6.6,0,0,0-.437.192L39.546,368.035a.592.592,0,0,0,.437.992H276.33a.592.592,0,0,0,.436-.992l-31.331-34.183a.6.6,0,0,0-.437-.192" transform="translate(-10.066 -85.264)" fill="#472850"/>
            <path id="Trazado_800278" data-name="Trazado 800278" d="M59.241,364.6l22.634-27.452H245.381L269.275,364.6Z" transform="translate(-15.139 -86.156)" fill="#fff"/>
            <path id="Trazado_800279" data-name="Trazado 800279" d="M157.019,348.475c0,2.329-8.968,4.217-20.03,4.217s-20.03-1.888-20.03-4.217,8.968-4.217,20.03-4.217,20.03,1.888,20.03,4.217" transform="translate(-29.888 -87.973)" fill="#efd5ca"/>
            <path id="Trazado_800280" data-name="Trazado 800280" d="M268.461,348.475c0,2.329-8.968,4.217-20.03,4.217s-20.03-1.888-20.03-4.217,8.968-4.217,20.03-4.217,20.03,1.888,20.03,4.217" transform="translate(-58.366 -87.973)" fill="#efd5ca"/>
            <path id="Trazado_800281" data-name="Trazado 800281" d="M66.979,357.856l11.279-2.616a2.27,2.27,0,0,0,1.359-.928l5.338-7.792a2.268,2.268,0,0,0-.463-3.06l-3.416-2.7Z" transform="translate(-17.116 -87.078)" fill="#472850"/>
            <path id="Trazado_800282" data-name="Trazado 800282" d="M83.078,345.381,77.5,353.453a.405.405,0,0,0,.418.626l.977-.21a.4.4,0,0,0,.244-.161l5.236-7.355a.405.405,0,0,0-.077-.551l-.631-.508a.4.4,0,0,0-.587.086" transform="translate(-19.785 -88.215)" fill="#674574"/>
            <path id="Trazado_800283" data-name="Trazado 800283" d="M276.812,380.9,270.458,391.8a4.6,4.6,0,0,1-3.974,2.283H49.929a4.6,4.6,0,0,1-3.973-2.283L39.6,380.9Z" transform="translate(-10.119 -97.337)" fill="#674574"/>
            <path id="Trazado_800284" data-name="Trazado 800284" d="M89.019,388.273,88.011,390.1a1,1,0,0,1-.877.518H74.96a1,1,0,0,1-.877-.518l-1.008-1.826a1,1,0,0,1,.877-1.486H88.143a1,1,0,0,1,.877,1.486" transform="translate(-18.641 -98.841)" fill="#886a9d"/>
            <path id="Trazado_800285" data-name="Trazado 800285" d="M114.837,388.273l-1.008,1.826a1,1,0,0,1-.877.518H100.778a1,1,0,0,1-.877-.518l-1.008-1.826a1,1,0,0,1,.877-1.486h14.191a1,1,0,0,1,.877,1.486" transform="translate(-25.239 -98.841)" fill="#886a9d"/>
            <path id="Trazado_800286" data-name="Trazado 800286" d="M156.092,388.273l-1.008,1.826a1,1,0,0,1-.877.518H142.033a1,1,0,0,1-.877-.518l-1.008-1.826a1,1,0,0,1,.877-1.486h14.191a1,1,0,0,1,.877,1.486" transform="translate(-35.782 -98.841)" fill="#886a9d"/>
            <path id="Trazado_800287" data-name="Trazado 800287" d="M136.5,138.284a31.732,31.732,0,0,1-3.81,3.579c-7.078,5.825-20.193,13.771-23.288,7.583-2.909-5.819,4.353-13.858,8.013-17.385,1.159-1.117,1.956-1.784,1.956-1.784s.967.145,2.451.422h0c4.615.858,14.209,2.976,15.124,5.9a1.716,1.716,0,0,1-.45,1.682" transform="translate(-27.785 -33.291)" fill="#ffa86f"/>
            <path id="Trazado_800288" data-name="Trazado 800288" d="M139.482,138.284a31.731,31.731,0,0,1-3.81,3.579c-6.288-2.006-12.347-7.084-15.276-9.8,1.159-1.117,1.956-1.784,1.956-1.784s.967.145,2.451.422h0a131.353,131.353,0,0,0,15.124,5.9,1.716,1.716,0,0,1-.45,1.682" transform="translate(-30.766 -33.291)" fill="#472850"/>
            <path id="Trazado_800289" data-name="Trazado 800289" d="M129.38,140.828s-8.089.591-12.193,2.272c0,0,5.6-4.528,9.915-3.95s2.277,1.678,2.277,1.678" transform="translate(-29.946 -35.546)" fill="#472850"/>
            <path id="Trazado_800290" data-name="Trazado 800290" d="M249.1,137.879a31.732,31.732,0,0,0,3.81,3.579c7.078,5.825,20.193,13.771,23.288,7.583,2.909-5.819-4.353-13.858-8.013-17.385-1.159-1.117-1.956-1.784-1.956-1.784s-.967.145-2.452.422h0c-4.615.858-14.209,2.976-15.124,5.9a1.716,1.716,0,0,0,.45,1.682" transform="translate(-63.523 -33.188)" fill="#ffa86f"/>
            <path id="Trazado_800291" data-name="Trazado 800291" d="M249.1,137.879a31.732,31.732,0,0,0,3.81,3.579c6.288-2.006,12.347-7.084,15.276-9.8-1.159-1.117-1.956-1.784-1.956-1.784s-.967.145-2.452.422h0a131.353,131.353,0,0,1-15.124,5.9,1.716,1.716,0,0,0,.45,1.682" transform="translate(-63.523 -33.188)" fill="#472850"/>
            <path id="Trazado_800292" data-name="Trazado 800292" d="M261.585,140.424s8.089.591,12.193,2.272c0,0-5.6-4.528-9.915-3.95s-2.277,1.678-2.277,1.678" transform="translate(-66.723 -35.442)" fill="#472850"/>
            <path id="Trazado_800293" data-name="Trazado 800293" d="M259.761,221.444s-1.634,5.647-9.956,7.653l-1.052-4.487s8.448-3.942,11.008-3.166" transform="translate(-63.567 -56.563)" fill="#0074e8"/>
            <path id="Trazado_800294" data-name="Trazado 800294" d="M140.8,228.2s2.3,4.569,10.915,2.1l2.638-9.455s-9.111-.706-13.553,7.352" transform="translate(-35.979 -56.432)" fill="#0074e8"/>
            <path id="Trazado_800295" data-name="Trazado 800295" d="M150.064,217.953s-11.331,45.175-8.934,54.389,15.254,16.049,23.753,0,17.938-58.846,17.938-58.846Z" transform="translate(-35.98 -54.557)" fill="#472850"/>
            <path id="Trazado_800296" data-name="Trazado 800296" d="M186.964,237.816s4.031-4.272,14.556-8.022,3.64-18.367,3.64-18.367l-24.369,3.3s-1.554,15.5,6.173,23.086" transform="translate(-46.167 -54.028)" fill="#472850"/>
            <path id="Trazado_800297" data-name="Trazado 800297" d="M165.478,277.37a265.086,265.086,0,0,1-5.793,28.533,269.413,269.413,0,0,1-9.2,26.409c-.628.11-1.279.205-1.943.288-.481.06-.97.115-1.464.162-6.615.63-14.195.074-16.634-1.51l7.823-48.885,23.61-4.333,1.556-.285Z" transform="translate(-33.333 -70.88)" fill="#472850"/>
            <path id="Trazado_800298" data-name="Trazado 800298" d="M177.441,241.2c-.24.85-4.961,17.637-8.3,27.084-.666,1.88-1.276,3.468-1.786,4.584-.233,1.118-2.936,14.027-6.448,26.281-1.493,5.213-4.764,17.09-6.656,23.988-.481.06-.969.115-1.464.162,1.869-6.808,5.269-19.173,6.8-24.525,3.642-12.708,6.412-26.124,6.439-26.258a.66.66,0,0,1,.051-.148c.432-.934.944-2.242,1.5-3.8,3.36-9.314,8.482-27.526,8.542-27.738a.684.684,0,1,1,1.318.369" transform="translate(-39.043 -61.414)" fill="#674574"/>
            <path id="Trazado_800299" data-name="Trazado 800299" d="M235.99,217.953s11.331,45.175,8.934,54.389-15.254,16.049-23.753,0-17.938-58.846-17.938-58.846Z" transform="translate(-51.935 -54.557)" fill="#472850"/>
            <path id="Trazado_800300" data-name="Trazado 800300" d="M257.538,329.7c-4.54,2.066-10.575,2.068-15.5,1.758q-.745-.048-1.452-.1c-1.167-.089-2.248-.186-3.2-.264a264.954,264.954,0,0,1-8.613-25.189,264.468,264.468,0,0,1-5.793-28.533l2.7.5,1.5.275,23.009,4.224Z" transform="translate(-56.979 -70.88)" fill="#472850"/>
            <path id="Trazado_800301" data-name="Trazado 800301" d="M240.14,321.337q-.745-.047-1.452-.1c-1.632-5.793-5.094-17.787-7.529-24.255-3.223-8.558-5.9-23.791-6.053-24.712-.315-1.041-.774-2.615-1.326-4.523-2.854-9.918-8.135-28.876-8.2-29.1a.684.684,0,0,1,1.318-.368c.064.232,5.588,20.051,8.387,29.749.471,1.63.864,2.975,1.142,3.891a.609.609,0,0,1,.019.083c.028.156,2.731,15.842,5.993,24.5,2.521,6.694,6.122,19.228,7.7,24.836" transform="translate(-55.083 -60.762)" fill="#674574"/>
            <path id="Trazado_800302" data-name="Trazado 800302" d="M206.6,122.7l-.688-.4s.121,1.678.561,4.744c.493,3.427,1.385,8.59,2.954,15.077,2.972,12.285,16.363,42.124,16.363,42.124s-9.428,5.431-28.979,3.317c-18.729-2.025-31.505-4.292-44.781-4.093s-17.619,7.66-17.619,7.66,6.5-37.713,9.033-47.026c1.065-3.9,2.032-8.393,2.794-12.292,1.059-5.4,1.726-9.67,1.726-9.67l-1.611,1.264-3.9,3.063c-10.7-.2-26.643-11.383-26.643-11.383s16.158-15.83,17.428-17.545c3.666-4.954,5.548-5.548,9.313-7.53s26.573-14.223,26.573-14.223h16.126s16.05,6.693,19.616,8.873a87.807,87.807,0,0,1,12.577,9.164c4.319,3.985,19.474,17.388,19.474,17.388-5.548,11.492-25.511,14.266-25.511,14.266Z" transform="translate(-29.595 -19.368)" fill="#259bff"/>
            <path id="Trazado_800303" data-name="Trazado 800303" d="M233.838,135.786s.121,1.678.561,4.744l.127.859-9.43-12.845,9.43,7.638Z" transform="translate(-57.522 -32.849)" fill="#0074e8"/>
            <path id="Trazado_800304" data-name="Trazado 800304" d="M156.682,144.934c1.058-5.4,1.726-9.67,1.726-9.67l-1.611,1.264,9.51-9.4Z" transform="translate(-40.039 -32.487)" fill="#0074e8"/>
            <path id="Trazado_800305" data-name="Trazado 800305" d="M197.539,88.035a22.583,22.583,0,0,1-9.41-2.076,21.4,21.4,0,0,1-5.779-3.791.372.372,0,0,1,.526-.528,21.059,21.059,0,0,0,5.591,3.655,21.717,21.717,0,0,0,14.66,1.269.372.372,0,1,1,.188.721,22.853,22.853,0,0,1-5.775.751" transform="translate(-46.57 -20.835)" fill="#0074e8"/>
            <path id="Trazado_800306" data-name="Trazado 800306" d="M198.81,94.07a20.145,20.145,0,0,1-4.12-.436.372.372,0,1,1,.152-.729c7.351,1.534,11.946-1.688,11.992-1.721a.372.372,0,1,1,.434.6,15.238,15.238,0,0,1-8.458,2.282" transform="translate(-49.676 -23.283)" fill="#0074e8"/>
            <path id="Trazado_800307" data-name="Trazado 800307" d="M211.958,211.187c-7.156,0-17.529-2.061-31.323-6.2-11.835-3.555-19.45-2.677-23.753-1.315-4.61,1.46-6.46,3.742-6.478,3.765a.373.373,0,0,1-.584-.463c.08-.1,2.012-2.484,6.837-4.012,4.4-1.394,12.176-2.3,24.193,1.311,21.2,6.367,34.174,7.806,39.668,4.4a.372.372,0,0,1,.392.632c-2.023,1.255-5,1.885-8.951,1.885" transform="translate(-38.265 -51.552)" fill="#0074e8"/>
            <path id="Trazado_800308" data-name="Trazado 800308" d="M221.62,202.848a53.615,53.615,0,0,1-8.914-.835,84.106,84.106,0,0,1-26.683-9.771.372.372,0,1,1,.364-.649c20.956,11.748,36.779,10.471,36.936,10.456a.372.372,0,1,1,.068.741c-.063.006-.673.058-1.771.058" transform="translate(-47.488 -48.948)" fill="#0074e8"/>
            <path id="Trazado_800309" data-name="Trazado 800309" d="M215.952,177.114c-10.578,0-21.288-4.307-28.751-8.16a105.076,105.076,0,0,1-15.467-9.748.372.372,0,1,1,.463-.582,104.541,104.541,0,0,0,15.358,9.676c8.267,4.266,20.551,9.1,32.125,7.879a.376.376,0,0,1,.409.331.372.372,0,0,1-.331.409,36.466,36.466,0,0,1-3.806.2" transform="translate(-43.849 -40.515)" fill="#0074e8"/>
            <path id="Trazado_800310" data-name="Trazado 800310" d="M203.274,74.847s-1.387,4.359-7.759,4.359c-7.432,0-9.182-3.963-9.182-3.963a32.213,32.213,0,0,0,1.389-4.714h0a25.394,25.394,0,0,0,.594-5.885l13.058-.517c.121,1.106.317,2.408.539,3.717.59,3.477,1.359,7,1.359,7" transform="translate(-47.616 -16.387)" fill="#ffa86f"/>
            <path id="Trazado_800311" data-name="Trazado 800311" d="M202.393,67.845c-2.023,1.407-6.446,3.5-14.192,2.685a25.442,25.442,0,0,0,.594-5.885l13.058-.517c.121,1.106.317,2.408.54,3.717" transform="translate(-48.093 -16.387)" fill="#472850"/>
            <path id="Trazado_800312" data-name="Trazado 800312" d="M178.319,41.456s-4.041-5.5-7.184-2.245,2.918,14.594,8.419,12.123Z" transform="translate(-43.512 -9.757)" fill="#ffa86f"/>
            <path id="Trazado_800313" data-name="Trazado 800313" d="M177.124,48.931a.279.279,0,0,1-.276-.24,10.353,10.353,0,0,0-3.6-6.191.279.279,0,1,1,.338-.444,10.759,10.759,0,0,1,3.815,6.558.279.279,0,0,1-.238.315.226.226,0,0,1-.039,0" transform="translate(-44.244 -10.732)" fill="#ff804d"/>
            <path id="Trazado_800314" data-name="Trazado 800314" d="M176.47,47.171a.28.28,0,0,1-.232-.123c-.406-.6-1.618-.661-2.05-.634a.279.279,0,0,1-.034-.557c.077-.005,1.881-.106,2.547.878a.279.279,0,0,1-.231.436" transform="translate(-44.437 -11.717)" fill="#ff804d"/>
            <path id="Trazado_800315" data-name="Trazado 800315" d="M178.565,55.211a2.347,2.347,0,0,1-.237-.059,1.175,1.175,0,0,1-1.1-.085c-.932-.655-.121-2.234-.11-2.255a.3.3,0,1,0-.526-.277c-.044.083-1.067,2.061.294,3.018a1.671,1.671,0,0,0,.962.29,1.858,1.858,0,0,0,.982-.279,1.653,1.653,0,0,0,.315-.261c-.2-.029-.381-.064-.577-.093" transform="translate(-45.021 -13.385)" fill="#472850"/>
            <path id="Trazado_800316" data-name="Trazado 800316" d="M216.363,41.456s4.041-5.5,7.184-2.245-2.918,14.594-8.419,12.123Z" transform="translate(-54.974 -9.757)" fill="#ffa86f"/>
            <path id="Trazado_800317" data-name="Trazado 800317" d="M219.28,48.931a.226.226,0,0,1-.039,0,.279.279,0,0,1-.238-.314,10.755,10.755,0,0,1,3.815-6.559.279.279,0,0,1,.338.444,10.378,10.378,0,0,0-3.6,6.191.279.279,0,0,1-.276.24" transform="translate(-55.964 -10.732)" fill="#ff804d"/>
            <path id="Trazado_800318" data-name="Trazado 800318" d="M220.417,47.171a.283.283,0,0,1-.156-.048.28.28,0,0,1-.074-.388c.666-.984,2.471-.884,2.548-.878a.279.279,0,0,1-.034.557c-.434-.026-1.647.037-2.051.634a.28.28,0,0,1-.232.123" transform="translate(-56.255 -11.717)" fill="#ff804d"/>
            <path id="Trazado_800319" data-name="Trazado 800319" d="M218.286,55.211a2.346,2.346,0,0,0,.237-.059,1.175,1.175,0,0,0,1.1-.085c.932-.655.121-2.234.109-2.255a.3.3,0,0,1,.526-.277c.044.083,1.067,2.061-.294,3.018a1.672,1.672,0,0,1-.962.29,1.858,1.858,0,0,1-.982-.279,1.653,1.653,0,0,1-.315-.261c.2-.029.381-.064.577-.093" transform="translate(-55.634 -13.385)" fill="#472850"/>
            <path id="Trazado_800320" data-name="Trazado 800320" d="M196.763,20.886A15.751,15.751,0,0,0,177.777,39.7c1.8,8.013,5.979,17.512,15.681,17.74,10.111.237,13.938-10.165,15.382-18.518a15.7,15.7,0,0,0-10.508-17.589q-.766-.251-1.568-.448" transform="translate(-45.329 -5.221)" fill="#ffa86f"/>
            <path id="Trazado_800321" data-name="Trazado 800321" d="M175.8,31.207s-1.895-6.681-1.238-9.356,2.027-2.186,2.027-2.186-11.751-11.215-6.215-16.7C175.191-1.812,179.7,9.35,179.7,9.35s-2.347-8.1.99-9.213c4.162-1.387,6.044,8.322,6.044,8.322s-.343-7.244,3.038-7.1c4.69.2,2.048,5.614,7.133,7.727s12.769,3.187,10,11.707c0,0,4.482,1.572-.752,10.753l-2.081.115s.628-3.786-.033-6.081c0,0-2.906-2.03-2.774-5,0,0-10.238,6.076-19.683.66,0,0,.595,3.5-2.378,4.029a19.55,19.55,0,0,0-1.387,5.939Z" transform="translate(-43.159 0)" fill="#472850"/>
            <path id="Trazado_800322" data-name="Trazado 800322" d="M218.57,19.261s1.618-5.522,4.23-4.109c1.865,1.009-2.48,5.21-2.48,5.21s3.655-1.976,5.458-.584-2.982,3.037-5.739,2.566-1.469-3.084-1.469-3.084" transform="translate(-55.777 -3.813)" fill="#472850"/>
            <path id="Trazado_800323" data-name="Trazado 800323" d="M191.99,46.426c.019,1.079-.379,1.962-.889,1.971s-.938-.859-.957-1.939.379-1.962.888-1.97.939.858.957,1.938" transform="translate(-48.59 -11.369)" fill="#472850"/>
            <path id="Trazado_800324" data-name="Trazado 800324" d="M186.08,42.978a.651.651,0,0,1-.943-.756,4.579,4.579,0,0,1,5.011-3.334.652.652,0,0,1-.191,1.289c-2.667-.4-3.537,2.31-3.573,2.425a.651.651,0,0,1-.3.376" transform="translate(-47.303 -9.924)" fill="#472850"/>
            <path id="Trazado_800325" data-name="Trazado 800325" d="M205.359,46.426c-.019,1.079.378,1.962.888,1.971s.939-.859.957-1.939-.379-1.962-.887-1.97-.94.858-.957,1.938" transform="translate(-52.478 -11.369)" fill="#472850"/>
            <path id="Trazado_800326" data-name="Trazado 800326" d="M210.266,43.223a.651.651,0,0,0,.942-.756,4.579,4.579,0,0,0-5.011-3.334.652.652,0,0,0,.191,1.289c2.667-.4,3.537,2.31,3.573,2.425a.651.651,0,0,0,.3.376" transform="translate(-52.55 -9.986)" fill="#472850"/>
            <path id="Trazado_800327" data-name="Trazado 800327" d="M200.039,54.661a.277.277,0,0,1-.14-.038l-1.47-.853a.279.279,0,1,1,.281-.482l1,.578-.489-4.817a.279.279,0,0,1,.555-.057l.545,5.361a.279.279,0,0,1-.127.263.276.276,0,0,1-.151.045" transform="translate(-50.672 -12.456)" fill="#ff804d"/>
            <path id="Trazado_800328" data-name="Trazado 800328" d="M198.426,59.852h-.005A5.244,5.244,0,0,1,193.9,57.78a.279.279,0,0,1,.473-.3,4.707,4.707,0,0,0,4.044,1.81h.005a3.85,3.85,0,0,0,3.631-1.887.279.279,0,0,1,.505.236,4.389,4.389,0,0,1-4.136,2.21" transform="translate(-49.54 -14.629)" fill="#ff804d"/>
            <path id="Trazado_800329" data-name="Trazado 800329" d="M199.473,62.706h0a2.332,2.332,0,0,1-1.728-.558.279.279,0,0,1,.409-.381,1.877,1.877,0,0,0,1.32.381h0a1.416,1.416,0,0,0,1.155-.378.283.283,0,0,1,.388-.062.277.277,0,0,1,.069.382,1.871,1.871,0,0,1-1.612.616" transform="translate(-50.513 -15.756)" fill="#ff804d"/>
            <path id="Trazado_800330" data-name="Trazado 800330" d="M187.594,51.805a6.486,6.486,0,1,1,6.486-6.486,6.493,6.493,0,0,1-6.486,6.486m0-12.377a5.892,5.892,0,1,0,5.892,5.892,5.9,5.9,0,0,0-5.892-5.892" transform="translate(-46.281 -9.924)" fill="#fff"/>
            <path id="Trazado_800331" data-name="Trazado 800331" d="M207.258,51.805a6.486,6.486,0,1,1,6.486-6.486,6.493,6.493,0,0,1-6.486,6.486m0-12.377a5.892,5.892,0,1,0,5.892,5.892,5.9,5.9,0,0,0-5.892-5.892" transform="translate(-51.306 -9.924)" fill="#fff"/>
            <path id="Trazado_800332" data-name="Trazado 800332" d="M200.314,48.251a.3.3,0,0,1-.268-.168s-.31-.614-.837-.614a1.372,1.372,0,0,0-.963.526.3.3,0,0,1-.478-.353,1.953,1.953,0,0,1,1.441-.768,1.683,1.683,0,0,1,1.372.951.3.3,0,0,1-.267.427" transform="translate(-50.524 -11.978)" fill="#fff"/>
            <path id="Trazado_800333" data-name="Trazado 800333" d="M181.086,42.131a.3.3,0,0,1-.253-.141c-1.252-2.031-4.363-3.522-4.395-3.537a.3.3,0,1,1,.255-.537c.134.063,3.3,1.58,4.645,3.762a.3.3,0,0,1-.252.453" transform="translate(-45.044 -9.682)" fill="#fff"/>
            <path id="Trazado_800334" data-name="Trazado 800334" d="M215.94,41.483a.3.3,0,0,1-.252-.453,10.54,10.54,0,0,1,4.476-3.47.3.3,0,0,1,.223.552,10.126,10.126,0,0,0-4.194,3.23.3.3,0,0,1-.253.141" transform="translate(-55.106 -9.593)" fill="#fff"/>
            <path id="Trazado_800335" data-name="Trazado 800335" d="M255.888,111.744l-8.083,5.344-.933.616-9.571,6.325a3.567,3.567,0,0,1-4.942-1.009l-10.823-16.373-.594-.9-6.4-9.678a3.568,3.568,0,0,1,1.009-4.942l18.586-12.285a3.566,3.566,0,0,1,4.942,1.009L256.9,106.8a3.567,3.567,0,0,1-1.009,4.942" transform="translate(-54.675 -19.997)" fill="#ffb109"/>
            <path id="Trazado_800336" data-name="Trazado 800336" d="M244,113.88c-.35-.01-.69-.039-1.012-.077-.077-.009-.154-.019-.232-.03a32.685,32.685,0,0,1-7-2.312l-.314-.128c-.555-.225-1.114-.45-1.674-.668.066-3.554-.126-7.15.592-9.718a6.827,6.827,0,0,1,2.721-4.124,5,5,0,0,1,3.958-.88,4.447,4.447,0,0,1,2.768,2.18c.021.034.045.066.065.1.074.127.143.25.207.374a4.92,4.92,0,0,1,.366,3.675l-.441,1.527,1.58.17a5.208,5.208,0,0,1,2.418.927h0a5.045,5.045,0,0,1,1.111,1.137c.024.033.046.066.069.1a4.578,4.578,0,0,1,.967,3.387,4.922,4.922,0,0,1-2.315,3.329A6.239,6.239,0,0,1,244,113.88" transform="translate(-59.739 -24.491)" fill="#fff"/>
            <g id="Grupo_1066760" data-name="Grupo 1066760" transform="translate(166.269 80.69)" opacity="0.3">
              <g id="Grupo_1066759" data-name="Grupo 1066759">
                <g id="Grupo_1066758" data-name="Grupo 1066758" clip-path="url(#clip-path-3)">
                  <path id="Trazado_800337" data-name="Trazado 800337" d="M250.205,124.788l-.934.616-9.57,6.325a3.568,3.568,0,0,1-4.942-1.009l-10.823-16.373-.594-.9c1.46-1.45,3.8-3.616,4.349-4.175a3.471,3.471,0,0,1,4.756.1c1.577,1.316,13.985,12.038,17.758,15.414" transform="translate(-223.342 -108.388)" fill="#472850"/>
                </g>
              </g>
            </g>
            <path id="Trazado_800338" data-name="Trazado 800338" d="M222.712,116.954l-5.183,10.735a.563.563,0,0,0,.717.768l9.544-3.821Z" transform="translate(-55.573 -29.887)" fill="#ffb109"/>
            <path id="Trazado_800339" data-name="Trazado 800339" d="M210.321,71.143l-5,11.114-.136.305-1.4,3.113-2.6,5.788a3.567,3.567,0,0,1-4.716,1.791l-9.776-4.4-8.99-4.04-10.7-4.807a3.567,3.567,0,0,1-1.79-4.715l1.74-3.872,7.393-16.448a3.565,3.565,0,0,1,4.715-1.791L208.53,66.427a3.567,3.567,0,0,1,1.791,4.716" transform="translate(-42.14 -13.511)" fill="#ff4b61"/>
            <g id="Grupo_1066763" data-name="Grupo 1066763" transform="translate(122.764 57.914)" opacity="0.5">
              <g id="Grupo_1066762" data-name="Grupo 1066762">
                <g id="Grupo_1066761" data-name="Grupo 1066761" clip-path="url(#clip-path-4)">
                  <path id="Trazado_800340" data-name="Trazado 800340" d="M177.707,91.187l-10.7-4.807a3.567,3.567,0,0,1-1.789-4.716l1.739-3.871Z" transform="translate(-164.904 -77.793)" fill="#472850"/>
                </g>
              </g>
            </g>
            <path id="Trazado_800341" data-name="Trazado 800341" d="M199.665,82.18c-.3.179-.6.336-.9.476-.07.034-.141.067-.212.1a32.669,32.669,0,0,1-7.148,1.789l-.335.06c-.589.106-1.181.215-1.771.331-1.846-3.037-3.931-5.974-4.7-8.528a6.826,6.826,0,0,1,.093-4.939,5,5,0,0,1,2.874-2.86,4.444,4.444,0,0,1,3.5.362c.036.016.074.031.109.05.13.067.254.135.374.2a4.923,4.923,0,0,1,2.274,2.91l.444,1.525,1.426-.7a5.2,5.2,0,0,1,2.539-.51h0a5.066,5.066,0,0,1,1.547.366l.11.048a4.579,4.579,0,0,1,2.629,2.344,4.926,4.926,0,0,1-.176,4.051,6.241,6.241,0,0,1-2.69,2.921" transform="translate(-47.067 -17.475)" fill="#fff"/>
            <path id="Trazado_800342" data-name="Trazado 800342" d="M183.875,96.583l1.362,11.843a.563.563,0,0,0,1.016.266l6.02-8.333Z" transform="translate(-46.988 -24.681)" fill="#ff4b61"/>
            <g id="Grupo_1066766" data-name="Grupo 1066766" transform="translate(143.24 70.144)" opacity="0.5">
              <g id="Grupo_1066765" data-name="Grupo 1066765">
                <g id="Grupo_1066764" data-name="Grupo 1066764" clip-path="url(#clip-path-5)">
                  <path id="Trazado_800343" data-name="Trazado 800343" d="M210.819,96.241l-2.6,5.788a3.568,3.568,0,0,1-4.715,1.791l-9.777-4.4-1.315-.931,14.4-4.233c2.014-.264,3.01.819,4.01,1.98" transform="translate(-192.409 -94.221)" fill="#472850"/>
                </g>
              </g>
            </g>
            <path id="Trazado_800344" data-name="Trazado 800344" d="M163.7,94.328l-2.962,2.241h0l-10.369,7.845-12.432,9.4a3.567,3.567,0,0,1-5-.694l-3.075-4.065-2.2-2.913-1.025-1.355L119.5,95.352a3.567,3.567,0,0,1,.694-5l25.763-19.485a3.567,3.567,0,0,1,5,.692l13.438,17.769a3.564,3.564,0,0,1-.692,5" transform="translate(-30.353 -17.926)" fill="#9c5bff"/>
            <g id="Grupo_1066769" data-name="Grupo 1066769" transform="translate(96.284 78.643)" opacity="0.5">
              <g id="Grupo_1066768" data-name="Grupo 1066768">
                <g id="Grupo_1066767" data-name="Grupo 1066767" clip-path="url(#clip-path-6)">
                  <path id="Trazado_800345" data-name="Trazado 800345" d="M163.433,105.638l-10.369,7.844-20.5,4.642-2.2-2.912-1.024-1.356c9.245-2.284,28.569-6.608,34.1-8.219" transform="translate(-129.334 -105.638)" fill="#472850"/>
                </g>
              </g>
            </g>
            <path id="Trazado_800346" data-name="Trazado 800346" d="M154.183,92.955c.013.35.005.69-.012,1.015,0,.077-.01.156-.016.234a32.663,32.663,0,0,1-1.863,7.129c-.036.108-.072.215-.108.322-.189.568-.378,1.14-.56,1.713-3.551.161-7.128.579-9.737.025a6.828,6.828,0,0,1-4.288-2.453,5,5,0,0,1-1.129-3.894,4.439,4.439,0,0,1,2-2.9c.032-.025.063-.05.1-.072.121-.081.24-.159.36-.23a4.917,4.917,0,0,1,3.644-.6l1.551.343L144.194,92a5.2,5.2,0,0,1,.771-2.472h0a5.039,5.039,0,0,1,1.064-1.18c.031-.026.063-.05.095-.074a4.577,4.577,0,0,1,3.32-1.181,4.923,4.923,0,0,1,3.469,2.1,6.246,6.246,0,0,1,1.271,3.762" transform="translate(-34.861 -22.251)" fill="#fff"/>
            <path id="Trazado_800347" data-name="Trazado 800347" d="M158.628,116.22l11.042,4.491a.564.564,0,0,0,.721-.765l-4.419-9.281Z" transform="translate(-40.536 -28.28)" fill="#9c5bff"/>
            <path id="Trazado_800348" data-name="Trazado 800348" d="M252.583,138.517l-15.071,16.409a3.566,3.566,0,0,1-5.039.214l-23.791-21.851a3.567,3.567,0,0,1-.214-5.039l11.324-12.328.3-.323,3.45-3.757a3.567,3.567,0,0,1,5.038-.214l23.791,21.851a3.567,3.567,0,0,1,.214,5.039" transform="translate(-53.032 -28.285)" fill="#9c5bff"/>
            <g id="Grupo_1066772" data-name="Grupo 1066772" transform="translate(154.496 87.312)" opacity="0.5">
              <g id="Grupo_1066771" data-name="Grupo 1066771">
                <g id="Grupo_1066770" data-name="Grupo 1066770" clip-path="url(#clip-path-7)">
                  <path id="Trazado_800349" data-name="Trazado 800349" d="M219.39,130.67c-1.243.569-8.124,2.948-11.043,3.951a3.566,3.566,0,0,1,.121-4.686l11.324-12.329.3-.323c1.034,2.833,2.681,6.939,3,8.6.576,3.018-2.113,4.062-3.7,4.789" transform="translate(-207.529 -117.283)" fill="#472850"/>
                </g>
              </g>
            </g>
            <path id="Trazado_800350" data-name="Trazado 800350" d="M240.906,144.763c-.342.075-.678.129-1,.17-.077.01-.154.019-.233.027a32.594,32.594,0,0,1-7.347-.554l-.337-.048c-.593-.085-1.189-.168-1.785-.244-.8-3.465-1.848-6.909-1.772-9.574a6.828,6.828,0,0,1,1.645-4.659,5,5,0,0,1,3.628-1.809,4.44,4.44,0,0,1,3.212,1.447c.03.027.06.053.089.082.1.1.2.208.29.312a4.921,4.921,0,0,1,1.242,3.478l-.06,1.588,1.575-.215a5.2,5.2,0,0,1,2.571.316h0a5.068,5.068,0,0,1,1.352.835c.031.026.06.054.089.08a4.571,4.571,0,0,1,1.757,3.053,4.92,4.92,0,0,1-1.443,3.789,6.237,6.237,0,0,1-3.473,1.925" transform="translate(-58.373 -32.727)" fill="#fff"/>
            <path id="Trazado_800351" data-name="Trazado 800351" d="M221.274,153.019l-2.439,11.669a.564.564,0,0,0,.881.572l8.339-6.012Z" transform="translate(-55.918 -39.103)" fill="#9c5bff"/>
            <path id="Trazado_800352" data-name="Trazado 800352" d="M208.9,123.844,184.87,131.99l-6.567,2.227a3.555,3.555,0,0,1-4.068-1.334,3.5,3.5,0,0,1-.456-.9l-1.309-3.862-5.845-17.239a3.566,3.566,0,0,1,2.233-4.521l1.469-.5,5.441-1.845,1.046-.355,22.636-7.676a3.567,3.567,0,0,1,4.524,2.233l7.155,21.1a3.57,3.57,0,0,1-2.233,4.523" transform="translate(-42.531 -24.481)" fill="#ff4b61"/>
            <path id="Trazado_800353" data-name="Trazado 800353" d="M201.618,117.733c-.1.336-.213.657-.331.96-.028.072-.058.144-.089.217a32.631,32.631,0,0,1-4.015,6.178l-.2.272c-.359.479-.718.962-1.072,1.448-3.42-.966-6.947-1.7-9.248-3.044a6.824,6.824,0,0,1-3.3-3.679,5,5,0,0,1,.156-4.052,4.443,4.443,0,0,1,2.813-2.122c.037-.013.074-.028.114-.039.141-.039.278-.074.413-.1a4.92,4.92,0,0,1,3.647.581l1.365.815.567-1.484a5.208,5.208,0,0,1,1.511-2.1h0a5.053,5.053,0,0,1,1.382-.785c.037-.015.075-.028.113-.041a4.578,4.578,0,0,1,3.522-.074,4.925,4.925,0,0,1,2.631,3.086,6.248,6.248,0,0,1,.02,3.971" transform="translate(-46.767 -28.2)" fill="#fff"/>
            <g id="Grupo_1066775" data-name="Grupo 1066775" transform="translate(127.795 79.184)" opacity="0.5">
              <g id="Grupo_1066774" data-name="Grupo 1066774">
                <g id="Grupo_1066773" data-name="Grupo 1066773" clip-path="url(#clip-path-8)">
                  <path id="Trazado_800354" data-name="Trazado 800354" d="M186.206,134.69l-6.567,2.227a3.555,3.555,0,0,1-4.068-1.334,3.5,3.5,0,0,1-.456-.9l-1.309-3.861-2.144-22.258,5.441-1.845,1.046-.355c1.962,6.653,5.688,19.428,8.057,28.325" transform="translate(-171.662 -106.365)" fill="#472850"/>
                </g>
              </g>
            </g>
            <path id="Trazado_800355" data-name="Trazado 800355" d="M185.112,141.786c.646,2.987-3.535,3.779-5.558,4.363a3.579,3.579,0,0,1-2.641-1.514Z" transform="translate(-45.209 -36.232)" fill="#472850"/>
            <path id="Trazado_800356" data-name="Trazado 800356" d="M199.138,140.7l9.064,7.742a.564.564,0,0,0,.925-.5l-1.269-10.2Z" transform="translate(-50.888 -35.201)" fill="#ff4b61"/>
            <path id="Trazado_800357" data-name="Trazado 800357" d="M170.484,135.281l-31.357,9.4a3.351,3.351,0,0,1-4.171-2.247l-6.522-21.756a3.351,3.351,0,0,1,2.247-4.171l31.358-9.4a3.349,3.349,0,0,1,4.17,2.247l6.522,21.756a3.349,3.349,0,0,1-2.247,4.17" transform="translate(-32.784 -27.334)" fill="#ff4b61"/>
            <path id="Trazado_800358" data-name="Trazado 800358" d="M163.315,128.755c-.11.332-.236.648-.366.947-.031.071-.063.142-.1.214a32.663,32.663,0,0,1-4.232,6.032l-.213.264c-.376.466-.753.936-1.123,1.409-3.384-1.088-6.883-1.942-9.134-3.372a6.823,6.823,0,0,1-3.163-3.794,5,5,0,0,1,.3-4.044,4.44,4.44,0,0,1,2.886-2.02c.038-.012.075-.025.115-.034.142-.033.281-.064.418-.09a4.917,4.917,0,0,1,3.624.711l1.334.863.619-1.464a5.206,5.206,0,0,1,1.585-2.047h0a5.042,5.042,0,0,1,1.409-.735c.039-.013.077-.025.115-.036a4.575,4.575,0,0,1,3.523.051,4.928,4.928,0,0,1,2.519,3.178,6.246,6.246,0,0,1-.121,3.969" transform="translate(-36.978 -30.979)" fill="#fff"/>
            <path id="Trazado_800359" data-name="Trazado 800359" d="M160.079,151.554l8.782,8.061a.564.564,0,0,0,.942-.465l-.9-10.24Z" transform="translate(-40.907 -38.053)" fill="#ff4b61"/>
            <path id="Trazado_800360" data-name="Trazado 800360" d="M263.072,156.728c-5.288,7.271-42.889-5.715-55.23-10.229-2.457-.9-3.913-1.461-3.913-1.461l1.153-6.274s3.973.326,8.977.674c4.545.317,9.941.651,13.98.777,8.481.264,23.013-.937,31.467,2.637,0,0,9.908,5.157,3.566,13.875" transform="translate(-52.113 -35.46)" fill="#ffa86f"/>
            <path id="Trazado_800361" data-name="Trazado 800361" d="M211.123,141.06A2.246,2.246,0,0,1,208.876,144a2.548,2.548,0,0,1-1.034,2.5c-2.457-.9-3.913-1.461-3.913-1.461l1.153-6.274s3.973.326,8.977.674a4.439,4.439,0,0,1-2.935,1.621" transform="translate(-52.113 -35.46)" fill="#472850"/>
            <path id="Trazado_800362" data-name="Trazado 800362" d="M114.779,143.257s-9.907,5.158-3.567,13.877,59.143-11.691,59.143-11.691l-1.152-6.274s-14.474,1.189-22.956,1.453-23.014-.937-31.468,2.635" transform="translate(-27.878 -35.563)" fill="#ffa86f"/>
            <path id="Trazado_800363" data-name="Trazado 800363" d="M175.7,139.665s1.251,7.666,3.262,9.405l2.827-.874s-2.446-5.246-2.718-8.955a9.248,9.248,0,0,0-3.371.424" transform="translate(-44.898 -35.579)" fill="#472850"/>
            <path id="Trazado_800364" data-name="Trazado 800364" d="M186.846,135.091s4.1-6.83,6.8-8.677a11.964,11.964,0,0,1,4.524-1.494,1.89,1.89,0,0,1,1.782,3.049l-.7.869s9.288.463,10.875.872.92,3.364-1.853,3.905c0,0,3.923,2.058-2.553,3.428,0,0,2.09,2.159-2.427,2.794,0,0,2.3,2.924-3.959,3.187l-12.215-.106s-1.342-5.115-.28-7.827" transform="translate(-47.643 -31.916)" fill="#ffa86f"/>
            <path id="Trazado_800365" data-name="Trazado 800365" d="M126.542,222.282,100.433,242.03a3.35,3.35,0,0,1-4.692-.651l-13.7-18.114a3.351,3.351,0,0,1,.651-4.693L108.8,198.824a3.35,3.35,0,0,1,4.692.651l13.7,18.115a3.349,3.349,0,0,1-.651,4.692" transform="translate(-20.791 -50.635)" fill="#ff4b61"/>
            <path id="Trazado_800366" data-name="Trazado 800366" d="M116.883,221.069c.013.35.005.69-.012,1.015,0,.077-.01.156-.016.234a32.663,32.663,0,0,1-1.863,7.129c-.036.108-.071.215-.108.322-.189.568-.378,1.14-.56,1.712-3.551.162-7.128.58-9.736.026a6.828,6.828,0,0,1-4.289-2.453,5,5,0,0,1-1.129-3.894,4.439,4.439,0,0,1,2-2.9c.032-.025.063-.05.1-.072.121-.081.24-.159.36-.23a4.917,4.917,0,0,1,3.644-.6l1.551.343.071-1.587a5.2,5.2,0,0,1,.771-2.472h0a5.04,5.04,0,0,1,1.064-1.18c.031-.026.063-.05.095-.074a4.577,4.577,0,0,1,3.32-1.181,4.923,4.923,0,0,1,3.469,2.1,6.241,6.241,0,0,1,1.271,3.762" transform="translate(-25.329 -54.99)" fill="#fff"/>
            <path id="Trazado_800367" data-name="Trazado 800367" d="M121.328,244.334l11.042,4.491a.564.564,0,0,0,.721-.765l-4.419-9.282Z" transform="translate(-31.005 -61.018)" fill="#ff4b61"/>
            <path id="Trazado_800368" data-name="Trazado 800368" d="M301.549,200.253l-25.521-20.5a3.35,3.35,0,0,1-.514-4.709l14.225-17.706a3.349,3.349,0,0,1,4.709-.514l25.521,20.5a3.35,3.35,0,0,1,.514,4.709l-14.225,17.706a3.35,3.35,0,0,1-4.709.514" transform="translate(-70.217 -39.886)" fill="#ffb109"/>
            <path id="Trazado_800369" data-name="Trazado 800369" d="M308.833,189.537c-.337.1-.668.173-.988.236-.075.015-.152.029-.229.042a32.645,32.645,0,0,1-7.369-.067l-.338-.025c-.6-.046-1.2-.089-1.8-.126-1.023-3.4-2.3-6.772-2.4-9.436a6.826,6.826,0,0,1,1.332-4.757,5,5,0,0,1,3.5-2.045,4.445,4.445,0,0,1,3.3,1.232c.031.025.063.048.094.075.107.1.211.2.31.293a4.919,4.919,0,0,1,1.468,3.388l.045,1.589,1.557-.319a5.191,5.191,0,0,1,2.585.145h0a5.075,5.075,0,0,1,1.4.744l.1.074a4.569,4.569,0,0,1,1.954,2.93,4.922,4.922,0,0,1-1.19,3.877,6.239,6.239,0,0,1-3.337,2.15" transform="translate(-75.565 -44.295)" fill="#fff"/>
            <path id="Trazado_800370" data-name="Trazado 800370" d="M289.911,199.142l-1.662,11.8a.564.564,0,0,0,.917.513l7.923-6.55Z" transform="translate(-73.658 -50.889)" fill="#ffb109"/>
            <path id="Trazado_800371" data-name="Trazado 800371" d="M350.072,245.889l-25.154.9a3.349,3.349,0,0,1-3.467-3.228l-.61-17.059a3.351,3.351,0,0,1,3.229-3.468l25.154-.9a3.35,3.35,0,0,1,3.468,3.228l.61,17.058a3.35,3.35,0,0,1-3.228,3.468" transform="translate(-81.988 -56.765)" fill="#ff4b61"/>
            <path id="Trazado_800372" data-name="Trazado 800372" d="M346.787,237.863c-.154.237-.317.459-.479.666q-.058.075-.118.147a26.371,26.371,0,0,1-4.541,3.852l-.221.163c-.389.288-.779.578-1.166.873-2.423-1.542-4.984-2.925-6.452-4.5a5.517,5.517,0,0,1-1.7-3.613,4.047,4.047,0,0,1,1.061-3.1,3.588,3.588,0,0,1,2.67-.99c.032,0,.064,0,.1,0,.118,0,.232.007.345.015a3.975,3.975,0,0,1,2.688,1.3l.867.948.783-1.018a4.208,4.208,0,0,1,1.658-1.277h0a4.073,4.073,0,0,1,1.251-.287l.1-.005a3.7,3.7,0,0,1,2.743.759,3.977,3.977,0,0,1,1.321,3,5.04,5.04,0,0,1-.905,3.078" transform="translate(-84.868 -59.035)" fill="#fff"/>
            <path id="Trazado_800373" data-name="Trazado 800373" d="M339.985,254.673l5.22,8.1a.455.455,0,0,0,.832-.171l1.385-8.191Z" transform="translate(-86.881 -65.012)" fill="#ff4b61"/>
            <path id="Trazado_800374" data-name="Trazado 800374" d="M88.693,190.081l-21.182-13.6a3.35,3.35,0,0,1-1.009-4.628l9.221-14.365a3.35,3.35,0,0,1,4.629-1.009l21.181,13.6a3.349,3.349,0,0,1,1.009,4.628l-9.221,14.365a3.35,3.35,0,0,1-4.628,1.009" transform="translate(-16.858 -39.852)" fill="#ff4b61"/>
            <path id="Trazado_800375" data-name="Trazado 800375" d="M93.643,181.471c-.262.107-.522.2-.773.274l-.181.054a26.394,26.394,0,0,1-5.927.577l-.274.008c-.484.014-.97.031-1.455.053-1.113-2.648-2.428-5.244-2.737-7.377a5.518,5.518,0,0,1,.664-3.937,4.045,4.045,0,0,1,2.638-1.943,3.59,3.59,0,0,1,2.757.708c.028.017.055.034.082.052.1.07.187.138.275.209a3.977,3.977,0,0,1,1.47,2.6l.173,1.273,1.223-.39a4.21,4.21,0,0,1,2.09-.1h0a4.091,4.091,0,0,1,1.192.477l.083.051a3.7,3.7,0,0,1,1.822,2.188,3.978,3.978,0,0,1-.624,3.217,5.044,5.044,0,0,1-2.5,2.014" transform="translate(-21.006 -43.216)" fill="#fff"/>
            <path id="Trazado_800376" data-name="Trazado 800376" d="M79.437,190.92l-.325,9.628a.455.455,0,0,0,.781.334L85.7,194.94Z" transform="translate(-20.217 -48.788)" fill="#ff4b61"/>
            <path id="Trazado_800377" data-name="Trazado 800377" d="M55.71,270.5l-29.873-13.39a3.35,3.35,0,0,1-1.687-4.427l9.29-20.726a3.349,3.349,0,0,1,4.427-1.687l29.873,13.39a3.349,3.349,0,0,1,1.687,4.427l-9.289,20.726A3.351,3.351,0,0,1,55.71,270.5" transform="translate(-6.096 -58.768)" fill="#9c5bff"/>
            <path id="Trazado_800378" data-name="Trazado 800378" d="M58.71,259.357c-.3.179-.6.336-.9.478l-.212.1a32.7,32.7,0,0,1-7.146,1.8l-.334.06c-.589.107-1.181.217-1.771.333-1.849-3.036-3.937-5.971-4.706-8.523a6.828,6.828,0,0,1,.088-4.939A5,5,0,0,1,46.6,245.8a4.444,4.444,0,0,1,3.5.358c.036.016.074.031.109.049.13.068.254.135.374.2a4.922,4.922,0,0,1,2.277,2.908l.445,1.525,1.426-.7a5.2,5.2,0,0,1,2.539-.513h0a5.068,5.068,0,0,1,1.547.365l.11.048a4.574,4.574,0,0,1,2.632,2.342,4.922,4.922,0,0,1-.171,4.051,6.239,6.239,0,0,1-2.687,2.924" transform="translate(-11.045 -62.754)" fill="#fff"/>
            <path id="Trazado_800379" data-name="Trazado 800379" d="M42.933,273.778l1.374,11.841a.564.564,0,0,0,1.017.265l6.011-8.339Z" transform="translate(-10.971 -69.962)" fill="#9c5bff"/>
            <path id="Trazado_800380" data-name="Trazado 800380" d="M110.815,317.35l-31.7-25.683a3.35,3.35,0,0,1-.494-4.712l18.083-22.318a3.35,3.35,0,0,1,4.712-.494l31.7,25.683a3.35,3.35,0,0,1,.494,4.712l-18.083,22.318a3.35,3.35,0,0,1-4.712.494" transform="translate(-19.901 -67.309)" fill="#ffb109"/>
            <path id="Trazado_800381" data-name="Trazado 800381" d="M119.231,304.122c-.406.115-.806.205-1.19.279-.092.017-.184.034-.278.05a39.356,39.356,0,0,1-8.874-.118l-.407-.033c-.718-.057-1.442-.113-2.164-.16-1.214-4.1-2.738-8.167-2.844-11.376a8.219,8.219,0,0,1,1.629-5.723,6.023,6.023,0,0,1,4.227-2.446,5.346,5.346,0,0,1,3.969,1.5c.037.03.076.059.112.092.13.118.254.235.372.354a5.923,5.923,0,0,1,1.752,4.089l.047,1.913,1.876-.377a6.267,6.267,0,0,1,3.113.188h0a6.091,6.091,0,0,1,1.688.9c.039.029.076.06.114.089a5.51,5.51,0,0,1,2.339,3.539,5.93,5.93,0,0,1-1.452,4.663,7.518,7.518,0,0,1-4.031,2.573" transform="translate(-26.44 -72.721)" fill="#fff"/>
            <path id="Trazado_800382" data-name="Trazado 800382" d="M96.383,315.59,94.322,329.8a.679.679,0,0,0,1.1.622l9.575-7.85Z" transform="translate(-24.101 -80.647)" fill="#ffb109"/>
            <path id="Trazado_800383" data-name="Trazado 800383" d="M284.485,278.234l-40.529-4.671a3.35,3.35,0,0,1-2.944-3.711l3.288-28.536a3.35,3.35,0,0,1,3.712-2.944l40.529,4.671a3.35,3.35,0,0,1,2.944,3.711L288.2,275.29a3.349,3.349,0,0,1-3.711,2.944" transform="translate(-61.583 -60.909)" fill="#9c5bff"/>
            <path id="Trazado_800384" data-name="Trazado 800384" d="M280.856,265.288c-.281.315-.569.605-.855.874-.068.064-.137.128-.208.191a39.322,39.322,0,0,1-7.552,4.661l-.362.191c-.637.336-1.277.677-1.913,1.025-3.226-2.813-6.691-5.423-8.5-8.075a8.224,8.224,0,0,1-1.7-5.7,6.029,6.029,0,0,1,2.256-4.332,5.349,5.349,0,0,1,4.154-.862c.048.005.1.008.144.016.173.031.341.063.5.1a5.925,5.925,0,0,1,3.672,2.51l1.066,1.589,1.381-1.324a6.264,6.264,0,0,1,2.728-1.511h0a6.1,6.1,0,0,1,1.909-.143c.048,0,.1.01.144.015a5.51,5.51,0,0,1,3.873,1.732,5.93,5.93,0,0,1,1.276,4.714,7.515,7.515,0,0,1-2.022,4.334" transform="translate(-66.369 -64.699)" fill="#fff"/>
            <path id="Trazado_800385" data-name="Trazado 800385" d="M267.413,288.237l5.883,13.1a.679.679,0,0,0,1.264-.066l3.87-11.76Z" transform="translate(-68.335 -73.657)" fill="#9c5bff"/>
            <path id="Trazado_800386" data-name="Trazado 800386" d="M313.238,338.466l-25.521-20.5a3.35,3.35,0,0,1-.514-4.709l14.225-17.706a3.349,3.349,0,0,1,4.709-.514l25.521,20.5a3.35,3.35,0,0,1,.514,4.709l-14.225,17.706a3.349,3.349,0,0,1-4.709.514" transform="translate(-73.204 -75.205)" fill="#ff4b61"/>
            <path id="Trazado_800387" data-name="Trazado 800387" d="M320.522,327.75c-.336.1-.668.173-.987.236-.076.015-.153.029-.231.042a32.676,32.676,0,0,1-7.368-.067l-.339-.025c-.6-.046-1.2-.089-1.8-.126-1.023-3.4-2.3-6.772-2.4-9.436a6.827,6.827,0,0,1,1.333-4.757,5.005,5.005,0,0,1,3.5-2.045,4.44,4.44,0,0,1,3.3,1.232c.031.025.063.048.094.075.108.1.211.2.31.293a4.926,4.926,0,0,1,1.469,3.389l.045,1.589,1.557-.319a5.194,5.194,0,0,1,2.586.145h0a5.054,5.054,0,0,1,1.4.744c.033.024.064.049.1.074a4.573,4.573,0,0,1,1.955,2.93,4.925,4.925,0,0,1-1.19,3.877,6.241,6.241,0,0,1-3.338,2.15" transform="translate(-78.551 -79.615)" fill="#fff"/>
            <path id="Trazado_800388" data-name="Trazado 800388" d="M301.6,337.355l-1.662,11.8a.564.564,0,0,0,.917.513l7.923-6.55Z" transform="translate(-76.645 -86.209)" fill="#ff4b61"/>
          </g>
        </g>
      </g>
    </g>
  </g>
</svg>
