<svg xmlns="http://www.w3.org/2000/svg" xmlns:xlink="http://www.w3.org/1999/xlink" width="44" height="44" viewBox="0 0 44 44">
  <defs>
    <clipPath id="clip-path">
      <rect id="Rectángulo_374119" data-name="Rectángulo 374119" width="44" height="44" transform="translate(-6365 -1260)" fill="#ffce1f"/>
    </clipPath>
  </defs>
  <g id="Enmascarar_grupo_1059029" data-name="Enmascarar grupo 1059029" transform="translate(6365 1260)" clip-path="url(#clip-path)">
    <g id="_08-rateing" data-name="08-rateing" transform="translate(-6365 -1260)">
      <path id="Trazado_798267" data-name="Trazado 798267" d="M26.813,24.063a.687.687,0,0,1-.528-.248l-3.231-3.877H21.313V18.563h2.063a.687.687,0,0,1,.528.248L26.813,22.3l2.909-3.491a.687.687,0,0,1,.528-.248H41.938a.687.687,0,0,0,.688-.687V2.75a.687.687,0,0,0-.687-.687H11.688A.687.687,0,0,0,11,2.75V17.875a.687.687,0,0,0,.688.688H13.75v1.375H11.688a2.062,2.062,0,0,1-2.062-2.062V2.75A2.063,2.063,0,0,1,11.688.688h30.25A2.062,2.062,0,0,1,44,2.75V17.875a2.062,2.062,0,0,1-2.062,2.063H30.572L27.34,23.815A.687.687,0,0,1,26.813,24.063Z" fill="#ffce1f"/>
      <path id="Trazado_798268" data-name="Trazado 798268" d="M11.688,26.813H7.563V25.438h3.884l1.7-1.361a3.424,3.424,0,0,0,1.29-2.685v-4.2a.687.687,0,0,1,.688-.687c5.437,0,5.5,4.084,5.5,4.125v5.5H19.25v-5.5c0-.259-.145-2.454-3.437-2.723v3.49a4.789,4.789,0,0,1-1.806,3.758l-1.889,1.513A.688.688,0,0,1,11.688,26.813Z" fill="#ffce1f"/>
      <path id="Trazado_798269" data-name="Trazado 798269" d="M27.5,30.938H21.313V29.563H27.5a1.375,1.375,0,0,0,0-2.75H17.875V25.438H27.5a2.75,2.75,0,0,1,0,5.5Z" fill="#ffce1f"/>
      <path id="Trazado_798270" data-name="Trazado 798270" d="M28.188,35.063H22V33.688h6.188a1.375,1.375,0,0,0,0-2.75H22V29.563h6.188a2.75,2.75,0,0,1,0,5.5Z" fill="#ffce1f"/>
      <path id="Trazado_798271" data-name="Trazado 798271" d="M27.5,39.188H21.313V37.813H27.5a1.375,1.375,0,0,0,0-2.75H21.313V33.688H27.5a2.75,2.75,0,0,1,0,5.5Z" fill="#ffce1f"/>
      <path id="Trazado_798272" data-name="Trazado 798272" d="M26.125,43.313H13.063a4.856,4.856,0,0,1-3.025-1.375H7.563V40.563h2.75a.687.687,0,0,1,.486.2,3.611,3.611,0,0,0,2.272,1.174H26.125a1.375,1.375,0,0,0,0-2.75H21.313V37.813h4.813a2.75,2.75,0,0,1,0,5.5Z" fill="#ffce1f"/>
      <path id="Trazado_798273" data-name="Trazado 798273" d="M6.188,43.313H2.063A2.062,2.062,0,0,1,0,41.25V26.125a2.063,2.063,0,0,1,2.063-2.062H6.188A2.063,2.063,0,0,1,8.25,26.125V41.25A2.062,2.062,0,0,1,6.188,43.313ZM2.063,25.438a.687.687,0,0,0-.687.688V41.25a.687.687,0,0,0,.688.688H6.188a.687.687,0,0,0,.688-.687V26.125a.688.688,0,0,0-.687-.687Z" fill="#ffce1f"/>
      <rect id="Rectángulo_374122" data-name="Rectángulo 374122" width="1.375" height="1.375" transform="translate(3.438 26.813)" fill="#ffce1f"/>
      <path id="Trazado_798274" data-name="Trazado 798274" d="M29.563,14.438a.693.693,0,0,1-.307-.072l-2.443-1.222L24.37,14.369a.687.687,0,0,1-.974-.782l.613-2.454L22.8,9.322a.688.688,0,0,1,.572-1.072H25.07l1.169-1.757a.714.714,0,0,1,1.144,0L28.555,8.25H30.25a.688.688,0,0,1,.572,1.069l-1.206,1.81.613,2.454a.687.687,0,0,1-.667.855Zm-2.75-2.75a.687.687,0,0,1,.307.072l1.411.707-.325-1.3a.687.687,0,0,1,.095-.55l.663-.992h-.778a.688.688,0,0,1-.572-.306l-.8-1.206-.8,1.2a.688.688,0,0,1-.572.308H24.66l.662.993a.687.687,0,0,1,.095.55l-.324,1.3,1.413-.707A.688.688,0,0,1,26.813,11.688Z" fill="#ffce1f"/>
      <path id="Trazado_798275" data-name="Trazado 798275" d="M39.188,14.438a.693.693,0,0,1-.307-.072l-2.443-1.222-2.443,1.225a.688.688,0,0,1-.974-.782l.613-2.454-1.206-1.81A.688.688,0,0,1,33,8.25h1.695l1.169-1.757a.714.714,0,0,1,1.144,0L38.18,8.25h1.695a.688.688,0,0,1,.572,1.069l-1.206,1.81.613,2.454a.687.687,0,0,1-.667.855Zm-2.75-2.75a.687.687,0,0,1,.307.072l1.411.707-.325-1.3a.687.687,0,0,1,.095-.55l.663-.992h-.778a.688.688,0,0,1-.572-.306l-.8-1.206-.8,1.2a.688.688,0,0,1-.572.308h-.778l.662.993a.687.687,0,0,1,.095.55l-.325,1.3,1.413-.707A.688.688,0,0,1,36.438,11.688Z" fill="#ffce1f"/>
      <path id="Trazado_798276" data-name="Trazado 798276" d="M19.938,14.438a.693.693,0,0,1-.307-.072l-2.443-1.222-2.443,1.225a.688.688,0,0,1-.974-.782l.613-2.454-1.206-1.81A.687.687,0,0,1,13.75,8.25h1.695l1.169-1.757a.714.714,0,0,1,1.144,0L18.93,8.25h1.695A.687.687,0,0,1,21.2,9.319l-1.206,1.809.613,2.454a.687.687,0,0,1-.667.855Zm-2.75-2.75a.687.687,0,0,1,.307.072l1.411.707-.325-1.3a.687.687,0,0,1,.095-.55l.663-.992h-.778a.688.688,0,0,1-.572-.306l-.8-1.206-.8,1.2a.688.688,0,0,1-.572.308h-.778l.662.993a.688.688,0,0,1,.095.55l-.325,1.3,1.413-.707A.688.688,0,0,1,17.188,11.688Z" fill="#ffce1f"/>
      <rect id="Rectángulo_374123" data-name="Rectángulo 374123" width="5.5" height="1.375" transform="translate(32.313 26.813)" fill="#ffce1f"/>
      <rect id="Rectángulo_374124" data-name="Rectángulo 374124" width="4.375" height="1.375" transform="translate(31.827 24.951) rotate(-45)" fill="#ffce1f"/>
      <rect id="Rectángulo_374125" data-name="Rectángulo 374125" width="1.375" height="4.375" transform="translate(31.827 30.392) rotate(-45)" fill="#ffce1f"/>
    </g>
  </g>
</svg>
