<svg xmlns="http://www.w3.org/2000/svg" xmlns:xlink="http://www.w3.org/1999/xlink" width="44" height="44" viewBox="0 0 44 44">
  <defs>
    <clipPath id="clip-path">
      <rect id="Rectángulo_374121" data-name="Rectángulo 374121" width="44" height="44" transform="translate(-6365 -1037)" fill="#ffce1f"/>
    </clipPath>
  </defs>
  <g id="Enmascarar_grupo_1059030" data-name="Enmascarar grupo 1059030" transform="translate(6365 1037)" clip-path="url(#clip-path)">
    <g id="compromiso" transform="translate(-6368.143 -1040.143)">
      <path id="Trazado_798277" data-name="Trazado 798277" d="M20.413,30.41l-4.817.016V24.258c0-.786-.387-1.9-2.226-2.753a1.582,1.582,0,0,0-2.239,1.6,10.565,10.565,0,0,1-.826,5.252c-.216.715-1.248,1.521-.4,2.173,1.017.611,1.506-.861,1.856-1.574a12.315,12.315,0,0,0,.948-6.03c.6.279,1.32.735,1.32,1.33v6.168a1.558,1.558,0,0,0,1.556,1.556h4.832a1.18,1.18,0,0,1,1.17,1.351l-.715,5.059a3.521,3.521,0,0,1-3.512,3.042H9.625a1.94,1.94,0,0,1-1.365-.571V31.287a1.573,1.573,0,0,0-1.571-1.571H4.714a1.573,1.573,0,0,0-1.571,1.571V42.126A1.573,1.573,0,0,0,4.714,43.7H6.689a1.57,1.57,0,0,0,1.469-1.029,3.491,3.491,0,0,0,1.467.337h7.731a5.081,5.081,0,0,0,5.068-4.392l.714-5.058a2.763,2.763,0,0,0-2.725-3.145ZM4.714,42.126V31.287H6.689V42.126Z" fill="#ffce1f"/>
      <path id="Trazado_798278" data-name="Trazado 798278" d="M45.571,29.716H43.6a1.571,1.571,0,0,0-1.522,1.2c-2.457-1.358-3.26-6.069-2.92-7.81a1.583,1.583,0,0,0-2.234-1.6c-1.845.854-2.231,1.97-2.231,2.756L34.7,30.41H29.872a2.764,2.764,0,0,0-2.726,3.143l.715,5.061a5.081,5.081,0,0,0,5.068,4.391h6.749a.786.786,0,1,0,0-1.572H32.929a3.521,3.521,0,0,1-3.512-3.041L28.7,33.331a1.18,1.18,0,0,1,1.171-1.349H34.7a1.558,1.558,0,0,0,1.556-1.556V24.258c0-.594.717-1.051,1.333-1.332-.47,2.674.853,8.325,4.432,9.778v9.421A1.573,1.573,0,0,0,43.6,43.7h1.974a1.573,1.573,0,0,0,1.571-1.571V31.287A1.573,1.573,0,0,0,45.571,29.716Zm0,12.41H43.6V31.287h1.974Z" fill="#ffce1f"/>
      <path id="Trazado_798279" data-name="Trazado 798279" d="M21.241,9.34a7.107,7.107,0,0,1,10.973,5.9,7.029,7.029,0,0,1-1.173,3.9.786.786,0,1,0,1.309.869A8.679,8.679,0,0,0,25.143,6.6c-1.11-.1-5.911.909-4.991,2.525A.788.788,0,0,0,21.241,9.34Z" fill="#ffce1f"/>
      <path id="Trazado_798280" data-name="Trazado 798280" d="M30.134,21.356a.786.786,0,0,0-1.09-.219,7.022,7.022,0,0,1-3.9,1.173,7.107,7.107,0,0,1-5.9-10.974.786.786,0,1,0-1.309-.869,8.679,8.679,0,0,0,7.207,13.415C26.252,23.981,31.054,22.972,30.134,21.356Z" fill="#ffce1f"/>
      <path id="Trazado_798281" data-name="Trazado 798281" d="M27.861,12.5l-3.81,3.81-1.628-1.627a.786.786,0,1,0-1.111,1.111L23.5,17.976a.785.785,0,0,0,1.111,0l4.365-4.365A.786.786,0,1,0,27.861,12.5Z" fill="#ffce1f"/>
    </g>
  </g>
</svg>
