<svg xmlns="http://www.w3.org/2000/svg" width="1241.511" height="460.654" viewBox="0 0 1241.511 460.654">
  <g id="Grupo_1066782" data-name="Grupo 1066782" transform="translate(-179.5 -2848.963)">
    <path id="Trazado_800405" data-name="Trazado 800405" d="M7202.26,12150.5l-119.65-119.653a31.338,31.338,0,0,1,0-44.276l59.538-59.538-.015-.016,60.1-60.1a20.354,20.354,0,0,0,0-28.75l-119.653-119.652a20.326,20.326,0,0,0-28.747,0l-119.653,119.652a20.355,20.355,0,0,0,0,28.75l59.025,59.025,60.628,60.625a31.344,31.344,0,0,1,0,44.276L6934.176,12150.5a31.346,31.346,0,0,1-44.276,0l-119.653-119.653a31.344,31.344,0,0,1,0-44.276l59.828-59.825,7.764,7.764-59.828,59.828a20.35,20.35,0,0,0,0,28.746l119.653,119.653a20.355,20.355,0,0,0,28.75,0l119.653-119.653a20.35,20.35,0,0,0,0-28.746l-60.627-60.628-59.025-59.025a31.344,31.344,0,0,1,0-44.276l119.653-119.653a31.305,31.305,0,0,1,44.274,0l119.653,119.653a31.344,31.344,0,0,1,0,44.276l-59.81,59.81.015.016-59.825,59.828a20.344,20.344,0,0,0,0,28.746l119.653,119.653a20.351,20.351,0,0,0,28.747,0l119.653-119.653a20.35,20.35,0,0,0,0-28.746l-60.627-60.628v0l-59.027-59.026a31.341,31.341,0,0,1,0-44.273L7358.185,11711a31.747,31.747,0,0,1,22.073-9.411h.305a31.1,31.1,0,0,1,22.14,9.17l119.653,119.653a31.34,31.34,0,0,1,0,44.273l-125.167,125.167a10.979,10.979,0,0,1,0-15.526l117.4-117.4a20.351,20.351,0,0,0,0-28.747l-119.467-119.464a20.678,20.678,0,0,0-14.532-6.143,20.2,20.2,0,0,0-14.4,5.954l-119.653,119.652a20.351,20.351,0,0,0,0,28.747l59.028,59.028,60.625,60.625a31.344,31.344,0,0,1,0,44.276L7246.537,12150.5a31.347,31.347,0,0,1-44.277,0Zm-624.689,0-119.653-119.653a31.344,31.344,0,0,1,0-44.276l60.627-60.625,7.763,7.764-60.625,60.628a20.326,20.326,0,0,0,0,28.746l119.65,119.653a20.353,20.353,0,0,0,28.75,0l119.653-119.653a20.35,20.35,0,0,0,0-28.746l-60.627-60.628-59.025-59.025a31.307,31.307,0,0,1,0-44.276l119.653-119.653a31.309,31.309,0,0,1,44.277,0l119.65,119.653a31.338,31.338,0,0,1,0,44.276l-59.825,59.825-7.764-7.764,59.825-59.825a20.331,20.331,0,0,0,0-28.75l-119.653-119.652a20.326,20.326,0,0,0-28.747,0l-119.653,119.652a20.33,20.33,0,0,0,0,28.75l59.028,59.025v0l60.626,60.623a31.344,31.344,0,0,1,0,44.276L6621.847,12150.5a31.347,31.347,0,0,1-44.277,0Zm-277.416-277.416a31.344,31.344,0,0,1,0-44.276l119.653-119.653a31.219,31.219,0,0,1,22.061-9.154h.155a31.2,31.2,0,0,1,22.061,9.154l121.252,121.253a31.344,31.344,0,0,1,0,44.276l-59.029,59.025-7.763-7.764,59.025-59.025a20.349,20.349,0,0,0,0-28.75l-121.252-121.252a20.352,20.352,0,0,0-28.747,0l-119.653,119.653a20.351,20.351,0,0,0,0,28.747l117.557,117.56a10.979,10.979,0,0,1,0,15.526Z" transform="translate(-6111 -8850.537)" fill="#6936c1" stroke="rgba(0,0,0,0)" stroke-width="1"/>
    <path id="Trazado_798250" data-name="Trazado 798250" d="M323.212,492.785l-22.528,5.488,2.792,10.686,12.612-2.792v54.778h13.67V492.785Z" transform="translate(-46.24 2478.682)" fill="#6936c1"/>
    <path id="Trazado_798251" data-name="Trazado 798251" d="M897.649,1155.208v2.215h12.708v-1.156c.193-7.7,5.969-12.8,13.863-12.8,6.162,0,11.071,2.888,11.168,8.665.1,7.413-8.953,12.323-16.27,17.04-14.537,9.242-21.276,17.329-22.239,28.3v3.177H949.54V1188.9H912.186c2.407-3.562,6.643-6.643,13.959-10.494,14.152-7.413,23.105-14.729,23.105-26.667,0-13.478-10.686-20.314-24.645-20.314-16.078,0-26.86,9.338-26.956,23.779" transform="translate(-494.828 1998.155)" fill="#6936c1"/>
    <path id="Trazado_798252" data-name="Trazado 798252" d="M1503.964,493.954V505.7h28.978l-20.025,19.062,4.621,6.161a25.424,25.424,0,0,1,9.434-1.925c7.605,0,13.96,3.851,13.96,11.071,0,7.028-5.006,11.36-13.767,11.36-8.472,0-13.767-3.851-13.767-10.012v-.577h-12.708v1.155c0,13.093,10.2,21.18,26.956,21.18,15.981,0,26.763-7.7,26.763-22.528,0-10.878-8.087-21.276-22.624-21.276h-.193L1552,499.73v-5.776Z" transform="translate(-949.147 2477.803)" fill="#6936c1"/>
    <path id="Trazado_798253" data-name="Trazado 798253" d="M2161.171,1156.691v23.49h-19.543Zm4.621-21.372L2124.01,1185v6.065h36.68v12.515h13.382V1191.06h10.686V1179.6h-10.686v-44.285Z" transform="translate(-1418.145 1995.228)" fill="#6936c1"/>
    <path id="Trazado_798254" data-name="Trazado 798254" d="M2795.52,493.952,2793.4,531.4l11.457.1c2.311-2.6,7.509-3.947,12.419-3.947,8.857,0,14.44,3.947,14.44,12.13,0,7.317-5.006,11.649-13.767,11.649-8.472,0-14.441-3.851-14.441-10.012v-.481H2790.8V541.9c0,13.093,10.783,21.276,27.438,21.276,16.174,0,26.956-7.7,26.956-23.105,0-14.537-10.879-23.2-25.416-23.2-4.621,0-9.82.77-13.382,2.407l.866-13.574h33.406V493.952Z" transform="translate(-1919.852 2477.804)" fill="#6936c1"/>
    <path id="Trazado_798257" data-name="Trazado 798257" d="M3414.4,1175.467c0-6.764,6.377-11.111,14.2-11.111s14.107,4.252,14.107,11.788c0,6.667-4.542,12.078-13.527,12.078-9.373,0-14.783-6.377-14.783-12.754m-14.59-9.855c0,21.74,10.146,34.107,29.373,34.107,15.75,0,27.054-8.5,27.054-24.059,0-14.976-11.981-21.45-25.6-21.45-7.343,0-13.527,2.512-17.392,6.088.483-11.981,5.8-19.9,16.136-19.9,7.439,0,11.014,3.284,11.4,7.826l13.237-.1v-1.063c-.1-9.759-8.986-18.165-24.348-18.165-17.2,0-29.856,11.5-29.856,36.716" transform="translate(-2378.08 2000.061)" fill="#6936c1"/>
    <path id="Trazado_798258" data-name="Trazado 798258" d="M4056.784,492.988v11.787h32.755l-29.663,56.33h15.073l32.271-61.837v-6.28Z" transform="translate(-2872.399 2478.529)" fill="#6936c1"/>
    <path id="Trazado_800406" data-name="Trazado 800406" d="M-39.1-4.824V0h-3.428V-14.219h5.674a6.608,6.608,0,0,1,2.886.6,4.526,4.526,0,0,1,1.943,1.709,4.667,4.667,0,0,1,.688,2.515,4.114,4.114,0,0,1-1.489,3.325,6.179,6.179,0,0,1-4.087,1.245Zm0-2.646h2.246a2.118,2.118,0,0,0,1.519-.5,1.85,1.85,0,0,0,.522-1.406,2.287,2.287,0,0,0-.537-1.592,1.9,1.9,0,0,0-1.465-.605H-39.1ZM-26.191,0h-3.3V-15h3.3Zm7.979,0a3.716,3.716,0,0,1-.312-.947A3.06,3.06,0,0,1-21.064.2a3.749,3.749,0,0,1-2.539-.9,2.875,2.875,0,0,1-1.045-2.271,2.955,2.955,0,0,1,1.27-2.6,6.468,6.468,0,0,1,3.691-.879h1.016v-.559q0-1.462-1.26-1.462A1.03,1.03,0,0,0-21.1-7.319h-3.291a2.95,2.95,0,0,1,1.3-2.487,5.479,5.479,0,0,1,3.325-.956,4.8,4.8,0,0,1,3.193.986,3.429,3.429,0,0,1,1.2,2.705v4.678a4.79,4.79,0,0,0,.449,2.227V0Zm-2.061-2.148a1.836,1.836,0,0,0,1.021-.264,1.653,1.653,0,0,0,.581-.6V-4.7h-.957q-1.719,0-1.719,1.543a.942.942,0,0,0,.3.728A1.1,1.1,0,0,0-20.273-2.148Zm9.746-8.418.107,1.24A3.583,3.583,0,0,1-7.4-10.762a3.015,3.015,0,0,1,2.466.986,4.7,4.7,0,0,1,.845,2.969V0h-3.3V-6.67a1.783,1.783,0,0,0-.322-1.177,1.491,1.491,0,0,0-1.172-.376,1.569,1.569,0,0,0-1.436.762V0h-3.291V-10.566ZM1.2,0H-2.1V-10.566H1.2Zm-3.5-13.3a1.482,1.482,0,0,1,.508-1.159,1.909,1.909,0,0,1,1.318-.452A1.909,1.909,0,0,1,.85-14.46,1.482,1.482,0,0,1,1.357-13.3,1.482,1.482,0,0,1,.85-12.141a1.909,1.909,0,0,1-1.318.452,1.909,1.909,0,0,1-1.318-.452A1.482,1.482,0,0,1-2.295-13.3ZM3.994,0V-8.281H2.461v-2.285H3.994v-.352A4.034,4.034,0,0,1,5.381-14.15a5.541,5.541,0,0,1,3.6-1.055,12.787,12.787,0,0,1,3.438.566l-.449,2.6-.547-.146a8.7,8.7,0,0,0-2.246-.283q-1.885,0-1.885,1.719v.186h2.07v2.285H7.295V0Zm9.941,0H10.625V-10.566h3.311ZM20.41-2.344a1.464,1.464,0,0,0,1.074-.376,1.379,1.379,0,0,0,.371-1.05h3.086A3.653,3.653,0,0,1,23.7-.918,4.631,4.631,0,0,1,20.488.2,4.689,4.689,0,0,1,16.855-1.25a5.7,5.7,0,0,1-1.328-4v-.137a6.436,6.436,0,0,1,.591-2.827,4.3,4.3,0,0,1,1.7-1.885,5.081,5.081,0,0,1,2.637-.659A4.573,4.573,0,0,1,23.73-9.619a4.053,4.053,0,0,1,1.211,3.1H21.855a1.807,1.807,0,0,0-.4-1.26,1.382,1.382,0,0,0-1.074-.439q-1.279,0-1.494,1.631a11.508,11.508,0,0,0-.068,1.426A4.52,4.52,0,0,0,19.2-2.959,1.319,1.319,0,0,0,20.41-2.344ZM32.285,0a3.716,3.716,0,0,1-.312-.947A3.06,3.06,0,0,1,29.434.2a3.749,3.749,0,0,1-2.539-.9A2.875,2.875,0,0,1,25.85-2.979a2.955,2.955,0,0,1,1.27-2.6,6.468,6.468,0,0,1,3.691-.879h1.016v-.559q0-1.462-1.26-1.462a1.03,1.03,0,0,0-1.172,1.158H26.1a2.95,2.95,0,0,1,1.3-2.487,5.479,5.479,0,0,1,3.325-.956,4.8,4.8,0,0,1,3.193.986,3.429,3.429,0,0,1,1.2,2.705v4.678a4.79,4.79,0,0,0,.449,2.227V0ZM30.225-2.148a1.836,1.836,0,0,0,1.021-.264,1.653,1.653,0,0,0,.581-.6V-4.7h-.957q-1.719,0-1.719,1.543a.942.942,0,0,0,.3.728A1.1,1.1,0,0,0,30.225-2.148ZM43.34-7.588l-1.084-.078a1.947,1.947,0,0,0-1.992.977V0H36.973V-10.566h3.086l.107,1.357a2.548,2.548,0,0,1,2.314-1.553,3.209,3.209,0,0,1,.918.117Z" transform="translate(355 3013)" fill="#12263f"/>
    <path id="Trazado_800408" data-name="Trazado 800408" d="M-31.6-6.035h-5.391v3.4h6.367V0h-9.795V-14.219H-30.6v2.646h-6.387v3H-31.6Zm7.754,3.066a.76.76,0,0,0-.439-.674,6.685,6.685,0,0,0-1.67-.527,7.615,7.615,0,0,1-2.031-.718A3.4,3.4,0,0,1-29.2-5.967a2.577,2.577,0,0,1-.42-1.455,2.92,2.92,0,0,1,1.2-2.4,4.948,4.948,0,0,1,3.145-.942,5.482,5.482,0,0,1,3.359.947,2.962,2.962,0,0,1,1.27,2.49h-3.3q0-1.27-1.338-1.27a1.326,1.326,0,0,0-.869.288.892.892,0,0,0-.352.718.819.819,0,0,0,.43.713,4.06,4.06,0,0,0,1.372.449,11.857,11.857,0,0,1,1.655.42,3.007,3.007,0,0,1,2.383,2.939A2.767,2.767,0,0,1-21.953-.713,5.631,5.631,0,0,1-25.278.2,5.747,5.747,0,0,1-27.7-.293a4.05,4.05,0,0,1-1.66-1.328,3.007,3.007,0,0,1-.6-1.768h3.076a1.272,1.272,0,0,0,.488,1.069,2.009,2.009,0,0,0,1.2.337,1.58,1.58,0,0,0,1.011-.273A.875.875,0,0,0-23.843-2.969Zm9.18.625a1.464,1.464,0,0,0,1.074-.376,1.379,1.379,0,0,0,.371-1.05h3.086A3.653,3.653,0,0,1-11.377-.918,4.631,4.631,0,0,1-14.585.2,4.689,4.689,0,0,1-18.218-1.25a5.7,5.7,0,0,1-1.328-4v-.137a6.436,6.436,0,0,1,.591-2.827,4.3,4.3,0,0,1,1.7-1.885,5.081,5.081,0,0,1,2.637-.659,4.573,4.573,0,0,1,3.271,1.143,4.053,4.053,0,0,1,1.211,3.1h-3.086a1.807,1.807,0,0,0-.4-1.26,1.382,1.382,0,0,0-1.074-.439q-1.279,0-1.494,1.631a11.508,11.508,0,0,0-.068,1.426,4.52,4.52,0,0,0,.381,2.207A1.319,1.319,0,0,0-14.663-2.344Zm12.217,1.2A3.393,3.393,0,0,1-5.269.2,3.328,3.328,0,0,1-7.9-.815a4.251,4.251,0,0,1-.894-2.905v-6.846H-5.5V-3.7A1.183,1.183,0,0,0-4.185-2.344a1.72,1.72,0,0,0,1.611-.811v-7.412H.737V0H-2.349Zm9.453-1.2A1.464,1.464,0,0,0,8.081-2.72a1.379,1.379,0,0,0,.371-1.05h3.086A3.653,3.653,0,0,1,10.293-.918,4.631,4.631,0,0,1,7.085.2,4.689,4.689,0,0,1,3.452-1.25a5.7,5.7,0,0,1-1.328-4v-.137a6.436,6.436,0,0,1,.591-2.827,4.3,4.3,0,0,1,1.7-1.885,5.081,5.081,0,0,1,2.637-.659,4.573,4.573,0,0,1,3.271,1.143,4.053,4.053,0,0,1,1.211,3.1H8.452a1.807,1.807,0,0,0-.4-1.26,1.382,1.382,0,0,0-1.074-.439q-1.279,0-1.494,1.631a11.508,11.508,0,0,0-.068,1.426A4.52,4.52,0,0,0,5.8-2.959,1.319,1.319,0,0,0,7.007-2.344Zm9.141-7.09a3.294,3.294,0,0,1,2.7-1.328,3.284,3.284,0,0,1,2.637,1.035,4.651,4.651,0,0,1,.908,3.057V0h-3.3V-6.592a1.86,1.86,0,0,0-.342-1.235,1.469,1.469,0,0,0-1.162-.4,1.582,1.582,0,0,0-1.436.645V0H12.856V-15h3.291ZM30.171,0a3.716,3.716,0,0,1-.312-.947A3.06,3.06,0,0,1,27.319.2a3.749,3.749,0,0,1-2.539-.9,2.875,2.875,0,0,1-1.045-2.271A2.955,2.955,0,0,1,25-5.576,6.468,6.468,0,0,1,28.7-6.455h1.016v-.559q0-1.462-1.26-1.462A1.03,1.03,0,0,0,27.28-7.319H23.989a2.95,2.95,0,0,1,1.3-2.487,5.479,5.479,0,0,1,3.325-.956,4.8,4.8,0,0,1,3.193.986,3.429,3.429,0,0,1,1.2,2.705v4.678a4.79,4.79,0,0,0,.449,2.227V0ZM28.11-2.148a1.836,1.836,0,0,0,1.021-.264,1.653,1.653,0,0,0,.581-.6V-4.7h-.957q-1.719,0-1.719,1.543a.942.942,0,0,0,.3.728A1.1,1.1,0,0,0,28.11-2.148ZM41.226-7.588l-1.084-.078a1.947,1.947,0,0,0-1.992.977V0H34.858V-10.566h3.086l.107,1.357a2.548,2.548,0,0,1,2.314-1.553,3.209,3.209,0,0,1,.918.117Z" transform="translate(677 3013)" fill="#12263f"/>
    <path id="Trazado_800410" data-name="Trazado 800410" d="M-20.8-14.219l3.174,9.893,3.164-9.893h4.512V0h-3.437V-3.32l.332-6.8L-16.489,0h-2.266L-22.2-10.127l.332,6.807V0H-25.3V-14.219ZM-2.808.2a5.432,5.432,0,0,1-3.936-1.45,5.008,5.008,0,0,1-1.5-3.774V-5.3a6.489,6.489,0,0,1,.6-2.861,4.395,4.395,0,0,1,1.753-1.919,5.292,5.292,0,0,1,2.734-.679A4.574,4.574,0,0,1,.356-9.38,5.43,5.43,0,0,1,1.646-5.527v1.279H-4.9a2.372,2.372,0,0,0,.771,1.4,2.3,2.3,0,0,0,1.543.508A2.958,2.958,0,0,0-.142-3.437l1.5,1.777A4.2,4.2,0,0,1-.381-.308,5.891,5.891,0,0,1-2.808.2Zm-.371-8.418q-1.445,0-1.719,1.914h3.32v-.254a1.63,1.63,0,0,0-.4-1.226A1.593,1.593,0,0,0-3.179-8.223ZM2.554-5.361A6.455,6.455,0,0,1,3.638-9.316a3.568,3.568,0,0,1,3.027-1.445A3.035,3.035,0,0,1,9.048-9.648V-15h3.3V0H9.39L9.224-1.133A3.116,3.116,0,0,1,6.646.2,3.562,3.562,0,0,1,3.657-1.25,6.659,6.659,0,0,1,2.554-5.361Zm3.291.205q0,2.813,1.641,2.813a1.62,1.62,0,0,0,1.563-.918V-7.285A1.576,1.576,0,0,0,7.5-8.223q-1.523,0-1.65,2.461ZM17.69,0h-3.3V-10.566h3.3Zm-3.5-13.3A1.482,1.482,0,0,1,14.7-14.46a1.909,1.909,0,0,1,1.318-.452,1.909,1.909,0,0,1,1.318.452,1.482,1.482,0,0,1,.508,1.159,1.482,1.482,0,0,1-.508,1.159,1.909,1.909,0,0,1-1.318.452,1.909,1.909,0,0,1-1.318-.452A1.482,1.482,0,0,1,14.194-13.3ZM26.108-7.588l-1.084-.078a1.947,1.947,0,0,0-1.992.977V0H19.741V-10.566h3.086l.107,1.357a2.548,2.548,0,0,1,2.314-1.553,3.209,3.209,0,0,1,.918.117Z" transform="translate(979 3013)" fill="#12263f"/>
    <path id="Trazado_800412" data-name="Trazado 800412" d="M-36.978-2.656h-4.7L-42.5,0h-3.662l5.215-14.219h3.223L-32.466,0h-3.682ZM-40.854-5.3H-37.8l-1.533-4.932Zm13.74,2.959A1.464,1.464,0,0,0-26.04-2.72a1.379,1.379,0,0,0,.371-1.05h3.086A3.653,3.653,0,0,1-23.828-.918,4.631,4.631,0,0,1-27.036.2,4.689,4.689,0,0,1-30.669-1.25a5.7,5.7,0,0,1-1.328-4v-.137a6.436,6.436,0,0,1,.591-2.827A4.3,4.3,0,0,1-29.7-10.1a5.081,5.081,0,0,1,2.637-.659,4.573,4.573,0,0,1,3.271,1.143,4.053,4.053,0,0,1,1.211,3.1h-3.086a1.807,1.807,0,0,0-.4-1.26,1.382,1.382,0,0,0-1.074-.439q-1.279,0-1.494,1.631a11.508,11.508,0,0,0-.068,1.426,4.52,4.52,0,0,0,.381,2.207A1.319,1.319,0,0,0-27.114-2.344Zm9.756-10.85v2.627h1.738v2.285h-1.738v4.834a1.234,1.234,0,0,0,.215.83,1.152,1.152,0,0,0,.85.234,4.828,4.828,0,0,0,.82-.059V-.088A6.074,6.074,0,0,1-17.329.2a3.448,3.448,0,0,1-2.51-.8,3.282,3.282,0,0,1-.811-2.432V-8.281H-22v-2.285h1.348v-2.627ZM-8.032-1.143A3.393,3.393,0,0,1-10.854.2,3.328,3.328,0,0,1-13.486-.815a4.251,4.251,0,0,1-.894-2.905v-6.846h3.291V-3.7A1.183,1.183,0,0,0-9.771-2.344a1.72,1.72,0,0,0,1.611-.811v-7.412h3.311V0H-7.935ZM2.905,0a3.716,3.716,0,0,1-.312-.947A3.06,3.06,0,0,1,.054.2a3.749,3.749,0,0,1-2.539-.9A2.875,2.875,0,0,1-3.53-2.979a2.955,2.955,0,0,1,1.27-2.6,6.468,6.468,0,0,1,3.691-.879H2.446v-.559q0-1.462-1.26-1.462A1.03,1.03,0,0,0,.015-7.319H-3.276a2.95,2.95,0,0,1,1.3-2.487,5.479,5.479,0,0,1,3.325-.956,4.8,4.8,0,0,1,3.193.986,3.429,3.429,0,0,1,1.2,2.705v4.678A4.79,4.79,0,0,0,6.2-.166V0ZM.845-2.148a1.836,1.836,0,0,0,1.021-.264,1.653,1.653,0,0,0,.581-.6V-4.7H1.489Q-.229-4.7-.229-3.154a.942.942,0,0,0,.3.728A1.1,1.1,0,0,0,.845-2.148ZM11.04,0h-3.3V-15h3.3Zm5.5,0h-3.3V-10.566h3.3Zm-3.5-13.3a1.482,1.482,0,0,1,.508-1.159,1.909,1.909,0,0,1,1.318-.452,1.909,1.909,0,0,1,1.318.452,1.482,1.482,0,0,1,.508,1.159,1.482,1.482,0,0,1-.508,1.159,1.909,1.909,0,0,1-1.318.452,1.909,1.909,0,0,1-1.318-.452A1.482,1.482,0,0,1,13.042-13.3Zm9.4,10.762h4.814V0H18.286V-1.836l4.688-6.191H18.491v-2.539h8.662v1.777ZM34.81,0A3.716,3.716,0,0,1,34.5-.947,3.06,3.06,0,0,1,31.958.2a3.749,3.749,0,0,1-2.539-.9,2.875,2.875,0,0,1-1.045-2.271,2.955,2.955,0,0,1,1.27-2.6,6.468,6.468,0,0,1,3.691-.879h1.016v-.559q0-1.462-1.26-1.462a1.03,1.03,0,0,0-1.172,1.158H28.628a2.95,2.95,0,0,1,1.3-2.487,5.479,5.479,0,0,1,3.325-.956,4.8,4.8,0,0,1,3.193.986,3.429,3.429,0,0,1,1.2,2.705v4.678A4.79,4.79,0,0,0,38.1-.166V0ZM32.749-2.148a1.836,1.836,0,0,0,1.021-.264,1.653,1.653,0,0,0,.581-.6V-4.7h-.957q-1.719,0-1.719,1.543a.942.942,0,0,0,.3.728A1.1,1.1,0,0,0,32.749-2.148ZM45.864-7.588,44.78-7.666a1.947,1.947,0,0,0-1.992.977V0H39.5V-10.566h3.086l.107,1.357A2.548,2.548,0,0,1,45-10.762a3.209,3.209,0,0,1,.918.117Z" transform="translate(1307 3013)" fill="#12263f"/>
    <path id="Trazado_800407" data-name="Trazado 800407" d="M-27.368-6.035h-5.391v3.4h6.367V0h-9.795V-14.219h9.814v2.646h-6.387v3h5.391Zm7.754,3.066a.76.76,0,0,0-.439-.674,6.685,6.685,0,0,0-1.67-.527,7.615,7.615,0,0,1-2.031-.718,3.4,3.4,0,0,1-1.221-1.079,2.577,2.577,0,0,1-.42-1.455,2.92,2.92,0,0,1,1.2-2.4,4.948,4.948,0,0,1,3.145-.942,5.482,5.482,0,0,1,3.359.947,2.962,2.962,0,0,1,1.27,2.49h-3.3q0-1.27-1.338-1.27a1.326,1.326,0,0,0-.869.288.892.892,0,0,0-.352.718.819.819,0,0,0,.43.713,4.06,4.06,0,0,0,1.372.449,11.857,11.857,0,0,1,1.655.42A3.007,3.007,0,0,1-16.44-3.066,2.767,2.767,0,0,1-17.725-.713,5.631,5.631,0,0,1-21.05.2a5.747,5.747,0,0,1-2.422-.488,4.05,4.05,0,0,1-1.66-1.328,3.007,3.007,0,0,1-.6-1.768h3.076a1.272,1.272,0,0,0,.488,1.069,2.009,2.009,0,0,0,1.2.337,1.58,1.58,0,0,0,1.011-.273A.875.875,0,0,0-19.614-2.969Zm8.545-10.225v2.627h1.738v2.285h-1.738v4.834a1.234,1.234,0,0,0,.215.83,1.152,1.152,0,0,0,.85.234,4.828,4.828,0,0,0,.82-.059V-.088A6.074,6.074,0,0,1-11.04.2a3.448,3.448,0,0,1-2.51-.8,3.282,3.282,0,0,1-.811-2.432V-8.281h-1.348v-2.285h1.348v-2.627ZM-1.743-1.143A3.393,3.393,0,0,1-4.565.2,3.328,3.328,0,0,1-7.2-.815a4.251,4.251,0,0,1-.894-2.905v-6.846H-4.8V-3.7A1.183,1.183,0,0,0-3.481-2.344,1.72,1.72,0,0,0-1.87-3.154v-7.412H1.44V0H-1.646Zm4.57-4.219A6.455,6.455,0,0,1,3.911-9.316a3.568,3.568,0,0,1,3.027-1.445A3.035,3.035,0,0,1,9.321-9.648V-15h3.3V0H9.663L9.5-1.133A3.116,3.116,0,0,1,6.919.2,3.562,3.562,0,0,1,3.931-1.25,6.659,6.659,0,0,1,2.827-5.361Zm3.291.205q0,2.813,1.641,2.813a1.62,1.62,0,0,0,1.563-.918V-7.285a1.576,1.576,0,0,0-1.543-.937q-1.523,0-1.65,2.461ZM17.964,0h-3.3V-10.566h3.3Zm-3.5-13.3a1.482,1.482,0,0,1,.508-1.159,1.909,1.909,0,0,1,1.318-.452,1.909,1.909,0,0,1,1.318.452A1.482,1.482,0,0,1,18.12-13.3a1.482,1.482,0,0,1-.508,1.159,1.909,1.909,0,0,1-1.318.452,1.909,1.909,0,0,1-1.318-.452A1.482,1.482,0,0,1,14.468-13.3ZM25.942,0a3.716,3.716,0,0,1-.312-.947A3.06,3.06,0,0,1,23.091.2a3.749,3.749,0,0,1-2.539-.9,2.875,2.875,0,0,1-1.045-2.271,2.955,2.955,0,0,1,1.27-2.6,6.468,6.468,0,0,1,3.691-.879h1.016v-.559q0-1.462-1.26-1.462a1.03,1.03,0,0,0-1.172,1.158H19.761a2.95,2.95,0,0,1,1.3-2.487,5.479,5.479,0,0,1,3.325-.956,4.8,4.8,0,0,1,3.193.986,3.429,3.429,0,0,1,1.2,2.705v4.678a4.79,4.79,0,0,0,.449,2.227V0ZM23.882-2.148A1.836,1.836,0,0,0,24.9-2.412a1.653,1.653,0,0,0,.581-.6V-4.7h-.957q-1.719,0-1.719,1.543a.942.942,0,0,0,.3.728A1.1,1.1,0,0,0,23.882-2.148ZM37-7.588l-1.084-.078a1.947,1.947,0,0,0-1.992.977V0H30.63V-10.566h3.086l.107,1.357a2.548,2.548,0,0,1,2.314-1.553,3.209,3.209,0,0,1,.918.117Z" transform="translate(518 3174)" fill="#12263f"/>
    <path id="Trazado_800409" data-name="Trazado 800409" d="M-16.021-6.035h-5.391v3.4h6.367V0h-9.795V-14.219h9.814v2.646h-6.387v3h5.391Zm6.182,2.119,1.67-6.65H-4.7L-8.149,0h-3.359l-3.447-10.566h3.477ZM-.249,0h-3.3V-10.566h3.3Zm-3.5-13.3a1.482,1.482,0,0,1,.508-1.159,1.909,1.909,0,0,1,1.318-.452A1.909,1.909,0,0,1-.6-14.46,1.482,1.482,0,0,1-.093-13.3,1.482,1.482,0,0,1-.6-12.141a1.909,1.909,0,0,1-1.318.452,1.909,1.909,0,0,1-1.318-.452A1.482,1.482,0,0,1-3.745-13.3Zm9.355.107v2.627H7.349v2.285H5.61v4.834a1.234,1.234,0,0,0,.215.83,1.152,1.152,0,0,0,.85.234,4.828,4.828,0,0,0,.82-.059V-.088A6.074,6.074,0,0,1,5.64.2a3.448,3.448,0,0,1-2.51-.8,3.282,3.282,0,0,1-.811-2.432V-8.281H.972v-2.285H2.319v-2.627ZM14.595,0a3.716,3.716,0,0,1-.312-.947A3.06,3.06,0,0,1,11.743.2,3.749,3.749,0,0,1,9.2-.708,2.875,2.875,0,0,1,8.159-2.979a2.955,2.955,0,0,1,1.27-2.6,6.468,6.468,0,0,1,3.691-.879h1.016v-.559q0-1.462-1.26-1.462A1.03,1.03,0,0,0,11.7-7.319H8.413a2.95,2.95,0,0,1,1.3-2.487,5.479,5.479,0,0,1,3.325-.956,4.8,4.8,0,0,1,3.193.986,3.429,3.429,0,0,1,1.2,2.705v4.678a4.79,4.79,0,0,0,.449,2.227V0ZM12.534-2.148a1.836,1.836,0,0,0,1.021-.264,1.653,1.653,0,0,0,.581-.6V-4.7h-.957q-1.719,0-1.719,1.543a.942.942,0,0,0,.3.728A1.1,1.1,0,0,0,12.534-2.148ZM25.649-7.588l-1.084-.078a1.947,1.947,0,0,0-1.992.977V0H19.282V-10.566h3.086l.107,1.357a2.548,2.548,0,0,1,2.314-1.553,3.209,3.209,0,0,1,.918.117Z" transform="translate(816 3174)" fill="#12263f"/>
    <path id="Trazado_800411" data-name="Trazado 800411" d="M-37.817-6.035h-5.391v3.4h6.367V0h-9.795V-14.219h9.814v2.646h-6.387v3h5.391Zm7.754,3.066a.76.76,0,0,0-.439-.674,6.685,6.685,0,0,0-1.67-.527A7.615,7.615,0,0,1-34.2-4.888a3.4,3.4,0,0,1-1.221-1.079,2.577,2.577,0,0,1-.42-1.455,2.92,2.92,0,0,1,1.2-2.4,4.948,4.948,0,0,1,3.145-.942,5.482,5.482,0,0,1,3.359.947,2.962,2.962,0,0,1,1.27,2.49h-3.3q0-1.27-1.338-1.27a1.326,1.326,0,0,0-.869.288.892.892,0,0,0-.352.718.819.819,0,0,0,.43.713,4.06,4.06,0,0,0,1.372.449,11.857,11.857,0,0,1,1.655.42A3.007,3.007,0,0,1-26.89-3.066,2.767,2.767,0,0,1-28.174-.713,5.631,5.631,0,0,1-31.5.2a5.747,5.747,0,0,1-2.422-.488,4.05,4.05,0,0,1-1.66-1.328,3.007,3.007,0,0,1-.6-1.768H-33.1a1.272,1.272,0,0,0,.488,1.069,2.009,2.009,0,0,0,1.2.337A1.58,1.58,0,0,0-30.4-2.256.875.875,0,0,0-30.063-2.969Zm8.545-10.225v2.627h1.738v2.285h-1.738v4.834a1.234,1.234,0,0,0,.215.83,1.152,1.152,0,0,0,.85.234,4.828,4.828,0,0,0,.82-.059V-.088A6.074,6.074,0,0,1-21.489.2,3.448,3.448,0,0,1-24-.605a3.282,3.282,0,0,1-.811-2.432V-8.281h-1.348v-2.285h1.348v-2.627ZM-12.534,0a3.716,3.716,0,0,1-.312-.947A3.06,3.06,0,0,1-15.386.2a3.749,3.749,0,0,1-2.539-.9A2.875,2.875,0,0,1-18.97-2.979a2.955,2.955,0,0,1,1.27-2.6,6.468,6.468,0,0,1,3.691-.879h1.016v-.559q0-1.462-1.26-1.462a1.03,1.03,0,0,0-1.172,1.158h-3.291a2.95,2.95,0,0,1,1.3-2.487,5.479,5.479,0,0,1,3.325-.956,4.8,4.8,0,0,1,3.193.986,3.429,3.429,0,0,1,1.2,2.705v4.678A4.79,4.79,0,0,0-9.243-.166V0Zm-2.061-2.148a1.836,1.836,0,0,0,1.021-.264,1.653,1.653,0,0,0,.581-.6V-4.7h-.957q-1.719,0-1.719,1.543a.942.942,0,0,0,.3.728A1.1,1.1,0,0,0-14.595-2.148ZM1.938-5.2A6.44,6.44,0,0,1,.864-1.2,3.6,3.6,0,0,1-2.163.2a3.122,3.122,0,0,1-2.6-1.279L-4.9,0H-7.847V-15h3.291v5.283a3.013,3.013,0,0,1,2.373-1.045A3.6,3.6,0,0,1,.864-9.346,6.473,6.473,0,0,1,1.938-5.361Zm-3.3-.21a4.3,4.3,0,0,0-.405-2.169,1.366,1.366,0,0,0-1.245-.648,1.576,1.576,0,0,0-1.543.848v4.192a1.585,1.585,0,0,0,1.563.838A1.4,1.4,0,0,0-1.519-3.475,8.121,8.121,0,0,0-1.362-5.405ZM6.86,0H3.56V-15h3.3ZM14,.2a5.432,5.432,0,0,1-3.936-1.45,5.008,5.008,0,0,1-1.5-3.774V-5.3a6.489,6.489,0,0,1,.6-2.861,4.395,4.395,0,0,1,1.753-1.919,5.292,5.292,0,0,1,2.734-.679A4.574,4.574,0,0,1,17.163-9.38a5.43,5.43,0,0,1,1.289,3.853v1.279H11.909a2.372,2.372,0,0,0,.771,1.4,2.3,2.3,0,0,0,1.543.508,2.958,2.958,0,0,0,2.441-1.094l1.5,1.777A4.2,4.2,0,0,1,16.426-.308,5.891,5.891,0,0,1,14,.2Zm-.371-8.418q-1.445,0-1.719,1.914h3.32v-.254a1.63,1.63,0,0,0-.4-1.226A1.593,1.593,0,0,0,13.628-8.223ZM24.243-2.344a1.464,1.464,0,0,0,1.074-.376,1.379,1.379,0,0,0,.371-1.05h3.086A3.653,3.653,0,0,1,27.529-.918,4.631,4.631,0,0,1,24.321.2,4.689,4.689,0,0,1,20.688-1.25a5.7,5.7,0,0,1-1.328-4v-.137a6.436,6.436,0,0,1,.591-2.827,4.3,4.3,0,0,1,1.7-1.885,5.081,5.081,0,0,1,2.637-.659,4.573,4.573,0,0,1,3.271,1.143,4.053,4.053,0,0,1,1.211,3.1H25.688a1.807,1.807,0,0,0-.4-1.26,1.382,1.382,0,0,0-1.074-.439q-1.279,0-1.494,1.631a11.508,11.508,0,0,0-.068,1.426,4.52,4.52,0,0,0,.381,2.207A1.319,1.319,0,0,0,24.243-2.344ZM35.278.2a5.432,5.432,0,0,1-3.936-1.45,5.008,5.008,0,0,1-1.5-3.774V-5.3a6.489,6.489,0,0,1,.6-2.861,4.395,4.395,0,0,1,1.753-1.919,5.292,5.292,0,0,1,2.734-.679A4.574,4.574,0,0,1,38.442-9.38a5.43,5.43,0,0,1,1.289,3.853v1.279H33.188a2.372,2.372,0,0,0,.771,1.4,2.3,2.3,0,0,0,1.543.508,2.958,2.958,0,0,0,2.441-1.094l1.5,1.777A4.2,4.2,0,0,1,37.705-.308,5.891,5.891,0,0,1,35.278.2Zm-.371-8.418q-1.445,0-1.719,1.914h3.32v-.254a1.63,1.63,0,0,0-.4-1.226A1.593,1.593,0,0,0,34.907-8.223Zm12.539.635-1.084-.078a1.947,1.947,0,0,0-1.992.977V0H41.079V-10.566h3.086l.107,1.357a2.548,2.548,0,0,1,2.314-1.553,3.209,3.209,0,0,1,.918.117Z" transform="translate(1152 3174)" fill="#12263f"/>
  </g>
</svg>
