<svg xmlns="http://www.w3.org/2000/svg" xmlns:xlink="http://www.w3.org/1999/xlink" width="400" height="440" viewBox="0 0 400 440">
  <defs>
    <clipPath id="clip-path">
      <rect id="Rectángulo_374298" data-name="Rectángulo 374298" width="358" height="294.853" fill="none"/>
    </clipPath>
    <clipPath id="clip-path-3">
      <rect id="Rectángulo_374225" data-name="Rectángulo 374225" width="121.108" height="117.713" fill="none"/>
    </clipPath>
    <clipPath id="clip-path-4">
      <rect id="Rectángulo_374227" data-name="Rectángulo 374227" width="66.137" height="40.471" fill="none"/>
    </clipPath>
    <clipPath id="clip-path-6">
      <rect id="Rectángulo_374236" data-name="Rectángulo 374236" width="9.635" height="9.635" fill="none"/>
    </clipPath>
    <clipPath id="clip-path-7">
      <rect id="Rectángulo_374237" data-name="Rectángulo 374237" width="9.636" height="9.635" fill="none"/>
    </clipPath>
    <clipPath id="clip-path-8">
      <rect id="Rectángulo_374238" data-name="Rectángulo 374238" width="9.572" height="9.572" fill="none"/>
    </clipPath>
    <clipPath id="clip-path-10">
      <rect id="Rectángulo_374290" data-name="Rectángulo 374290" width="43.113" height="26.382" fill="none"/>
    </clipPath>
    <clipPath id="clip-path-11">
      <rect id="Rectángulo_374293" data-name="Rectángulo 374293" width="117.836" height="189.13" fill="none"/>
    </clipPath>
  </defs>
  <g id="Grupo_1066782" data-name="Grupo 1066782" transform="translate(7206 6737)">
    <path id="Trazado_800405" data-name="Trazado 800405" d="M20,0H380a20,20,0,0,1,20,20V420a20,20,0,0,1-20,20H20A20,20,0,0,1,0,420V20A20,20,0,0,1,20,0Z" transform="translate(-7206 -6737)" fill="#6936c1"/>
    <g id="Grupo_1065181" data-name="Grupo 1065181" transform="translate(-7185 -6687)">
      <g id="Grupo_1065180" data-name="Grupo 1065180" clip-path="url(#clip-path)">
        <g id="Grupo_1065171" data-name="Grupo 1065171">
          <g id="Grupo_1065170" data-name="Grupo 1065170" clip-path="url(#clip-path)">
            <path id="Trazado_799225" data-name="Trazado 799225" d="M360.759,141.13c0,76.416-77.372,138.363-172.816,138.363S15.126,217.545,15.126,141.13,92.5,2.767,187.943,2.767,360.759,64.714,360.759,141.13" transform="translate(-3.542 -0.648)" fill="#985ffb"/>
            <path id="Trazado_799228" data-name="Trazado 799228" d="M323.775,127.645c2.921-3.387,7.229-5.158,11.216-7.185s8.047-4.721,9.584-8.92c.541-1.477.555-3.473-.809-4.256s-3.046.216-4.277,1.205q-2.924,2.348-5.666,4.911a5.228,5.228,0,0,1-2.183,1.449A1.741,1.741,0,0,1,329.5,113.8c-.2-.857.514-1.636,1.194-2.193,3.414-2.8,7.534-4.593,11.177-7.086s6.978-6.043,7.488-10.428c.2-1.678-.227-3.674-1.746-4.413a3.468,3.468,0,0,0-3.177.278,9.447,9.447,0,0,0-2.416,2.25,79.162,79.162,0,0,0-7.071,9.921c-.61,1.012-1.621,2.2-2.719,1.763a1.688,1.688,0,0,1-.887-1.8,4.606,4.606,0,0,1,.91-1.941c2.742-3.977,6.1-7.494,8.871-11.453s4.968-8.552,4.914-13.382c-.031-2.772-1.352-6.029-4.093-6.435a4.7,4.7,0,0,0-3.833,1.413,10.267,10.267,0,0,0-2.21,3.572c-3.178,7.755-2.494,16.755-6.138,24.3-.265.549-.657,1.16-1.266,1.2a1.238,1.238,0,0,1-1.157-1.032,3.677,3.677,0,0,1,.151-1.664q1.207-4.905,2.018-9.9a10.146,10.146,0,0,0,.133-3.594,3.631,3.631,0,0,0-2.094-2.759,3.506,3.506,0,0,0-3.622,1.043,7.546,7.546,0,0,0-1.685,3.566c-1.673,7.213,1.061,14.816-.092,22.13-.17,1.076-.884,2.435-1.928,2.124-.825-.247-.976-1.333-.971-2.193q.025-4.23.05-8.459a8.53,8.53,0,0,0-.4-3.221,2.9,2.9,0,0,0-2.4-1.945c-1.532-.061-2.628,1.468-3.167,2.9-1.583,4.219-.973,8.946.226,13.29s2.963,8.546,3.681,12.994c.43,2.671-.065,5.061-2.631,7.918-.877.976-3.9,4.532-3.322,5.335,2.361,3.277,11.5-7.121,12.475-8.252" transform="translate(-72.879 -16.119)" fill="#e54c4c"/>
            <path id="Trazado_799229" data-name="Trazado 799229" d="M316.157,97.466c.039-.406.661-.286.623.118a44.044,44.044,0,0,0,3.226,21.131,43.065,43.065,0,0,0,2.537,5.074c1.435-3.4,2.512-7.006,3.609-10.4.093-.287.2-.568.295-.854a.38.38,0,0,1-.016-.041,70.55,70.55,0,0,1-.795-21.764q.369-3.09,1.012-6.139a.317.317,0,0,1,.622.118,70.022,70.022,0,0,0-1.117,21.653c.175,1.66.424,3.311.716,4.955a103.956,103.956,0,0,1,4.5-10.744c1.963-4.061,4.059-8.06,5.9-12.181a55.844,55.844,0,0,0,4.522-14.414c.061-.4.682-.286.623.117-1.36,9.109-5.831,17.285-9.834,25.445-1.495,3.047-2.912,6.123-4.141,9.28a36.442,36.442,0,0,0,15.145-10.258,35.643,35.643,0,0,0,3.187-4.218c.217-.338.79-.064.569.28a36.916,36.916,0,0,1-19.009,14.915.3.3,0,0,1-.168.008c-.34.9-.668,1.8-.973,2.717-1,2.991-1.882,6.032-2.958,9a30.118,30.118,0,0,0,14.3-6.193,29.355,29.355,0,0,0,3.351-3.12c.276-.3.755.114.478.415a30.513,30.513,0,0,1-18.38,9.582c-.484,1.292-1.006,2.569-1.6,3.818a24.822,24.822,0,0,1-8.534,10.421c-.342.221-.7-.3-.357-.523,4.178-2.7,6.8-6.73,8.754-11.153a44.4,44.4,0,0,1-6.074-27.048" transform="translate(-73.373 -17.265)" fill="#ad3434"/>
            <path id="Trazado_799265" data-name="Trazado 799265" d="M358.575,352.548c0,11.125-75.016,20.144-167.552,20.144S23.471,363.673,23.471,352.548,98.487,332.4,191.023,332.4s167.552,9.018,167.552,20.144" transform="translate(-5.496 -77.838)" fill="#510ec7"/>
            <g id="Grupo_1065154" data-name="Grupo 1065154" transform="translate(127.019 113.429)" style="mix-blend-mode: multiply;isolation: isolate">
              <g id="Grupo_1065153" data-name="Grupo 1065153">
                <g id="Grupo_1065152" data-name="Grupo 1065152" clip-path="url(#clip-path-3)">
                  <rect id="Rectángulo_374224" data-name="Rectángulo 374224" width="121.108" height="117.713" fill="#a9bcbf"/>
                </g>
              </g>
            </g>
            <path id="Trazado_799266" data-name="Trazado 799266" d="M62.28,100.3l29.084-8.865a5.273,5.273,0,0,1,6.58,3.506l4.545,14.917a5.272,5.272,0,0,1-3.5,6.579l-11.507,3.507-1.434,6.183L81.406,121.8,69.9,125.3A5.27,5.27,0,0,1,63.32,121.8L58.774,106.88A5.271,5.271,0,0,1,62.28,100.3" transform="translate(-13.709 -21.357)" fill="#ffce1f"/>
            <path id="Trazado_799267" data-name="Trazado 799267" d="M74.741,111.955a4.974,4.974,0,0,1,8.42-4.824,4.973,4.973,0,1,1,9.392,2.909h.015l-.067.126c-.023.046-.047.09-.071.135l-5.273,9.9L77.409,115a4.954,4.954,0,0,1-2.667-3.047" transform="translate(-17.451 -24.097)" fill="#ff5a20"/>
            <path id="Trazado_799268" data-name="Trazado 799268" d="M115.058,51.758l22.807,4.075a4.018,4.018,0,0,1,3.246,4.661l-2.089,11.7a4.018,4.018,0,0,1-4.662,3.248l-9.023-1.612-3.117,3.7-1.644-4.548-9.022-1.613a4.016,4.016,0,0,1-3.248-4.66L110.4,55a4.017,4.017,0,0,1,4.661-3.247" transform="translate(-25.347 -12.105)" fill="#ffce1f"/>
            <path id="Trazado_799269" data-name="Trazado 799269" d="M120.81,62.665a3.79,3.79,0,0,1,7.386-.352,3.789,3.789,0,1,1,5.363,5.231l.009.006-.089.062-.095.066-7.01,4.884-4.811-6.9a3.771,3.771,0,0,1-.753-2.993" transform="translate(-28.276 -13.941)" fill="#ff5a20"/>
            <path id="Trazado_799270" data-name="Trazado 799270" d="M71.1,37.945,87.452,33.2a2.951,2.951,0,0,1,3.656,2.012L93.542,43.6a2.951,2.951,0,0,1-2.012,3.657l-6.467,1.876-.849,3.451L81.65,50.121,75.182,52a2.951,2.951,0,0,1-3.657-2.012L69.093,41.6A2.951,2.951,0,0,1,71.1,37.945" transform="translate(-16.152 -7.747)" fill="#ffce1f"/>
            <path id="Trazado_799271" data-name="Trazado 799271" d="M78.008,44.515a2.785,2.785,0,0,1,4.75-2.637,2.784,2.784,0,1,1,5.235,1.7H88l-.038.07-.041.075-3.026,5.5-5.418-2.981a2.773,2.773,0,0,1-1.47-1.726" transform="translate(-18.241 -9.261)" fill="#ff5a20"/>
            <path id="Trazado_799272" data-name="Trazado 799272" d="M430.44,67.2,453.6,75.975a4.3,4.3,0,0,1,2.494,5.538l-4.5,11.88a4.3,4.3,0,0,1-5.538,2.494l-9.164-3.473-4.005,3.272-.831-5.1-9.164-3.473a4.3,4.3,0,0,1-2.494-5.538l4.5-11.88A4.294,4.294,0,0,1,430.44,67.2" transform="translate(-98.378 -15.67)" fill="#ffce1f"/>
            <path id="Trazado_799273" data-name="Trazado 799273" d="M448.865,82.731l-2.641-1a6.782,6.782,0,0,0,1.98-2.844,1.074,1.074,0,0,0-1.892-.993,5.4,5.4,0,0,1-2.514,2.032,3.174,3.174,0,0,1-2.327,0A1.759,1.759,0,0,0,439.2,80.95l-2.493,6.577a1.759,1.759,0,0,0,1.022,2.268l7.393,2.8a1.993,1.993,0,0,0,2.569-1.158l2.327-6.139a1.993,1.993,0,0,0-1.157-2.569" transform="translate(-102.236 -18.127)" fill="#ff5a20"/>
            <path id="Trazado_799274" data-name="Trazado 799274" d="M431.735,87.324l2.419.917a.283.283,0,0,0,.365-.164l2.8-7.395a.283.283,0,0,0-.165-.365l-2.419-.917a.283.283,0,0,0-.365.164l-2.8,7.395a.282.282,0,0,0,.164.365" transform="translate(-101.055 -18.589)" fill="#ff5a20"/>
            <path id="Trazado_799275" data-name="Trazado 799275" d="M368.094,65.831l17.9-6.356a3.294,3.294,0,0,1,4.205,2l3.259,9.18a3.293,3.293,0,0,1-2,4.206l-7.082,2.514-.719,3.9L380.639,78.7l-7.082,2.514a3.292,3.292,0,0,1-4.205-2l-3.26-9.181a3.294,3.294,0,0,1,2-4.205" transform="translate(-85.681 -13.883)" fill="#ffce1f"/>
            <path id="Trazado_799276" data-name="Trazado 799276" d="M386.336,67.625l-2.041.724a5.194,5.194,0,0,0-.253-2.645.823.823,0,0,0-1.6.358,4.137,4.137,0,0,1-.463,2.435,2.434,2.434,0,0,1-1.359,1.156,1.347,1.347,0,0,0-.819,1.722l1.8,5.083a1.349,1.349,0,0,0,1.722.819l5.714-2.029a1.528,1.528,0,0,0,.928-1.951l-1.684-4.744a1.528,1.528,0,0,0-1.951-.929" transform="translate(-88.918 -15.254)" fill="#ff5a20"/>
            <path id="Trazado_799277" data-name="Trazado 799277" d="M378.213,79.772l1.745-.62a.282.282,0,0,0,.172-.361L378.145,73.2a.282.282,0,0,0-.361-.172l-1.745.62a.282.282,0,0,0-.172.361l1.985,5.591a.282.282,0,0,0,.361.172" transform="translate(-88.011 -17.097)" fill="#ff5a20"/>
            <path id="Trazado_799278" data-name="Trazado 799278" d="M408.355,28.3l12.53,3.539a2.257,2.257,0,0,1,1.559,2.785l-1.815,6.427a2.258,2.258,0,0,1-2.786,1.558l-4.957-1.4-1.948,1.9-.668-2.635-4.957-1.4a2.258,2.258,0,0,1-1.559-2.786l1.815-6.426a2.258,2.258,0,0,1,2.786-1.558" transform="translate(-94.525 -6.607)" fill="#ffce1f"/>
            <path id="Trazado_799279" data-name="Trazado 799279" d="M418.638,35.567l-1.428-.4a3.568,3.568,0,0,0,.907-1.579.565.565,0,0,0-1.036-.433,2.832,2.832,0,0,1-1.224,1.179,1.664,1.664,0,0,1-1.218.108.924.924,0,0,0-1.14.638l-1.006,3.558a.925.925,0,0,0,.639,1.141l4,1.13a1.048,1.048,0,0,0,1.293-.724l.938-3.321a1.048,1.048,0,0,0-.724-1.293" transform="translate(-96.584 -7.694)" fill="#ff5a20"/>
            <path id="Trazado_799280" data-name="Trazado 799280" d="M409.975,38.906l1.051.3a.282.282,0,0,0,.348-.195l1.057-3.742a.283.283,0,0,0-.2-.349l-1.05-.3a.282.282,0,0,0-.349.2l-1.057,3.742a.283.283,0,0,0,.2.348" transform="translate(-95.954 -8.104)" fill="#ff5a20"/>
            <path id="Trazado_799281" data-name="Trazado 799281" d="M272.724,159.794V287.53a11.683,11.683,0,0,1-11.683,11.683H58.435A11.683,11.683,0,0,1,46.752,287.53V159.794a11.683,11.683,0,0,1,11.683-11.683H261.042a11.683,11.683,0,0,1,11.683,11.683" transform="translate(-10.948 -34.682)" fill="#0e1416"/>
            <path id="Trazado_799282" data-name="Trazado 799282" d="M264.177,286.795H58.781a4.59,4.59,0,0,1-4.59-4.59V161.185a4.59,4.59,0,0,1,4.59-4.59h205.4a4.59,4.59,0,0,1,4.59,4.59V282.2a4.59,4.59,0,0,1-4.59,4.59" transform="translate(-12.69 -36.669)" fill="#2a363b"/>
            <path id="Trazado_799283" data-name="Trazado 799283" d="M280.883,332.44a19.754,19.754,0,0,1-3.962,11.906,19.279,19.279,0,0,1-1.856,2.144A19.822,19.822,0,0,1,261,352.319H51.274A19.9,19.9,0,0,1,31.386,332.44Z" transform="translate(-7.35 -77.846)" fill="#2a363b"/>
            <path id="Trazado_799284" data-name="Trazado 799284" d="M269.835,332.686H182.749c.005-.084.025-.165.025-.25H139.231c0,.086.021.166.025.25H52.165s46.041,1.373,87.6,1.784a4.281,4.281,0,0,0,3.766,2.265h34.945a4.281,4.281,0,0,0,3.765-2.265c41.558-.411,87.595-1.784,87.595-1.784" transform="translate(-12.215 -77.845)" fill="#0e1416"/>
            <path id="Trazado_799285" data-name="Trazado 799285" d="M278.135,347.987a19.353,19.353,0,0,1-1.856,2.144,19.818,19.818,0,0,1-14.06,5.827H52.489a19.825,19.825,0,0,1-15.916-7.972Z" transform="translate(-8.564 -81.487)" fill="#0e1416"/>
            <path id="Trazado_799286" data-name="Trazado 799286" d="M68.991,330.592H58.515l-1.55,1.662H70.541Z" transform="translate(-13.339 -77.413)" fill="#2a363b"/>
            <path id="Trazado_799287" data-name="Trazado 799287" d="M86.117,330.592H75.641l-1.55,1.662H87.667Z" transform="translate(-17.35 -77.413)" fill="#2a363b"/>
            <path id="Trazado_799288" data-name="Trazado 799288" d="M103.244,330.592H92.768l-1.55,1.662h13.576Z" transform="translate(-21.36 -77.413)" fill="#2a363b"/>
            <path id="Trazado_799289" data-name="Trazado 799289" d="M120.371,330.592H109.895l-1.55,1.662h13.576Z" transform="translate(-25.371 -77.413)" fill="#2a363b"/>
            <path id="Trazado_799290" data-name="Trazado 799290" d="M137.5,330.592H127.021l-1.55,1.662h13.576Z" transform="translate(-29.381 -77.413)" fill="#2a363b"/>
            <path id="Trazado_799291" data-name="Trazado 799291" d="M154.624,330.592H144.148l-1.55,1.662h13.576Z" transform="translate(-33.392 -77.413)" fill="#2a363b"/>
            <path id="Trazado_799292" data-name="Trazado 799292" d="M171.751,330.592H161.275l-1.55,1.662H173.3Z" transform="translate(-37.402 -77.413)" fill="#2a363b"/>
            <path id="Trazado_799293" data-name="Trazado 799293" d="M188.877,330.592H178.4l-1.55,1.662h13.576Z" transform="translate(-41.413 -77.413)" fill="#2a363b"/>
            <path id="Trazado_799294" data-name="Trazado 799294" d="M206,330.592H195.528l-1.55,1.662h13.576Z" transform="translate(-45.423 -77.413)" fill="#2a363b"/>
            <path id="Trazado_799295" data-name="Trazado 799295" d="M223.131,330.592H212.655l-1.55,1.662h13.576Z" transform="translate(-49.433 -77.413)" fill="#2a363b"/>
            <path id="Trazado_799296" data-name="Trazado 799296" d="M240.257,330.592H229.782l-1.55,1.662h13.576Z" transform="translate(-53.444 -77.413)" fill="#2a363b"/>
            <path id="Trazado_799297" data-name="Trazado 799297" d="M257.384,330.592H246.908l-1.55,1.662h13.576Z" transform="translate(-57.454 -77.413)" fill="#2a363b"/>
            <path id="Trazado_799298" data-name="Trazado 799298" d="M274.511,330.592H264.035l-1.55,1.662h13.576Z" transform="translate(-61.465 -77.413)" fill="#2a363b"/>
            <path id="Trazado_799299" data-name="Trazado 799299" d="M291.637,330.592H281.162l-1.55,1.662h13.576Z" transform="translate(-65.475 -77.413)" fill="#2a363b"/>
            <path id="Trazado_799300" data-name="Trazado 799300" d="M308.764,330.592H298.288l-1.55,1.662h13.576Z" transform="translate(-69.486 -77.413)" fill="#2a363b"/>
            <path id="Trazado_799301" data-name="Trazado 799301" d="M325.891,330.592H315.415l-1.55,1.662h13.576Z" transform="translate(-73.496 -77.413)" fill="#2a363b"/>
            <g id="Grupo_1065157" data-name="Grupo 1065157" transform="translate(55.85 128.854)" style="mix-blend-mode: multiply;isolation: isolate">
              <g id="Grupo_1065156" data-name="Grupo 1065156">
                <g id="Grupo_1065155" data-name="Grupo 1065155" clip-path="url(#clip-path-4)">
                  <rect id="Rectángulo_374226" data-name="Rectángulo 374226" width="66.137" height="40.471" transform="translate(0.001)" fill="#a9bcbf"/>
                </g>
              </g>
            </g>
            <rect id="Rectángulo_374228" data-name="Rectángulo 374228" width="66.137" height="40.471" transform="translate(53.644 126.334)" fill="#f4b990"/>
            <rect id="Rectángulo_374229" data-name="Rectángulo 374229" width="61.082" height="35.113" transform="translate(56.172 129.013)" fill="#ffdbc7"/>
            <path id="Trazado_799302" data-name="Trazado 799302" d="M75.8,204.634h58.137l-16.668-25.089L98.058,198.757,89,191.817Z" transform="translate(-17.75 -42.043)" fill="#f4b990"/>
            <path id="Trazado_799303" data-name="Trazado 799303" d="M107.119,184.486a3.2,3.2,0,1,1-3.2-3.2,3.2,3.2,0,0,1,3.2,3.2" transform="translate(-23.583 -42.45)" fill="#f4b990"/>
            <g id="Grupo_1065160" data-name="Grupo 1065160" transform="translate(55.85 176.828)" style="mix-blend-mode: multiply;isolation: isolate">
              <g id="Grupo_1065159" data-name="Grupo 1065159">
                <g id="Grupo_1065158" data-name="Grupo 1065158" clip-path="url(#clip-path-4)">
                  <rect id="Rectángulo_374230" data-name="Rectángulo 374230" width="66.137" height="40.471" transform="translate(0.001)" fill="#a9bcbf"/>
                </g>
              </g>
            </g>
            <rect id="Rectángulo_374232" data-name="Rectángulo 374232" width="66.137" height="40.471" transform="translate(53.644 174.309)" fill="#f4b990"/>
            <rect id="Rectángulo_374233" data-name="Rectángulo 374233" width="61.082" height="35.113" transform="translate(56.172 176.987)" fill="#ffdbc7"/>
            <rect id="Rectángulo_374234" data-name="Rectángulo 374234" width="56.536" height="1.467" transform="translate(58.445 208.851)" fill="#f4b990"/>
            <rect id="Rectángulo_374235" data-name="Rectángulo 374235" width="25.974" height="1.467" transform="translate(58.445 208.851)" fill="#ff5a20"/>
            <path id="Trazado_799304" data-name="Trazado 799304" d="M121.075,248.669a11.3,11.3,0,1,1-11.305-11.305,11.305,11.305,0,0,1,11.305,11.305" transform="translate(-23.057 -55.582)" fill="#f4b990"/>
            <path id="Trazado_799305" data-name="Trazado 799305" d="M119.827,249.841l-6.471,3.736-6.47,3.736V242.37l6.47,3.736Z" transform="translate(-25.029 -56.755)" fill="#ff5a20"/>
            <g id="Grupo_1065163" data-name="Grupo 1065163" transform="translate(60.202 226.306)" style="mix-blend-mode: multiply;isolation: isolate">
              <g id="Grupo_1065162" data-name="Grupo 1065162">
                <g id="Grupo_1065161" data-name="Grupo 1065161" clip-path="url(#clip-path-6)">
                  <path id="Trazado_799306" data-name="Trazado 799306" d="M83.427,295.5a4.817,4.817,0,1,0,4.818,4.818,4.823,4.823,0,0,0-4.818-4.818" transform="translate(-78.609 -295.503)" fill="#a9bcbf"/>
                </g>
              </g>
            </g>
            <path id="Trazado_799307" data-name="Trazado 799307" d="M82.089,303.815A4.817,4.817,0,1,1,86.907,299a4.823,4.823,0,0,1-4.818,4.818" transform="translate(-18.094 -68.887)" fill="#e54c4c"/>
            <path id="Trazado_799308" data-name="Trazado 799308" d="M85.466,298.005a2.348,2.348,0,0,1-.567.162c.092-.016.227-.181.28-.248a1.056,1.056,0,0,0,.189-.344c0-.01.008-.022,0-.03a.032.032,0,0,0-.03,0,2.909,2.909,0,0,1-.674.257.044.044,0,0,1-.047-.012.436.436,0,0,0-.059-.06,1.194,1.194,0,0,0-.326-.2,1.139,1.139,0,0,0-.5-.08,1.2,1.2,0,0,0-.476.134,1.23,1.23,0,0,0-.383.313,1.185,1.185,0,0,0-.229.458,1.241,1.241,0,0,0-.011.484c0,.027,0,.031-.024.027a3.6,3.6,0,0,1-2.315-1.178c-.027-.031-.041-.031-.064,0a1.174,1.174,0,0,0,.2,1.387c.045.043.092.086.142.126a1.207,1.207,0,0,1-.447-.126c-.027-.017-.041-.007-.043.023a.726.726,0,0,0,.008.133,1.19,1.19,0,0,0,.731.947.726.726,0,0,0,.149.045,1.34,1.34,0,0,1-.438.014c-.032-.007-.044.009-.032.04a1.232,1.232,0,0,0,.921.771c.042.008.083.008.126.017,0,0,0,0-.008.008a1.456,1.456,0,0,1-.629.333,2.247,2.247,0,0,1-.954.123c-.051-.008-.063-.007-.077,0s0,.021.015.034c.066.043.132.08.2.117a3.109,3.109,0,0,0,.639.256,3.4,3.4,0,0,0,3.3-.772,3.459,3.459,0,0,0,.914-2.526c0-.037.043-.057.069-.076a2.21,2.21,0,0,0,.446-.467.134.134,0,0,0,.028-.09v0c0-.015,0-.011-.021,0" transform="translate(-18.703 -69.653)" fill="#fff"/>
            <g id="Grupo_1065166" data-name="Grupo 1065166" transform="translate(83.542 226.306)" style="mix-blend-mode: multiply;isolation: isolate">
              <g id="Grupo_1065165" data-name="Grupo 1065165">
                <g id="Grupo_1065164" data-name="Grupo 1065164" clip-path="url(#clip-path-7)">
                  <path id="Trazado_799309" data-name="Trazado 799309" d="M113.9,295.5a4.817,4.817,0,1,0,4.818,4.818A4.823,4.823,0,0,0,113.9,295.5" transform="translate(-109.086 -295.503)" fill="#a9bcbf"/>
                </g>
              </g>
            </g>
            <path id="Trazado_799310" data-name="Trazado 799310" d="M112.566,303.815A4.817,4.817,0,1,1,117.384,299a4.823,4.823,0,0,1-4.818,4.818" transform="translate(-25.231 -68.887)" fill="#e54c4c"/>
            <path id="Trazado_799311" data-name="Trazado 799311" d="M112.871,299.61V302.4a.073.073,0,0,0,.073.073h1.037a.073.073,0,0,0,.073-.073v-2.837h.751a.073.073,0,0,0,.073-.067l.073-.855a.073.073,0,0,0-.073-.079h-.824v-.607a.257.257,0,0,1,.257-.257h.58a.073.073,0,0,0,.073-.073v-.855a.073.073,0,0,0-.073-.073h-.979a1.04,1.04,0,0,0-1.04,1.04v.824h-.518a.073.073,0,0,0-.073.073v.855a.073.073,0,0,0,.073.073h.518Z" transform="translate(-26.292 -69.477)" fill="#fff" fill-rule="evenodd"/>
            <g id="Grupo_1065169" data-name="Grupo 1065169" transform="translate(106.882 226.427)" style="mix-blend-mode: multiply;isolation: isolate">
              <g id="Grupo_1065168" data-name="Grupo 1065168">
                <g id="Grupo_1065167" data-name="Grupo 1065167" clip-path="url(#clip-path-8)">
                  <path id="Trazado_799312" data-name="Trazado 799312" d="M144.349,295.66a4.786,4.786,0,1,0,4.786,4.786,4.793,4.793,0,0,0-4.786-4.786" transform="translate(-139.563 -295.66)" fill="#a9bcbf"/>
                </g>
              </g>
            </g>
            <path id="Trazado_799313" data-name="Trazado 799313" d="M147.38,299.252a4.192,4.192,0,1,1-4.192-4.192,4.192,4.192,0,0,1,4.192,4.192" transform="translate(-32.548 -69.093)" fill="#fff"/>
            <path id="Trazado_799314" data-name="Trazado 799314" d="M143.011,303.91a4.786,4.786,0,1,1,4.786-4.786,4.792,4.792,0,0,1-4.786,4.786m1.614-6.729a.354.354,0,1,0,.355.355.354.354,0,0,0-.355-.355m-1.575.454a1.488,1.488,0,1,0,1.488,1.488,1.489,1.489,0,0,0-1.488-1.488m0,2.441a.953.953,0,1,1,.953-.953.954.954,0,0,1-.953.953m3-2.19a1.815,1.815,0,0,0-1.814-1.814h-2.4a1.815,1.815,0,0,0-1.814,1.814v2.4a1.814,1.814,0,0,0,1.814,1.814h2.4a1.814,1.814,0,0,0,1.814-1.814Zm-.568,2.4a1.246,1.246,0,0,1-1.246,1.246h-2.4a1.246,1.246,0,0,1-1.246-1.246v-2.4a1.247,1.247,0,0,1,1.246-1.246h2.4a1.247,1.247,0,0,1,1.246,1.246Z" transform="translate(-32.368 -68.924)" fill="#e54c4c"/>
            <path id="Trazado_799315" data-name="Trazado 799315" d="M61.23,282.387h-.122a.9.9,0,0,1-.9-.9V165.865a.9.9,0,0,1,.9-.9h.122a.9.9,0,0,1,.9.9v115.62a.9.9,0,0,1-.9.9" transform="translate(-14.098 -38.629)" fill="#0e1416"/>
            <path id="Trazado_799316" data-name="Trazado 799316" d="M62.636,236.848a1.688,1.688,0,1,1-1.688-1.688,1.688,1.688,0,0,1,1.688,1.688" transform="translate(-13.877 -55.066)" fill="#f4b990"/>
            <path id="Trazado_799317" data-name="Trazado 799317" d="M283.5,303.9H164.031a2.458,2.458,0,0,1-2.458-2.458v-1.07a2.459,2.459,0,0,1,2.458-2.458H283.5a2.459,2.459,0,0,1,2.458,2.458v1.07A2.458,2.458,0,0,1,283.5,303.9" transform="translate(-37.835 -69.761)" fill="#0e1416"/>
            <rect id="Rectángulo_374239" data-name="Rectángulo 374239" width="117.837" height="199.776" transform="translate(127.014 31.369)" fill="#ffdbc7"/>
          </g>
        </g>
        <text id="T" transform="translate(137.751 71.685)" fill="#232997" font-size="35" font-family="Montserrat-ExtraBold, Montserrat" font-weight="800"><tspan x="0" y="0">T</tspan></text>
        <g id="Grupo_1065179" data-name="Grupo 1065179">
          <g id="Grupo_1065178" data-name="Grupo 1065178" clip-path="url(#clip-path)">
            <rect id="Rectángulo_374241" data-name="Rectángulo 374241" width="28.707" height="1.637" transform="translate(169.344 42.73)" fill="#f4b990"/>
            <rect id="Rectángulo_374242" data-name="Rectángulo 374242" width="28.707" height="1.637" transform="translate(169.344 48.311)" fill="#f4b990"/>
            <rect id="Rectángulo_374243" data-name="Rectángulo 374243" width="28.707" height="1.637" transform="translate(169.344 53.893)" fill="#f4b990"/>
            <rect id="Rectángulo_374244" data-name="Rectángulo 374244" width="28.707" height="1.637" transform="translate(169.344 59.473)" fill="#f4b990"/>
            <rect id="Rectángulo_374245" data-name="Rectángulo 374245" width="28.707" height="1.637" transform="translate(169.344 65.055)" fill="#f4b990"/>
            <rect id="Rectángulo_374246" data-name="Rectángulo 374246" width="28.707" height="1.637" transform="translate(204.596 42.73)" fill="#f4b990"/>
            <rect id="Rectángulo_374247" data-name="Rectángulo 374247" width="28.707" height="1.637" transform="translate(204.596 48.311)" fill="#f4b990"/>
            <rect id="Rectángulo_374248" data-name="Rectángulo 374248" width="28.707" height="1.637" transform="translate(204.596 53.893)" fill="#f4b990"/>
            <rect id="Rectángulo_374249" data-name="Rectángulo 374249" width="28.707" height="1.637" transform="translate(204.596 59.473)" fill="#f4b990"/>
            <rect id="Rectángulo_374250" data-name="Rectángulo 374250" width="28.707" height="1.637" transform="translate(204.596 65.055)" fill="#f4b990"/>
            <rect id="Rectángulo_374251" data-name="Rectángulo 374251" width="28.707" height="1.637" transform="translate(169.344 76.462)" fill="#f4b990"/>
            <rect id="Rectángulo_374252" data-name="Rectángulo 374252" width="28.707" height="1.637" transform="translate(169.344 82.044)" fill="#f4b990"/>
            <rect id="Rectángulo_374253" data-name="Rectángulo 374253" width="28.707" height="1.637" transform="translate(169.344 87.625)" fill="#f4b990"/>
            <rect id="Rectángulo_374254" data-name="Rectángulo 374254" width="28.707" height="1.637" transform="translate(169.344 93.206)" fill="#f4b990"/>
            <rect id="Rectángulo_374255" data-name="Rectángulo 374255" width="28.707" height="1.637" transform="translate(169.344 98.787)" fill="#f4b990"/>
            <rect id="Rectángulo_374256" data-name="Rectángulo 374256" width="28.707" height="1.637" transform="translate(204.596 76.462)" fill="#f4b990"/>
            <rect id="Rectángulo_374257" data-name="Rectángulo 374257" width="28.707" height="1.637" transform="translate(204.596 82.044)" fill="#f4b990"/>
            <rect id="Rectángulo_374258" data-name="Rectángulo 374258" width="28.707" height="1.637" transform="translate(204.596 87.625)" fill="#f4b990"/>
            <rect id="Rectángulo_374259" data-name="Rectángulo 374259" width="28.707" height="1.637" transform="translate(204.596 93.206)" fill="#f4b990"/>
            <rect id="Rectángulo_374260" data-name="Rectángulo 374260" width="28.707" height="1.637" transform="translate(204.596 98.787)" fill="#f4b990"/>
            <rect id="Rectángulo_374261" data-name="Rectángulo 374261" width="95.552" height="4.103" transform="translate(137.751 112.9)" fill="#232997"/>
            <rect id="Rectángulo_374262" data-name="Rectángulo 374262" width="43.061" height="1.637" transform="translate(137.363 126.831)" fill="#f4b990"/>
            <rect id="Rectángulo_374263" data-name="Rectángulo 374263" width="43.061" height="1.637" transform="translate(137.363 132.412)" fill="#f4b990"/>
            <rect id="Rectángulo_374264" data-name="Rectángulo 374264" width="43.061" height="1.637" transform="translate(137.363 137.993)" fill="#f4b990"/>
            <rect id="Rectángulo_374265" data-name="Rectángulo 374265" width="43.061" height="1.637" transform="translate(137.363 143.574)" fill="#f4b990"/>
            <rect id="Rectángulo_374266" data-name="Rectángulo 374266" width="43.061" height="1.637" transform="translate(137.363 149.155)" fill="#f4b990"/>
            <rect id="Rectángulo_374267" data-name="Rectángulo 374267" width="43.061" height="1.637" transform="translate(190.242 126.831)" fill="#f4b990"/>
            <rect id="Rectángulo_374268" data-name="Rectángulo 374268" width="43.061" height="1.637" transform="translate(190.242 132.412)" fill="#f4b990"/>
            <rect id="Rectángulo_374269" data-name="Rectángulo 374269" width="43.061" height="1.637" transform="translate(190.242 137.993)" fill="#f4b990"/>
            <rect id="Rectángulo_374270" data-name="Rectángulo 374270" width="43.061" height="1.637" transform="translate(190.242 143.574)" fill="#f4b990"/>
            <rect id="Rectángulo_374271" data-name="Rectángulo 374271" width="43.061" height="1.637" transform="translate(190.242 149.155)" fill="#f4b990"/>
            <rect id="Rectángulo_374272" data-name="Rectángulo 374272" width="43.061" height="1.637" transform="translate(137.363 161.243)" fill="#f4b990"/>
            <rect id="Rectángulo_374273" data-name="Rectángulo 374273" width="43.061" height="1.637" transform="translate(137.363 166.825)" fill="#f4b990"/>
            <rect id="Rectángulo_374274" data-name="Rectángulo 374274" width="43.061" height="1.637" transform="translate(137.363 172.405)" fill="#f4b990"/>
            <rect id="Rectángulo_374275" data-name="Rectángulo 374275" width="43.061" height="1.637" transform="translate(137.363 177.987)" fill="#f4b990"/>
            <rect id="Rectángulo_374276" data-name="Rectángulo 374276" width="43.061" height="1.637" transform="translate(137.363 183.567)" fill="#f4b990"/>
            <rect id="Rectángulo_374277" data-name="Rectángulo 374277" width="43.061" height="1.637" transform="translate(190.242 161.243)" fill="#f4b990"/>
            <rect id="Rectángulo_374278" data-name="Rectángulo 374278" width="43.061" height="1.637" transform="translate(190.242 166.825)" fill="#f4b990"/>
            <rect id="Rectángulo_374279" data-name="Rectángulo 374279" width="43.061" height="1.637" transform="translate(190.242 172.405)" fill="#f4b990"/>
            <rect id="Rectángulo_374280" data-name="Rectángulo 374280" width="43.061" height="1.637" transform="translate(190.242 177.987)" fill="#f4b990"/>
            <rect id="Rectángulo_374281" data-name="Rectángulo 374281" width="43.061" height="1.637" transform="translate(190.242 183.567)" fill="#f4b990"/>
            <rect id="Rectángulo_374282" data-name="Rectángulo 374282" width="43.061" height="1.637" transform="translate(137.363 195.655)" fill="#f4b990"/>
            <rect id="Rectángulo_374283" data-name="Rectángulo 374283" width="43.061" height="1.637" transform="translate(137.363 201.237)" fill="#f4b990"/>
            <rect id="Rectángulo_374284" data-name="Rectángulo 374284" width="43.061" height="1.637" transform="translate(137.363 206.817)" fill="#f4b990"/>
            <rect id="Rectángulo_374285" data-name="Rectángulo 374285" width="43.061" height="1.637" transform="translate(137.363 212.399)" fill="#f4b990"/>
            <rect id="Rectángulo_374286" data-name="Rectángulo 374286" width="43.061" height="1.637" transform="translate(137.363 217.98)" fill="#f4b990"/>
            <rect id="Rectángulo_374287" data-name="Rectángulo 374287" width="23.534" height="1.851" transform="translate(137.364 82.251)" fill="#232997"/>
            <rect id="Rectángulo_374288" data-name="Rectángulo 374288" width="23.534" height="1.851" transform="translate(137.364 87.808)" fill="#232997"/>
            <rect id="Rectángulo_374289" data-name="Rectángulo 374289" width="23.534" height="1.851" transform="translate(137.364 93.365)" fill="#232997"/>
            <path id="Trazado_799318" data-name="Trazado 799318" d="M235.7,294.019a1.2,1.2,0,1,1-1.2-1.2,1.2,1.2,0,0,1,1.2,1.2" transform="translate(-54.634 -68.569)" fill="#f4b990"/>
            <path id="Trazado_799319" data-name="Trazado 799319" d="M243.085,294.019a1.2,1.2,0,1,1-1.2-1.2,1.2,1.2,0,0,1,1.2,1.2" transform="translate(-56.362 -68.569)" fill="#f4b990"/>
            <path id="Trazado_799320" data-name="Trazado 799320" d="M250.468,294.019a1.2,1.2,0,1,1-1.2-1.2,1.2,1.2,0,0,1,1.2,1.2" transform="translate(-58.091 -68.569)" fill="#f4b990"/>
            <g id="Grupo_1065174" data-name="Grupo 1065174" transform="translate(191.712 194.901)" style="mix-blend-mode: multiply;isolation: isolate">
              <g id="Grupo_1065173" data-name="Grupo 1065173">
                <g id="Grupo_1065172" data-name="Grupo 1065172" clip-path="url(#clip-path-10)">
                  <path id="Trazado_799321" data-name="Trazado 799321" d="M293.444,280.877H250.33V254.5h43.113" transform="translate(-250.331 -254.495)" fill="#e8d7cd"/>
                </g>
              </g>
            </g>
            <rect id="Rectángulo_374291" data-name="Rectángulo 374291" width="43.113" height="26.381" transform="translate(190.275 193.259)" fill="#e54c4c"/>
            <rect id="Rectángulo_374292" data-name="Rectángulo 374292" width="39.818" height="22.889" transform="translate(191.921 195.004)" fill="#ffdbc7"/>
            <path id="Trazado_799322" data-name="Trazado 799322" d="M252.2,278.211h37.9l-10.866-16.354L266.713,274.38l-5.9-4.524Z" transform="translate(-59.057 -61.318)" fill="#e54c4c"/>
            <path id="Trazado_799323" data-name="Trazado 799323" d="M272.619,265.077a2.088,2.088,0,1,1-2.088-2.088,2.089,2.089,0,0,1,2.088,2.088" transform="translate(-62.86 -61.583)" fill="#e54c4c"/>
            <g id="Grupo_1065177" data-name="Grupo 1065177" transform="translate(127.015 45.416)" style="mix-blend-mode: multiply;isolation: isolate">
              <g id="Grupo_1065176" data-name="Grupo 1065176">
                <g id="Grupo_1065175" data-name="Grupo 1065175" clip-path="url(#clip-path-11)">
                  <path id="Trazado_799324" data-name="Trazado 799324" d="M283.688,59.3v189.13H165.851V237.28A319.685,319.685,0,0,0,283.688,59.3" transform="translate(-165.852 -59.303)" fill="#fff0e9"/>
                </g>
              </g>
            </g>
            <path id="Trazado_799325" data-name="Trazado 799325" d="M387.166,351.065c-5.039,3.7-14.507,2.691-14.426,7.273,11.1,1.18,16.691-1.491,16.691-1.491l.026,1.473,3.874-.49a16.458,16.458,0,0,0-.458-6.765Z" transform="translate(-87.283 -82.207)"/>
            <path id="Trazado_799326" data-name="Trazado 799326" d="M400.127,238.314c-3.287,11.484-7.081,24.529-10.183,36.844l3.536,37.168.757,8s-3.065,2.7-5.918.148c0,0-.849-2.89-2.059-7.311-2.991-11.06-8.18-31.73-7.681-40.879.692-12.813,6.7-52.464,6.7-52.464l17.448,2.908Z" transform="translate(-88.642 -51.475)" fill="#9e6c52"/>
            <path id="Trazado_799327" data-name="Trazado 799327" d="M396.6,348.615s-3.065,2.7-5.918.148c0,0-.849-2.89-2.059-7.311l7.22-.84Z" transform="translate(-91.001 -79.759)" fill="#f4b990"/>
            <path id="Trazado_799328" data-name="Trazado 799328" d="M437.782,323.172c-2.391,1.846-3.259,1.846-5.9.554-.933-2.9-1.883-5.918-2.844-9.01-10.469-33.678-22.166-76.117-22.748-76.044l-1.421-15.842,18.113-1.477c5.89,47.849,10.746,78.388,13.156,92.55,1.061,6.2,1.643,9.269,1.643,9.269" transform="translate(-94.807 -51.833)" fill="#9e6c52"/>
            <path id="Trazado_799329" data-name="Trazado 799329" d="M445.172,351.471c-2.391,1.846-3.259,1.846-5.9.554-.933-2.9-1.883-5.918-2.844-9.01l7.1-.813c1.061,6.2,1.643,9.269,1.643,9.269" transform="translate(-102.197 -80.132)" fill="#f4b990"/>
            <path id="Trazado_799330" data-name="Trazado 799330" d="M443.871,353.2a6.778,6.778,0,0,0-3.566.473,2.3,2.3,0,0,0-1.2.9c-.423.953-1.316,1.931-1.159,3.253s3.2,1.9,4.99,1.9,5.357-.976,5.462-2.357a4.564,4.564,0,0,0-2.651-3.8,9.2,9.2,0,0,0-1.877-.361" transform="translate(-102.548 -82.693)"/>
            <path id="Trazado_799331" data-name="Trazado 799331" d="M399.9,239.423l-8.926,34.682-13.689-2.792s2.991-35.065,5.659-48.878l34.187.866,6.6,46.147-14.092,3.416Z" transform="translate(-88.347 -52.087)" fill="#2a363b"/>
            <path id="Trazado_799332" data-name="Trazado 799332" d="M376.916,280.916l-.348,4.016a.715.715,0,0,0,.446.729,36.664,36.664,0,0,0,13.538,2.587.729.729,0,0,0,.68-.537l1.2-4.407a.715.715,0,0,0-.489-.88,64.979,64.979,0,0,0-14.269-2.168.73.73,0,0,0-.76.66" transform="translate(-88.179 -65.626)" fill="#0e1416"/>
            <path id="Trazado_799333" data-name="Trazado 799333" d="M417.778,282.321l1.131,3.869a.712.712,0,0,0,.679.518,36.67,36.67,0,0,0,13.556-2.492.728.728,0,0,0,.44-.747l-.476-4.543a.715.715,0,0,0-.774-.643,64.936,64.936,0,0,0-14.086,3.147.729.729,0,0,0-.469.891" transform="translate(-97.823 -65.164)" fill="#0e1416"/>
            <path id="Trazado_799334" data-name="Trazado 799334" d="M406.676,225.677c.065-.587-.855-.582-.919,0a57.333,57.333,0,0,0-.011,12.5c.064.581.983.587.919,0a57.335,57.335,0,0,1,.011-12.5" transform="translate(-94.933 -52.743)" fill="#0e1416"/>
            <path id="Trazado_799335" data-name="Trazado 799335" d="M403.863,236.809a16.191,16.191,0,0,1-1.132-11.23.459.459,0,0,0-.885-.244,17.177,17.177,0,0,0,1.223,11.938c.263.531,1.055.066.794-.463" transform="translate(-93.969 -52.689)" fill="#0e1416"/>
            <path id="Trazado_799336" data-name="Trazado 799336" d="M397.776,149.446s-14.082,16.9-62.562,26.021l-.989-5.71s30.587-7.505,48.821-21.646Z" transform="translate(-78.264 -34.682)" fill="#9e6c52"/>
            <path id="Trazado_799337" data-name="Trazado 799337" d="M326.151,174.612c-.411.025-1.036,0-1.264.431a.745.745,0,0,0,.524,1.015,14.132,14.132,0,0,0,1.794.369l.59.119a11.784,11.784,0,0,1-3.665.413,11.548,11.548,0,0,1-2.372-.355c-.593-.153-1.316-.368-1.777.185a.8.8,0,0,0-.1.891,1,1,0,0,0,.064,1.039,1.523,1.523,0,0,0,.218.25.3.3,0,0,0-.109.4,2.728,2.728,0,0,0,1.16,1.127.313.313,0,0,0,.123.316,9.834,9.834,0,0,0,7.644,1.787,7.356,7.356,0,0,0,3.646-1.577c1.156-1.1.855-2.717.48-4.087a.356.356,0,0,0-.048-.1.3.3,0,0,0-.064-.46,11.582,11.582,0,0,0-6.845-1.764" transform="translate(-74.879 -40.883)" fill="#9e6c52"/>
            <path id="Trazado_799338" data-name="Trazado 799338" d="M391.1,148.021s-15.184,9.753-22.875,12.364l5.173,7.581s13.231-4.6,17.217-7.391Z" transform="translate(-86.226 -34.661)" fill="#ff5a20"/>
            <path id="Trazado_799339" data-name="Trazado 799339" d="M368.112,163.419l-2.841,1a.68.68,0,0,0-.429.837c.453,1.5,1.824,5.347,4.525,7.6a.69.69,0,0,0,.692.1l3.219-1.267a.683.683,0,0,0,.382-.9,20.685,20.685,0,0,0-4.862-7.256.692.692,0,0,0-.685-.126" transform="translate(-85.427 -38.258)" fill="#d9400a"/>
            <path id="Trazado_799340" data-name="Trazado 799340" d="M404.468,146.135l-7.874,1.661s-5.915,18.962-10.07,57.744c23.405,7.648,32.252,3.019,32.252,3.019-1.123-10.392,2.918-55.307.456-58.321-2.229-1.19-7.288-3.3-7.288-3.3Z" transform="translate(-90.511 -34.22)" fill="#ffdbc7"/>
            <path id="Trazado_799341" data-name="Trazado 799341" d="M412.821,211.784c1.96-13.5,5.281-64.6,5.281-64.6s6.078,2,8.1,3.723-.408,42.934.622,59.566c-4.179,1.618-9.652,1.836-14,1.306" transform="translate(-96.668 -34.467)" fill="#ff5a20"/>
            <path id="Trazado_799342" data-name="Trazado 799342" d="M425.408,225.274a45.84,45.84,0,0,1-10.441.845c-.491-.016-.49.746,0,.762a46.752,46.752,0,0,0,10.644-.872c.48-.1.276-.83-.2-.735" transform="translate(-97.085 -52.75)" fill="#ad3434"/>
            <path id="Trazado_799343" data-name="Trazado 799343" d="M403.384,146.135s-7.182.738-9.048,1.427-11.754,53.809-12.443,59.153a29.784,29.784,0,0,0,13.971,4.47s5.432-49.663,7.52-65.05" transform="translate(-89.426 -34.22)" fill="#ff5a20"/>
            <path id="Trazado_799344" data-name="Trazado 799344" d="M394.776,224.118a34.369,34.369,0,0,1-10.539-3.434c-.435-.225-.821.432-.384.658a35,35,0,0,0,10.721,3.511c.48.074.687-.66.2-.735" transform="translate(-89.84 -51.666)" fill="#ad3434"/>
            <path id="Trazado_799345" data-name="Trazado 799345" d="M398.956,213.791a.762.762,0,0,0,0,1.524.762.762,0,0,0,0-1.524" transform="translate(-93.249 -50.063)" fill="#ad3434"/>
            <path id="Trazado_799346" data-name="Trazado 799346" d="M399.873,208.441a.762.762,0,0,0,0,1.524.762.762,0,0,0,0-1.524" transform="translate(-93.464 -48.81)" fill="#ad3434"/>
            <path id="Trazado_799347" data-name="Trazado 799347" d="M400.638,203.473a.762.762,0,0,0,0,1.524.762.762,0,0,0,0-1.524" transform="translate(-93.643 -47.646)" fill="#ad3434"/>
            <path id="Trazado_799348" data-name="Trazado 799348" d="M401.249,199.04a.762.762,0,0,0,0,1.524.762.762,0,0,0,0-1.524" transform="translate(-93.786 -46.608)" fill="#ad3434"/>
            <path id="Trazado_799349" data-name="Trazado 799349" d="M422.742,119.822a34.833,34.833,0,0,1-5.228,8.127c-.747.862-1.669,1.9-2.93,1.79-1.369-.122-2.041-1.373-2.563-2.477-2.395-5.061-8.313-7.2-10.777-12.246a8.313,8.313,0,0,1-.738-2.3,2.815,2.815,0,0,1-.95-2.519,8.342,8.342,0,0,1,6.659-7.641,1.449,1.449,0,0,0,.062.914,10.822,10.822,0,0,1,5.181-1.084,1.025,1.025,0,0,0-.023.936,8.686,8.686,0,0,1,4.657-.593.817.817,0,0,0-.39.623,6.406,6.406,0,0,1,3.214,1,3.048,3.048,0,0,1,1.393,2.781,5.317,5.317,0,0,1,2.567,2.879,10.752,10.752,0,0,1,.562,3.8c0,1.977.136,4.22-.7,6.013" transform="translate(-93.561 -23.973)" fill="#1b1b28"/>
            <path id="Trazado_799350" data-name="Trazado 799350" d="M419.062,112.284c-2.707-6.551-14.807-5.72-16.261-.9-2.99,9.914-2,14.223.558,16.917,2.955,3.117,5.117,2.994,4.49,8.806,0,4.76,5.573,4.158,7.476.807a35.231,35.231,0,0,1,4.008-13.258s.845-9.669-.271-12.37" transform="translate(-93.891 -25.189)" fill="#9e6c52"/>
            <path id="Trazado_799351" data-name="Trazado 799351" d="M413.316,124.9a.766.766,0,1,1-.679-.843.766.766,0,0,1,.679.843" transform="translate(-96.427 -29.049)"/>
            <path id="Trazado_799352" data-name="Trazado 799352" d="M412.648,124.684a.28.28,0,1,1-.249-.309.281.281,0,0,1,.249.309" transform="translate(-96.497 -29.124)" fill="#fff"/>
            <path id="Trazado_799353" data-name="Trazado 799353" d="M405.628,124.069a.766.766,0,1,1-.679-.843.766.766,0,0,1,.679.843" transform="translate(-94.627 -28.854)"/>
            <path id="Trazado_799354" data-name="Trazado 799354" d="M404.96,123.854a.28.28,0,1,1-.249-.309.281.281,0,0,1,.249.309" transform="translate(-94.697 -28.93)" fill="#fff"/>
            <path id="Trazado_799355" data-name="Trazado 799355" d="M406.17,120.313a2.506,2.506,0,0,0-3.116-.182.506.506,0,0,0-.138.622.366.366,0,0,0,.541.139,1.8,1.8,0,0,1,1.347-.29,1.828,1.828,0,0,1,.656.259c.179.115.345.3.571.2a.4.4,0,0,0,.142-.11.5.5,0,0,0,0-.637" transform="translate(-94.337 -28.023)" fill="#1b1b28"/>
            <path id="Trazado_799356" data-name="Trazado 799356" d="M410.99,120.833a3.206,3.206,0,0,1,3.537.535.451.451,0,0,1-.626.65,2.25,2.25,0,0,0-1.445-.584,2.453,2.453,0,0,0-.8.1c-.227.068-.458.206-.687.059a.44.44,0,0,1-.134-.139.454.454,0,0,1,.15-.62" transform="translate(-96.19 -28.223)" fill="#1b1b28"/>
            <path id="Trazado_799357" data-name="Trazado 799357" d="M407,126.849a.1.1,0,0,1-.088-.082c-.118-.669.126-.866.352-.914a.967.967,0,0,1,.77.257.1.1,0,0,1,.018.141.1.1,0,0,1-.141.018.78.78,0,0,0-.606-.22c-.2.042-.268.272-.2.683a.1.1,0,0,1-.081.116.117.117,0,0,1-.028,0" transform="translate(-95.278 -29.468)" fill="#84533d"/>
            <path id="Trazado_799358" data-name="Trazado 799358" d="M409.588,129.7a1.392,1.392,0,1,1-1.106-1.886,1.569,1.569,0,0,1,1.106,1.886" transform="translate(-95.278 -29.928)" fill="#8e4136"/>
            <path id="Trazado_799359" data-name="Trazado 799359" d="M409.57,130.81a2.375,2.375,0,0,0-.636-.178c-.834-.116-1.567.2-1.637.7v.021a1.2,1.2,0,0,0,.81.524,1.448,1.448,0,0,0,1.463-1.062" transform="translate(-95.375 -30.584)" fill="#c16b5b"/>
            <path id="Trazado_799360" data-name="Trazado 799360" d="M408.7,127.815a1.181,1.181,0,0,0-.88.251,1.058,1.058,0,0,0,.79.457,1.071,1.071,0,0,0,.878-.217,1.191,1.191,0,0,0-.788-.492" transform="translate(-95.498 -29.927)" fill="#fff"/>
            <path id="Trazado_799361" data-name="Trazado 799361" d="M401.908,114.078s-.648-2.316,2.47-5.725c1.994-2.181,7.115-2.219,11.34-.957s5.9,3.339,5.705,6.448-.3,7.005-.3,7.005l-1.811,1.1c-1.2-1.215-1.442-3.191-1.647-4.889s-.524-3.547-1.817-4.665a5.178,5.178,0,0,0-4.624-.77,33.478,33.478,0,0,0-4.51,1.833,12.576,12.576,0,0,1-4.81.625" transform="translate(-94.1 -24.952)" fill="#1b1b28"/>
            <path id="Trazado_799362" data-name="Trazado 799362" d="M427.034,129.237a2.351,2.351,0,1,1,.493-3.649,2.639,2.639,0,0,1-.493,3.649" transform="translate(-99.013 -29.269)" fill="#9e6c52"/>
            <path id="Trazado_799363" data-name="Trazado 799363" d="M427.181,126.375a1.766,1.766,0,0,0-1.546-.136,1.439,1.439,0,0,0-.639.4.879.879,0,0,0-.212.79,1.245,1.245,0,0,0,.37.546,1.176,1.176,0,0,1,.253.317.449.449,0,0,1-.642.569.2.2,0,1,0-.206.343.812.812,0,0,0,.339.112.845.845,0,0,0,.875-1.187,1.52,1.52,0,0,0-.334-.436.918.918,0,0,1-.267-.367.48.48,0,0,1,.126-.423.785.785,0,0,1,.167-.136.819.819,0,0,1,.549.257.719.719,0,0,1,.11.6.2.2,0,0,0,.139.246.24.24,0,0,0,.032.006.2.2,0,0,0,.214-.146,1.109,1.109,0,0,0-.173-.945.91.91,0,0,0-.276-.235,1.256,1.256,0,0,1,.9.159.775.775,0,0,1,.286.976.2.2,0,1,0,.343.206,1.17,1.17,0,0,0-.4-1.514" transform="translate(-99.394 -29.534)" fill="#84533d"/>
            <path id="Trazado_799364" data-name="Trazado 799364" d="M408.784,196.647,295.669,160.578,300.319,146l113.114,36.068a4.311,4.311,0,0,1,2.8,5.418l-2.029,6.366a4.311,4.311,0,0,1-5.418,2.8" transform="translate(-69.236 -34.187)" fill="#e54c4c"/>
            <rect id="Rectángulo_374294" data-name="Rectángulo 374294" width="15.305" height="107.863" transform="translate(226.434 126.391) rotate(-72.314)" fill="#ff847b"/>
            <rect id="Rectángulo_374295" data-name="Rectángulo 374295" width="5.325" height="107.863" transform="translate(227.95 121.637) rotate(-72.314)" fill="#f4b990"/>
            <rect id="Rectángulo_374296" data-name="Rectángulo 374296" width="15.305" height="2.138" transform="translate(328.181 158.835) rotate(-72.318)" fill="#f4b990"/>
            <path id="Trazado_799365" data-name="Trazado 799365" d="M294.342,146l-4.649,14.579-15.655-11.421-3.9-2.839,4.739-.065Z" transform="translate(-63.258 -34.188)" fill="#d8a27d"/>
            <path id="Trazado_799366" data-name="Trazado 799366" d="M274.038,149.234l-3.9-2.839,4.74-.065a11.579,11.579,0,0,1-.844,2.9" transform="translate(-63.258 -34.265)" fill="#2a363b"/>
            <path id="Trazado_799367" data-name="Trazado 799367" d="M426.422,152.05c-2.027,3.153-2.989,7-2.343,12.124,4.417,2.5,10.343,6.1,14.177,11.019,0,0-13.734.905-22.734-1.107l-1.752,4.723s29.194,7.685,32.973.015-20.321-26.774-20.321-26.774" transform="translate(-96.891 -35.605)" fill="#9e6c52"/>
            <path id="Trazado_799368" data-name="Trazado 799368" d="M403.094,187.959a.649.649,0,0,0,.854-.279q.847-1.357,1.561-2.788a8,8,0,0,0,3.658.77,3.963,3.963,0,0,0,3.256-1.634.532.532,0,0,0,.183-.222,4.555,4.555,0,0,0-.029-3.441,10.7,10.7,0,0,0-1.708-2.7c-.139-.175-.275-.352-.4-.537-.062-.091-.121-.185-.176-.28-.022-.04-.044-.08-.065-.12l-.021-.044c-.044-.109-.078-.218-.115-.329l-.01-.028,0-.019c-.006-.053-.013-.1-.016-.158s0-.09,0-.133a.161.161,0,0,0,0-.028l.007-.1a1.073,1.073,0,0,0-.044-.409.871.871,0,0,0-.871-.6,1.163,1.163,0,0,0-.781.417,2.365,2.365,0,0,0-.466,1.574,3.905,3.905,0,0,0,.705,2.009l-.564-.051a54.242,54.242,0,0,0-8.345-.234.636.636,0,0,0-.089,1.257l3.2.438c.346.047.693.094,1.038.146l-4.473,1.886c-.3.125-.5.278-.434.6s.434.429.752.416a15.834,15.834,0,0,0,4.005-.855c-.852.839-1.872,1.966-2.764,2.762a.63.63,0,0,0-.011.836c.221.26.568.111.855-.031a24.254,24.254,0,0,0,2.438-1.893c-.4.777-.946,2.2-1.409,2.945a.642.642,0,0,0,.279.854" transform="translate(-93.418 -40.951)" fill="#9e6c52"/>
            <path id="Trazado_799369" data-name="Trazado 799369" d="M428.872,151.563S450.408,167.1,450.3,177.9l-9.1-2.818s-4.552-5.58-14.607-11.013c0,0-1.37-9.149,2.278-12.5" transform="translate(-99.835 -35.491)" fill="#ff5a20"/>
            <path id="Trazado_799370" data-name="Trazado 799370" d="M444.543,182.112l.311-.733,8.922.8a1.19,1.19,0,0,1,1.059.9A3.994,3.994,0,0,1,453.4,187.4a1.19,1.19,0,0,1-1.393,0Z" transform="translate(-104.097 -42.473)" fill="#d9400a"/>
            <path id="Trazado_799371" data-name="Trazado 799371" d="M246.224,30.586,233.2,40.986,199.741,8.07l3.7-3.7L181.538,0l5.187,21.062,3.9-3.89L232.389,50.9l13.654-13.522,26.239,25.36Z" transform="translate(-42.51 0)" fill="#ff5a20"/>
          </g>
        </g>
      </g>
    </g>
    <path id="Trazado_800406" data-name="Trazado 800406" d="M26.235,12.474h-1.67V17H21.48V4.2h5.036a5.621,5.621,0,0,1,3.56,1.01,3.421,3.421,0,0,1,1.283,2.853,4.155,4.155,0,0,1-.541,2.213A3.837,3.837,0,0,1,29.127,11.7L31.8,16.868V17h-3.3ZM24.565,10.1h1.951a1.751,1.751,0,0,0,1.323-.463,1.788,1.788,0,0,0,.444-1.291,1.809,1.809,0,0,0-.448-1.3,1.735,1.735,0,0,0-1.318-.471H24.565Zm13.122,7.075a4.889,4.889,0,0,1-3.542-1.305,4.507,4.507,0,0,1-1.354-3.4v-.246a5.84,5.84,0,0,1,.541-2.575A3.955,3.955,0,0,1,34.91,7.925a4.763,4.763,0,0,1,2.461-.611,4.117,4.117,0,0,1,3.164,1.244,4.887,4.887,0,0,1,1.16,3.467v1.151H35.807a2.135,2.135,0,0,0,.694,1.257,2.066,2.066,0,0,0,1.389.457,2.662,2.662,0,0,0,2.2-.984l1.354,1.6a3.784,3.784,0,0,1-1.569,1.217A5.3,5.3,0,0,1,37.688,17.176ZM37.354,9.6q-1.3,0-1.547,1.723h2.988v-.229a1.467,1.467,0,0,0-.36-1.1A1.434,1.434,0,0,0,37.354,9.6Zm5.159,2.575a5.809,5.809,0,0,1,.976-3.56,3.211,3.211,0,0,1,2.725-1.3,2.731,2.731,0,0,1,2.145,1V3.5h2.971V17H48.665l-.149-1.02a2.8,2.8,0,0,1-2.32,1.2,3.205,3.205,0,0,1-2.689-1.3A5.993,5.993,0,0,1,42.513,12.175Zm2.962.185q0,2.531,1.477,2.531a1.458,1.458,0,0,0,1.406-.826V10.443A1.419,1.419,0,0,0,46.969,9.6q-1.371,0-1.485,2.215ZM58.368,17a3.344,3.344,0,0,1-.281-.853A2.754,2.754,0,0,1,55.8,17.176a3.374,3.374,0,0,1-2.285-.813,2.588,2.588,0,0,1-.94-2.043,2.66,2.66,0,0,1,1.143-2.338,5.821,5.821,0,0,1,3.322-.791h.914v-.5q0-1.316-1.134-1.316a.927.927,0,0,0-1.055,1.042H52.8a2.655,2.655,0,0,1,1.173-2.239,4.931,4.931,0,0,1,2.993-.86,4.323,4.323,0,0,1,2.874.888,3.086,3.086,0,0,1,1.081,2.435v4.21a4.311,4.311,0,0,0,.4,2V17Zm-1.854-1.934a1.652,1.652,0,0,0,.918-.237,1.487,1.487,0,0,0,.523-.536V12.772h-.861q-1.547,0-1.547,1.389a.848.848,0,0,0,.272.655A.986.986,0,0,0,56.514,15.066Zm10.072-.176a1.317,1.317,0,0,0,.967-.338,1.241,1.241,0,0,0,.334-.945h2.777a3.288,3.288,0,0,1-1.121,2.566,4.168,4.168,0,0,1-2.887,1,4.22,4.22,0,0,1-3.27-1.3,5.125,5.125,0,0,1-1.2-3.6v-.123A5.792,5.792,0,0,1,62.723,9.6a3.872,3.872,0,0,1,1.534-1.7,4.573,4.573,0,0,1,2.373-.593,4.116,4.116,0,0,1,2.944,1.028,3.647,3.647,0,0,1,1.09,2.786H67.887A1.626,1.626,0,0,0,67.526,10a1.244,1.244,0,0,0-.967-.4q-1.151,0-1.345,1.468a10.357,10.357,0,0,0-.062,1.283,4.068,4.068,0,0,0,.343,1.986A1.187,1.187,0,0,0,66.586,14.891Zm9.352,0a1.317,1.317,0,0,0,.967-.338,1.241,1.241,0,0,0,.334-.945h2.777A3.288,3.288,0,0,1,78.9,16.174a4.168,4.168,0,0,1-2.887,1,4.22,4.22,0,0,1-3.27-1.3,5.125,5.125,0,0,1-1.2-3.6v-.123A5.792,5.792,0,0,1,72.075,9.6a3.872,3.872,0,0,1,1.534-1.7,4.573,4.573,0,0,1,2.373-.593,4.116,4.116,0,0,1,2.944,1.028,3.647,3.647,0,0,1,1.09,2.786H77.238A1.626,1.626,0,0,0,76.878,10a1.244,1.244,0,0,0-.967-.4q-1.151,0-1.345,1.468a10.357,10.357,0,0,0-.062,1.283,4.068,4.068,0,0,0,.343,1.986A1.187,1.187,0,0,0,75.938,14.891ZM84.393,17H81.422V7.49h2.971ZM81.246,5.029A1.334,1.334,0,0,1,81.7,3.986a1.934,1.934,0,0,1,2.373,0,1.334,1.334,0,0,1,.457,1.043,1.334,1.334,0,0,1-.457,1.043,1.934,1.934,0,0,1-2.373,0A1.334,1.334,0,0,1,81.246,5.029Zm4.6,7.128A5.613,5.613,0,0,1,86.4,9.622a3.96,3.96,0,0,1,1.591-1.709,4.791,4.791,0,0,1,2.435-.6,4.373,4.373,0,0,1,3.366,1.323,5.076,5.076,0,0,1,1.23,3.6v.105a4.925,4.925,0,0,1-1.235,3.529,4.384,4.384,0,0,1-3.344,1.305,4.434,4.434,0,0,1-3.261-1.217,4.761,4.761,0,0,1-1.327-3.3Zm2.962.185a3.538,3.538,0,0,0,.413,1.934,1.376,1.376,0,0,0,1.222.615q1.582,0,1.617-2.435v-.3q0-2.558-1.635-2.558-1.485,0-1.608,2.206ZM90.826,3.5h3.129L91.512,6.26l-2.417,0Zm8.218,3.99.1,1.116a3.225,3.225,0,0,1,2.716-1.292,2.713,2.713,0,0,1,2.219.888,4.226,4.226,0,0,1,.76,2.672V17h-2.971V11a1.6,1.6,0,0,0-.29-1.059,1.342,1.342,0,0,0-1.055-.338,1.413,1.413,0,0,0-1.292.686V17H96.267V7.49Zm15.715,5.361,1.582-5.361h3.173l-3.876,11.1-.167.4a2.944,2.944,0,0,1-2.918,1.846,4.642,4.642,0,0,1-1.222-.175v-2.11h.387a2.026,2.026,0,0,0,.954-.18,1.094,1.094,0,0,0,.488-.647l.237-.633-3.3-9.605h3.164Zm9.633-.694a5.613,5.613,0,0,1,.554-2.536,3.96,3.96,0,0,1,1.591-1.709,4.791,4.791,0,0,1,2.435-.6,4.373,4.373,0,0,1,3.366,1.323,5.076,5.076,0,0,1,1.23,3.6v.105a4.925,4.925,0,0,1-1.235,3.529,4.384,4.384,0,0,1-3.344,1.305,4.434,4.434,0,0,1-3.261-1.217,4.761,4.761,0,0,1-1.327-3.3Zm2.962.185a3.538,3.538,0,0,0,.413,1.934,1.376,1.376,0,0,0,1.222.615q1.582,0,1.617-2.435v-.3q0-2.558-1.635-2.558-1.485,0-1.608,2.206Zm16.348-.026a5.735,5.735,0,0,1-1,3.538,3.2,3.2,0,0,1-2.694,1.323,2.742,2.742,0,0,1-2.153-.958v4.438h-2.962V7.49h2.769l.088.879a2.742,2.742,0,0,1,2.241-1.055,3.224,3.224,0,0,1,2.733,1.3,5.805,5.805,0,0,1,.976,3.564Zm-2.962-.185q0-2.531-1.477-2.531a1.394,1.394,0,0,0-1.406.756V14.1a1.439,1.439,0,0,0,1.424.791q1.415,0,1.459-2.443Zm7.717-7V7.49h1.564V9.547h-1.564V13.9a1.111,1.111,0,0,0,.193.747,1.037,1.037,0,0,0,.765.211,4.345,4.345,0,0,0,.738-.053v2.118a5.466,5.466,0,0,1-1.67.255,3.1,3.1,0,0,1-2.259-.721,2.954,2.954,0,0,1-.729-2.188V9.547h-1.213V7.49h1.213V5.126ZM154.31,17h-2.971V7.49h2.971ZM151.163,5.029a1.334,1.334,0,0,1,.457-1.043,1.934,1.934,0,0,1,2.373,0,1.334,1.334,0,0,1,.457,1.043,1.334,1.334,0,0,1-.457,1.043,1.934,1.934,0,0,1-2.373,0A1.334,1.334,0,0,1,151.163,5.029Zm7.77,2.461.1,1.116a3.27,3.27,0,0,1,2.716-1.292,2.407,2.407,0,0,1,2.435,1.433,3.165,3.165,0,0,1,2.795-1.433q2.892,0,2.971,3.5V17h-2.971V11a1.813,1.813,0,0,0-.246-1.063,1.048,1.048,0,0,0-.9-.334,1.4,1.4,0,0,0-1.31.782l.009.123V17h-2.971V11.015a1.906,1.906,0,0,0-.237-1.081,1.045,1.045,0,0,0-.905-.334,1.42,1.42,0,0,0-1.3.782V17h-2.962V7.49ZM174.762,17h-2.971V7.49h2.971ZM171.615,5.029a1.334,1.334,0,0,1,.457-1.043,1.934,1.934,0,0,1,2.373,0,1.334,1.334,0,0,1,.457,1.043,1.334,1.334,0,0,1-.457,1.043,1.934,1.934,0,0,1-2.373,0A1.334,1.334,0,0,1,171.615,5.029Zm8.464,9.686h4.333V17h-8.077V15.348l4.219-5.572H176.52V7.49h7.8v1.6ZM191.206,17a3.344,3.344,0,0,1-.281-.853,2.754,2.754,0,0,1-2.285,1.028,3.374,3.374,0,0,1-2.285-.813,2.588,2.588,0,0,1-.94-2.043,2.66,2.66,0,0,1,1.143-2.338,5.821,5.821,0,0,1,3.322-.791h.914v-.5q0-1.316-1.134-1.316a.927.927,0,0,0-1.055,1.042h-2.962a2.655,2.655,0,0,1,1.173-2.239,4.931,4.931,0,0,1,2.993-.86,4.323,4.323,0,0,1,2.874.888,3.086,3.086,0,0,1,1.081,2.435v4.21a4.311,4.311,0,0,0,.4,2V17Zm-1.854-1.934a1.652,1.652,0,0,0,.918-.237,1.487,1.487,0,0,0,.523-.536V12.772h-.861q-1.547,0-1.547,1.389a.848.848,0,0,0,.272.655A.986.986,0,0,0,189.352,15.066Zm10.072-.176a1.317,1.317,0,0,0,.967-.338,1.241,1.241,0,0,0,.334-.945H203.5a3.288,3.288,0,0,1-1.121,2.566,4.168,4.168,0,0,1-2.887,1,4.22,4.22,0,0,1-3.27-1.3,5.125,5.125,0,0,1-1.2-3.6v-.123a5.792,5.792,0,0,1,.532-2.544,3.872,3.872,0,0,1,1.534-1.7,4.573,4.573,0,0,1,2.373-.593,4.116,4.116,0,0,1,2.944,1.028,3.647,3.647,0,0,1,1.09,2.786h-2.777a1.626,1.626,0,0,0-.36-1.134,1.244,1.244,0,0,0-.967-.4q-1.151,0-1.345,1.468a10.357,10.357,0,0,0-.062,1.283,4.068,4.068,0,0,0,.343,1.986A1.187,1.187,0,0,0,199.424,14.891ZM207.879,17h-2.971V7.49h2.971ZM204.732,5.029a1.334,1.334,0,0,1,.457-1.043,1.934,1.934,0,0,1,2.373,0,1.334,1.334,0,0,1,.457,1.043,1.334,1.334,0,0,1-.457,1.043,1.934,1.934,0,0,1-2.373,0A1.334,1.334,0,0,1,204.732,5.029Zm4.6,7.128a5.613,5.613,0,0,1,.554-2.536,3.96,3.96,0,0,1,1.591-1.709,4.791,4.791,0,0,1,2.435-.6,4.373,4.373,0,0,1,3.366,1.323,5.076,5.076,0,0,1,1.23,3.6v.105a4.925,4.925,0,0,1-1.235,3.529,4.384,4.384,0,0,1-3.344,1.305,4.434,4.434,0,0,1-3.261-1.217,4.761,4.761,0,0,1-1.327-3.3Zm2.962.185a3.538,3.538,0,0,0,.413,1.934,1.376,1.376,0,0,0,1.222.615q1.582,0,1.617-2.435v-.3q0-2.558-1.635-2.558-1.485,0-1.608,2.206ZM214.313,3.5h3.129L215,6.26l-2.417,0Zm8.218,3.99.1,1.116a3.225,3.225,0,0,1,2.716-1.292,2.713,2.713,0,0,1,2.219.888,4.226,4.226,0,0,1,.76,2.672V17h-2.971V11a1.6,1.6,0,0,0-.29-1.059,1.342,1.342,0,0,0-1.055-.338,1.413,1.413,0,0,0-1.292.686V17h-2.962V7.49Zm11.54,4.685a5.809,5.809,0,0,1,.976-3.56,3.211,3.211,0,0,1,2.725-1.3,2.731,2.731,0,0,1,2.145,1V3.5h2.971V17h-2.663l-.149-1.02a2.8,2.8,0,0,1-2.32,1.2,3.205,3.205,0,0,1-2.689-1.3A5.993,5.993,0,0,1,234.07,12.175Zm2.962.185q0,2.531,1.477,2.531a1.458,1.458,0,0,0,1.406-.826V10.443a1.419,1.419,0,0,0-1.389-.844q-1.371,0-1.485,2.215Zm12.138,4.816a4.889,4.889,0,0,1-3.542-1.305,4.507,4.507,0,0,1-1.354-3.4v-.246a5.84,5.84,0,0,1,.541-2.575,3.955,3.955,0,0,1,1.578-1.727,4.763,4.763,0,0,1,2.461-.611,4.117,4.117,0,0,1,3.164,1.244,4.887,4.887,0,0,1,1.16,3.467v1.151h-5.889a2.135,2.135,0,0,0,.694,1.257,2.066,2.066,0,0,0,1.389.457,2.662,2.662,0,0,0,2.2-.984l1.354,1.6a3.784,3.784,0,0,1-1.569,1.217A5.3,5.3,0,0,1,249.17,17.176ZM248.836,9.6q-1.3,0-1.547,1.723h2.988v-.229a1.467,1.467,0,0,0-.36-1.1A1.434,1.434,0,0,0,248.836,9.6Zm8.657,7.4h-2.971V3.5h2.971ZM57.507,30.126V32.49h1.564v2.057H57.507V38.9a1.111,1.111,0,0,0,.193.747,1.037,1.037,0,0,0,.765.211A4.345,4.345,0,0,0,59.2,39.8v2.118a5.466,5.466,0,0,1-1.67.255,3.1,3.1,0,0,1-2.259-.721,2.954,2.954,0,0,1-.729-2.188v-4.72H53.332V32.49h1.213V30.126Zm7.33,12.05a4.889,4.889,0,0,1-3.542-1.305,4.507,4.507,0,0,1-1.354-3.4v-.246a5.84,5.84,0,0,1,.541-2.575,3.955,3.955,0,0,1,1.578-1.727,4.763,4.763,0,0,1,2.461-.611,4.117,4.117,0,0,1,3.164,1.244,4.887,4.887,0,0,1,1.16,3.467v1.151H62.956a2.135,2.135,0,0,0,.694,1.257,2.066,2.066,0,0,0,1.389.457,2.662,2.662,0,0,0,2.2-.984l1.354,1.6a3.784,3.784,0,0,1-1.569,1.217A5.3,5.3,0,0,1,64.837,42.176ZM64.5,34.6q-1.3,0-1.547,1.723h2.988v-.229a1.467,1.467,0,0,0-.36-1.1A1.434,1.434,0,0,0,64.5,34.6Zm9.387.51,1.38-2.619h3.076l-2.5,4.632L78.469,42H75.375l-1.494-2.812L72.413,42H69.3l2.637-4.878-2.5-4.632h3.111Zm8.859-4.983V32.49h1.564v2.057H82.749V38.9a1.111,1.111,0,0,0,.193.747,1.037,1.037,0,0,0,.765.211,4.345,4.345,0,0,0,.738-.053v2.118a5.466,5.466,0,0,1-1.67.255,3.1,3.1,0,0,1-2.259-.721,2.954,2.954,0,0,1-.729-2.188v-4.72H78.574V32.49h1.213V30.126Zm2.092,7.031a5.613,5.613,0,0,1,.554-2.536,3.96,3.96,0,0,1,1.591-1.709,4.791,4.791,0,0,1,2.435-.6,4.373,4.373,0,0,1,3.366,1.323,5.076,5.076,0,0,1,1.23,3.6v.105a4.925,4.925,0,0,1-1.235,3.529,4.384,4.384,0,0,1-3.344,1.305,4.434,4.434,0,0,1-3.261-1.217,4.761,4.761,0,0,1-1.327-3.3Zm2.962.185a3.538,3.538,0,0,0,.413,1.934,1.376,1.376,0,0,0,1.222.615q1.582,0,1.617-2.435v-.3q0-2.558-1.635-2.558-1.485,0-1.608,2.206Zm11.628-.167a5.809,5.809,0,0,1,.976-3.56,3.211,3.211,0,0,1,2.725-1.3,2.731,2.731,0,0,1,2.145,1V28.5h2.971V42h-2.663l-.149-1.02a2.8,2.8,0,0,1-2.32,1.2,3.205,3.205,0,0,1-2.689-1.3A5.993,5.993,0,0,1,99.431,37.175Zm2.962.185q0,2.531,1.477,2.531a1.458,1.458,0,0,0,1.406-.826V35.443a1.419,1.419,0,0,0-1.389-.844q-1.371,0-1.485,2.215Zm12.138,4.816a4.889,4.889,0,0,1-3.542-1.305,4.507,4.507,0,0,1-1.354-3.4v-.246a5.84,5.84,0,0,1,.541-2.575,3.955,3.955,0,0,1,1.578-1.727,4.763,4.763,0,0,1,2.461-.611,4.117,4.117,0,0,1,3.164,1.244,4.887,4.887,0,0,1,1.16,3.467v1.151h-5.889a2.135,2.135,0,0,0,.694,1.257,2.066,2.066,0,0,0,1.389.457,2.662,2.662,0,0,0,2.2-.984l1.354,1.6a3.784,3.784,0,0,1-1.569,1.217A5.3,5.3,0,0,1,114.53,42.176ZM114.2,34.6q-1.3,0-1.547,1.723h2.988v-.229a1.467,1.467,0,0,0-.36-1.1A1.434,1.434,0,0,0,114.2,34.6Zm13.14,7.4h-2.971V28.5h2.971Zm1.45-4.843a5.613,5.613,0,0,1,.554-2.536,3.96,3.96,0,0,1,1.591-1.709,4.791,4.791,0,0,1,2.435-.6,4.373,4.373,0,0,1,3.366,1.323,5.076,5.076,0,0,1,1.23,3.6v.105a4.925,4.925,0,0,1-1.235,3.529,4.384,4.384,0,0,1-3.344,1.305,4.434,4.434,0,0,1-3.261-1.217,4.761,4.761,0,0,1-1.327-3.3Zm2.962.185a3.538,3.538,0,0,0,.413,1.934,1.376,1.376,0,0,0,1.222.615q1.582,0,1.617-2.435v-.3q0-2.558-1.635-2.558-1.485,0-1.608,2.206Zm12.5,1.986a.684.684,0,0,0-.4-.606,6.016,6.016,0,0,0-1.5-.475,6.853,6.853,0,0,1-1.828-.646,3.062,3.062,0,0,1-1.1-.971,2.319,2.319,0,0,1-.378-1.31,2.628,2.628,0,0,1,1.081-2.158,4.453,4.453,0,0,1,2.83-.848,4.934,4.934,0,0,1,3.023.853,2.666,2.666,0,0,1,1.143,2.241h-2.971q0-1.143-1.2-1.143a1.194,1.194,0,0,0-.782.259.8.8,0,0,0-.316.646.737.737,0,0,0,.387.642,3.654,3.654,0,0,0,1.235.4,10.671,10.671,0,0,1,1.49.378A2.706,2.706,0,0,1,147.1,39.24a2.491,2.491,0,0,1-1.156,2.118,5.068,5.068,0,0,1-2.993.817,5.172,5.172,0,0,1-2.18-.439,3.645,3.645,0,0,1-1.494-1.2,2.707,2.707,0,0,1-.536-1.591h2.769a1.145,1.145,0,0,0,.439.962,1.808,1.808,0,0,0,1.081.3,1.422,1.422,0,0,0,.91-.246A.787.787,0,0,0,144.246,39.328ZM158.326,42a3.344,3.344,0,0,1-.281-.853,2.754,2.754,0,0,1-2.285,1.028,3.374,3.374,0,0,1-2.285-.813,2.588,2.588,0,0,1-.94-2.043,2.66,2.66,0,0,1,1.143-2.338A5.821,5.821,0,0,1,157,36.19h.914v-.5q0-1.316-1.134-1.316a.927.927,0,0,0-1.055,1.042h-2.962a2.655,2.655,0,0,1,1.173-2.239,4.931,4.931,0,0,1,2.993-.86,4.323,4.323,0,0,1,2.874.888,3.086,3.086,0,0,1,1.081,2.435v4.21a4.311,4.311,0,0,0,.4,2V42Zm-1.854-1.934a1.652,1.652,0,0,0,.918-.237,1.487,1.487,0,0,0,.523-.536V37.772h-.861q-1.547,0-1.547,1.389a.848.848,0,0,0,.272.655A.986.986,0,0,0,156.472,40.066Zm8.771-7.576.1,1.116a3.225,3.225,0,0,1,2.716-1.292,2.713,2.713,0,0,1,2.219.888,4.226,4.226,0,0,1,.76,2.672V42h-2.971V36a1.6,1.6,0,0,0-.29-1.059,1.342,1.342,0,0,0-1.055-.338,1.413,1.413,0,0,0-1.292.686V42h-2.962V32.49Zm13.1,8.481a3.054,3.054,0,0,1-2.54,1.2,3,3,0,0,1-2.369-.91,3.826,3.826,0,0,1-.8-2.615V32.49h2.962v6.179a1.065,1.065,0,0,0,1.187,1.222,1.548,1.548,0,0,0,1.45-.729V32.49H181.2V42h-2.777Zm7.207-8.481.1,1.116a3.225,3.225,0,0,1,2.716-1.292,2.713,2.713,0,0,1,2.219.888,4.226,4.226,0,0,1,.76,2.672V42h-2.971V36a1.6,1.6,0,0,0-.29-1.059,1.342,1.342,0,0,0-1.055-.338,1.413,1.413,0,0,0-1.292.686V42h-2.962V32.49ZM197,39.891a1.317,1.317,0,0,0,.967-.338,1.241,1.241,0,0,0,.334-.945h2.777a3.288,3.288,0,0,1-1.121,2.566,4.168,4.168,0,0,1-2.887,1,4.22,4.22,0,0,1-3.27-1.3,5.125,5.125,0,0,1-1.2-3.6v-.123a5.792,5.792,0,0,1,.532-2.544,3.872,3.872,0,0,1,1.534-1.7,4.573,4.573,0,0,1,2.373-.593,4.116,4.116,0,0,1,2.944,1.028,3.647,3.647,0,0,1,1.09,2.786H198.3a1.626,1.626,0,0,0-.36-1.134,1.244,1.244,0,0,0-.967-.4q-1.151,0-1.345,1.468a10.357,10.357,0,0,0-.062,1.283,4.068,4.068,0,0,0,.343,1.986A1.187,1.187,0,0,0,197,39.891ZM205.453,42h-2.971V32.49h2.971Zm-3.146-11.971a1.334,1.334,0,0,1,.457-1.043,1.934,1.934,0,0,1,2.373,0,1.42,1.42,0,0,1,0,2.087,1.934,1.934,0,0,1-2.373,0A1.334,1.334,0,0,1,202.307,30.029Zm4.6,7.128a5.613,5.613,0,0,1,.554-2.536,3.96,3.96,0,0,1,1.591-1.709,4.791,4.791,0,0,1,2.435-.6,4.373,4.373,0,0,1,3.366,1.323,5.076,5.076,0,0,1,1.23,3.6v.105a4.925,4.925,0,0,1-1.235,3.529,4.384,4.384,0,0,1-3.344,1.305,4.434,4.434,0,0,1-3.261-1.217,4.761,4.761,0,0,1-1.327-3.3Zm2.962.185a3.538,3.538,0,0,0,.413,1.934,1.376,1.376,0,0,0,1.222.615q1.582,0,1.617-2.435v-.3q0-2.558-1.635-2.558-1.485,0-1.608,2.206Zm12.5,1.986a.684.684,0,0,0-.4-.606,6.016,6.016,0,0,0-1.5-.475,6.853,6.853,0,0,1-1.828-.646,3.062,3.062,0,0,1-1.1-.971,2.319,2.319,0,0,1-.378-1.31,2.628,2.628,0,0,1,1.081-2.158,4.453,4.453,0,0,1,2.83-.848,4.934,4.934,0,0,1,3.023.853,2.666,2.666,0,0,1,1.143,2.241h-2.971q0-1.143-1.2-1.143a1.194,1.194,0,0,0-.782.259.8.8,0,0,0-.316.646.737.737,0,0,0,.387.642,3.654,3.654,0,0,0,1.235.4,10.671,10.671,0,0,1,1.49.378,2.706,2.706,0,0,1,2.145,2.646,2.491,2.491,0,0,1-1.156,2.118,5.068,5.068,0,0,1-2.993.817,5.172,5.172,0,0,1-2.18-.439,3.645,3.645,0,0,1-1.494-1.2,2.707,2.707,0,0,1-.536-1.591h2.769a1.145,1.145,0,0,0,.439.962,1.808,1.808,0,0,0,1.081.3,1.422,1.422,0,0,0,.91-.246A.787.787,0,0,0,222.363,39.328Z" transform="translate(-7145 -6369)" fill="#fff"/>
  </g>
</svg>
