<svg xmlns="http://www.w3.org/2000/svg" xmlns:xlink="http://www.w3.org/1999/xlink" width="85" height="85" viewBox="0 0 85 85">
  <defs>
    <clipPath id="clip-path">
      <rect id="Rect치ngulo_374191" data-name="Rect치ngulo 374191" width="59" height="59" transform="translate(193 459)" fill="#fff"/>
    </clipPath>
  </defs>
  <g id="Grupo_1063897" data-name="Grupo 1063897" transform="translate(-180 -446)">
    <rect id="Rect치ngulo_373435" data-name="Rect치ngulo 373435" width="85" height="85" rx="5" transform="translate(180 446)" fill="#6936c1"/>
    <g id="Enmascarar_grupo_1059033" data-name="Enmascarar grupo 1059033" clip-path="url(#clip-path)">
      <g id="pagina-de-destino" transform="translate(188.948 455.95)">
        <g id="Lineal_Color">
          <path id="Trazado_799075" data-name="Trazado 799075" d="M6.1,12.2H54.893V52.86H6.1Z" fill="#65cef6"/>
          <path id="Trazado_799076" data-name="Trazado 799076" d="M6.1,4.066H54.893V12.2H6.1Z" fill="#f15f60"/>
          <g id="Grupo_1065071" data-name="Grupo 1065071">
            <path id="Trazado_799077" data-name="Trazado 799077" d="M60.789,32.245A20.3,20.3,0,0,0,43.549,38l-5.754,5.754L49.3,55.259l5.754-5.754a20.337,20.337,0,0,0,5.754-17.241Z" fill="#f2f3f3" fill-rule="evenodd"/>
            <path id="Trazado_799078" data-name="Trazado 799078" d="M52.169,40.865a4.068,4.068,0,1,1-5.754,0A4.074,4.074,0,0,1,52.169,40.865ZM46.415,52.372l-5.754-5.754-2.867,2.867,5.754,5.754Z" fill="#fbc928" fill-rule="evenodd"/>
            <path id="Trazado_799079" data-name="Trazado 799079" d="M44.972,36.555a4.074,4.074,0,0,0-5.754,0l-5.754,5.754,2.867,2.867,8.62-8.62ZM56.479,48.062a4.074,4.074,0,0,1,0,5.754l-5.754,5.754L47.859,56.7l8.62-8.62ZM39.218,50.929H33.465L32.021,60.992l10.064-1.443V53.8Z" fill="#f15f60" fill-rule="evenodd"/>
          </g>
          <path id="Trazado_799080" data-name="Trazado 799080" d="M12.2,18.3h36.6V30.5H12.2Z" fill="#f2f3f3"/>
          <path id="Trazado_799081" data-name="Trazado 799081" d="M12.2,36.6H22.364V46.761H12.2Z" fill="#f2f3f3"/>
          <path id="Trazado_799082" data-name="Trazado 799082" d="M12.2,30.5l10.165-6.1,6.2,3.721,10.064-5.754,10.165,5.815V30.5Z" fill="#fbc928" fill-rule="evenodd"/>
          <path id="Trazado_799083" data-name="Trazado 799083" d="M23.868,25.292a5.078,5.078,0,0,1,4.595-2.928,5.2,5.2,0,0,1,4.7,3.131l-4.595,2.623Z" fill="#f15f60" fill-rule="evenodd"/>
        </g>
        <g id="Outline">
          <g id="Grupo_1065072" data-name="Grupo 1065072">
            <path id="Trazado_799084" data-name="Trazado 799084" d="M36.351,43.732l7.055-7.055a3.083,3.083,0,0,0-3.477.59l-5.042,5.042,1.443,1.443Zm12.93-3.05a3.05,3.05,0,1,0,2.155.895A3.047,3.047,0,0,0,49.282,40.682Zm0,8.132a5.062,5.062,0,0,1-3.6-1.484,5.089,5.089,0,1,1,7.2,0,5.062,5.062,0,0,1-3.6,1.484Zm-8.62-.773-1.443,1.443,4.31,4.31,1.443-1.443Zm-1.443-4.31L49.282,53.8l5.042-5.042a19.393,19.393,0,0,0,5.55-15.614A19.393,19.393,0,0,0,44.26,38.69Zm10.064,12.93,1.443,1.443,5.042-5.042a3.047,3.047,0,0,0,.895-2.155,2.934,2.934,0,0,0-.3-1.321ZM38.791,51.925,41.068,54.2v4.452l-7.848,1.118,1.118-7.848ZM36.86,49.892a1.093,1.093,0,0,1-.1-.427.954.954,0,0,1,.3-.712L39.218,46.6l-1.443-1.443-.712.712a1.035,1.035,0,0,1-.712.3.954.954,0,0,1-.712-.3L32.753,43a1.044,1.044,0,0,1,0-1.443L38.507,35.8a5.1,5.1,0,0,1,6.567-.529,21.4,21.4,0,0,1,15.858-4.066,1.035,1.035,0,0,1,.874.854A21.458,21.458,0,0,1,57.719,47.92a5.008,5.008,0,0,1,.976,2.989,5.094,5.094,0,0,1-1.484,3.6l-5.754,5.754a1.021,1.021,0,0,1-.712.3.986.986,0,0,1-.712-.3l-2.887-2.867a1.035,1.035,0,0,1-.3-.712.954.954,0,0,1,.3-.712l.712-.712-1.443-1.443L44.26,55.971a1.035,1.035,0,0,1-.712.3,1.584,1.584,0,0,1-.427-.081v3.4a1.027,1.027,0,0,1-.874,1.017L32.184,62.05h-.142a.954.954,0,0,1-.712-.3,1.029,1.029,0,0,1-.285-.854l1.443-10.064a1.027,1.027,0,0,1,1.017-.874h3.4Z" fill-rule="evenodd"/>
            <path id="Trazado_799085" data-name="Trazado 799085" d="M14.232,9.149H10.165a1.017,1.017,0,0,1,0-2.033h4.066a1.017,1.017,0,0,1,0,2.033ZM46.761,7.116a1.017,1.017,0,1,1-1.017,1.017A1.007,1.007,0,0,1,46.761,7.116Zm4.066,0A1.017,1.017,0,1,1,49.81,8.132,1.007,1.007,0,0,1,50.827,7.116ZM7.116,11.182H53.877v-6.1H7.116ZM6.1,19.314a1.017,1.017,0,1,1-1.017,1.017A1.007,1.007,0,0,1,6.1,19.314Zm22.486,7.624-3.314-1.992a4.106,4.106,0,0,1,3.212-1.565A4.022,4.022,0,0,1,31.8,25.109ZM55.91,26.43a1.017,1.017,0,0,1-2.033,0V13.215H7.116v3.05a1.017,1.017,0,1,1-2.033,0V4.066A1.007,1.007,0,0,1,6.1,3.05H54.893A1.007,1.007,0,0,1,55.91,4.066Zm-8.132,0V19.314H13.215v9.393l8.62-5.184a1.048,1.048,0,0,1,1.037,0l.61.366a6.172,6.172,0,0,1,4.961-2.541,6.086,6.086,0,0,1,5.1,2.745l4.574-2.6a1.01,1.01,0,0,1,1.017,0Zm0,2.338v.712H32.814l-2.236-1.342,8.051-4.595Zm-31.9.712H28.87l-6.486-3.9L15.9,29.48ZM49.81,18.3V30.5a1.007,1.007,0,0,1-1.017,1.017H12.2A1.007,1.007,0,0,1,11.182,30.5V18.3A1.007,1.007,0,0,1,12.2,17.281h36.6A1.007,1.007,0,0,1,49.81,18.3ZM28.463,37.612H26.43a1.017,1.017,0,1,1,0-2.033h2.033a1.017,1.017,0,0,1,0,2.033Zm0,5.083H26.43a1.017,1.017,0,1,1,0-2.033h2.033a1.017,1.017,0,0,1,0,2.033Zm-15.248,3.05h8.132V37.612H13.215Zm9.149,2.033H12.2a1.007,1.007,0,0,1-1.017-1.017V36.6A1.007,1.007,0,0,1,12.2,35.579H22.364A1.007,1.007,0,0,1,23.38,36.6V46.761A1.007,1.007,0,0,1,22.364,47.777Zm6.1,0H26.43a1.017,1.017,0,1,1,0-2.033h2.033a1.017,1.017,0,0,1,0,2.033Zm0,6.1H6.1A1.007,1.007,0,0,1,5.083,52.86V24.4a1.017,1.017,0,1,1,2.033,0V51.844H28.463a1.017,1.017,0,0,1,0,2.033Z" fill-rule="evenodd"/>
          </g>
        </g>
      </g>
    </g>
  </g>
</svg>
