<svg id="Grupo_1065066" data-name="Grupo 1065066" xmlns="http://www.w3.org/2000/svg" xmlns:xlink="http://www.w3.org/1999/xlink" width="261.862" height="261" viewBox="0 0 261.862 261">
  <defs>
    <clipPath id="clip-path">
      <rect id="Rectángulo_374190" data-name="Rectángulo 374190" width="261.862" height="261" fill="none"/>
    </clipPath>
    <clipPath id="clip-path-6">
      <rect id="Rectángulo_374166" data-name="Rectángulo 374166" width="40.988" height="45.211" fill="none"/>
    </clipPath>
    <clipPath id="clip-path-7">
      <rect id="Rectángulo_374167" data-name="Rectángulo 374167" width="130.763" height="178.723" fill="none"/>
    </clipPath>
    <clipPath id="clip-path-9">
      <rect id="Rectángulo_374169" data-name="Rectángulo 374169" width="134.725" height="77.688" fill="none"/>
    </clipPath>
    <clipPath id="clip-path-10">
      <rect id="Rectángulo_374170" data-name="Rectángulo 374170" width="134.725" height="85.233" fill="none"/>
    </clipPath>
    <clipPath id="clip-path-11">
      <rect id="Rectángulo_374171" data-name="Rectángulo 374171" width="131.595" height="83.303" fill="none"/>
    </clipPath>
    <clipPath id="clip-path-12">
      <rect id="Rectángulo_374172" data-name="Rectángulo 374172" width="3.483" height="9.557" fill="none"/>
    </clipPath>
    <clipPath id="clip-path-13">
      <rect id="Rectángulo_374173" data-name="Rectángulo 374173" width="22.884" height="16.481" fill="none"/>
    </clipPath>
    <clipPath id="clip-path-14">
      <rect id="Rectángulo_374174" data-name="Rectángulo 374174" width="79.28" height="49.267" fill="none"/>
    </clipPath>
    <clipPath id="clip-path-15">
      <rect id="Rectángulo_374175" data-name="Rectángulo 374175" width="1.181" height="1.524" fill="none"/>
    </clipPath>
    <clipPath id="clip-path-16">
      <rect id="Rectángulo_374176" data-name="Rectángulo 374176" width="20.956" height="15.461" fill="none"/>
    </clipPath>
    <clipPath id="clip-path-17">
      <rect id="Rectángulo_374177" data-name="Rectángulo 374177" width="20.956" height="13.537" fill="none"/>
    </clipPath>
    <clipPath id="clip-path-18">
      <rect id="Rectángulo_374178" data-name="Rectángulo 374178" width="4.239" height="7.191" fill="none"/>
    </clipPath>
    <clipPath id="clip-path-19">
      <rect id="Rectángulo_374179" data-name="Rectángulo 374179" width="4.458" height="13.925" fill="none"/>
    </clipPath>
    <clipPath id="clip-path-21">
      <rect id="Rectángulo_374181" data-name="Rectángulo 374181" width="37.185" height="22.434" fill="none"/>
    </clipPath>
    <clipPath id="clip-path-22">
      <rect id="Rectángulo_374182" data-name="Rectángulo 374182" width="55.783" height="32.206" fill="none"/>
    </clipPath>
    <clipPath id="clip-path-23">
      <rect id="Rectángulo_374183" data-name="Rectángulo 374183" width="50.392" height="17.204" fill="none"/>
    </clipPath>
    <clipPath id="clip-path-24">
      <rect id="Rectángulo_374184" data-name="Rectángulo 374184" width="49.939" height="23.375" fill="none"/>
    </clipPath>
    <clipPath id="clip-path-25">
      <rect id="Rectángulo_374185" data-name="Rectángulo 374185" width="21.32" height="25.727" fill="none"/>
    </clipPath>
    <clipPath id="clip-path-27">
      <rect id="Rectángulo_374187" data-name="Rectángulo 374187" width="6.27" height="3.854" fill="none"/>
    </clipPath>
    <clipPath id="clip-path-28">
      <rect id="Rectángulo_374188" data-name="Rectángulo 374188" width="5.071" height="3.936" fill="none"/>
    </clipPath>
  </defs>
  <g id="Grupo_1065065" data-name="Grupo 1065065" clip-path="url(#clip-path)">
    <g id="Grupo_1064989" data-name="Grupo 1064989">
      <g id="Grupo_1064988" data-name="Grupo 1064988" clip-path="url(#clip-path)">
        <path id="Trazado_798567" data-name="Trazado 798567" d="M38.349,216.334c-51.131,29.521-51.131,77.383,0,106.905s134.033,29.521,185.165,0,51.132-77.384,0-106.9-134.033-29.521-185.165,0" transform="translate(0 -84.379)" fill="#ffd1c1"/>
      </g>
    </g>
    <g id="Grupo_1064991" data-name="Grupo 1064991">
      <g id="Grupo_1064990" data-name="Grupo 1064990" clip-path="url(#clip-path)">
        <path id="Trazado_798568" data-name="Trazado 798568" d="M158.512,360.256h0l0,0h0c5.364,2.877,31.6,14.059,34.3,15.541l.025.013a1.16,1.16,0,0,0,1.113-.109l.519.28a11.376,11.376,0,0,0-1.845,6.11c0,4.722,3.1,9.113,8.735,12.366,5.437,3.139,12.642,4.868,20.288,4.868s14.85-1.729,20.287-4.868c5.632-3.252,8.734-7.643,8.734-12.366s-3.1-9.115-8.735-12.367c-5.437-3.139-12.642-4.868-20.287-4.868s-14.85,1.729-20.287,4.868a22.877,22.877,0,0,0-4.484,3.323l-.581-.314c-.248-.138-.469-.258-.65-.356-.006-.034-.009-.071-.016-.1a1.383,1.383,0,0,0-.045-.153,1.213,1.213,0,0,0-.042-.118,1.109,1.109,0,0,0-.09-.169l-.029-.043a.879.879,0,0,0-.29-.274l-3.931-2.386c-7.932-4.945-25.17-15.911-28.161-17.412v0l-.007,0h0a1.832,1.832,0,0,0-1.079-.166l-.018,0a2.518,2.518,0,0,0-.29.057c-.022.006-.045.015-.068.022-.083.024-.166.048-.251.08-.058.022-.118.051-.176.078s-.1.042-.153.068q-.167.084-.338.19a5.23,5.23,0,0,0-.581.428l-.049.04a6.452,6.452,0,0,0-.53.513l-.046.049a7.32,7.32,0,0,0-.491.6l-.024.032q-.24.33-.449.687a7.135,7.135,0,0,0-1.046,3.676,2.4,2.4,0,0,0,1.07,2.175M197.584,382.1c0-2.877,2.221-5.743,6.255-8.071,4.694-2.711,11.019-4.2,17.808-4.2s13.113,1.493,17.808,4.2c4.034,2.328,6.255,5.195,6.255,8.071s-2.221,5.742-6.255,8.07c-4.7,2.712-11.019,4.2-17.808,4.2s-13.113-1.493-17.808-4.2c-4.034-2.328-6.255-5.195-6.255-8.07" transform="translate(-68.409 -152.747)" fill="#ffbda5"/>
        <path id="Trazado_798569" data-name="Trazado 798569" d="M149.579,233.357l26.616-15.4a5.412,5.412,0,0,1,4.9,0l135.2,78.058c1.353.781,1.353,2.046,0,2.827l-26.615,15.4a5.41,5.41,0,0,1-4.9,0L234.114,284.99l-7.788,4.527a16.51,16.51,0,0,1-14.936,0l-23.217-13.306c-4.125-2.38-4.125-6.24,0-8.621l7.783-4.525-46.376-26.883c-1.353-.781-1.353-2.047,0-2.827" transform="translate(-64.553 -94.451)" fill="#ffaf92"/>
        <path id="Trazado_798570" data-name="Trazado 798570" d="M32.893,325.662c-10.192,5.884-10.192,15.425,0,21.309s26.716,5.884,36.908,0,10.192-15.424,0-21.309-26.716-5.884-36.908,0" transform="translate(-10.971 -139.586)" fill="#ff9772"/>
      </g>
    </g>
    <g id="Grupo_1065004" data-name="Grupo 1065004">
      <g id="Grupo_1065003" data-name="Grupo 1065003" clip-path="url(#clip-path)">
        <path id="Trazado_798576" data-name="Trazado 798576" d="M241.908,296.836l-20-11.566c-2.062-1.19-3.093-2.75-3.093-4.31s-.009-2.783-.009-2.783l18.823-10.684a4.4,4.4,0,0,0,1.991-3.449V239.381l34.94,20.19v24.663a4.4,4.4,0,0,1-1.991,3.449l-15.724,9.154a16.507,16.507,0,0,1-14.935,0" transform="translate(-95.072 -104.014)" fill="#37474f"/>
        <path id="Trazado_798577" data-name="Trazado 798577" d="M302.563,301.164v2.77l6.4-3.69a4.407,4.407,0,0,0,1.989-3.449v-24.66L304.3,268.3c-.138,1.69-.287,3.438-.425,5.139l4.668,2.7V295.4a4.374,4.374,0,0,1-1.989,3.448Z" transform="translate(-131.467 -116.577)" fill="#263238"/>
        <path id="Trazado_798578" data-name="Trazado 798578" d="M272.148,285.921a4.4,4.4,0,0,1-1.991,3.449l-13.311,7.761a16.511,16.511,0,0,1-14.936,0L221.9,285.567c-4.125-2.38-4.125-6.24,0-8.621l13.32-7.766a4.4,4.4,0,0,0,1.992-3.449V246.46l34.94,20.19Z" transform="translate(-95.072 -107.09)" fill="#455a64"/>
        <g id="Grupo_1064999" data-name="Grupo 1064999" transform="translate(136.088 139.37)" opacity="0.15">
          <g id="Grupo_1064998" data-name="Grupo 1064998">
            <g id="Grupo_1064997" data-name="Grupo 1064997" clip-path="url(#clip-path-6)">
              <path id="Trazado_798579" data-name="Trazado 798579" d="M240.655,271.524v0l4.056-2.342a4.4,4.4,0,0,0,1.992-3.449V246.46l34.94,20.19v19.271a4.4,4.4,0,0,1-1.992,3.449l-3.986,2.3Z" transform="translate(-240.655 -246.46)"/>
            </g>
          </g>
        </g>
        <path id="Trazado_798580" data-name="Trazado 798580" d="M218.809,307.99v2.782c0,1.564,1.035,3.115,3.093,4.311l20.007,11.56a14.981,14.981,0,0,0,7.128,1.771v-2.771a14.974,14.974,0,0,1-7.128-1.771L221.9,312.3c-2.058-1.184-3.093-2.748-3.093-4.311" transform="translate(-95.075 -133.825)" fill="#37474f"/>
        <path id="Trazado_798581" data-name="Trazado 798581" d="M302.9,205.438a5.338,5.338,0,0,1-4.824-.089L162.952,127.337a5.5,5.5,0,0,1-2.488-4.311V4.755A5.336,5.336,0,0,1,162.8.533a5.338,5.338,0,0,1,4.824.089L302.743,78.634a5.5,5.5,0,0,1,2.489,4.311l0,118.271a5.337,5.337,0,0,1-2.335,4.222" transform="translate(-69.723 0)" fill="#455a64"/>
        <path id="Trazado_798582" data-name="Trazado 798582" d="M298.073,207.632,162.95,129.62a5.5,5.5,0,0,1-2.489-4.311V7.038c0-1.587,1.115-2.231,2.489-1.437L298.071,83.612a5.5,5.5,0,0,1,2.489,4.312l0,118.271c0,1.587-1.115,2.23-2.489,1.437" transform="translate(-69.722 -2.286)" fill="#37474f"/>
        <path id="Trazado_798583" data-name="Trazado 798583" d="M299.481,196.452V95.354a3.3,3.3,0,0,0-1.493-2.587L170.216,19c-.825-.476-1.494-.09-1.494.862l0,101.1a3.3,3.3,0,0,0,1.493,2.587l127.776,73.767c.825.476,1.493.09,1.493-.862" transform="translate(-73.31 -8.167)" fill="#ff5a20"/>
        <g id="Grupo_1065002" data-name="Grupo 1065002" transform="translate(95.408 5.858)" opacity="0.7">
          <g id="Grupo_1065001" data-name="Grupo 1065001">
            <g id="Grupo_1065000" data-name="Grupo 1065000" clip-path="url(#clip-path-7)">
              <path id="Trazado_798584" data-name="Trazado 798584" d="M299.481,196.452V95.354a3.3,3.3,0,0,0-1.493-2.587L170.216,19c-.825-.476-1.494-.09-1.494.862l0,101.1a3.3,3.3,0,0,0,1.493,2.587l127.776,73.767c.825.476,1.493.09,1.493-.862" transform="translate(-168.718 -13.795)" fill="#fff"/>
            </g>
          </g>
        </g>
        <path id="Trazado_798585" data-name="Trazado 798585" d="M280.79,280.261a5.4,5.4,0,0,1-2.477-4.29,1.7,1.7,0,0,1,2.76-1.593,5.4,5.4,0,0,1,2.477,4.29,1.906,1.906,0,0,1-.825,1.756,1.472,1.472,0,0,1-.749.195,2.4,2.4,0,0,1-1.185-.358m-1.368-5.557a1.379,1.379,0,0,0-.543,1.267,4.854,4.854,0,0,0,2.194,3.8,1.15,1.15,0,0,0,1.911-1.1,4.856,4.856,0,0,0-2.194-3.8,1.846,1.846,0,0,0-.9-.282.922.922,0,0,0-.468.118" transform="translate(-120.93 -119.065)" fill="#27debf"/>
      </g>
    </g>
    <g id="Grupo_1065039" data-name="Grupo 1065039">
      <g id="Grupo_1065038" data-name="Grupo 1065038" clip-path="url(#clip-path)">
        <path id="Trazado_798586" data-name="Trazado 798586" d="M129.474,52.8l131.595,75.887v96.988a1.679,1.679,0,0,1-2.515,1.458l-2.346-1.354-124.28-71.659a5.42,5.42,0,0,1-2.454-4.248Z" transform="translate(-56.258 -22.941)" fill="#f0f0f0"/>
        <path id="Trazado_798587" data-name="Trazado 798587" d="M130.039,53.777,260.5,129.012v96.662a1.1,1.1,0,0,1-.338.8,1.135,1.135,0,0,1-.779.317,1.087,1.087,0,0,1-.55-.151l-2.346-1.353-124.28-71.66a4.877,4.877,0,0,1-2.17-3.758Zm-.565-.979v97.073a5.42,5.42,0,0,0,2.454,4.248l124.28,71.659,2.346,1.354a1.662,1.662,0,0,0,.833.226,1.684,1.684,0,0,0,1.682-1.685V128.685Z" transform="translate(-56.258 -22.941)" fill="#e0e0e0"/>
        <g id="Grupo_1065007" data-name="Grupo 1065007" transform="translate(73.216 28.055)" opacity="0.8">
          <g id="Grupo_1065006" data-name="Grupo 1065006">
            <g id="Grupo_1065005" data-name="Grupo 1065005" clip-path="url(#clip-path-9)">
              <path id="Trazado_798588" data-name="Trazado 798588" d="M132.6,49.612l131.6,75.882-3.129,1.807-131.6-75.887Z" transform="translate(-129.474 -49.612)" fill="#455a64"/>
            </g>
          </g>
        </g>
        <path id="Trazado_798589" data-name="Trazado 798589" d="M360.625,284.077a1.7,1.7,0,0,0,.881-1.481V185.608l3.13-1.807,0,96.453a2.716,2.716,0,0,1-.024.357,2.6,2.6,0,0,1-1.28,1.9l-2.584,1.5Z" transform="translate(-156.696 -79.864)" fill="#ebebeb"/>
        <path id="Trazado_798590" data-name="Trazado 798590" d="M264.2,119.771v-6.544a2.725,2.725,0,0,0-1.221-2.127L133.817,36.642a2.69,2.69,0,0,0-2.445-.006l-.672.388a2.705,2.705,0,0,0-1.224,2.121V45.7L261.07,121.577Z" transform="translate(-56.258 -15.792)" fill="#27debf"/>
        <g id="Grupo_1065010" data-name="Grupo 1065010" transform="translate(73.216 20.553)" opacity="0.3">
          <g id="Grupo_1065009" data-name="Grupo 1065009">
            <g id="Grupo_1065008" data-name="Grupo 1065008" clip-path="url(#clip-path-10)">
              <path id="Trazado_798591" data-name="Trazado 798591" d="M264.2,119.771v-6.544a2.725,2.725,0,0,0-1.221-2.127L133.817,36.642a2.69,2.69,0,0,0-2.445-.006l-.672.388a2.705,2.705,0,0,0-1.224,2.121V45.7L261.07,121.577Z" transform="translate(-129.474 -36.345)"/>
            </g>
          </g>
        </g>
        <path id="Trazado_798592" data-name="Trazado 798592" d="M261.07,116.517a2.724,2.724,0,0,0-1.22-2.127L130.7,39.927c-.674-.394-1.22-.081-1.22.7v6.555L261.07,123.06Z" transform="translate(-56.258 -17.275)" fill="#27debf"/>
        <g id="Grupo_1065013" data-name="Grupo 1065013" transform="translate(73.216 22.482)" opacity="0.4">
          <g id="Grupo_1065012" data-name="Grupo 1065012">
            <g id="Grupo_1065011" data-name="Grupo 1065011" clip-path="url(#clip-path-11)">
              <path id="Trazado_798593" data-name="Trazado 798593" d="M261.07,116.517a2.724,2.724,0,0,0-1.22-2.127L130.7,39.927c-.674-.394-1.22-.081-1.22.7v6.555L261.07,123.06Z" transform="translate(-129.474 -39.757)"/>
            </g>
          </g>
        </g>
        <path id="Trazado_798594" data-name="Trazado 798594" d="M361.554,171.973a2.526,2.526,0,0,1,.356,1.21v6.543l3.127-1.8v-6.548a2.505,2.505,0,0,0-.356-1.2Z" transform="translate(-157.099 -73.94)" fill="#27debf"/>
        <g id="Grupo_1065016" data-name="Grupo 1065016" transform="translate(204.455 96.229)" opacity="0.5">
          <g id="Grupo_1065015" data-name="Grupo 1065015">
            <g id="Grupo_1065014" data-name="Grupo 1065014" clip-path="url(#clip-path-12)">
              <path id="Trazado_798595" data-name="Trazado 798595" d="M361.554,171.973a2.526,2.526,0,0,1,.356,1.21v6.543l3.127-1.8v-6.548a2.505,2.505,0,0,0-.356-1.2Z" transform="translate(-361.554 -170.169)"/>
            </g>
          </g>
        </g>
        <path id="Trazado_798596" data-name="Trazado 798596" d="M137.865,50.714c0,.732-.515,1.029-1.149.663a2.539,2.539,0,0,1-1.148-1.989c0-.732.514-1.029,1.148-.663a2.539,2.539,0,0,1,1.149,1.989" transform="translate(-58.905 -21.103)" fill="#fafafa"/>
        <path id="Trazado_798597" data-name="Trazado 798597" d="M145.989,55.4c0,.732-.514,1.029-1.149.663a2.539,2.539,0,0,1-1.148-1.989c0-.732.514-1.029,1.148-.663a2.539,2.539,0,0,1,1.149,1.989" transform="translate(-62.436 -23.141)" fill="#fafafa"/>
        <path id="Trazado_798598" data-name="Trazado 798598" d="M154.113,60.094c0,.732-.514,1.029-1.149.663a2.539,2.539,0,0,1-1.149-1.989c0-.732.514-1.029,1.149-.663a2.539,2.539,0,0,1,1.149,1.989" transform="translate(-65.966 -25.179)" fill="#fafafa"/>
        <path id="Trazado_798599" data-name="Trazado 798599" d="M336.352,172.176v96.946a1.68,1.68,0,0,1-2.515,1.458l-2.346-1.354-28.758-16.581V152.789l33.62,19.385Z" transform="translate(-131.541 -66.389)" fill="#fafafa"/>
        <path id="Trazado_798600" data-name="Trazado 798600" d="M227.273,114.463v94.16l-92.92-53.647V60.817Z" transform="translate(-58.378 -26.426)" fill="#fafafa"/>
        <path id="Trazado_798601" data-name="Trazado 798601" d="M315.79,172.833l21.447,12.393a1.588,1.588,0,0,1,.719,1.245V188.7c0,.459-.321.644-.718.415L315.79,176.725a1.589,1.589,0,0,1-.719-1.245v-2.232c0-.459.322-.644.719-.415" transform="translate(-136.902 -75.055)" fill="#27debf"/>
        <g id="Grupo_1065019" data-name="Grupo 1065019" transform="translate(178.169 97.68)" opacity="0.8">
          <g id="Grupo_1065018" data-name="Grupo 1065018">
            <g id="Grupo_1065017" data-name="Grupo 1065017" clip-path="url(#clip-path-13)">
              <path id="Trazado_798602" data-name="Trazado 798602" d="M315.79,172.833l21.447,12.393a1.588,1.588,0,0,1,.719,1.245V188.7c0,.459-.321.644-.718.415L315.79,176.725a1.589,1.589,0,0,1-.719-1.245v-2.232c0-.459.322-.644.719-.415" transform="translate(-315.071 -172.735)" fill="#fafafa"/>
            </g>
          </g>
        </g>
        <path id="Trazado_798603" data-name="Trazado 798603" d="M307.832,172.679a.249.249,0,0,0,.352.007l.519-.5a1.707,1.707,0,0,0,.561.576.862.862,0,0,0,.43.125.668.668,0,0,0,.339-.091,1.2,1.2,0,0,0,.472-1.085,2.525,2.525,0,0,0-.993-2.054.748.748,0,0,0-.77-.034,1.2,1.2,0,0,0-.472,1.085,2.815,2.815,0,0,0,.2,1.01l-.632.608a.248.248,0,0,0-.007.352m.936-1.97c0-.388.12-.594.223-.654a.183.183,0,0,1,.092-.024.369.369,0,0,1,.18.058,2.059,2.059,0,0,1,.744,1.623c0,.387-.12.594-.224.654a.269.269,0,0,1-.271-.034,2.057,2.057,0,0,1-.744-1.622" transform="translate(-133.726 -73.664)" fill="#455a64"/>
        <path id="Trazado_798604" data-name="Trazado 798604" d="M354.576,212.183l.481.278c.028.016.051,0,.051-.038v-1.3a.123.123,0,0,0-.051-.1l-.481-.278c-.029-.016-.051,0-.051.039v1.3a.122.122,0,0,0,.051.1" transform="translate(-154.045 -91.568)" fill="#455a64"/>
        <path id="Trazado_798605" data-name="Trazado 798605" d="M353.3,211.447l.481.278c.028.016.051,0,.051-.038v-1.3a.123.123,0,0,0-.051-.1l-.481-.278c-.028-.016-.051,0-.051.039v1.3a.124.124,0,0,0,.051.1" transform="translate(-153.491 -91.248)" fill="#455a64"/>
        <path id="Trazado_798606" data-name="Trazado 798606" d="M352.026,210.71l.481.278c.028.016.051,0,.051-.038v-1.3a.123.123,0,0,0-.051-.1l-.481-.278c-.028-.016-.051,0-.051.039v1.3a.124.124,0,0,0,.051.1" transform="translate(-152.937 -90.928)" fill="#455a64"/>
        <path id="Trazado_798607" data-name="Trazado 798607" d="M354.576,215.153l.481.278c.028.016.051,0,.051-.038v-1.3a.123.123,0,0,0-.051-.1l-.481-.278c-.029-.016-.051,0-.051.039v1.3a.122.122,0,0,0,.051.1" transform="translate(-154.045 -92.859)" fill="#455a64"/>
        <path id="Trazado_798608" data-name="Trazado 798608" d="M353.3,214.416l.481.278c.028.016.051,0,.051-.039v-1.3a.123.123,0,0,0-.051-.1l-.481-.278c-.028-.016-.051,0-.051.039v1.3a.124.124,0,0,0,.051.1" transform="translate(-153.491 -92.538)" fill="#455a64"/>
        <path id="Trazado_798609" data-name="Trazado 798609" d="M352.026,213.68l.481.278c.028.016.051,0,.051-.038v-1.3a.123.123,0,0,0-.051-.1l-.481-.278c-.028-.016-.051,0-.051.039v1.3a.123.123,0,0,0,.051.1" transform="translate(-152.937 -92.219)" fill="#455a64"/>
        <path id="Trazado_798610" data-name="Trazado 798610" d="M354.426,222.923l.592-.361c.023-.014.023-.066,0-.106l-.592-1.044c-.029-.05-.07-.043-.07.012v1.406c0,.055.041.111.07.093" transform="translate(-153.972 -96.191)" fill="#455a64"/>
        <path id="Trazado_798611" data-name="Trazado 798611" d="M354.322,222.354l-.78-.45v.37l.78.45c.066.038.12-.014.12-.115a.319.319,0,0,0-.12-.255" transform="translate(-153.618 -96.42)" fill="#455a64"/>
        <path id="Trazado_798612" data-name="Trazado 798612" d="M353.08,221.637l-.266-.153v.37l.266.153Z" transform="translate(-153.302 -96.237)" fill="#455a64"/>
        <path id="Trazado_798613" data-name="Trazado 798613" d="M351.546,220.98v1.363a.315.315,0,0,0,.12.254c.066.038.12-.012.12-.115V221.3l.329.191v-.37l-.45-.26c-.066-.038-.12.014-.12.116" transform="translate(-152.751 -95.963)" fill="#455a64"/>
        <path id="Trazado_798614" data-name="Trazado 798614" d="M352.348,230.246a6.271,6.271,0,0,0,.6,2.016.133.133,0,0,0,.054.1l.527.3c.025.015.049,0,.054-.034.045-.329.467-.3.564-1.013a2.58,2.58,0,0,0-.821-2.2c-.534-.368-.979.029-.975.839" transform="translate(-153.099 -99.62)" fill="#455a64"/>
        <path id="Trazado_798615" data-name="Trazado 798615" d="M353.467,235.74l.509.294c.035.02.063,0,.063-.048v-.468a.15.15,0,0,0-.063-.12l-.509-.294c-.035-.02-.063,0-.063.048v.469a.151.151,0,0,0,.063.12" transform="translate(-153.558 -102.152)" fill="#455a64"/>
        <path id="Trazado_798616" data-name="Trazado 798616" d="M351.561,211.113a3.09,3.09,0,0,0,.924,1.955.8.8,0,0,0,.746.219l.512.559c.042.046.083.007.068-.066l-.171-.89a2.05,2.05,0,0,0,.135-1.067,3.088,3.088,0,0,0-.922-1.952c-.763-.628-1.413,0-1.292,1.241m.252-.137c0-.726.384-1.1.856-.823a2.261,2.261,0,0,1,.856,1.811c0,.726-.384,1.1-.856.823a2.26,2.26,0,0,1-.856-1.811" transform="translate(-152.751 -91.085)" fill="#455a64"/>
        <path id="Trazado_798617" data-name="Trazado 798617" d="M351.561,241.461a3.09,3.09,0,0,0,.924,1.955.8.8,0,0,0,.746.219l.512.559c.042.046.083.007.068-.066l-.171-.889a2.05,2.05,0,0,0,.135-1.067,3.089,3.089,0,0,0-.922-1.952c-.763-.628-1.413,0-1.292,1.241m.252-.137c0-.727.384-1.1.856-.823a2.261,2.261,0,0,1,.856,1.811c0,.727-.384,1.1-.856.823a2.261,2.261,0,0,1-.856-1.811" transform="translate(-152.751 -104.271)" fill="#455a64"/>
        <path id="Trazado_798618" data-name="Trazado 798618" d="M352.577,251.159a1.191,1.191,0,0,0,.451.956c.249.144.452-.05.452-.434a1.19,1.19,0,0,0-.452-.956c-.249-.144-.451.05-.451.434" transform="translate(-153.199 -108.922)" fill="#455a64"/>
        <path id="Trazado_798619" data-name="Trazado 798619" d="M351.2,251.524a.794.794,0,0,0,.3.637c.166.1.3-.034.3-.29a.8.8,0,0,0-.3-.637c-.166-.1-.3.034-.3.29" transform="translate(-152.603 -109.151)" fill="#455a64"/>
        <path id="Trazado_798620" data-name="Trazado 798620" d="M352.432,255.076l1.066.616v-1.35a.925.925,0,0,0-.386-.737l-.294-.17c-.213-.123-.386.007-.386.292Z" transform="translate(-153.136 -110.1)" fill="#455a64"/>
        <path id="Trazado_798621" data-name="Trazado 798621" d="M351.453,253.148l.293.169v1.556l-.554-.319v-1.208c0-.192.116-.28.26-.2" transform="translate(-152.597 -109.982)" fill="#455a64"/>
        <path id="Trazado_798622" data-name="Trazado 798622" d="M355.083,253.764c0,.256-.135.385-.3.29a.8.8,0,0,1-.3-.637c0-.256.135-.385.3-.29a.794.794,0,0,1,.3.637" transform="translate(-154.026 -109.973)" fill="#455a64"/>
        <path id="Trazado_798623" data-name="Trazado 798623" d="M354.871,255.03l-.293-.169v1.555l.554.32v-1.208a.623.623,0,0,0-.26-.5" transform="translate(-154.068 -110.74)" fill="#455a64"/>
        <path id="Trazado_798624" data-name="Trazado 798624" d="M336.212,202.259l-12.558-7.25c-.338-.2-.612-.057-.612.309a1.313,1.313,0,0,0,.612,1.017l12.558,7.25c.338.2.612.057.612-.309a1.313,1.313,0,0,0-.612-1.017" transform="translate(-140.366 -84.695)" fill="#e0e0e0"/>
        <path id="Trazado_798625" data-name="Trazado 798625" d="M336.212,212.711l-12.558-7.25c-.338-.2-.612-.057-.612.309a1.313,1.313,0,0,0,.612,1.017l12.558,7.25c.338.2.612.057.612-.309a1.313,1.313,0,0,0-.612-1.017" transform="translate(-140.366 -89.237)" fill="#e0e0e0"/>
        <path id="Trazado_798626" data-name="Trazado 798626" d="M336.212,223.164l-12.558-7.25c-.338-.2-.612-.057-.612.309a1.313,1.313,0,0,0,.612,1.017l12.558,7.25c.338.2.612.057.612-.309a1.313,1.313,0,0,0-.612-1.017" transform="translate(-140.366 -93.779)" fill="#e0e0e0"/>
        <path id="Trazado_798627" data-name="Trazado 798627" d="M336.212,233.617l-12.558-7.25c-.338-.2-.612-.057-.612.309a1.313,1.313,0,0,0,.612,1.017l12.558,7.25c.338.2.612.057.612-.309a1.313,1.313,0,0,0-.612-1.017" transform="translate(-140.366 -98.321)" fill="#e0e0e0"/>
        <path id="Trazado_798628" data-name="Trazado 798628" d="M336.212,244.07l-12.558-7.25c-.338-.2-.612-.057-.612.309a1.313,1.313,0,0,0,.612,1.017l12.558,7.25c.338.2.612.057.612-.309a1.313,1.313,0,0,0-.612-1.017" transform="translate(-140.366 -102.862)" fill="#e0e0e0"/>
        <path id="Trazado_798629" data-name="Trazado 798629" d="M332.15,252.6l-12.558-7.25c-.338-.2-.612-.057-.612.309a1.313,1.313,0,0,0,.612,1.017l12.558,7.25c.338.2.612.057.612-.309a1.313,1.313,0,0,0-.612-1.017" transform="translate(-138.601 -106.571)" fill="#455a64"/>
        <path id="Trazado_798630" data-name="Trazado 798630" d="M332.15,259.666l-12.558-7.25c-.338-.2-.612-.057-.612.309a1.313,1.313,0,0,0,.612,1.017l12.558,7.25c.338.2.612.057.612-.309a1.313,1.313,0,0,0-.612-1.017" transform="translate(-138.601 -109.639)" fill="#e0e0e0"/>
        <path id="Trazado_798631" data-name="Trazado 798631" d="M332.15,266.727l-12.558-7.25c-.338-.2-.612-.057-.612.309a1.313,1.313,0,0,0,.612,1.017l12.558,7.25c.338.2.612.057.612-.309a1.313,1.313,0,0,0-.612-1.017" transform="translate(-138.601 -112.707)" fill="#e0e0e0"/>
        <path id="Trazado_798632" data-name="Trazado 798632" d="M327.828,271.216l-12.558-7.25c-.338-.2-.612-.057-.612.309a1.313,1.313,0,0,0,.612,1.017l12.558,7.25c.338.2.612.057.612-.309a1.313,1.313,0,0,0-.612-1.017" transform="translate(-136.723 -114.658)" fill="#e0e0e0"/>
        <path id="Trazado_798633" data-name="Trazado 798633" d="M342.333,280.925l-1.02-1.8c-.039-.068-.039-.159,0-.183l1.02-.622c.049-.03.121.066.121.161V280.9c0,.1-.072.109-.121.021" transform="translate(-148.292 -120.931)" fill="#455a64"/>
        <path id="Trazado_798634" data-name="Trazado 798634" d="M327.828,278.252,315.27,271c-.338-.2-.612-.057-.612.309a1.313,1.313,0,0,0,.612,1.017l12.558,7.25c.338.2.612.057.612-.309a1.313,1.313,0,0,0-.612-1.017" transform="translate(-136.723 -117.715)" fill="#e0e0e0"/>
        <path id="Trazado_798635" data-name="Trazado 798635" d="M342.333,287.961l-1.02-1.8c-.039-.068-.039-.159,0-.183l1.02-.622c.049-.03.121.066.121.161v2.421c0,.1-.072.109-.121.022" transform="translate(-148.292 -123.988)" fill="#455a64"/>
        <path id="Trazado_798636" data-name="Trazado 798636" d="M327.828,285.289l-12.558-7.25c-.338-.2-.612-.057-.612.309a1.313,1.313,0,0,0,.612,1.017l12.558,7.25c.338.2.612.057.612-.309a1.313,1.313,0,0,0-.612-1.017" transform="translate(-136.723 -120.773)" fill="#e0e0e0"/>
        <path id="Trazado_798637" data-name="Trazado 798637" d="M342.333,295l-1.02-1.8c-.039-.068-.039-.159,0-.183l1.02-.622c.049-.03.121.066.121.161v2.421c0,.1-.072.109-.121.021" transform="translate(-148.292 -127.046)" fill="#455a64"/>
        <path id="Trazado_798638" data-name="Trazado 798638" d="M327.828,292.325l-12.558-7.25c-.338-.2-.612-.057-.612.309a1.313,1.313,0,0,0,.612,1.017l12.558,7.25c.338.2.612.057.612-.309a1.313,1.313,0,0,0-.612-1.017" transform="translate(-136.723 -123.83)" fill="#e0e0e0"/>
        <path id="Trazado_798639" data-name="Trazado 798639" d="M342.333,302.034l-1.02-1.8c-.039-.068-.039-.159,0-.183l1.02-.622c.049-.03.121.066.121.161v2.421c0,.1-.072.109-.121.021" transform="translate(-148.292 -130.103)" fill="#455a64"/>
        <path id="Trazado_798640" data-name="Trazado 798640" d="M327.828,299.362l-12.558-7.25c-.338-.2-.612-.057-.612.309a1.313,1.313,0,0,0,.612,1.017l12.558,7.25c.338.2.612.057.612-.309a1.313,1.313,0,0,0-.612-1.017" transform="translate(-136.723 -126.887)" fill="#e0e0e0"/>
        <path id="Trazado_798641" data-name="Trazado 798641" d="M342.333,309.071l-1.02-1.8c-.039-.068-.039-.159,0-.183l1.02-.622c.049-.03.121.066.121.161v2.421c0,.1-.072.109-.121.021" transform="translate(-148.292 -133.161)" fill="#455a64"/>
        <path id="Trazado_798642" data-name="Trazado 798642" d="M327.828,306.4l-12.558-7.25c-.338-.2-.612-.057-.612.309a1.313,1.313,0,0,0,.612,1.017l12.558,7.25c.338.2.612.057.612-.309a1.313,1.313,0,0,0-.612-1.017" transform="translate(-136.723 -129.945)" fill="#e0e0e0"/>
        <path id="Trazado_798643" data-name="Trazado 798643" d="M342.333,316.107l-1.02-1.8c-.039-.068-.039-.159,0-.183l1.02-.622c.049-.03.121.066.121.161v2.421c0,.1-.072.109-.121.021" transform="translate(-148.292 -136.218)" fill="#455a64"/>
        <path id="Trazado_798644" data-name="Trazado 798644" d="M327.828,313.434l-12.558-7.25c-.338-.2-.612-.057-.612.309a1.313,1.313,0,0,0,.612,1.017l12.558,7.25c.338.2.612.057.612-.309a1.313,1.313,0,0,0-.612-1.017" transform="translate(-136.723 -133.002)" fill="#e0e0e0"/>
        <path id="Trazado_798645" data-name="Trazado 798645" d="M342.333,323.144l-1.02-1.8c-.039-.068-.039-.159,0-.183l1.02-.622c.049-.03.121.066.121.161v2.421c0,.1-.072.109-.121.021" transform="translate(-148.292 -139.276)" fill="#455a64"/>
        <path id="Trazado_798646" data-name="Trazado 798646" d="M327.828,320.471l-12.558-7.25c-.338-.2-.612-.057-.612.309a1.313,1.313,0,0,0,.612,1.017l12.558,7.25c.338.2.612.057.612-.309a1.313,1.313,0,0,0-.612-1.017" transform="translate(-136.723 -136.06)" fill="#e0e0e0"/>
        <path id="Trazado_798647" data-name="Trazado 798647" d="M342.333,330.18l-1.02-1.8c-.039-.068-.039-.159,0-.183l1.02-.622c.049-.03.121.066.121.161v2.421c0,.1-.072.109-.121.021" transform="translate(-148.292 -142.333)" fill="#455a64"/>
        <path id="Trazado_798648" data-name="Trazado 798648" d="M261.341,150.974l-41.275-23.83a1.352,1.352,0,0,1-.612-1.06V115.561c0-.39.274-.549.612-.353l41.275,23.826a1.352,1.352,0,0,1,.612,1.06V150.62c0,.39-.274.549-.612.353" transform="translate(-95.355 -50.023)" fill="#f0f0f0"/>
        <path id="Trazado_798649" data-name="Trazado 798649" d="M286.742,164.188a.016.016,0,0,1-.021,0l-.176-.1a.056.056,0,0,1-.023-.028.326.326,0,0,1-.014-.04l-.272-1.133a.523.523,0,0,1-.02-.11V162.6a.042.042,0,0,1,.01-.031.019.019,0,0,1,.024,0l.6.346a.061.061,0,0,1,.024.029.1.1,0,0,1,.01.043v.2a.042.042,0,0,1-.01.031.018.018,0,0,1-.024,0l-.374-.216.271,1.13a.12.12,0,0,1,0,.025.036.036,0,0,1-.009.028" transform="translate(-124.364 -70.635)" fill="#455a64"/>
        <path id="Trazado_798650" data-name="Trazado 798650" d="M285.27,162.118a.826.826,0,0,1,.112.179.91.91,0,0,1,.066.205,1.339,1.339,0,0,1,.026.215c0,.057,0,.115,0,.175s0,.116,0,.169a.856.856,0,0,1-.026.185.284.284,0,0,1-.066.13.165.165,0,0,1-.112.049.312.312,0,0,1-.162-.051.609.609,0,0,1-.162-.136.778.778,0,0,1-.112-.179.937.937,0,0,1-.067-.205,1.337,1.337,0,0,1-.025-.215c0-.054,0-.111,0-.171s0-.118,0-.173a.862.862,0,0,1,.025-.185.285.285,0,0,1,.067-.128.158.158,0,0,1,.112-.049.306.306,0,0,1,.162.051.607.607,0,0,1,.162.136m-.288.738a.365.365,0,0,0,.023.084.28.28,0,0,0,.041.071.222.222,0,0,0,.063.054.109.109,0,0,0,.063.019.057.057,0,0,0,.041-.024.13.13,0,0,0,.023-.058.508.508,0,0,0,.008-.084q.007-.16,0-.324a.7.7,0,0,0-.008-.094.465.465,0,0,0-.023-.084.266.266,0,0,0-.04-.071.214.214,0,0,0-.063-.053.1.1,0,0,0-.063-.019.055.055,0,0,0-.04.024.152.152,0,0,0-.022.058.657.657,0,0,0-.01.084c0,.1,0,.213,0,.325a.711.711,0,0,0,.008.093" transform="translate(-123.722 -70.361)" fill="#455a64"/>
        <path id="Trazado_798651" data-name="Trazado 798651" d="M283.422,161.128a.148.148,0,0,1,.037-.066.081.081,0,0,1,.059-.025.177.177,0,0,1,.086.029.317.317,0,0,1,.085.07.376.376,0,0,1,.06.094.5.5,0,0,1,.037.107.723.723,0,0,1,.015.116c0,.028,0,.054,0,.076s0,.047,0,.071a.433.433,0,0,1-.015.1.152.152,0,0,1-.037.066.08.08,0,0,1-.06.024.178.178,0,0,1-.085-.028.334.334,0,0,1-.086-.07.421.421,0,0,1-.06-.094.474.474,0,0,1-.037-.108.71.71,0,0,1-.014-.115c0-.048,0-.1,0-.147a.438.438,0,0,1,.015-.1m.291,1.3a.046.046,0,0,1,0,.014l0,.01a.028.028,0,0,1-.009.024c-.006,0-.012,0-.022,0l-.1-.059a.074.074,0,0,1-.027-.025.292.292,0,0,1-.018-.037l-.62-1.613a.071.071,0,0,1,0-.014l0-.011a.028.028,0,0,1,.008-.023.02.02,0,0,1,.022,0l.1.059a.077.077,0,0,1,.027.025.211.211,0,0,1,.018.037Zm-.058-1.052a.306.306,0,0,0-.013-.083.085.085,0,0,0-.038-.047c-.019-.011-.031-.01-.038,0a.174.174,0,0,0-.014.068,1.206,1.206,0,0,0,0,.128.324.324,0,0,0,.014.083.081.081,0,0,0,.038.048c.018.01.031.01.038,0a.164.164,0,0,0,.013-.067.97.97,0,0,0,0-.128m-.815.089a.151.151,0,0,1,.036-.066.08.08,0,0,1,.061-.024.167.167,0,0,1,.085.027.328.328,0,0,1,.086.071.375.375,0,0,1,.06.093.536.536,0,0,1,.036.108.654.654,0,0,1,.015.116c0,.028,0,.054,0,.076s0,.046,0,.071a.41.41,0,0,1-.015.1.155.155,0,0,1-.036.066.078.078,0,0,1-.06.024.177.177,0,0,1-.086-.028.326.326,0,0,1-.085-.07.423.423,0,0,1-.061-.094.51.51,0,0,1-.036-.107.7.7,0,0,1-.015-.116c0-.047,0-.1,0-.147a.428.428,0,0,1,.015-.1m.234.251a.319.319,0,0,0-.014-.083.082.082,0,0,0-.038-.048c-.018-.011-.031-.01-.038,0a.177.177,0,0,0-.014.068c0,.041,0,.084,0,.128a.33.33,0,0,0,.014.083.087.087,0,0,0,.038.047c.019.011.032.01.038,0a.174.174,0,0,0,.014-.068,1.223,1.223,0,0,0,0-.128" transform="translate(-122.89 -69.822)" fill="#455a64"/>
        <path id="Trazado_798652" data-name="Trazado 798652" d="M287.173,159.164l.415-.639a8.329,8.329,0,0,1,.979,2.639l-.67-.051a6.147,6.147,0,0,0-.724-1.949" transform="translate(-124.78 -68.881)" fill="#455a64"/>
        <path id="Trazado_798653" data-name="Trazado 798653" d="M285.105,156.589v-1.083a4.7,4.7,0,0,1,1.584,1.707l-.415.638a3.477,3.477,0,0,0-1.169-1.263" transform="translate(-123.881 -67.569)" fill="#455a64"/>
        <path id="Trazado_798654" data-name="Trazado 798654" d="M288.551,164.1a5.471,5.471,0,0,0-.1-1l.67.051a7.369,7.369,0,0,1,.132,1.358,5.167,5.167,0,0,1-.132,1.206l-.67-.722a3.833,3.833,0,0,0,.1-.891" transform="translate(-125.336 -70.869)" fill="#455a64"/>
        <path id="Trazado_798655" data-name="Trazado 798655" d="M280.472,156.676a2.225,2.225,0,0,1,.979-1.508,1.569,1.569,0,0,1,1.583.121v1.083a1.156,1.156,0,0,0-1.169-.087,1.639,1.639,0,0,0-.724,1.112,3.835,3.835,0,0,0-.1.891,5.474,5.474,0,0,0,.1,1,6.135,6.135,0,0,0,.724,1.949,3.477,3.477,0,0,0,1.169,1.263,1.157,1.157,0,0,0,1.169.087,1.639,1.639,0,0,0,.724-1.112l.67.722a2.228,2.228,0,0,1-.979,1.509,1.572,1.572,0,0,1-1.584-.122,4.7,4.7,0,0,1-1.583-1.707,8.332,8.332,0,0,1-.979-2.639,7.374,7.374,0,0,1-.132-1.358,5.171,5.171,0,0,1,.132-1.206" transform="translate(-121.811 -67.352)" fill="#27debf"/>
        <path id="Trazado_798656" data-name="Trazado 798656" d="M263.1,147.075l-12.558-7.25c-.338-.2-.612-.057-.612.309a1.313,1.313,0,0,0,.612,1.017L263.1,148.4c.338.2.612.057.612-.309a1.312,1.312,0,0,0-.612-1.017" transform="translate(-108.596 -60.717)" fill="#455a64"/>
        <path id="Trazado_798657" data-name="Trazado 798657" d="M256.036,147.729,234.29,135.178c-.338-.2-.612-.057-.612.31a1.314,1.314,0,0,0,.612,1.017l21.746,12.552c.338.2.612.056.612-.31a1.313,1.313,0,0,0-.612-1.017" transform="translate(-101.536 -58.698)" fill="#e0e0e0"/>
        <path id="Trazado_798658" data-name="Trazado 798658" d="M182.139,105.238l-41.275-23.83a1.352,1.352,0,0,1-.612-1.06V69.825c0-.39.274-.549.612-.353L182.139,93.3a1.353,1.353,0,0,1,.612,1.06v10.527c0,.39-.274.549-.612.353" transform="translate(-60.941 -30.15)" fill="#f0f0f0"/>
        <path id="Trazado_798659" data-name="Trazado 798659" d="M207.01,117.547a.25.25,0,0,1-.067.1.176.176,0,0,1-.1.041.266.266,0,0,1-.118-.016l.161.441a.037.037,0,0,1,0,.012.048.048,0,0,1,0,.016.038.038,0,0,1-.007.026.012.012,0,0,1-.018,0l-.2-.115a.061.061,0,0,1-.025-.029.3.3,0,0,0-.014-.032l-.238-.645c-.011-.03-.022-.061-.032-.092s-.021-.063-.029-.1a.889.889,0,0,1-.021-.1.661.661,0,0,1-.008-.108.47.47,0,0,1,.031-.183.217.217,0,0,1,.083-.1.183.183,0,0,1,.117-.027.329.329,0,0,1,.137.046.582.582,0,0,1,.136.113.814.814,0,0,1,.118.162.909.909,0,0,1,.082.2.775.775,0,0,1,.031.219.5.5,0,0,1-.025.17m-.467-.383a.333.333,0,0,0,.03.071.348.348,0,0,0,.044.06.208.208,0,0,0,.051.042.114.114,0,0,0,.05.016.073.073,0,0,0,.044-.01.082.082,0,0,0,.03-.037.151.151,0,0,0,.012-.064.259.259,0,0,0-.012-.077.315.315,0,0,0-.03-.072.306.306,0,0,0-.044-.06.21.21,0,0,0-.05-.042.114.114,0,0,0-.051-.016.07.07,0,0,0-.074.046.162.162,0,0,0-.011.064.279.279,0,0,0,.011.077" transform="translate(-89.64 -50.68)" fill="#455a64"/>
        <path id="Trazado_798660" data-name="Trazado 798660" d="M205.344,115.959a.823.823,0,0,1,.112.179.927.927,0,0,1,.067.205,1.34,1.34,0,0,1,.025.215c0,.057,0,.114,0,.175s0,.116,0,.169a.858.858,0,0,1-.025.185.284.284,0,0,1-.067.129.163.163,0,0,1-.112.049.312.312,0,0,1-.162-.051.609.609,0,0,1-.162-.136.8.8,0,0,1-.112-.179.967.967,0,0,1-.067-.205,1.407,1.407,0,0,1-.025-.215c0-.054,0-.111,0-.172s0-.118,0-.172a.9.9,0,0,1,.025-.185.29.29,0,0,1,.067-.128.157.157,0,0,1,.112-.049.307.307,0,0,1,.162.051.607.607,0,0,1,.162.136m-.288.738a.364.364,0,0,0,.023.084.281.281,0,0,0,.041.071.223.223,0,0,0,.063.054.11.11,0,0,0,.063.019.057.057,0,0,0,.041-.024.13.13,0,0,0,.023-.058.508.508,0,0,0,.008-.084q.007-.16,0-.324a.7.7,0,0,0-.008-.094.423.423,0,0,0-.023-.084.265.265,0,0,0-.04-.071.216.216,0,0,0-.063-.054.107.107,0,0,0-.063-.019.055.055,0,0,0-.04.024.152.152,0,0,0-.022.058.573.573,0,0,0-.009.084c0,.1,0,.213,0,.325a.615.615,0,0,0,.008.093" transform="translate(-88.993 -50.305)" fill="#455a64"/>
        <path id="Trazado_798661" data-name="Trazado 798661" d="M203.5,114.969a.147.147,0,0,1,.037-.066.081.081,0,0,1,.059-.025.183.183,0,0,1,.086.029.317.317,0,0,1,.085.07.379.379,0,0,1,.06.094.5.5,0,0,1,.037.107.722.722,0,0,1,.015.116c0,.028,0,.054,0,.076s0,.046,0,.071a.433.433,0,0,1-.015.1.152.152,0,0,1-.037.066.081.081,0,0,1-.06.024.178.178,0,0,1-.085-.028.335.335,0,0,1-.086-.07.421.421,0,0,1-.061-.094.506.506,0,0,1-.037-.108.7.7,0,0,1-.014-.115c0-.048,0-.1,0-.147a.435.435,0,0,1,.015-.1m.291,1.3a.045.045,0,0,1,0,.014l0,.01a.028.028,0,0,1-.008.024c-.006,0-.012,0-.022,0l-.1-.059a.083.083,0,0,1-.027-.025.341.341,0,0,1-.018-.038l-.619-1.613a.048.048,0,0,1,0-.014l0-.011a.029.029,0,0,1,.008-.023.02.02,0,0,1,.022,0l.1.059a.077.077,0,0,1,.027.025.21.21,0,0,1,.018.037Zm-.058-1.052a.309.309,0,0,0-.013-.083.085.085,0,0,0-.038-.047c-.019-.011-.031-.01-.038,0a.175.175,0,0,0-.014.068,1.2,1.2,0,0,0,0,.128.325.325,0,0,0,.014.083.081.081,0,0,0,.038.048c.018.011.031.01.038,0a.163.163,0,0,0,.013-.067.97.97,0,0,0,0-.128m-.815.089a.151.151,0,0,1,.036-.066.081.081,0,0,1,.061-.024.167.167,0,0,1,.085.027.329.329,0,0,1,.086.071.375.375,0,0,1,.06.093.506.506,0,0,1,.036.108.651.651,0,0,1,.015.116c0,.028,0,.054,0,.076s0,.046,0,.071a.409.409,0,0,1-.015.1.149.149,0,0,1-.036.066.078.078,0,0,1-.06.024.177.177,0,0,1-.086-.028.326.326,0,0,1-.085-.07.429.429,0,0,1-.061-.094.511.511,0,0,1-.036-.107.776.776,0,0,1-.015-.116c0-.048,0-.1,0-.146a.429.429,0,0,1,.015-.1m.234.251a.32.32,0,0,0-.014-.083.083.083,0,0,0-.038-.048c-.018-.011-.031-.01-.038,0a.169.169,0,0,0-.013.068,1.206,1.206,0,0,0,0,.128.308.308,0,0,0,.013.083.087.087,0,0,0,.038.047c.019.011.032.01.038,0a.174.174,0,0,0,.014-.068,1.2,1.2,0,0,0,0-.128" transform="translate(-88.161 -49.765)" fill="#455a64"/>
        <path id="Trazado_798662" data-name="Trazado 798662" d="M205.244,110.468v-1.083a4.7,4.7,0,0,1,1.584,1.707l-.414.639a3.475,3.475,0,0,0-1.169-1.263" transform="translate(-89.181 -47.529)" fill="#455a64"/>
        <path id="Trazado_798663" data-name="Trazado 798663" d="M200.611,110.554a2.226,2.226,0,0,1,.979-1.509,1.571,1.571,0,0,1,1.583.122v1.083a1.156,1.156,0,0,0-1.169-.087,1.639,1.639,0,0,0-.724,1.112,3.834,3.834,0,0,0-.1.891,5.472,5.472,0,0,0,.1,1,6.15,6.15,0,0,0,.723,1.946,3.5,3.5,0,0,0,1.171,1.265,1.157,1.157,0,0,0,1.169.087,1.64,1.64,0,0,0,.724-1.112,3.8,3.8,0,0,0,.1-.891,5.424,5.424,0,0,0-.1-1,6.146,6.146,0,0,0-.724-1.949l.414-.639a8.318,8.318,0,0,1,.979,2.639,7.373,7.373,0,0,1,.132,1.358,5.168,5.168,0,0,1-.132,1.206,2.222,2.222,0,0,1-.979,1.508,1.572,1.572,0,0,1-1.584-.121,4.7,4.7,0,0,1-1.583-1.707v0a8.332,8.332,0,0,1-.979-2.64,7.362,7.362,0,0,1-.132-1.358,5.17,5.17,0,0,1,.132-1.206" transform="translate(-87.11 -47.311)" fill="#27debf"/>
        <path id="Trazado_798664" data-name="Trazado 798664" d="M183.253,100.953,170.7,93.7c-.338-.2-.612-.057-.612.309a1.313,1.313,0,0,0,.612,1.017l12.558,7.25c.338.2.612.057.612-.309a1.315,1.315,0,0,0-.612-1.017" transform="translate(-73.903 -40.677)" fill="#455a64"/>
        <path id="Trazado_798665" data-name="Trazado 798665" d="M176.193,101.608,154.447,89.056c-.338-.2-.612-.057-.612.31a1.313,1.313,0,0,0,.612,1.017l21.746,12.552c.338.2.612.056.612-.31a1.313,1.313,0,0,0-.612-1.017" transform="translate(-66.843 -38.657)" fill="#e0e0e0"/>
        <path id="Trazado_798666" data-name="Trazado 798666" d="M278.851,179.636l-8.808-5.1c-.338-.2-.612-.057-.612.31a1.314,1.314,0,0,0,.612,1.017l8.808,5.1c.338.2.612.056.612-.31a1.313,1.313,0,0,0-.612-1.017" transform="translate(-117.071 -75.799)" fill="#455a64"/>
        <path id="Trazado_798667" data-name="Trazado 798667" d="M140.557,105.129h0Zm.26.15,69.748,40.267a1.105,1.105,0,0,0,.556.159.924.924,0,0,0,.9-1v-3.617l12.322,7.112a.8.8,0,0,1,.329.571v3.891a1.923,1.923,0,0,0,.9,1.55l1.073.619a.8.8,0,0,1,.329.571v67.274l-85.827-49.55a.8.8,0,0,1-.33-.571V105.279m70.948,35.657h0m-71.175-36.369c-.2,0-.339.16-.339.437v67.549a1.354,1.354,0,0,0,.612,1.06L226.925,223.3a.558.558,0,0,0,.274.084c.2,0,.339-.161.339-.437V155.4a1.353,1.353,0,0,0-.612-1.06l-1.073-.619a1.353,1.353,0,0,1-.612-1.06v-3.891a1.353,1.353,0,0,0-.612-1.06l-12.558-7.25a.548.548,0,0,0-.273-.084c-.2,0-.339.16-.339.437V144.7c0,.277-.138.437-.339.437a.553.553,0,0,1-.273-.083l-69.984-40.405a.558.558,0,0,0-.274-.084" transform="translate(-60.94 -45.436)" fill="#e0e0e0"/>
        <path id="Trazado_798668" data-name="Trazado 798668" d="M278.264,192.887l-6.825-3.935a1.642,1.642,0,0,1-.754-1.305v-2.565a.651.651,0,0,1,1.037-.6l6.825,3.935a1.643,1.643,0,0,1,.753,1.305v2.564a.707.707,0,0,1-.32.641.594.594,0,0,1-.3.079.838.838,0,0,1-.416-.121m-6.825-7.914c-.084-.048-.14-.05-.15-.042s-.038.054-.038.151v2.565a1.073,1.073,0,0,0,.471.815l6.825,3.936a.217.217,0,0,0,.15.043c.012-.007.038-.055.038-.152v-2.564a1.075,1.075,0,0,0-.47-.815Z" transform="translate(-117.616 -80.107)" fill="#e0e0e0"/>
        <path id="Trazado_798669" data-name="Trazado 798669" d="M279.639,192.241l-4.448-2.581c-.225-.13-.408-.037-.408.206a.875.875,0,0,0,.408.677l4.448,2.581c.226.13.408.037.408-.206a.875.875,0,0,0-.408-.677" transform="translate(-119.396 -82.384)" fill="#e0e0e0"/>
        <path id="Trazado_798670" data-name="Trazado 798670" d="M273.059,188.548l-.369.524c-.014.02-.042,0-.055-.032l-.369-.949c-.018-.046,0-.088.028-.071l.737.426a.089.089,0,0,1,.028.1" transform="translate(-118.3 -81.695)" fill="#455a64"/>
        <path id="Trazado_798671" data-name="Trazado 798671" d="M286.03,243.536c-.326-.188-.59-.036-.59.341a1.3,1.3,0,0,0,.59,1.022c.326.188.59.036.59-.341a1.306,1.306,0,0,0-.59-1.022" transform="translate(-124.027 -105.784)" fill="#27debf"/>
        <path id="Trazado_798672" data-name="Trazado 798672" d="M277.906,234.155c-.326-.188-.59-.036-.59.341a1.306,1.306,0,0,0,.59,1.022c.326.188.59.036.59-.341a1.3,1.3,0,0,0-.59-1.022" transform="translate(-120.497 -101.708)" fill="#27debf"/>
        <path id="Trazado_798673" data-name="Trazado 798673" d="M269.782,229.464c-.326-.188-.59-.036-.59.341a1.3,1.3,0,0,0,.59,1.022c.326.188.59.036.59-.341a1.305,1.305,0,0,0-.59-1.022" transform="translate(-116.967 -99.67)" fill="#27debf"/>
        <path id="Trazado_798674" data-name="Trazado 798674" d="M261.658,226.834c-.326-.188-.59-.036-.59.341a1.3,1.3,0,0,0,.59,1.022c.326.188.59.036.59-.341a1.305,1.305,0,0,0-.59-1.022" transform="translate(-113.437 -98.527)" fill="#27debf"/>
        <path id="Trazado_798675" data-name="Trazado 798675" d="M253.524,218.387c-.326-.188-.59-.036-.59.341a1.306,1.306,0,0,0,.59,1.022c.326.188.59.036.59-.341a1.3,1.3,0,0,0-.59-1.022" transform="translate(-109.903 -94.857)" fill="#27debf"/>
        <path id="Trazado_798676" data-name="Trazado 798676" d="M245.41,215.393c-.326-.188-.59-.036-.59.341a1.3,1.3,0,0,0,.59,1.022c.326.188.59.036.59-.341a1.306,1.306,0,0,0-.59-1.022" transform="translate(-106.377 -93.556)" fill="#27debf"/>
        <path id="Trazado_798677" data-name="Trazado 798677" d="M237.287,206.011c-.326-.188-.59-.036-.59.341a1.3,1.3,0,0,0,.59,1.022c.326.188.59.036.59-.341a1.3,1.3,0,0,0-.59-1.022" transform="translate(-102.848 -89.479)" fill="#27debf"/>
        <path id="Trazado_798678" data-name="Trazado 798678" d="M229.161,203.667c-.326-.188-.59-.036-.59.341a1.306,1.306,0,0,0,.59,1.022c.326.188.59.036.59-.341a1.3,1.3,0,0,0-.59-1.022" transform="translate(-99.317 -88.461)" fill="#27debf"/>
        <path id="Trazado_798679" data-name="Trazado 798679" d="M221.037,177.869c-.326-.188-.59-.036-.59.341a1.306,1.306,0,0,0,.59,1.022c.326.188.59.036.59-.341a1.3,1.3,0,0,0-.59-1.022" transform="translate(-95.787 -77.251)" fill="#27debf"/>
        <path id="Trazado_798680" data-name="Trazado 798680" d="M212.913,191.941c-.326-.188-.59-.036-.59.341a1.306,1.306,0,0,0,.59,1.022c.326.188.59.036.59-.341a1.3,1.3,0,0,0-.59-1.022" transform="translate(-92.257 -83.366)" fill="#27debf"/>
        <path id="Trazado_798681" data-name="Trazado 798681" d="M204.789,191.941c-.326-.188-.59-.036-.59.341a1.3,1.3,0,0,0,.59,1.022c.326.188.59.036.59-.341a1.305,1.305,0,0,0-.59-1.022" transform="translate(-88.727 -83.366)" fill="#27debf"/>
        <path id="Trazado_798682" data-name="Trazado 798682" d="M196.665,191.941c-.326-.188-.59-.036-.59.341a1.3,1.3,0,0,0,.59,1.022c.326.188.59.036.59-.341a1.3,1.3,0,0,0-.59-1.022" transform="translate(-85.197 -83.366)" fill="#27debf"/>
        <path id="Trazado_798683" data-name="Trazado 798683" d="M188.541,177.87c-.326-.188-.59-.036-.59.341a1.3,1.3,0,0,0,.59,1.022c.326.188.59.036.59-.341a1.305,1.305,0,0,0-.59-1.022" transform="translate(-81.667 -77.252)" fill="#27debf"/>
        <path id="Trazado_798684" data-name="Trazado 798684" d="M180.417,175.174c-.326-.188-.59-.036-.59.341a1.3,1.3,0,0,0,.59,1.022c.326.188.59.036.59-.341a1.305,1.305,0,0,0-.59-1.022" transform="translate(-78.137 -76.08)" fill="#27debf"/>
        <path id="Trazado_798685" data-name="Trazado 798685" d="M172.265,163.8c-.326-.188-.59-.036-.59.341a1.3,1.3,0,0,0,.59,1.022c.326.188.59.036.59-.341a1.305,1.305,0,0,0-.59-1.022" transform="translate(-74.595 -71.137)" fill="#27debf"/>
        <path id="Trazado_798686" data-name="Trazado 798686" d="M164.169,163.8c-.326-.188-.59-.036-.59.341a1.306,1.306,0,0,0,.59,1.022c.326.188.59.036.59-.341a1.3,1.3,0,0,0-.59-1.022" transform="translate(-71.077 -71.137)" fill="#27debf"/>
        <path id="Trazado_798687" data-name="Trazado 798687" d="M156.045,163.8c-.326-.188-.59-.036-.59.341a1.3,1.3,0,0,0,.59,1.022c.326.188.59.036.59-.341a1.305,1.305,0,0,0-.59-1.022" transform="translate(-67.547 -71.137)" fill="#27debf"/>
        <path id="Trazado_798688" data-name="Trazado 798688" d="M147.921,159.108c-.326-.188-.59-.036-.59.341a1.3,1.3,0,0,0,.59,1.022c.326.188.59.036.59-.341a1.305,1.305,0,0,0-.59-1.022" transform="translate(-64.017 -69.099)" fill="#27debf"/>
        <path id="Trazado_798689" data-name="Trazado 798689" d="M226.377,208.158a.14.14,0,0,0,.093-.035.141.141,0,0,0,.014-.2l-4.639-5.331a.141.141,0,0,0-.036-.03l-4.561-2.632-4.587-1.489-4.569-4.751a.145.145,0,0,0-.053-.035l-4.56-1.681-4.571-5.278a.143.143,0,0,0-.068-.044l-4.521-1.3-4.571-14.516a.141.141,0,0,0-.119-.1.146.146,0,0,0-.139.07l-4.552,7.886-4.524-.006-4.5.006-4.553-7.886a.145.145,0,0,0-.078-.064l-4.551-1.509-4.567-6.4a.141.141,0,0,0-.115-.059H152.9l-4.562-2.633a.141.141,0,1,0-.141.244l4.595,2.653a.141.141,0,0,0,.071.019h9.115l4.552,6.373a.137.137,0,0,0,.07.052l4.543,1.508,4.567,7.911a.143.143,0,0,0,.123.071l4.583-.006,4.605.006a.143.143,0,0,0,.123-.071l4.433-7.679,4.5,14.281a.141.141,0,0,0,.1.093l4.553,1.314,4.567,5.274a.136.136,0,0,0,.058.04l4.564,1.682,4.571,4.753a.149.149,0,0,0,.058.036l4.594,1.488,4.514,2.609,4.623,5.313a.142.142,0,0,0,.107.049" transform="translate(-64.362 -69.576)" fill="#27debf"/>
        <path id="Trazado_798690" data-name="Trazado 798690" d="M226.257,214.912a.283.283,0,0,0,.142-.528l-78.1-45.09a.283.283,0,0,0-.283.49l78.1,45.09a.276.276,0,0,0,.141.038" transform="translate(-64.254 -73.544)" fill="#e0e0e0"/>
        <path id="Trazado_798691" data-name="Trazado 798691" d="M286.03,238.845c-.326-.188-.59-.036-.59.341a1.3,1.3,0,0,0,.59,1.022c.326.188.59.036.59-.341a1.306,1.306,0,0,0-.59-1.022" transform="translate(-124.027 -103.746)" fill="#27debf"/>
        <path id="Trazado_798692" data-name="Trazado 798692" d="M277.906,224.774c-.326-.188-.59-.036-.59.341a1.3,1.3,0,0,0,.59,1.022c.326.188.59.036.59-.341a1.3,1.3,0,0,0-.59-1.022" transform="translate(-120.497 -97.632)" fill="#27debf"/>
        <path id="Trazado_798693" data-name="Trazado 798693" d="M269.782,223.018c-.326-.188-.59-.036-.59.341a1.3,1.3,0,0,0,.59,1.022c.326.188.59.036.59-.341a1.3,1.3,0,0,0-.59-1.022" transform="translate(-116.967 -96.869)" fill="#27debf"/>
        <path id="Trazado_798694" data-name="Trazado 798694" d="M261.658,206.011c-.326-.188-.59-.036-.59.341a1.3,1.3,0,0,0,.59,1.022c.326.188.59.036.59-.341a1.305,1.305,0,0,0-.59-1.022" transform="translate(-113.437 -89.479)" fill="#27debf"/>
        <path id="Trazado_798695" data-name="Trazado 798695" d="M253.524,210.7c-.326-.188-.59-.036-.59.341a1.306,1.306,0,0,0,.59,1.022c.326.188.59.036.59-.341a1.3,1.3,0,0,0-.59-1.022" transform="translate(-109.903 -91.518)" fill="#27debf"/>
        <path id="Trazado_798696" data-name="Trazado 798696" d="M245.408,208.357c-.326-.188-.59-.036-.59.341a1.306,1.306,0,0,0,.59,1.022c.326.188.59.036.59-.341a1.3,1.3,0,0,0-.59-1.022" transform="translate(-106.376 -90.499)" fill="#27debf"/>
        <path id="Trazado_798697" data-name="Trazado 798697" d="M237.287,201.321c-.326-.188-.59-.036-.59.341a1.3,1.3,0,0,0,.59,1.022c.326.188.59.036.59-.341a1.3,1.3,0,0,0-.59-1.022" transform="translate(-102.848 -87.441)" fill="#27debf"/>
        <path id="Trazado_798698" data-name="Trazado 798698" d="M229.162,191.941c-.326-.188-.59-.036-.59.341a1.3,1.3,0,0,0,.59,1.022c.326.188.59.036.59-.341a1.3,1.3,0,0,0-.59-1.022" transform="translate(-99.317 -83.366)" fill="#27debf"/>
        <path id="Trazado_798699" data-name="Trazado 798699" d="M221.037,189.6c-.326-.188-.59-.036-.59.341a1.306,1.306,0,0,0,.59,1.022c.326.188.59.036.59-.341a1.3,1.3,0,0,0-.59-1.022" transform="translate(-95.787 -82.347)" fill="#27debf"/>
        <path id="Trazado_798700" data-name="Trazado 798700" d="M212.914,182.56c-.326-.188-.59-.036-.59.341a1.306,1.306,0,0,0,.59,1.022c.326.188.59.036.59-.341a1.3,1.3,0,0,0-.59-1.022" transform="translate(-92.257 -79.289)" fill="#27debf"/>
        <path id="Trazado_798701" data-name="Trazado 798701" d="M204.79,182.56c-.326-.188-.59-.036-.59.341a1.3,1.3,0,0,0,.59,1.022c.326.188.59.036.59-.341a1.305,1.305,0,0,0-.59-1.022" transform="translate(-88.727 -79.289)" fill="#27debf"/>
        <path id="Trazado_798702" data-name="Trazado 798702" d="M196.665,163.8c-.326-.188-.59-.036-.59.341a1.306,1.306,0,0,0,.59,1.022c.326.188.59.036.59-.341a1.3,1.3,0,0,0-.59-1.022" transform="translate(-85.197 -71.137)" fill="#27debf"/>
        <path id="Trazado_798703" data-name="Trazado 798703" d="M188.541,173.112c-.326-.188-.59-.036-.59.341a1.3,1.3,0,0,0,.59,1.022c.326.188.59.036.59-.341a1.305,1.305,0,0,0-.59-1.022" transform="translate(-81.667 -75.184)" fill="#27debf"/>
        <path id="Trazado_798704" data-name="Trazado 798704" d="M180.417,163.8c-.326-.188-.59-.036-.59.341a1.3,1.3,0,0,0,.59,1.022c.326.188.59.036.59-.341a1.3,1.3,0,0,0-.59-1.022" transform="translate(-78.137 -71.137)" fill="#27debf"/>
        <path id="Trazado_798705" data-name="Trazado 798705" d="M172.293,159.108c-.326-.188-.59-.036-.59.341a1.306,1.306,0,0,0,.59,1.022c.326.188.59.036.59-.341a1.3,1.3,0,0,0-.59-1.022" transform="translate(-74.607 -69.099)" fill="#27debf"/>
        <path id="Trazado_798706" data-name="Trazado 798706" d="M164.169,159.107c-.326-.188-.59-.035-.59.342a1.306,1.306,0,0,0,.59,1.022c.326.188.59.036.59-.341a1.307,1.307,0,0,0-.59-1.023" transform="translate(-71.077 -69.099)" fill="#27debf"/>
        <path id="Trazado_798707" data-name="Trazado 798707" d="M156.045,154.417c-.326-.188-.59-.036-.59.341a1.3,1.3,0,0,0,.59,1.022c.326.188.59.036.59-.341a1.305,1.305,0,0,0-.59-1.022" transform="translate(-67.547 -67.061)" fill="#27debf"/>
        <path id="Trazado_798708" data-name="Trazado 798708" d="M147.921,154.417c-.326-.188-.59-.036-.59.341a1.306,1.306,0,0,0,.59,1.022c.326.188.59.036.59-.341a1.3,1.3,0,0,0-.59-1.022" transform="translate(-64.017 -67.061)" fill="#27debf"/>
        <path id="Trazado_798709" data-name="Trazado 798709" d="M226.365,203.461a.139.139,0,0,0,.071-.019.141.141,0,0,0,.051-.193l-4.627-7.976a.139.139,0,0,0-.093-.068l-4.493-.959-4.564-9.554a.139.139,0,0,0-.085-.074.142.142,0,0,0-.113.012l-4.548,2.626-4.5-1.3L198.9,182l-4.586-5.294a.138.138,0,0,0-.067-.044l-4.565-1.318-4.57-3.958a.144.144,0,0,0-.093-.035h-4.5l-4.557-10.524a.142.142,0,0,0-.237-.037l-4.487,5.182-4.487-5.182a.143.143,0,0,0-.036-.03L162.1,158.1a.141.141,0,0,0-.071-.019h-4.556l-4.545-2.624a.142.142,0,0,0-.071-.019h-4.595a.141.141,0,0,0,0,.283h4.556l4.545,2.624a.141.141,0,0,0,.071.019h4.556l4.557,2.631,4.578,5.287a.146.146,0,0,0,.214,0l4.446-5.135,4.5,10.4a.142.142,0,0,0,.13.085h4.541l4.554,3.944a.134.134,0,0,0,.054.029l4.554,1.315L198.7,182.2l4.6,3.99a.142.142,0,0,0,.054.029l4.589,1.329a.148.148,0,0,0,.11-.014l4.467-2.579,4.527,9.479a.142.142,0,0,0,.1.077l4.5.961,4.6,7.922a.141.141,0,0,0,.122.071" transform="translate(-64.362 -67.538)" fill="#27debf"/>
        <g id="Grupo_1065022" data-name="Grupo 1065022" transform="translate(83.314 87.276)" opacity="0.3">
          <g id="Grupo_1065021" data-name="Grupo 1065021">
            <g id="Grupo_1065020" data-name="Grupo 1065020" clip-path="url(#clip-path-14)">
              <path id="Trazado_798710" data-name="Trazado 798710" d="M286.03,238.845c-.326-.188-.59-.036-.59.341a1.3,1.3,0,0,0,.59,1.022c.326.188.59.036.59-.341a1.306,1.306,0,0,0-.59-1.022" transform="translate(-207.341 -191.022)"/>
              <path id="Trazado_798711" data-name="Trazado 798711" d="M277.906,224.774c-.326-.188-.59-.036-.59.341a1.3,1.3,0,0,0,.59,1.022c.326.188.59.036.59-.341a1.3,1.3,0,0,0-.59-1.022" transform="translate(-203.811 -184.908)"/>
              <path id="Trazado_798712" data-name="Trazado 798712" d="M269.782,223.018c-.326-.188-.59-.036-.59.341a1.3,1.3,0,0,0,.59,1.022c.326.188.59.036.59-.341a1.3,1.3,0,0,0-.59-1.022" transform="translate(-200.281 -184.145)"/>
              <path id="Trazado_798713" data-name="Trazado 798713" d="M261.658,206.011c-.326-.188-.59-.036-.59.341a1.3,1.3,0,0,0,.59,1.022c.326.188.59.036.59-.341a1.305,1.305,0,0,0-.59-1.022" transform="translate(-196.751 -176.755)"/>
              <path id="Trazado_798714" data-name="Trazado 798714" d="M253.524,210.7c-.326-.188-.59-.036-.59.341a1.306,1.306,0,0,0,.59,1.022c.326.188.59.036.59-.341a1.3,1.3,0,0,0-.59-1.022" transform="translate(-193.217 -178.794)"/>
              <path id="Trazado_798715" data-name="Trazado 798715" d="M245.408,208.357c-.326-.188-.59-.036-.59.341a1.306,1.306,0,0,0,.59,1.022c.326.188.59.036.59-.341a1.3,1.3,0,0,0-.59-1.022" transform="translate(-189.69 -177.774)"/>
              <path id="Trazado_798716" data-name="Trazado 798716" d="M237.287,201.321c-.326-.188-.59-.036-.59.341a1.3,1.3,0,0,0,.59,1.022c.326.188.59.036.59-.341a1.3,1.3,0,0,0-.59-1.022" transform="translate(-186.162 -174.717)"/>
              <path id="Trazado_798717" data-name="Trazado 798717" d="M229.162,191.941c-.326-.188-.59-.036-.59.341a1.3,1.3,0,0,0,.59,1.022c.326.188.59.036.59-.341a1.3,1.3,0,0,0-.59-1.022" transform="translate(-182.631 -170.641)"/>
              <path id="Trazado_798718" data-name="Trazado 798718" d="M221.037,189.6c-.326-.188-.59-.036-.59.341a1.306,1.306,0,0,0,.59,1.022c.326.188.59.036.59-.341a1.3,1.3,0,0,0-.59-1.022" transform="translate(-179.101 -169.622)"/>
              <path id="Trazado_798719" data-name="Trazado 798719" d="M212.914,182.56c-.326-.188-.59-.036-.59.341a1.306,1.306,0,0,0,.59,1.022c.326.188.59.036.59-.341a1.3,1.3,0,0,0-.59-1.022" transform="translate(-175.571 -166.565)"/>
              <path id="Trazado_798720" data-name="Trazado 798720" d="M204.79,182.56c-.326-.188-.59-.036-.59.341a1.3,1.3,0,0,0,.59,1.022c.326.188.59.036.59-.341a1.305,1.305,0,0,0-.59-1.022" transform="translate(-172.041 -166.565)"/>
              <path id="Trazado_798721" data-name="Trazado 798721" d="M196.665,163.8c-.326-.188-.59-.036-.59.341a1.306,1.306,0,0,0,.59,1.022c.326.188.59.036.59-.341a1.3,1.3,0,0,0-.59-1.022" transform="translate(-168.511 -158.413)"/>
              <path id="Trazado_798722" data-name="Trazado 798722" d="M188.541,173.112c-.326-.188-.59-.036-.59.341a1.3,1.3,0,0,0,.59,1.022c.326.188.59.036.59-.341a1.305,1.305,0,0,0-.59-1.022" transform="translate(-164.981 -162.46)"/>
              <path id="Trazado_798723" data-name="Trazado 798723" d="M180.417,163.8c-.326-.188-.59-.036-.59.341a1.3,1.3,0,0,0,.59,1.022c.326.188.59.036.59-.341a1.3,1.3,0,0,0-.59-1.022" transform="translate(-161.451 -158.413)"/>
              <path id="Trazado_798724" data-name="Trazado 798724" d="M172.293,159.108c-.326-.188-.59-.036-.59.341a1.306,1.306,0,0,0,.59,1.022c.326.188.59.036.59-.341a1.3,1.3,0,0,0-.59-1.022" transform="translate(-157.921 -156.375)"/>
              <path id="Trazado_798725" data-name="Trazado 798725" d="M164.169,159.107c-.326-.188-.59-.035-.59.342a1.306,1.306,0,0,0,.59,1.022c.326.188.59.036.59-.341a1.307,1.307,0,0,0-.59-1.023" transform="translate(-154.391 -156.375)"/>
              <path id="Trazado_798726" data-name="Trazado 798726" d="M156.045,154.417c-.326-.188-.59-.036-.59.341a1.3,1.3,0,0,0,.59,1.022c.326.188.59.036.59-.341a1.305,1.305,0,0,0-.59-1.022" transform="translate(-150.861 -154.337)"/>
              <path id="Trazado_798727" data-name="Trazado 798727" d="M147.921,154.417c-.326-.188-.59-.036-.59.341a1.306,1.306,0,0,0,.59,1.022c.326.188.59.036.59-.341a1.3,1.3,0,0,0-.59-1.022" transform="translate(-147.331 -154.337)"/>
              <path id="Trazado_798728" data-name="Trazado 798728" d="M226.365,203.461a.139.139,0,0,0,.071-.019.141.141,0,0,0,.051-.193l-4.627-7.976a.139.139,0,0,0-.093-.068l-4.493-.959-4.564-9.554a.139.139,0,0,0-.085-.074.142.142,0,0,0-.113.012l-4.548,2.626-4.5-1.3L198.9,182l-4.586-5.294a.138.138,0,0,0-.067-.044l-4.565-1.318-4.57-3.958a.144.144,0,0,0-.093-.035h-4.5l-4.557-10.524a.142.142,0,0,0-.237-.037l-4.487,5.182-4.487-5.182a.143.143,0,0,0-.036-.03L162.1,158.1a.141.141,0,0,0-.071-.019h-4.556l-4.545-2.624a.142.142,0,0,0-.071-.019h-4.595a.141.141,0,0,0,0,.283h4.556l4.545,2.624a.141.141,0,0,0,.071.019h4.556l4.557,2.631,4.578,5.287a.146.146,0,0,0,.214,0l4.446-5.135,4.5,10.4a.142.142,0,0,0,.13.085h4.541l4.554,3.944a.134.134,0,0,0,.054.029l4.554,1.315L198.7,182.2l4.6,3.99a.142.142,0,0,0,.054.029l4.589,1.329a.148.148,0,0,0,.11-.014l4.467-2.579,4.527,9.479a.142.142,0,0,0,.1.077l4.5.961,4.6,7.922a.141.141,0,0,0,.122.071" transform="translate(-147.676 -154.814)"/>
            </g>
          </g>
        </g>
        <path id="Trazado_798729" data-name="Trazado 798729" d="M278.5,202.074l-4.448-2.581c-.225-.13-.408-.037-.408.206a.875.875,0,0,0,.408.677l4.448,2.581c.226.13.408.037.408-.206a.875.875,0,0,0-.408-.677" transform="translate(-118.9 -86.656)" fill="#e0e0e0"/>
        <path id="Trazado_798730" data-name="Trazado 798730" d="M286.03,206.012c-.326-.188-.59-.036-.59.341a1.3,1.3,0,0,0,.59,1.022c.326.188.59.036.59-.341a1.3,1.3,0,0,0-.59-1.022" transform="translate(-124.027 -89.48)" fill="#27debf"/>
        <g id="Grupo_1065025" data-name="Grupo 1065025" transform="translate(161.413 116.452)" opacity="0.3">
          <g id="Grupo_1065024" data-name="Grupo 1065024">
            <g id="Grupo_1065023" data-name="Grupo 1065023" clip-path="url(#clip-path-15)">
              <path id="Trazado_798731" data-name="Trazado 798731" d="M286.03,206.012c-.326-.188-.59-.036-.59.341a1.3,1.3,0,0,0,.59,1.022c.326.188.59.036.59-.341a1.3,1.3,0,0,0-.59-1.022" transform="translate(-285.44 -205.932)"/>
            </g>
          </g>
        </g>
        <path id="Trazado_798732" data-name="Trazado 798732" d="M278.5,206.751l-4.448-2.581c-.225-.13-.408-.037-.408.206a.875.875,0,0,0,.408.677l4.448,2.581c.226.13.408.038.408-.206a.875.875,0,0,0-.408-.677" transform="translate(-118.9 -88.689)" fill="#e0e0e0"/>
        <path id="Trazado_798733" data-name="Trazado 798733" d="M286.03,210.7c-.326-.188-.59-.036-.59.341a1.3,1.3,0,0,0,.59,1.022c.326.188.59.036.59-.341a1.3,1.3,0,0,0-.59-1.022" transform="translate(-124.027 -91.517)" fill="#27debf"/>
        <path id="Trazado_798734" data-name="Trazado 798734" d="M270.49,262.855a.141.141,0,0,0,.1-.04.142.142,0,0,0,0-.2l-2.331-2.4-2.289-.29-2.311-2.986-2.313.317-2.248-2.029-2.294-1.376-2.339-3.242-2.323.728-2.233-2a.142.142,0,0,0-.189.211l2.353,2.1,2.281-.715,2.279,3.139,2.3,1.374,2.323,2.1,2.281-.313,2.283,2.95,2.306.292,2.262,2.326a.142.142,0,0,0,.1.043" transform="translate(-108.487 -108.328)" fill="#27debf"/>
        <path id="Trazado_798735" data-name="Trazado 798735" d="M283.662,257.149a.2.2,0,0,1-.012-.032.172.172,0,0,1-.005-.044.105.105,0,0,1,.019-.07.033.033,0,0,1,.049-.006l.192.11a.157.157,0,0,1,.067.077c.013.034.026.063.037.086l.612,1.741c.029.079.059.162.087.247s.055.174.079.263a2.644,2.644,0,0,1,.058.276,1.975,1.975,0,0,1,.021.292,1.393,1.393,0,0,1-.065.454.672.672,0,0,1-.182.291.422.422,0,0,1-.275.105.671.671,0,0,1-.348-.105,1.345,1.345,0,0,1-.348-.3,2.077,2.077,0,0,1-.276-.424,2.477,2.477,0,0,1-.181-.5,2.2,2.2,0,0,1-.066-.529,1.4,1.4,0,0,1,.066-.454.668.668,0,0,1,.181-.291.422.422,0,0,1,.276-.1.67.67,0,0,1,.348.105.453.453,0,0,1,.062.044.681.681,0,0,1,.059.051Zm.845,2.44a1.617,1.617,0,0,0-.109-.312,1.294,1.294,0,0,0-.173-.273.863.863,0,0,0-.231-.2.419.419,0,0,0-.23-.068.259.259,0,0,0-.173.073.448.448,0,0,0-.11.185.9.9,0,0,0-.038.273,1.4,1.4,0,0,0,.038.317,1.62,1.62,0,0,0,.11.312,1.288,1.288,0,0,0,.173.274.858.858,0,0,0,.23.2.422.422,0,0,0,.231.068.264.264,0,0,0,.173-.074.446.446,0,0,0,.109-.185.881.881,0,0,0,.038-.273,1.385,1.385,0,0,0-.038-.317" transform="translate(-123.021 -111.665)" fill="#455a64"/>
        <path id="Trazado_798736" data-name="Trazado 798736" d="M281.073,257.969c.014-.014.034-.014.059,0l.154.089a.14.14,0,0,1,.053.064.214.214,0,0,1,.022.093.876.876,0,0,1-.056.3.42.42,0,0,1-.158.2.405.405,0,0,1-.269.057.993.993,0,0,1-.388-.144,1.4,1.4,0,0,1-.325-.265A1.876,1.876,0,0,1,279.9,258a2.109,2.109,0,0,1-.18-.456,1.959,1.959,0,0,1-.067-.513,1.259,1.259,0,0,1,.056-.405.522.522,0,0,1,.154-.242.35.35,0,0,1,.239-.074.708.708,0,0,1,.308.1l-.595-1.332a.95.95,0,0,1-.044-.11.351.351,0,0,1-.016-.1v-.186a.113.113,0,0,1,.027-.083.049.049,0,0,1,.064,0l1.324.765a.162.162,0,0,1,.064.079.266.266,0,0,1,.027.114v.186a.113.113,0,0,1-.027.083.048.048,0,0,1-.064,0l-.968-.559.6,1.354c.012.028.023.057.036.09a.269.269,0,0,1,.019.1v.185a.111.111,0,0,1-.027.083.047.047,0,0,1-.064,0l-.279-.161a.848.848,0,0,0-.205-.087.253.253,0,0,0-.163.007.228.228,0,0,0-.11.123.675.675,0,0,0-.04.258,1.136,1.136,0,0,0,.042.317,1.206,1.206,0,0,0,.112.269,1.009,1.009,0,0,0,.364.37.836.836,0,0,0,.257.107.269.269,0,0,0,.159-.014.19.19,0,0,0,.09-.1.674.674,0,0,0,.047-.138.105.105,0,0,1,.029-.059" transform="translate(-121.512 -110.616)" fill="#455a64"/>
        <path id="Trazado_798737" data-name="Trazado 798737" d="M277.536,255.926a.046.046,0,0,1,.059,0l.155.089a.152.152,0,0,1,.052.064.217.217,0,0,1,.022.093.867.867,0,0,1-.055.3.427.427,0,0,1-.158.2.406.406,0,0,1-.27.057.97.97,0,0,1-.388-.144,1.372,1.372,0,0,1-.324-.265,1.818,1.818,0,0,1-.266-.373,2.125,2.125,0,0,1-.18-.456,1.964,1.964,0,0,1-.067-.512,1.255,1.255,0,0,1,.056-.405.513.513,0,0,1,.154-.242.352.352,0,0,1,.239-.075.709.709,0,0,1,.307.1l-.595-1.332a.966.966,0,0,1-.044-.111.365.365,0,0,1-.016-.1v-.186a.114.114,0,0,1,.027-.083.049.049,0,0,1,.064,0l1.324.764a.171.171,0,0,1,.064.079.271.271,0,0,1,.027.114v.187a.113.113,0,0,1-.027.083.049.049,0,0,1-.064,0l-.968-.559.6,1.353c.012.027.023.057.036.09a.271.271,0,0,1,.019.1v.187a.109.109,0,0,1-.027.082.049.049,0,0,1-.063.005l-.279-.161a.77.77,0,0,0-.205-.087.25.25,0,0,0-.163.006.224.224,0,0,0-.109.123.671.671,0,0,0-.04.26,1.139,1.139,0,0,0,.042.317,1.222,1.222,0,0,0,.113.269,1.017,1.017,0,0,0,.165.217.991.991,0,0,0,.2.153.8.8,0,0,0,.257.107.261.261,0,0,0,.159-.013.2.2,0,0,0,.091-.095.729.729,0,0,0,.047-.139.11.11,0,0,1,.028-.059" transform="translate(-119.975 -109.729)" fill="#455a64"/>
        <path id="Trazado_798738" data-name="Trazado 798738" d="M270.183,267.608l-19.85-11.5c-.226-.13-.408-.038-.408.206a.874.874,0,0,0,.408.677l19.85,11.5c.226.13.408.037.408-.206a.875.875,0,0,0-.408-.677" transform="translate(-108.595 -111.255)" fill="#e0e0e0"/>
        <path id="Trazado_798739" data-name="Trazado 798739" d="M282.018,251l-4.448-2.581c-.225-.13-.408-.037-.408.206a.875.875,0,0,0,.408.677l4.448,2.581c.226.13.408.038.408-.206a.875.875,0,0,0-.408-.677" transform="translate(-120.43 -107.914)" fill="#e0e0e0"/>
        <path id="Trazado_798740" data-name="Trazado 798740" d="M270.49,289.5a.141.141,0,0,0,.1-.04.142.142,0,0,0,0-.2l-2.332-2.4-2.3-.292-2.32-2.028-2.236-.61-2.332-4.642-2.338,1.145-2.255-1.987-.038-.008-2.239-.425-2.26-3.908a.141.141,0,1,0-.245.141l2.325,4.021,2.328.441,2.339,2.061,2.256-1.1,2.262,4.5,2.326.634,2.305,2.033,2.291.291,2.262,2.325a.142.142,0,0,0,.1.043" transform="translate(-108.487 -119.073)" fill="#27debf"/>
        <g id="Grupo_1065028" data-name="Grupo 1065028" transform="translate(141.188 154.966)" opacity="0.3">
          <g id="Grupo_1065027" data-name="Grupo 1065027">
            <g id="Grupo_1065026" data-name="Grupo 1065026" clip-path="url(#clip-path-16)">
              <path id="Trazado_798741" data-name="Trazado 798741" d="M270.49,289.5a.141.141,0,0,0,.1-.04.142.142,0,0,0,0-.2l-2.332-2.4-2.3-.292-2.32-2.028-2.236-.61-2.332-4.642-2.338,1.145-2.255-1.987-.038-.008-2.239-.425-2.26-3.908a.141.141,0,1,0-.245.141l2.325,4.021,2.328.441,2.339,2.061,2.256-1.1,2.262,4.5,2.326.634,2.305,2.033,2.291.291,2.262,2.325a.142.142,0,0,0,.1.043" transform="translate(-249.675 -274.04)"/>
            </g>
          </g>
        </g>
        <path id="Trazado_798742" data-name="Trazado 798742" d="M284.408,285.433a.111.111,0,0,1,.027-.083.048.048,0,0,1,.064,0l.138.079a.525.525,0,0,1,.054.036.243.243,0,0,1,.054.067l.719,1.264a.282.282,0,0,1,.036.113.138.138,0,0,1-.019.094l-.08.114a.052.052,0,0,1-.061.017.133.133,0,0,1-.067-.07l-.545-.951v2.852a.113.113,0,0,1-.026.083.05.05,0,0,1-.064,0l-.138-.08a.168.168,0,0,1-.064-.079.269.269,0,0,1-.027-.114Z" transform="translate(-123.579 -123.982)" fill="#455a64"/>
        <path id="Trazado_798743" data-name="Trazado 798743" d="M282.356,287.416a1.022,1.022,0,0,1,.057.132.342.342,0,0,1,.018.109v.185a.109.109,0,0,1-.028.083.047.047,0,0,1-.063,0l-1.449-.836a.175.175,0,0,1-.064-.079.268.268,0,0,1-.027-.114v-.186a.113.113,0,0,1,.027-.083.049.049,0,0,1,.064,0l1.029.594-.75-1.51q-.087-.169-.148-.317a2.527,2.527,0,0,1-.1-.293,1.994,1.994,0,0,1-.055-.288,2.781,2.781,0,0,1-.017-.309,1.478,1.478,0,0,1,.049-.4.594.594,0,0,1,.143-.269.339.339,0,0,1,.235-.1.623.623,0,0,1,.326.1,1.166,1.166,0,0,1,.335.3,2.088,2.088,0,0,1,.247.407,2.381,2.381,0,0,1,.155.446,1.984,1.984,0,0,1,.057.422.092.092,0,0,1-.021.068.04.04,0,0,1-.052,0l-.155-.09a.154.154,0,0,1-.052-.061.314.314,0,0,1-.035-.109c-.014-.09-.032-.181-.053-.27a1.46,1.46,0,0,0-.087-.258,1,1,0,0,0-.139-.222.738.738,0,0,0-.2-.167q-.226-.13-.329-.007a.615.615,0,0,0-.1.4,1.483,1.483,0,0,0,.05.407,2.177,2.177,0,0,0,.152.372Z" transform="translate(-122.011 -123.283)" fill="#455a64"/>
        <path id="Trazado_798744" data-name="Trazado 798744" d="M277.162,282.148a.883.883,0,0,1,.156-.362.386.386,0,0,1,.264-.15.636.636,0,0,1,.382.109,1.314,1.314,0,0,1,.382.332,1.929,1.929,0,0,1,.264.455,2.531,2.531,0,0,1,.156.543,3.5,3.5,0,0,1,.056.594q0,.234,0,.439c0,.136,0,.281,0,.436a2.486,2.486,0,0,1-.056.529.868.868,0,0,1-.156.363.374.374,0,0,1-.264.148.655.655,0,0,1-.382-.112,1.321,1.321,0,0,1-.382-.329,1.9,1.9,0,0,1-.264-.452,2.59,2.59,0,0,1-.156-.542,3.566,3.566,0,0,1-.056-.593c0-.158,0-.3,0-.44s0-.282,0-.435a2.531,2.531,0,0,1,.056-.53m1.346,1.777c0-.136,0-.283,0-.439a2.122,2.122,0,0,0-.143-.81.953.953,0,0,0-.4-.465q-.262-.151-.4.006a1.069,1.069,0,0,0-.143.645c0,.154,0,.3,0,.435s0,.283,0,.439a2.1,2.1,0,0,0,.143.807.952.952,0,0,0,.4.462q.262.152.4,0a1.057,1.057,0,0,0,.143-.641c0-.155,0-.3,0-.436" transform="translate(-120.405 -122.373)" fill="#455a64"/>
        <path id="Trazado_798745" data-name="Trazado 798745" d="M270.183,295.726l-19.85-11.5c-.226-.13-.408-.037-.408.206a.874.874,0,0,0,.408.677l19.85,11.5c.226.13.408.038.408-.206a.875.875,0,0,0-.408-.677" transform="translate(-108.595 -123.473)" fill="#e0e0e0"/>
        <path id="Trazado_798746" data-name="Trazado 798746" d="M282.018,279.116l-4.448-2.581c-.225-.13-.408-.037-.408.206a.875.875,0,0,0,.408.677L282.018,280c.226.13.408.037.408-.206a.875.875,0,0,0-.408-.677" transform="translate(-120.43 -120.132)" fill="#e0e0e0"/>
        <path id="Trazado_798747" data-name="Trazado 798747" d="M221.746,234.656a.139.139,0,0,0,.11-.053.141.141,0,0,0-.022-.2l-2.3-1.833-2.313-2.643-2.348-.34-2.24-.506-2.32-2.739-2.282.4-2.29-3.626-2.326.037-2.25-2.011a.142.142,0,0,0-.189.211l2.333,2.086,2.279-.037,2.3,3.652,2.311-.408,2.275,2.687,2.344.528,2.256.327,2.262,2.582,2.316,1.85a.142.142,0,0,0,.089.031" transform="translate(-87.307 -96.075)" fill="#27debf"/>
        <path id="Trazado_798748" data-name="Trazado 798748" d="M234.918,228.948a.224.224,0,0,1-.012-.033.2.2,0,0,1-.005-.044.106.106,0,0,1,.019-.07.034.034,0,0,1,.049-.006l.192.11a.159.159,0,0,1,.067.077c.013.035.026.063.037.086l.612,1.741c.029.079.059.162.088.247s.055.174.079.264a2.645,2.645,0,0,1,.058.276,1.975,1.975,0,0,1,.021.292,1.392,1.392,0,0,1-.065.454.671.671,0,0,1-.182.291.422.422,0,0,1-.275.105.671.671,0,0,1-.348-.105,1.333,1.333,0,0,1-.347-.3,2.055,2.055,0,0,1-.277-.424,2.478,2.478,0,0,1-.181-.5,2.2,2.2,0,0,1-.066-.529,1.4,1.4,0,0,1,.066-.454.668.668,0,0,1,.181-.291.422.422,0,0,1,.277-.1.67.67,0,0,1,.347.105.517.517,0,0,1,.062.044.661.661,0,0,1,.059.051Zm.845,2.439a1.615,1.615,0,0,0-.109-.312,1.292,1.292,0,0,0-.173-.273.862.862,0,0,0-.231-.2.419.419,0,0,0-.23-.068.259.259,0,0,0-.173.073.447.447,0,0,0-.11.185.906.906,0,0,0-.038.273,1.4,1.4,0,0,0,.038.317,1.617,1.617,0,0,0,.11.312,1.289,1.289,0,0,0,.173.274.858.858,0,0,0,.23.2.422.422,0,0,0,.231.068.264.264,0,0,0,.173-.074.447.447,0,0,0,.109-.186.881.881,0,0,0,.038-.273,1.385,1.385,0,0,0-.038-.317" transform="translate(-101.841 -99.411)" fill="#455a64"/>
        <path id="Trazado_798749" data-name="Trazado 798749" d="M232.56,230.49a.93.93,0,0,1,.057.132.326.326,0,0,1,.018.109v.185a.108.108,0,0,1-.027.083.047.047,0,0,1-.063,0l-1.449-.836a.171.171,0,0,1-.064-.079.267.267,0,0,1-.027-.114v-.186a.112.112,0,0,1,.027-.083.05.05,0,0,1,.064,0l1.028.594-.749-1.51q-.087-.169-.147-.317a2.337,2.337,0,0,1-.1-.293,2.061,2.061,0,0,1-.056-.288,2.764,2.764,0,0,1-.016-.309,1.48,1.48,0,0,1,.049-.4.606.606,0,0,1,.143-.269.341.341,0,0,1,.235-.1.625.625,0,0,1,.326.1,1.157,1.157,0,0,1,.334.3,2.049,2.049,0,0,1,.247.407,2.42,2.42,0,0,1,.155.446,2.021,2.021,0,0,1,.057.422.092.092,0,0,1-.021.068.041.041,0,0,1-.053,0l-.154-.089a.16.16,0,0,1-.053-.061.326.326,0,0,1-.035-.109c-.014-.09-.031-.181-.052-.27a1.409,1.409,0,0,0-.088-.258.99.99,0,0,0-.138-.222.747.747,0,0,0-.2-.167q-.226-.13-.33-.007a.619.619,0,0,0-.1.4,1.5,1.5,0,0,0,.05.406,2.216,2.216,0,0,0,.152.373Z" transform="translate(-100.374 -98.548)" fill="#455a64"/>
        <path id="Trazado_798750" data-name="Trazado 798750" d="M229.27,225.284a.167.167,0,0,1,.064.079.256.256,0,0,1,.027.114v.187a.109.109,0,0,1-.027.083.048.048,0,0,1-.064,0l-1.1-.637.749,3.4a.338.338,0,0,1,.009.044c0,.009,0,.018,0,.024a.1.1,0,0,1-.024.074.043.043,0,0,1-.057,0l-.154-.09a.151.151,0,0,1-.063-.074.793.793,0,0,1-.035-.106l-.747-3.4c-.011-.045-.02-.085-.026-.124a.592.592,0,0,1-.01-.1v-.187a.115.115,0,0,1,.027-.083.049.049,0,0,1,.064,0Z" transform="translate(-98.987 -97.541)" fill="#455a64"/>
        <path id="Trazado_798751" data-name="Trazado 798751" d="M221.438,239.408l-19.85-11.5c-.226-.13-.408-.037-.408.206a.873.873,0,0,0,.408.677l19.85,11.5c.226.13.408.038.408-.206a.875.875,0,0,0-.408-.677" transform="translate(-87.415 -99.002)" fill="#e0e0e0"/>
        <path id="Trazado_798752" data-name="Trazado 798752" d="M233.273,222.8l-4.448-2.581c-.225-.13-.408-.037-.408.206a.875.875,0,0,0,.408.677l4.448,2.581c.226.13.408.038.408-.206a.875.875,0,0,0-.408-.677" transform="translate(-99.25 -95.661)" fill="#e0e0e0"/>
        <path id="Trazado_798753" data-name="Trazado 798753" d="M221.746,262.78a.14.14,0,0,0,.073-.02.142.142,0,0,0,.048-.194l-2.348-3.85-2.36.437-2.222-.607-2.3-2.8-2.284-.576-2.321-4.137-2.373.689-2.23-.423-2.263-2.014a.14.14,0,0,0-.2.011.141.141,0,0,0,.011.2l2.321,2.066.038.008,2.336.443,2.222-.645,2.272,4.046,2.311.584,2.3,2.8.043.012,2.328.636.032-.006,2.2-.407,2.247,3.684a.144.144,0,0,0,.122.068" transform="translate(-87.307 -108.299)" fill="#27debf"/>
        <g id="Grupo_1065031" data-name="Grupo 1065031" transform="translate(113.624 140.944)" opacity="0.3">
          <g id="Grupo_1065030" data-name="Grupo 1065030">
            <g id="Grupo_1065029" data-name="Grupo 1065029" clip-path="url(#clip-path-17)">
              <path id="Trazado_798754" data-name="Trazado 798754" d="M221.746,262.78a.14.14,0,0,0,.073-.02.142.142,0,0,0,.048-.194l-2.348-3.85-2.36.437-2.222-.607-2.3-2.8-2.284-.576-2.321-4.137-2.373.689-2.23-.423-2.263-2.014a.14.14,0,0,0-.2.011.141.141,0,0,0,.011.2l2.321,2.066.038.008,2.336.443,2.222-.645,2.272,4.046,2.311.584,2.3,2.8.043.012,2.328.636.032-.006,2.2-.407,2.247,3.684a.144.144,0,0,0,.122.068" transform="translate(-200.931 -249.243)"/>
            </g>
          </g>
        </g>
        <path id="Trazado_798755" data-name="Trazado 798755" d="M235.756,260.806a.182.182,0,0,1,.012.033.2.2,0,0,1,0,.044.108.108,0,0,1-.018.07.034.034,0,0,1-.049.006l-.192-.111a.152.152,0,0,1-.067-.077c-.014-.034-.025-.062-.037-.086l-.612-1.74c-.027-.077-.056-.163-.088-.258s-.06-.19-.088-.288-.049-.2-.067-.295a1.634,1.634,0,0,1,.032-.729.637.637,0,0,1,.168-.289.387.387,0,0,1,.265-.1.686.686,0,0,1,.351.11,1.224,1.224,0,0,1,.325.28,2.1,2.1,0,0,1,.269.411,2.423,2.423,0,0,1,.183.492,2.079,2.079,0,0,1,.068.525,1.338,1.338,0,0,1-.072.481.6.6,0,0,1-.19.273.405.405,0,0,1-.269.08.683.683,0,0,1-.313-.1l-.044-.028a.426.426,0,0,1-.047-.035Zm-.869-2.471a1.473,1.473,0,0,0,.107.3,1.177,1.177,0,0,0,.167.254.826.826,0,0,0,.212.179.416.416,0,0,0,.213.066.245.245,0,0,0,.165-.062.4.4,0,0,0,.107-.177.873.873,0,0,0,.038-.28,1.376,1.376,0,0,0-.038-.323,1.419,1.419,0,0,0-.107-.3,1.169,1.169,0,0,0-.165-.254.818.818,0,0,0-.213-.18.429.429,0,0,0-.212-.066.249.249,0,0,0-.167.062.409.409,0,0,0-.107.179.9.9,0,0,0-.038.278,1.39,1.39,0,0,0,.038.325" transform="translate(-101.906 -111.662)" fill="#455a64"/>
        <path id="Trazado_798756" data-name="Trazado 798756" d="M232.508,257.989c.014-.014.034-.014.059,0l.154.089a.147.147,0,0,1,.053.063.227.227,0,0,1,.021.094.867.867,0,0,1-.055.3.422.422,0,0,1-.158.2.406.406,0,0,1-.269.057.987.987,0,0,1-.388-.144,1.369,1.369,0,0,1-.324-.265,1.872,1.872,0,0,1-.265-.373,2.128,2.128,0,0,1-.18-.456,1.959,1.959,0,0,1-.067-.512,1.276,1.276,0,0,1,.055-.405.521.521,0,0,1,.155-.242.346.346,0,0,1,.239-.073.7.7,0,0,1,.308.1l-.595-1.332a.964.964,0,0,1-.044-.111.352.352,0,0,1-.016-.1v-.187a.115.115,0,0,1,.027-.083.049.049,0,0,1,.064,0l1.324.765a.168.168,0,0,1,.064.079.27.27,0,0,1,.027.114v.186a.115.115,0,0,1-.027.083.049.049,0,0,1-.064,0l-.968-.559.605,1.353c.012.027.023.057.036.09a.285.285,0,0,1,.019.1V257a.11.11,0,0,1-.028.083.048.048,0,0,1-.063,0l-.279-.161a.8.8,0,0,0-.2-.087.252.252,0,0,0-.163.006.225.225,0,0,0-.109.123.677.677,0,0,0-.04.259,1.114,1.114,0,0,0,.042.317,1.225,1.225,0,0,0,.112.269,1,1,0,0,0,.165.217,1.028,1.028,0,0,0,.2.153.82.82,0,0,0,.257.107.267.267,0,0,0,.16-.014.2.2,0,0,0,.09-.1.713.713,0,0,0,.047-.139.107.107,0,0,1,.029-.059" transform="translate(-100.41 -110.625)" fill="#455a64"/>
        <path id="Trazado_798757" data-name="Trazado 798757" d="M221.438,267.526l-19.85-11.5c-.226-.13-.408-.037-.408.206a.873.873,0,0,0,.408.677l19.85,11.5c.226.13.408.038.408-.206a.875.875,0,0,0-.408-.677" transform="translate(-87.415 -111.219)" fill="#e0e0e0"/>
        <path id="Trazado_798758" data-name="Trazado 798758" d="M233.273,250.916l-4.448-2.581c-.225-.13-.408-.037-.408.206a.875.875,0,0,0,.408.677l4.448,2.581c.226.13.408.038.408-.206a.875.875,0,0,0-.408-.677" transform="translate(-99.25 -107.879)" fill="#e0e0e0"/>
        <path id="Trazado_798759" data-name="Trazado 798759" d="M182.921,199.06a2.593,2.593,0,0,0-2.618-.2l2.618,7.06Z" transform="translate(-78.344 -86.292)" fill="#27debf"/>
        <path id="Trazado_798760" data-name="Trazado 798760" d="M187.551,202.245a7.785,7.785,0,0,0-2.618-2.828v6.864Z" transform="translate(-80.356 -86.649)" fill="#27debf"/>
        <path id="Trazado_798761" data-name="Trazado 798761" d="M189.172,208.781a13.74,13.74,0,0,0-1.621-4.363l-2.618,4.036Z" transform="translate(-80.356 -88.822)" fill="#27debf"/>
        <g id="Grupo_1065034" data-name="Grupo 1065034" transform="translate(104.577 112.768)" opacity="0.3">
          <g id="Grupo_1065033" data-name="Grupo 1065033">
            <g id="Grupo_1065032" data-name="Grupo 1065032" clip-path="url(#clip-path-18)">
              <path id="Trazado_798762" data-name="Trazado 798762" d="M187.551,202.245a13.759,13.759,0,0,1,1.621,4.363l-4.239-.327v-6.864a7.785,7.785,0,0,1,2.618,2.828" transform="translate(-184.933 -199.417)"/>
            </g>
          </g>
        </g>
        <path id="Trazado_798763" data-name="Trazado 798763" d="M179.057,199.072a3.671,3.671,0,0,0-1.621,2.492l4.239,4.569Z" transform="translate(-77.098 -86.499)" fill="#27debf"/>
        <path id="Trazado_798764" data-name="Trazado 798764" d="M189.172,216.125a8.565,8.565,0,0,0,.219-1.994,12.233,12.233,0,0,0-.219-2.248l-4.239-.327Z" transform="translate(-80.356 -91.924)" fill="#27debf"/>
        <path id="Trazado_798765" data-name="Trazado 798765" d="M177.436,210.978a13.741,13.741,0,0,0,1.621,4.363l2.618-4.036Z" transform="translate(-77.098 -91.672)" fill="#27debf"/>
        <path id="Trazado_798766" data-name="Trazado 798766" d="M184.933,218.421a2.593,2.593,0,0,0,2.618.2l-2.618-7.06Z" transform="translate(-80.356 -91.924)" fill="#27debf"/>
        <path id="Trazado_798767" data-name="Trazado 798767" d="M189.172,216.125l-4.239-4.569,2.618,7.06a3.672,3.672,0,0,0,1.621-2.492" transform="translate(-80.356 -91.924)" fill="#27debf"/>
        <path id="Trazado_798768" data-name="Trazado 798768" d="M177.267,203.478a8.565,8.565,0,0,0-.219,1.994,12.235,12.235,0,0,0,.219,2.248l4.239.327Z" transform="translate(-76.929 -88.414)" fill="#27debf"/>
        <path id="Trazado_798769" data-name="Trazado 798769" d="M180.3,215.593a7.785,7.785,0,0,0,2.618,2.828v-6.864Z" transform="translate(-78.344 -91.924)" fill="#27debf"/>
        <path id="Trazado_798770" data-name="Trazado 798770" d="M185.135,227.858l-4.448-2.581c-.225-.13-.408-.037-.408.206a.875.875,0,0,0,.408.677l4.448,2.581c.226.13.408.038.408-.206a.877.877,0,0,0-.408-.677" transform="translate(-78.333 -97.86)" fill="#455a64"/>
        <path id="Trazado_798771" data-name="Trazado 798771" d="M185.361,232.691l-6.41-3.719c-.226-.13-.408-.037-.408.206a.874.874,0,0,0,.408.677l6.41,3.719c.226.13.408.038.408-.206a.875.875,0,0,0-.408-.677" transform="translate(-77.579 -99.465)" fill="#e0e0e0"/>
        <path id="Trazado_798772" data-name="Trazado 798772" d="M185.361,237.392l-6.41-3.719c-.226-.13-.408-.037-.408.206a.874.874,0,0,0,.408.677l6.41,3.719c.226.13.408.038.408-.206a.875.875,0,0,0-.408-.677" transform="translate(-77.579 -101.508)" fill="#e0e0e0"/>
        <path id="Trazado_798773" data-name="Trazado 798773" d="M185.361,242.093l-6.41-3.719c-.226-.13-.408-.037-.408.206a.874.874,0,0,0,.408.677l6.41,3.719c.226.13.408.038.408-.206a.875.875,0,0,0-.408-.677" transform="translate(-77.579 -103.551)" fill="#e0e0e0"/>
        <path id="Trazado_798774" data-name="Trazado 798774" d="M154.487,182.582a2.594,2.594,0,0,0-2.619-.2l2.619,7.06Z" transform="translate(-65.988 -79.132)" fill="#27debf"/>
        <path id="Trazado_798775" data-name="Trazado 798775" d="M159.116,185.767a7.785,7.785,0,0,0-2.618-2.828V189.8Z" transform="translate(-68 -79.489)" fill="#27debf"/>
        <path id="Trazado_798776" data-name="Trazado 798776" d="M160.737,192.3a13.74,13.74,0,0,0-1.621-4.363l-2.618,4.036Z" transform="translate(-68 -81.663)" fill="#27debf"/>
        <path id="Trazado_798777" data-name="Trazado 798777" d="M150.622,182.594A3.671,3.671,0,0,0,149,185.086l4.239,4.569Z" transform="translate(-64.743 -79.339)" fill="#27debf"/>
        <path id="Trazado_798778" data-name="Trazado 798778" d="M160.737,199.648a8.562,8.562,0,0,0,.219-1.994,12.234,12.234,0,0,0-.219-2.248l-4.239-.327Z" transform="translate(-68 -84.764)" fill="#27debf"/>
        <path id="Trazado_798779" data-name="Trazado 798779" d="M149,194.5a13.754,13.754,0,0,0,1.621,4.363l2.618-4.036Z" transform="translate(-64.743 -84.513)" fill="#27debf"/>
        <path id="Trazado_798780" data-name="Trazado 798780" d="M156.5,201.944a2.592,2.592,0,0,0,2.618.2l-2.618-7.06Z" transform="translate(-68.001 -84.764)" fill="#27debf"/>
        <path id="Trazado_798781" data-name="Trazado 798781" d="M160.737,199.648l-4.239-4.569,2.618,7.06a3.672,3.672,0,0,0,1.621-2.492" transform="translate(-68 -84.764)" fill="#27debf"/>
        <g id="Grupo_1065037" data-name="Grupo 1065037" transform="translate(88.498 103.45)" opacity="0.3">
          <g id="Grupo_1065036" data-name="Grupo 1065036">
            <g id="Grupo_1065035" data-name="Grupo 1065035" clip-path="url(#clip-path-19)">
              <path id="Trazado_798782" data-name="Trazado 798782" d="M159.116,185.767a13.745,13.745,0,0,1,1.621,4.363,12.235,12.235,0,0,1,.219,2.248,8.562,8.562,0,0,1-.219,1.994,3.671,3.671,0,0,1-1.621,2.492L156.5,189.8v-6.864a7.785,7.785,0,0,1,2.618,2.828" transform="translate(-156.499 -182.939)"/>
            </g>
          </g>
        </g>
        <path id="Trazado_798783" data-name="Trazado 798783" d="M148.832,187a8.565,8.565,0,0,0-.219,1.994,12.235,12.235,0,0,0,.219,2.248l4.239.327Z" transform="translate(-64.574 -81.254)" fill="#27debf"/>
        <path id="Trazado_798784" data-name="Trazado 798784" d="M151.868,199.115a7.785,7.785,0,0,0,2.618,2.828v-6.864Z" transform="translate(-65.988 -84.764)" fill="#27debf"/>
        <path id="Trazado_798785" data-name="Trazado 798785" d="M156.7,211.442l-4.449-2.581c-.225-.13-.408-.037-.408.206a.875.875,0,0,0,.408.677l4.449,2.581c.225.13.408.038.407-.206a.876.876,0,0,0-.407-.677" transform="translate(-65.978 -90.727)" fill="#455a64"/>
        <path id="Trazado_798786" data-name="Trazado 798786" d="M156.927,216.274l-6.41-3.719c-.226-.13-.408-.037-.408.206a.874.874,0,0,0,.408.677l6.41,3.719c.226.13.408.038.408-.206a.875.875,0,0,0-.408-.677" transform="translate(-65.224 -92.332)" fill="#e0e0e0"/>
        <path id="Trazado_798787" data-name="Trazado 798787" d="M156.927,220.976l-6.41-3.719c-.226-.13-.408-.037-.408.206a.874.874,0,0,0,.408.677l6.41,3.719c.226.13.408.038.408-.206a.875.875,0,0,0-.408-.677" transform="translate(-65.224 -94.375)" fill="#e0e0e0"/>
        <path id="Trazado_798788" data-name="Trazado 798788" d="M156.927,225.677l-6.41-3.719c-.226-.13-.408-.037-.408.206a.874.874,0,0,0,.408.677l6.41,3.719c.226.13.408.038.408-.206a.875.875,0,0,0-.408-.677" transform="translate(-65.224 -96.418)" fill="#e0e0e0"/>
      </g>
    </g>
    <g id="Grupo_1065056" data-name="Grupo 1065056">
      <g id="Grupo_1065055" data-name="Grupo 1065055" clip-path="url(#clip-path)">
        <path id="Trazado_798789" data-name="Trazado 798789" d="M156.648,340.685a7.55,7.55,0,0,1,3.215-6.027,2.411,2.411,0,0,1,2.382-.33v0c3.783,1.9,30.371,18.947,32.071,19.786l.022.011a1.211,1.211,0,0,1,.539,1.1,3.8,3.8,0,0,1-1.62,3.037,1.208,1.208,0,0,1-1.214.159l-.024-.013c-2.692-1.483-28.931-12.665-34.3-15.542h0l0,0h0a2.4,2.4,0,0,1-1.07-2.175" transform="translate(-68.064 -145.188)" fill="#ff5a20"/>
        <g id="Grupo_1065042" data-name="Grupo 1065042" transform="translate(89.629 188.953)" opacity="0.1">
          <g id="Grupo_1065041" data-name="Grupo 1065041">
            <g id="Grupo_1065040" data-name="Grupo 1065040" clip-path="url(#clip-path-21)">
              <path id="Trazado_798790" data-name="Trazado 798790" d="M158.5,337.009a6.817,6.817,0,0,1,2.17-2.351,2.414,2.414,0,0,1,2.375-.332c.127.07.166.092.077.042,3.454,1.767,23.24,14.389,29.9,18.492l.044.027.269.166.082.05.152.093.178.109.014.008c.7.43,1.18.71,1.363.8l.022.011a.838.838,0,0,1,.156.121,1.33,1.33,0,0,1,.383.975,2.559,2.559,0,0,1-.019.381c-.006.049-.015.1-.023.148-.012.078-.028.155-.046.233-.015.062-.031.124-.049.186s-.046.145-.072.218c-.019.054-.037.109-.059.162l-.012.026Z" transform="translate(-158.499 -334.141)"/>
            </g>
          </g>
        </g>
        <path id="Trazado_798791" data-name="Trazado 798791" d="M220.059,373.548a3.788,3.788,0,0,0,1.614-3.025c-.037-1.093-.819-1.51-1.747-.932a3.789,3.789,0,0,0-1.613,3.025c.037,1.092.818,1.51,1.746.933" transform="translate(-94.859 -160.479)" fill="#d23d08"/>
        <path id="Trazado_798792" data-name="Trazado 798792" d="M228.524,374.748a2.912,2.912,0,0,1-1.24,2.324.927.927,0,0,1-.923.124h0l0,0h0l-6.431-3.424,0,0h0a.927.927,0,0,1-.411-.837,2.91,2.91,0,0,1,1.24-2.324.927.927,0,0,1,.928-.123l6.43,3.423h0a.922.922,0,0,1,.418.84" transform="translate(-95.379 -160.947)" fill="#37474f"/>
        <path id="Trazado_798793" data-name="Trazado 798793" d="M228.512,373.907a.922.922,0,0,1,.418.84,2.5,2.5,0,0,1-.195.992l-8.293-4.424a2.493,2.493,0,0,1,.712-.708.927.927,0,0,1,.928-.123l6.43,3.423Z" transform="translate(-95.785 -160.946)" fill="#263238"/>
        <path id="Trazado_798794" data-name="Trazado 798794" d="M220.863,375.8V383.4c0,4.121,2.723,8.242,8.169,11.386,10.892,6.289,28.552,6.289,39.444,0,5.446-3.144,8.169-7.265,8.169-11.386V375.8c0-4.121-2.723-8.242-8.169-11.386-10.892-6.289-28.552-6.289-39.444,0-5.446,3.144-8.168,7.265-8.169,11.387Zm53.085,0c0,3.3-2.423,6.511-6.82,9.05-4.864,2.809-11.39,4.355-18.373,4.355s-13.51-1.547-18.374-4.355c-4.4-2.539-6.82-5.753-6.82-9.05s2.421-6.512,6.82-9.051c4.864-2.809,11.389-4.355,18.374-4.355s13.509,1.547,18.373,4.355c4.4,2.539,6.82,5.753,6.82,9.051" transform="translate(-95.968 -156.295)" fill="#ff5a20"/>
        <g id="Grupo_1065045" data-name="Grupo 1065045" transform="translate(124.897 203.407)" opacity="0.3">
          <g id="Grupo_1065044" data-name="Grupo 1065044">
            <g id="Grupo_1065043" data-name="Grupo 1065043" clip-path="url(#clip-path-22)">
              <path id="Trazado_798795" data-name="Trazado 798795" d="M268.48,364.418c-10.892-6.288-28.552-6.288-39.445,0s-10.892,16.485,0,22.773,28.552,6.289,39.444,0,10.892-16.485,0-22.773m-1.349,20.437c-4.864,2.809-11.389,4.355-18.373,4.355s-13.509-1.547-18.374-4.355c-4.4-2.539-6.82-5.753-6.82-9.05s2.421-6.512,6.82-9.051c4.864-2.808,11.39-4.355,18.374-4.355s13.509,1.547,18.373,4.355c4.4,2.54,6.82,5.754,6.82,9.051s-2.423,6.511-6.82,9.05" transform="translate(-220.866 -359.702)" fill="#fff"/>
            </g>
          </g>
        </g>
        <path id="Trazado_798796" data-name="Trazado 798796" d="M276.025,377.876a7.481,7.481,0,0,1-1.09,3.8,15.2,15.2,0,0,0-5.735-5.255c-4.86-2.81-11.388-4.359-18.374-4.359s-13.508,1.548-18.369,4.359a15.264,15.264,0,0,0-5.74,5.255,7.53,7.53,0,0,1-1.085-3.8c0-3.3,2.423-6.512,6.824-9.052,4.861-2.805,11.388-4.353,18.369-4.353s13.514,1.548,18.374,4.353c4.4,2.541,6.824,5.756,6.824,9.052" transform="translate(-98.04 -158.367)" fill="#ff5a20"/>
        <g id="Grupo_1065048" data-name="Grupo 1065048" transform="translate(127.593 204.292)" opacity="0.1">
          <g id="Grupo_1065047" data-name="Grupo 1065047">
            <g id="Grupo_1065046" data-name="Grupo 1065046" clip-path="url(#clip-path-23)">
              <path id="Trazado_798797" data-name="Trazado 798797" d="M276.025,377.876a7.481,7.481,0,0,1-1.09,3.8,15.2,15.2,0,0,0-5.735-5.255c-4.86-2.81-11.388-4.359-18.374-4.359s-13.508,1.548-18.369,4.359a15.264,15.264,0,0,0-5.74,5.255,7.53,7.53,0,0,1-1.085-3.8c0-3.3,2.423-6.512,6.824-9.052,4.861-2.805,11.388-4.353,18.369-4.353s13.514,1.548,18.374,4.353c4.4,2.541,6.824,5.756,6.824,9.052" transform="translate(-225.633 -362.471)"/>
            </g>
          </g>
        </g>
        <g id="Grupo_1065051" data-name="Grupo 1065051" transform="translate(127.819 209.541)" opacity="0.4">
          <g id="Grupo_1065050" data-name="Grupo 1065050">
            <g id="Grupo_1065049" data-name="Grupo 1065049" clip-path="url(#clip-path-24)">
              <path id="Trazado_798798" data-name="Trazado 798798" d="M269.376,374.9c-4.864-2.808-11.389-4.355-18.373-4.355s-13.51,1.547-18.374,4.355c-3.629,2.1-5.908,4.651-6.6,7.332.688,2.682,2.967,5.236,6.6,7.332,4.865,2.808,11.39,4.355,18.374,4.355s13.509-1.547,18.373-4.355c3.629-2.1,5.908-4.651,6.6-7.332-.688-2.682-2.967-5.237-6.6-7.332" transform="translate(-226.033 -370.549)" fill="#fff"/>
            </g>
          </g>
        </g>
        <g id="Grupo_1065054" data-name="Grupo 1065054" transform="translate(159.36 217.023)" opacity="0.1">
          <g id="Grupo_1065053" data-name="Grupo 1065053">
            <g id="Grupo_1065052" data-name="Grupo 1065052" clip-path="url(#clip-path-25)">
              <path id="Trazado_798799" data-name="Trazado 798799" d="M281.81,401.922v7.585a36.529,36.529,0,0,0,13.147-4.262c5.448-3.145,8.173-7.267,8.173-11.388v-7.591a9.592,9.592,0,0,0-.335-2.487h-.005c1.322,4.9-1.29,10.094-7.833,13.875a36.622,36.622,0,0,1-13.147,4.267" transform="translate(-281.81 -383.779)"/>
            </g>
          </g>
        </g>
      </g>
    </g>
    <g id="Grupo_1065064" data-name="Grupo 1065064">
      <g id="Grupo_1065063" data-name="Grupo 1065063" clip-path="url(#clip-path)">
        <path id="Trazado_798800" data-name="Trazado 798800" d="M46.39,329.215c-.33.133-.4.77-.422,2.032-.017.955-.183,2.625.942,2.932a3.5,3.5,0,0,0,3.454-.815c.869-1.142,1.45-2.144,2.7-3.542,1.08-1.213,2.252-2.349,2.661-4.025.369-1.514.019-2.16-1.018-2.575-1.426-.57-3.6,1.447-4.7,1.781-.947.288-3.281,4.078-3.611,4.212" transform="translate(-19.966 -140.4)" fill="#263238"/>
        <path id="Trazado_798801" data-name="Trazado 798801" d="M46.682,331.327l.035,1.548a3.79,3.79,0,0,0,3.914.018c.064-.151.356-2.224.356-2.224Z" transform="translate(-20.284 -143.68)" fill="#ffa8a7"/>
        <path id="Trazado_798802" data-name="Trazado 798802" d="M68.589,349.166s-.414,1.357-.627,2.539a6.825,6.825,0,0,0-.063,3.207c.343.7,1.632,1.122,3.613,1.062A11.642,11.642,0,0,1,76.2,357.5a12.3,12.3,0,0,0,5.874.8c1.759-.247,3.563-1.31,3.831-2.047s-.127-1.487-4.323-3.164c-.038-.015-5.819-1.752-7.88-3.926Z" transform="translate(-29.427 -151.712)" fill="#263238"/>
        <path id="Trazado_798803" data-name="Trazado 798803" d="M69.187,346.207s.032,1.148.041,1.806.806,1.617,2.812,1.5c1.409-.082,2.385-.483,2.3-1.643L74.3,346.2Z" transform="translate(-30.063 -150.426)" fill="#ffa8a7"/>
        <path id="Trazado_798804" data-name="Trazado 798804" d="M44,262.577a42.087,42.087,0,0,1,1.647-8.1s-.71-6.944-1.124-13.533c-.447-7.118-.861-10.783.539-21.062,0,0,21.822-1.961,22.417,6.266s-.25,29.218-.44,32.842-.744,6.837-1.359,12.718c-.607,5.8-2.367,19.516-2.367,19.516a5.43,5.43,0,0,1-5.117.011s-1.989-16.43-1.913-20.608a35.676,35.676,0,0,1,1.378-9.147s-.589-6.78-1.107-12.678-.989-8.725-1.136-11.293l-.5-.234s-.275,10.2-.465,13.824-.688,7.106-1.583,13.849c-.777,5.85-3.2,18.245-3.2,18.245-2.594,1.479-4.2-.092-4.2-.092S43.405,267.651,44,262.577" transform="translate(-19.072 -95.451)" fill="#37474f"/>
        <path id="Trazado_798805" data-name="Trazado 798805" d="M57.754,247.335s-5.638-2.622-8.485-5.038a18.456,18.456,0,0,0,6.112,5.135s1.5,12.631,1.483,12.38l.418-12.485Z" transform="translate(-21.408 -105.281)" fill="#263238"/>
        <path id="Trazado_798806" data-name="Trazado 798806" d="M65.065,166.942l-.85,7.535-7.116-.359.791-8.793Z" transform="translate(-24.81 -71.835)" fill="#ffa8a7"/>
        <path id="Trazado_798807" data-name="Trazado 798807" d="M46.574,173.27c-2.649-.122-3.994.276-5.184,2.561s-1.656,9.112-2.07,12.632-.518,6,.931,6.366a64.5,64.5,0,0,0,7.089.517Z" transform="translate(-16.968 -75.279)" fill="#37474f"/>
        <path id="Trazado_798808" data-name="Trazado 798808" d="M44.262,177.152a5.446,5.446,0,0,1,5.752-3.9q.9.147,1.761.3c.312,1.267,3.785,2.06,7.1,1.279,1,.263,4.293.879,5.126,1.156,2.385.792,3.369,3.139,3.741,10.917,0,0-.191,17.613-.1,21.122a28.7,28.7,0,0,1-15.5,1.882c-7.145-1.393-8.069-4.323-8.069-4.323l1.064-8.058s-1.746-15.6-.878-20.37" transform="translate(-19.127 -75.256)" fill="#455a64"/>
        <path id="Trazado_798809" data-name="Trazado 798809" d="M64.257,171.615l-.054.474a10.558,10.558,0,0,1-4.368,0c-2.312-.514-2.779-1.167-2.779-1.167l.048-.538s-.575-.213-.878.672a9.645,9.645,0,0,0-.334,1.081s-.267,1.618,2.451,2.443a8.4,8.4,0,0,0,6.768-.739l1.066.225s-.922-2.125-1.2-2.555a.708.708,0,0,0-.667-.369Z" transform="translate(-24.283 -74.024)" fill="#37474f"/>
        <path id="Trazado_798810" data-name="Trazado 798810" d="M104.439,158.291l14.109,7.363-7.011,19.169L98.37,177.447Z" transform="translate(-42.743 -68.779)" fill="#455a64"/>
        <path id="Trazado_798811" data-name="Trazado 798811" d="M106.087,161.61l11.837,6.177-6.2,16.479-11.046-6.188Z" transform="translate(-43.744 -70.221)" fill="#f5f5f5"/>
        <g id="Grupo_1065059" data-name="Grupo 1065059" transform="translate(64.841 92.423)" opacity="0.15">
          <g id="Grupo_1065058" data-name="Grupo 1065058">
            <g id="Grupo_1065057" data-name="Grupo 1065057" clip-path="url(#clip-path-27)">
              <path id="Trazado_798812" data-name="Trazado 798812" d="M114.663,164.183l.229-.586c.127-.323,1.112-.131,2.2.431l2.085,1.076c1.089.562,1.868,1.28,1.742,1.6l-.229.586Z" transform="translate(-114.663 -163.44)"/>
            </g>
          </g>
        </g>
        <path id="Trazado_798813" data-name="Trazado 798813" d="M114.958,160.464c.078-.2.507-.169.958.074l.816.441s.5-1.266,2.38-.39,1.448,2.345,1.448,2.345l.866.477c.478.264.819.644.761.85l-.106.373-7.268-3.792s.066-.174.144-.377" transform="translate(-49.888 -69.644)" fill="#27debf"/>
        <path id="Trazado_798814" data-name="Trazado 798814" d="M116.381,161.893c.676.333.942.493.748.992-.222.57-.429.979-.429.979l3.215,1.682s.268-.725.385-1,.352-.413.864-.146l.191-.2-5.071-2.584Z" transform="translate(-50.526 -70.221)" fill="#27debf"/>
        <g id="Grupo_1065062" data-name="Grupo 1065062" transform="translate(65.757 91.389)" opacity="0.3">
          <g id="Grupo_1065061" data-name="Grupo 1065061">
            <g id="Grupo_1065060" data-name="Grupo 1065060" clip-path="url(#clip-path-28)">
              <path id="Trazado_798815" data-name="Trazado 798815" d="M116.381,161.893c.676.333.942.493.748.992-.222.57-.429.979-.429.979l3.215,1.682s.268-.725.385-1,.352-.413.864-.146l.191-.2-5.071-2.584Z" transform="translate(-116.283 -161.61)"/>
            </g>
          </g>
        </g>
        <path id="Trazado_798816" data-name="Trazado 798816" d="M114.42,164.237s.1-.262.229-.586,1.111-.131,2.2.431l2.085,1.076c1.089.562,1.868,1.28,1.742,1.6l-.229.586Z" transform="translate(-49.717 -71.04)" fill="#27debf"/>
        <path id="Trazado_798817" data-name="Trazado 798817" d="M78.329,178.122c3.257.283,4.645.876,7.09,5.286,2.654,4.785,7.755,13.446,8.4,14.54a5.8,5.8,0,0,1,.293,5.232c-.725,1.3-3.028,1.9-5.637-1.046-3.1-3.505-8.877-12.067-8.877-12.067s-4.905-6.471-1.271-11.945" transform="translate(-33.452 -77.396)" fill="#ffa8a7"/>
        <path id="Trazado_798818" data-name="Trazado 798818" d="M104.684,205.489c2.5-.3,8.329-8.214,9.987-10.8a18.436,18.436,0,0,1,5.053-5.331c2.643-1.953,2.258-4.952,1.1-7.7-.4-.952-1.754-.333-1.754-.333l-.477,1.3-.826,2.259c-.56.52-.878.689-.916.534-.07-.291.412-1.507.4-2.773-.014-1.523-1.081-.522-1.4.012a18.991,18.991,0,0,0-1.126,2.518c-.532,1.363-.312,2.744-.96,3.673s-9.348,9.266-9.348,9.266Z" transform="translate(-45.372 -78.702)" fill="#ffa8a7"/>
        <path id="Trazado_798819" data-name="Trazado 798819" d="M77.338,177.817a6.959,6.959,0,0,1,6.181,2.652c1.837,2.387,9.188,15.364,9.188,15.364l4.126-3.7a7.188,7.188,0,0,1,3.172,4.484,44.687,44.687,0,0,1-3.736,5.07c-1.743,1.914-3.689,3.24-5.283,2.653s-3.223-1.851-6.657-6.631-7.181-10.423-7.181-10.423-2.366-5.512.188-9.47" transform="translate(-33.089 -77.262)" fill="#37474f"/>
        <path id="Trazado_798820" data-name="Trazado 798820" d="M80.05,151.873s1.776,2.7,1.574,2.96-1.51.5-1.51.5Z" transform="translate(-34.783 -65.991)" fill="#f28f8f"/>
        <path id="Trazado_798821" data-name="Trazado 798821" d="M74.837,149.566a2.117,2.117,0,1,1,2.117,2.117,2.119,2.119,0,0,1-2.117-2.117m.471,0a1.646,1.646,0,1,0,1.646-1.646,1.648,1.648,0,0,0-1.646,1.646" transform="translate(-32.518 -64.068)" fill="#263238"/>
        <path id="Trazado_798822" data-name="Trazado 798822" d="M62.815,138.416c3.595.758,4.633,2.338,4.972,8.049.353,5.968-.256,7.843-1.039,8.647-.529.542-3.47.64-4.954.231-1.856-.512-6.052-2-8.018-5-2.312-3.531-2.919-8.318-.444-10.281,3.483-2.763,8.02-1.954,9.483-1.646" transform="translate(-22.48 -59.99)" fill="#ffa8a7"/>
        <path id="Trazado_798823" data-name="Trazado 798823" d="M71.1,168.071l.167-1.1a7.111,7.111,0,0,0,3.686.836,8.911,8.911,0,0,1-3.853.264" transform="translate(-30.895 -72.551)" fill="#f28f8f"/>
        <path id="Trazado_798824" data-name="Trazado 798824" d="M77.061,150.41l-6.392.827.258.45,6.134-.8Z" transform="translate(-30.707 -65.355)" fill="#263238"/>
        <path id="Trazado_798825" data-name="Trazado 798825" d="M65.907,136.588a1.994,1.994,0,0,1-.811-.049,1.281,1.281,0,0,1-.438,1.5,1.811,1.811,0,0,1-1.612.214,1.556,1.556,0,0,1,.176,1.111,1.8,1.8,0,0,1-1.862,1.344c-.038.835-.049,1.652-.94,2.033,0,0-.568-2.206-2.427-1.929s-2.124,2.665-.945,4.114,2.265.9,2.278.893c-.109.054-.146.758-.184.891a6.477,6.477,0,0,1-.478,1.206,5.76,5.76,0,0,1-1.682,1.972,4.142,4.142,0,0,1-3.373.939,3.627,3.627,0,0,1-2.458-1.977,2.117,2.117,0,0,0-.4-.714,2.356,2.356,0,0,0-.916-.4,2.694,2.694,0,0,1-1.522-3.8,2.467,2.467,0,0,1-.944-4.309,2.96,2.96,0,0,1-1.273-3.212,3.009,3.009,0,0,1,2.125-2.038c.726-.21.447-.324.671-1.035a2.606,2.606,0,0,1,3.311-1.708,2.511,2.511,0,0,1,1.8-1.931,2.476,2.476,0,0,1,1.268-.05c.3.077.912.355,1.024.64.378-.372.5-.863.962-1.2a2.724,2.724,0,0,1,4.013.858,3.351,3.351,0,0,1,2.511-1.056,2.745,2.745,0,0,1,2.289,1.4,2.332,2.332,0,0,1-.308,2.614,2.681,2.681,0,0,1,1.388,1.2,1.683,1.683,0,0,1-.2,1.876,1.454,1.454,0,0,1-.7.523,2.06,2.06,0,0,1-.34.079" transform="translate(-19.988 -55.857)" fill="#263238"/>
        <path id="Trazado_798826" data-name="Trazado 798826" d="M71.515,153.946l-.066-2.5a1.248,1.248,0,0,1,.066,2.5" transform="translate(-31.045 -65.806)" fill="#263238"/>
      </g>
    </g>
  </g>
</svg>
