<svg xmlns="http://www.w3.org/2000/svg" xmlns:xlink="http://www.w3.org/1999/xlink" width="505" height="397" viewBox="0 0 505 397">
  <defs>
    <clipPath id="clip-path">
      <path id="Intersección_1" data-name="Intersección 1" d="M0,13.766a2.842,2.842,0,0,0,2.532-1.782,4.066,4.066,0,0,0,.275-1.459C2.834,8.255,3.611,0,3.611,0L19.186,8.117l.062,2.889a13.236,13.236,0,0,0,3.9,8.482c1.073.929.984,1.968-2.9,2.655a15.244,15.244,0,0,1-1.911.115C11.561,22.26,3.137,18.239,0,13.766Zm3.151-3.24a4.388,4.388,0,0,1-.3,1.589A3.115,3.115,0,0,1,.592,13.992c3.728,4.816,13.228,8.62,19.619,7.815,2.676-.482,3.11-1.06,3.172-1.287s-.214-.557-.461-.771A13.508,13.508,0,0,1,18.9,11.014l-.062-2.683L3.907.544C3.735,2.374,3.178,8.6,3.151,10.525Z" fill="none"/>
    </clipPath>
    <clipPath id="clip-path-2">
      <path id="Trazado_798458" data-name="Trazado 798458" d="M94.691,177.322c-4.705,3.034-8.668,6.191-10.415,16.09A25.232,25.232,0,0,0,86.7,210.039a25.838,25.838,0,0,0,3.508,4.637c2.676,2.992,14.309,6.838,17.707,6.611s7.808-6.074,9.479-14.446.048-10.319-2.325-21.064-8.186-11.8-8.186-11.8A19.467,19.467,0,0,0,94.691,177.322Z" transform="translate(-83.849 -173.909)" fill="none"/>
    </clipPath>
    <clipPath id="clip-path-3">
      <path id="Trazado_798471" data-name="Trazado 798471" d="M86.31,220.332S84.054,222,81.736,219.4s-4.031-7.072-1.376-8.812,5.414,4.492,5.414,4.492" transform="translate(-79.015 -210.284)" fill="none"/>
    </clipPath>
    <clipPath id="clip-path-4">
      <path id="Intersección_2" data-name="Intersección 2" d="M4.91,67.123C-2.458,62,.651,54.135.651,54.121c.3-1.376,11.206-41.962,12-43.861C14.712,5.355,18.152-1.1,23.3.161c15.3,3.728-6.707,57.276-6.707,57.276.894.839,13.572,15.423,19.777,22.412-1.747,2.27-2.676,4.664-4.416,6.934C24.22,83.454,13.557,73.128,4.91,67.123ZM12.965,10.4C12.277,12.062,1.5,51.851.989,54.19A10.7,10.7,0,0,0,5.116,66.841c3.192,2.215,6.721,5.07,10.126,7.828,5.806,4.692,11.8,9.548,16.613,11.695a31.843,31.843,0,0,0,2.009-3.206,33.888,33.888,0,0,1,2.064-3.295c-2.538-2.855-6.061-6.879-9.473-10.766-4.939-5.613-9.583-10.924-10.1-11.406a.35.35,0,0,1-.089-.385c.172-.413,16.929-41.488,10.718-53.658A5.643,5.643,0,0,0,23.222.533a4.989,4.989,0,0,0-1.2-.186C17.767.347,14.85,5.981,12.965,10.4Z" fill="none"/>
    </clipPath>
    <clipPath id="clip-path-5">
      <path id="Intersección_3" data-name="Intersección 3" d="M12.306,92.568c-.371-17.452,7.505-25.226.688-41.275C8.867,41.662,2.07,30.814.777,20.4c-.949-7.657-1.816-13.594,2.47-17.6A10.815,10.815,0,0,1,10.229.043c23.114-.991,37.4,15.272,37.4,15.272,7.023,6.879,12.527,19.069,11.633,28.892-1.218,13.311-.131,5.346,1.878,18.574,2.628,17.308,3,37.835,3,37.835a71.607,71.607,0,0,1-18.207,2.3C32.49,102.916,19.507,99.316,12.306,92.568ZM10.27.3A10.43,10.43,0,0,0,3.515,2.981C-.537,6.765.171,12.467,1.073,19.683l.076.605c.88,7.312,4.568,14.879,8.131,22.165,1.465,3,2.848,5.833,4.031,8.626,4.245,9.989,2.862,16.785,1.259,24.648A71.118,71.118,0,0,0,12.65,92.355c10.092,9.342,32.463,12.809,51.14,7.938A337.17,337.17,0,0,0,60.8,62.8a42.4,42.4,0,0,0-1.85-8.331c-.688-1.926-.764-2.229,0-10.319.825-9.046-4.128-21.325-11.53-28.589C47.277,15.4,33.727.271,12.079.27,11.481.27,10.879.281,10.27.3Z" fill="none"/>
    </clipPath>
    <clipPath id="clip-path-6">
      <path id="Intersección_4" data-name="Intersección 4" d="M35.716,53.685A83.354,83.354,0,0,1,3.487,21.656C.674,16.641-1.576,10.285,1.423,5.366,3.755,1.5,9.493-1.155,13.689.5c3.247,1.28,5.5,4.224,7.567,7.044C25.2,12.989,36.019,30.248,37.7,32.828c8.6-8.619,17.2-18.092,25.15-27.324,1.506-1.817,9.19,2.167,10.5,5.6C66.418,24.47,60.227,35.18,50.582,46.71A24.62,24.62,0,0,1,43.572,53a10.466,10.466,0,0,1-4.794,1.527A6.237,6.237,0,0,1,35.716,53.685ZM1.685,5.538C-.668,9.432.034,14.8,3.748,21.477a83.688,83.688,0,0,0,32.1,31.905c2.545,1.376,4.692.812,7.525-.688A23.2,23.2,0,0,0,50.251,46.5C59.669,35.215,65.915,24.58,72.9,11.1c-1.031-2.359-5.393-5.146-8.145-5.62-.867-.151-1.493-.055-1.768.261C54.214,15.946,45.746,25.144,37.828,33.075a.338.338,0,0,1-.276.1.367.367,0,0,1-.254-.152c-.433-.688-1.472-2.291-2.841-4.451C30.467,22.3,23.787,11.784,20.871,7.76,18.717,4.8,16.537,2.037,13.475.833a7.135,7.135,0,0,0-2.6-.5A11.517,11.517,0,0,0,1.685,5.538Z" fill="none"/>
    </clipPath>
  </defs>
  <g id="Grupo_1066785" data-name="Grupo 1066785" transform="translate(-810 -791)">
    <path id="Trazado_800443" data-name="Trazado 800443" d="M20,0H485a20,20,0,0,1,20,20V377a20,20,0,0,1-20,20H20A20,20,0,0,1,0,377V20A20,20,0,0,1,20,0Z" transform="translate(810 791)" fill="#ff5a20"/>
    <path id="Trazado_800444" data-name="Trazado 800444" d="M153.151,16.627h5.212L157.95,19h-8.218l2.215-12.8h3.015ZM164.515,19a2.578,2.578,0,0,1-.123-.861,2.933,2.933,0,0,1-2.329,1.037,2.866,2.866,0,0,1-2.057-.826,2.483,2.483,0,0,1-.765-1.96,2.79,2.79,0,0,1,1.292-2.377,6.091,6.091,0,0,1,3.41-.831l.967.018.105-.536.035-.466a.755.755,0,0,0-.8-.826,1.111,1.111,0,0,0-1.169,1.046l-2.9.009a2.754,2.754,0,0,1,.624-1.666,3.7,3.7,0,0,1,1.578-1.09,5.512,5.512,0,0,1,2.123-.356,4.251,4.251,0,0,1,1.894.453,2.82,2.82,0,0,1,1.217,1.187,3.031,3.031,0,0,1,.308,1.753l-.712,4.474-.044.545a2.4,2.4,0,0,0,.167,1.107l-.009.167Zm-1.652-1.916a1.865,1.865,0,0,0,1.556-.782l.29-1.529-.747-.009a1.969,1.969,0,0,0-1.2.409,1.55,1.55,0,0,0-.589,1.068.778.778,0,0,0,.136.593A.7.7,0,0,0,162.863,17.084Zm9.932-7.6-.2,1.143a3.38,3.38,0,0,1,2.751-1.318,2.27,2.27,0,0,1,1.964.98,4.1,4.1,0,0,1,.47,2.729l-1,5.985h-2.9l1.011-6.01a3.108,3.108,0,0,0,.018-.563q-.062-.836-.984-.836a1.807,1.807,0,0,0-1.4.678L171.335,19h-2.892L170.1,9.49Zm6.117,4.746a6.917,6.917,0,0,1,1.371-3.6,3.4,3.4,0,0,1,2.865-1.31,2.592,2.592,0,0,1,2.013,1.02l.923-4.834h2.9L186.646,19h-2.575l.123-1.028a2.968,2.968,0,0,1-2.364,1.213,2.62,2.62,0,0,1-2.149-1.015,4.476,4.476,0,0,1-.831-2.676,8.231,8.231,0,0,1,.035-1.081Zm2.883.2a6.9,6.9,0,0,0-.062.984q0,1.459.984,1.485a1.844,1.844,0,0,0,1.521-.817l.65-3.647a1.171,1.171,0,0,0-1.16-.835,1.478,1.478,0,0,0-1.305.7A4.507,4.507,0,0,0,181.794,14.43Zm9.6,4.57h-2.9l1.652-9.51h2.9ZM190.4,7.091a1.341,1.341,0,0,1,.453-1.072,1.625,1.625,0,0,1,1.138-.431,1.678,1.678,0,0,1,1.129.387,1.318,1.318,0,0,1,.47,1.011,1.344,1.344,0,0,1-.448,1.077A1.63,1.63,0,0,1,192,8.488a1.7,1.7,0,0,1-1.121-.382A1.3,1.3,0,0,1,190.4,7.091Zm7.119,2.391-.2,1.143a3.38,3.38,0,0,1,2.751-1.318,2.27,2.27,0,0,1,1.964.98,4.1,4.1,0,0,1,.47,2.729L201.5,19h-2.9l1.011-6.01a3.108,3.108,0,0,0,.018-.563q-.062-.836-.984-.836a1.807,1.807,0,0,0-1.4.678L196.059,19h-2.892l1.652-9.51Zm6.135,4.746a7.226,7.226,0,0,1,.787-2.593,4.564,4.564,0,0,1,1.551-1.753,3.735,3.735,0,0,1,2.109-.576,2.6,2.6,0,0,1,2.162,1.028l.308-.853,2.672.009-1.556,9.141a4.467,4.467,0,0,1-1.7,3.05,5.4,5.4,0,0,1-3.568,1.063,5.1,5.1,0,0,1-1.837-.378,3.957,3.957,0,0,1-1.521-1.09l1.371-1.705a2.489,2.489,0,0,0,1.986.993,2.324,2.324,0,0,0,2.443-2.048l.07-.29a2.973,2.973,0,0,1-2.171.949,2.932,2.932,0,0,1-1.608-.461,3.034,3.034,0,0,1-1.09-1.305,5.076,5.076,0,0,1-.448-1.9A8.253,8.253,0,0,1,203.653,14.228Zm2.856.94a2.306,2.306,0,0,0,.29,1.257.984.984,0,0,0,.844.466,1.933,1.933,0,0,0,1.485-.633l.747-4.034a1.281,1.281,0,0,0-1.178-.633,1.683,1.683,0,0,0-1.415.716,3.861,3.861,0,0,0-.721,1.929Q206.509,14.79,206.509,15.168Zm15.117-.519L220.871,19h-3.006L220.08,6.2l4.6.009A4.633,4.633,0,0,1,228.038,7.4a3.652,3.652,0,0,1,1.077,3.073,4.178,4.178,0,0,1-.826,2.239,4.575,4.575,0,0,1-1.9,1.449,6.735,6.735,0,0,1-2.65.5Zm.413-2.373,1.811.018a2.142,2.142,0,0,0,2.232-2.511,1.352,1.352,0,0,0-.409-.85,1.4,1.4,0,0,0-.892-.348l-2.1-.009ZM234.45,19a2.578,2.578,0,0,1-.123-.861A2.933,2.933,0,0,1,232,19.176a2.866,2.866,0,0,1-2.057-.826,2.483,2.483,0,0,1-.765-1.96,2.79,2.79,0,0,1,1.292-2.377,6.091,6.091,0,0,1,3.41-.831l.967.018.105-.536.035-.466a.755.755,0,0,0-.8-.826,1.111,1.111,0,0,0-1.169,1.046l-2.9.009a2.754,2.754,0,0,1,.624-1.666,3.7,3.7,0,0,1,1.578-1.09,5.512,5.512,0,0,1,2.123-.356,4.251,4.251,0,0,1,1.894.453,2.82,2.82,0,0,1,1.217,1.187,3.031,3.031,0,0,1,.308,1.753l-.712,4.474-.044.545a2.4,2.4,0,0,0,.167,1.107l-.009.167ZM232.8,17.084a1.865,1.865,0,0,0,1.556-.782l.29-1.529-.747-.009a1.969,1.969,0,0,0-1.2.409,1.55,1.55,0,0,0-.589,1.068.778.778,0,0,0,.136.593A.7.7,0,0,0,232.8,17.084Zm6.135-2.856a7.226,7.226,0,0,1,.787-2.593,4.564,4.564,0,0,1,1.551-1.753,3.735,3.735,0,0,1,2.109-.576,2.6,2.6,0,0,1,2.162,1.028l.308-.853,2.672.009-1.556,9.141a4.467,4.467,0,0,1-1.7,3.05,5.4,5.4,0,0,1-3.568,1.063,5.1,5.1,0,0,1-1.837-.378,3.957,3.957,0,0,1-1.521-1.09l1.371-1.705a2.489,2.489,0,0,0,1.986.993,2.324,2.324,0,0,0,2.443-2.048l.07-.29a2.973,2.973,0,0,1-2.171.949,2.932,2.932,0,0,1-1.608-.461,3.034,3.034,0,0,1-1.09-1.305,5.076,5.076,0,0,1-.448-1.9A8.253,8.253,0,0,1,238.932,14.228Zm2.856.94a2.306,2.306,0,0,0,.29,1.257.984.984,0,0,0,.844.466,1.933,1.933,0,0,0,1.485-.633l.747-4.034a1.281,1.281,0,0,0-1.178-.633,1.683,1.683,0,0,0-1.415.716,3.861,3.861,0,0,0-.721,1.929Q241.789,14.79,241.789,15.168ZM253.3,19.176a4.421,4.421,0,0,1-2.272-.6,3.793,3.793,0,0,1-1.507-1.652,4.44,4.44,0,0,1-.4-2.333l.026-.246a5.829,5.829,0,0,1,1.63-3.713,4.51,4.51,0,0,1,3.415-1.314,3.678,3.678,0,0,1,2.092.621,3.468,3.468,0,0,1,1.274,1.664,5.1,5.1,0,0,1,.264,2.381l-.167,1.206h-5.66a1.854,1.854,0,0,0,.422,1.213,1.549,1.549,0,0,0,1.178.492,2.993,2.993,0,0,0,2.259-.967l1.213,1.6a3.578,3.578,0,0,1-1.5,1.2,5.263,5.263,0,0,1-2.1.451Zm.7-7.576a1.487,1.487,0,0,0-1.068.385,3.229,3.229,0,0,0-.787,1.347h2.892l.053-.254a1.929,1.929,0,0,0,.018-.577A1.017,1.017,0,0,0,254.005,11.6Z" transform="translate(859 811)" fill="#fff"/>
    <g id="Click_here-bro_2_" data-name="Click here-bro (2)" transform="translate(883.941 824.537)">
      <g id="freepik--background-simple--inject-2" transform="translate(22.059 24.463)">
        <path id="Trazado_798380" data-name="Trazado 798380" d="M87.613,36.881C72.829,40.748,58.651,50.117,46.537,63.229S24.806,95.685,22.825,117.663c-2.016,22.626,4.127,45.169,12.087,64.76s12.341,36.8,18.89,57.482c5.765,18.2,8.943,38.338,16.7,54.834,10.566,22.46,28.679,35.4,47.019,39.211s42.458.2,60.468-6.226c37.512-13.387,73.511-35.71,106.627-65.029,14.983-13.277,29.759-28.528,39.39-50.053,10.883-24.325,14.15-55.762,8.7-83.781-4.444-22.942-14.887-44.137-28.6-56.98C298.246,66.407,239.711-2.942,87.613,36.881Z" transform="translate(-22.178 -24.508)" fill="#ffce1f"/>
        <path id="Trazado_798381" data-name="Trazado 798381" d="M323.622,212.517c-9.631,21.525-24.414,36.776-39.39,50.053-33.1,29.319-69.094,51.642-106.627,65.036C163.6,332.6,145.9,335.894,130.1,335.316a76.623,76.623,0,0,1-12.96-1.5C98.79,330,80.677,317.059,70.118,294.606c-1.018-2.174-1.961-4.41-2.848-6.7-5.792-15.065-8.847-32.332-13.841-48.154-6.549-20.686-10.952-37.9-18.9-57.489s-14.1-42.135-12.087-64.76C24.426,95.543,34.05,76.192,46.164,63.08S72.45,40.606,87.24,36.74C239.331-3.09,297.873,66.266,303.72,71.734c13.717,12.823,24.146,34.045,28.61,57C337.772,156.754,334.5,188.192,323.622,212.517Z" transform="translate(-22.059 -24.463)" fill="#fff" opacity="0.7"/>
      </g>
      <g id="freepik--Plant--inject-2" transform="translate(144.213 218.084)">
        <path id="Trazado_798382" data-name="Trazado 798382" d="M252.778,420.5c-.1.158.736.991-2.064,1.032-6.934.1-19.172-.688-23.609-7.106-6.336-9.17,8.8-7.945,7.457-12.947s-17.728-1.376-20.72-8.537,8.812-5.469,8.358-9.129-13,.736-16.9-6.879,6.879-3.309,5.173-6.473-15.134-16.469-9.459-19.213,18.25,11.124,22.481,12.685,5.565-11.695,11.055-7.092,1.286,24.51,7.767,27.166c4.815,1.981,2.353-5.263,8.365-4.815C258.825,379.761,260.772,407.9,252.778,420.5Z" transform="translate(-199.63 -319.956)" fill="#ffce1f"/>
        <g id="Grupo_1064959" data-name="Grupo 1064959" transform="translate(0 30.932)" opacity="0.1">
          <path id="Trazado_798383" data-name="Trazado 798383" d="M252.778,420.5c-.1.158.736.991-2.064,1.032-6.934.1-19.172-.688-23.609-7.106-6.336-9.17,8.8-7.945,7.457-12.947s-17.728-1.376-20.72-8.537,8.812-5.469,8.358-9.129-13,.736-16.9-6.879,6.879-3.309,5.173-6.473-15.134-16.469-9.459-19.213,18.25,11.124,22.481,12.685,5.565-11.695,11.055-7.092,1.286,24.51,7.767,27.166c4.815,1.981,2.353-5.263,8.365-4.815C258.825,379.761,260.772,407.9,252.778,420.5Z" transform="translate(-199.63 -350.889)"/>
        </g>
        <path id="Trazado_798384" data-name="Trazado 798384" d="M264.967,434.348a.344.344,0,0,1-.337-.268,1.14,1.14,0,0,0-.041-.144l-.124-.42c-.392-1.293-.75-2.435-1.1-3.495-.826-2.421-1.685-4.726-2.573-6.845s-1.761-4.072-2.752-6.088c-.392-.784-.784-1.568-1.19-2.318a90.479,90.479,0,0,0-7.636-12.073c-1.527-2.029-3.137-3.962-4.781-5.751a48.513,48.513,0,0,0-6.136-5.765.34.34,0,0,1,.4-.55,46.5,46.5,0,0,1,6.246,5.854c1.651,1.8,3.274,3.749,4.815,5.8a91.115,91.115,0,0,1,7.691,12.162c.44.812.853,1.637,1.2,2.339,1,2.029,1.94,4.093,2.752,6.129s1.754,4.451,2.58,6.879c.358,1.059.722,2.208,1.114,3.508l.124.406a1.811,1.811,0,0,1,.048.206.344.344,0,0,1-.261.413Z" transform="translate(-211.653 -332.339)" fill="#263238"/>
        <path id="Trazado_798385" data-name="Trazado 798385" d="M242.722,399.384a.351.351,0,0,1-.117,0c-.041,0-3.942-1.376-10.319-.179a.344.344,0,0,1-.4-.275.337.337,0,0,1,.275-.4c6.549-1.218,10.484.144,10.642.206a.331.331,0,0,1-.083.647Z" transform="translate(-209.695 -334.668)" fill="#263238"/>
        <path id="Trazado_798386" data-name="Trazado 798386" d="M251.128,396.693h0a.344.344,0,0,1-.337-.351c.5-13.8-7.2-24.765-7.278-24.909a.344.344,0,1,1,.557-.4c.083.11,7.918,11.3,7.409,25.329A.344.344,0,0,1,251.128,396.693Z" transform="translate(-213.299 -326.191)" fill="#263238"/>
        <path id="Trazado_798387" data-name="Trazado 798387" d="M259.516,424a.351.351,0,0,1-.248-.1c-.055-.055-5.6-5.441-13.1-2.979a.345.345,0,1,1-.22-.654c7.918-2.607,13.758,3.089,13.813,3.144a.351.351,0,0,1-.241.592Z" transform="translate(-214.01 -341.393)" fill="#263238"/>
        <path id="Trazado_798388" data-name="Trazado 798388" d="M271.373,430.193a.371.371,0,0,1-.144,0,.344.344,0,0,1-.172-.454,33.7,33.7,0,0,0,1.85-16.978.344.344,0,0,1,.289-.392.351.351,0,0,1,.392.3,34.194,34.194,0,0,1-1.905,17.363A.337.337,0,0,1,271.373,430.193Z" transform="translate(-221.911 -339.142)" fill="#263238"/>
        <path id="Trazado_798389" data-name="Trazado 798389" d="M279.973,411.558h-.034a.344.344,0,0,1-.31-.378,1.81,1.81,0,0,0,0-.193v-.131c0-.371.062-.743.089-1.114s.048-.523.069-.777c.11-1.293.234-2.676.385-4.079.5-4.85,1.163-9.569,1.967-14.027.117-.647.227-1.238.344-1.83.887-4.575,1.933-8.943,3.123-12.96h0c.151-.516.31-1.032.468-1.548l.186-.592c.186-.585.378-1.176.571-1.754.413-1.245.894-2.717,1.328-4.2.853-2.869,1.61-5.758,2.249-8.592v-.055h0c.406-1.789.736-3.405,1.011-4.953a107.526,107.526,0,0,0,1.8-18.271c0-2.421-.048-4.815-.213-7.141a68.1,68.1,0,0,0-.881-7.271c-.034-.172-.062-.337-.089-.5v-.138h0V321h0a.365.365,0,0,1,0-.3.351.351,0,0,1,.461-.144.344.344,0,0,1,.186.3.234.234,0,0,1,0,.069l.041.172.083.488a67.735,67.735,0,0,1,.894,7.347c.165,2.332.234,4.754.213,7.2a108.2,108.2,0,0,1-1.809,18.388c-.275,1.555-.605,3.185-1.011,4.98h0v.034c-.64,2.848-1.376,5.744-2.256,8.62a.048.048,0,0,1,0,.034c-.44,1.507-.922,3-1.376,4.258-.2.578-.385,1.156-.571,1.74l-.179.592c-.158.509-.316,1.018-.468,1.534h0c-1.183,4-2.229,8.344-3.109,12.9-.117.592-.227,1.176-.337,1.768-.8,4.492-1.465,9.2-1.961,14.027-.158,1.376-.282,2.752-.392,4.066a7.547,7.547,0,0,1-.069.784c-.028.261-.055.736-.083,1.108v.337A.351.351,0,0,1,279.973,411.558Z" transform="translate(-224.596 -310.478)" fill="#263238"/>
        <path id="Trazado_798390" data-name="Trazado 798390" d="M295.605,319.694h0a13.854,13.854,0,0,0-2.511-1.871,13.365,13.365,0,0,0-3.164-1.293" transform="translate(-227.811 -309.234)" fill="#fff"/>
        <path id="Trazado_798391" data-name="Trazado 798391" d="M295.434,319.859a.337.337,0,0,1-.261-.124h0a12.972,12.972,0,0,0-2.456-1.816,13.277,13.277,0,0,0-3.068-1.266.355.355,0,1,1,.172-.688,13.758,13.758,0,0,1,3.24,1.335,14.179,14.179,0,0,1,2.58,1.912h0l.041.041a.289.289,0,0,1,.076.11.337.337,0,0,1-.165.454.372.372,0,0,1-.158.041Zm0-.344Z" transform="translate(-227.639 -309.054)" fill="#263238"/>
        <path id="Trazado_798392" data-name="Trazado 798392" d="M299.475,331.694a.344.344,0,0,1-.22-.605l3-2.566a.344.344,0,0,1,.447.523l-2.972,2.566A.357.357,0,0,1,299.475,331.694Z" transform="translate(-230.684 -312.951)" fill="#263238"/>
        <path id="Trazado_798393" data-name="Trazado 798393" d="M290.563,386.461a.316.316,0,0,1-.344-.31h0a10.883,10.883,0,0,0-.6-2.146,11.131,11.131,0,0,0-1.61-2.924,11.008,11.008,0,0,0-1.727-1.809.347.347,0,0,1,.447-.53,12.327,12.327,0,0,1,1.83,1.919,12.053,12.053,0,0,1,1.706,3.1,11.554,11.554,0,0,1,.633,2.332.371.371,0,0,1-.337.371Z" transform="translate(-226.635 -328.624)" fill="#263238"/>
        <path id="Trazado_798394" data-name="Trazado 798394" d="M288.664,399.633a.489.489,0,0,1-.138,0,.351.351,0,0,1-.179-.454,8.4,8.4,0,0,1,4.9-4.568.346.346,0,1,1,.227.654,7.7,7.7,0,0,0-4.5,4.183A.351.351,0,0,1,288.664,399.633Z" transform="translate(-227.309 -333.595)" fill="#263238"/>
        <path id="Trazado_798395" data-name="Trazado 798395" d="M291.81,366.058h0a.337.337,0,0,1-.323-.358c0-.179.915-17.686-8.413-24.235a.345.345,0,0,1,.4-.564c9.631,6.776,8.743,24.077,8.7,24.834a.337.337,0,0,1-.358.323Z" transform="translate(-225.626 -316.82)" fill="#263238"/>
        <path id="Trazado_798396" data-name="Trazado 798396" d="M286.122,432.1c.089,4.348-10.69,9.493-10.69,9.493s-11.007-4.685-11.082-9.032,4.664-10.057,10.676-10.188S286,427.748,286.122,432.1Z" transform="translate(-219.827 -342.264)" fill="#ffce1f"/>
        <path id="Trazado_798397" data-name="Trazado 798397" d="M305.521,354.2c-1.266,4.382-9.83,7.264-9.83,7.264s-5.71-7.01-4.444-11.385,6.088-9.1,10.03-7.959S306.78,349.826,305.521,354.2Z" transform="translate(-228.165 -317.166)" fill="#ffce1f"/>
        <path id="Trazado_798398" data-name="Trazado 798398" d="M276.63,374.348a11.309,11.309,0,0,0,3.577,2.16,3.845,3.845,0,0,0,3.907-.8c1.176-1.273.929-3.316.261-4.919-1.335-3.171-6.418-8.64-10.491-7.237C268,365.584,274.1,372.346,276.63,374.348Z" transform="translate(-222.029 -323.837)" fill="#ffce1f"/>
        <path id="Trazado_798399" data-name="Trazado 798399" d="M295.392,389.3c-.784.922-1.63,2.064-1.245,3.247a2.435,2.435,0,0,0,2.635,1.376,7.21,7.21,0,0,0,2.924-1.321c2.064-1.376,6.384-4.238,3.784-7.113C300.75,382.521,297.036,387.357,295.392,389.3Z" transform="translate(-229.097 -330.462)" fill="#ffce1f"/>
        <path id="Trazado_798400" data-name="Trazado 798400" d="M271.786,332.864a2.105,2.105,0,0,0-1.961,1.5c-.206,1.011.612,1.926,1.41,2.58,1.995,1.63,7.994,6.054,9.479,2C282.125,335.12,274.5,332.644,271.786,332.864Z" transform="translate(-221.526 -314.327)" fill="#ffce1f"/>
        <path id="Trazado_798401" data-name="Trazado 798401" d="M286.834,313.623c-1.273.083-2.518-.413-3.784-.365s-2.71,1.018-2.463,2.263,1.637,1.575,2.807,1.685a22.663,22.663,0,0,0,5.985-.241,1.823,1.823,0,0,0,1.231-.571c.537-.743-.248-1.775-1.114-2.064a13.52,13.52,0,0,1-2.628-.688Z" transform="translate(-224.887 -308.212)" fill="#ffce1f"/>
        <path id="Trazado_798402" data-name="Trazado 798402" d="M305.474,326.818c1.273.076,2.511-.433,3.784-.4s2.71,1,2.477,2.249-1.623,1.589-2.793,1.679a23,23,0,0,1-5.992-.193,1.823,1.823,0,0,1-1.231-.571c-.543-.729.234-1.775,1.1-2.064a11.71,11.71,0,0,0,2.621-.729Z" transform="translate(-231.434 -312.319)" fill="#ffce1f"/>
        <path id="Trazado_798403" data-name="Trazado 798403" d="M297.987,319.059a.344.344,0,0,1-.337-.316c-.11-1.252-.351-5.38,1.039-5.806a.344.344,0,1,1,.2.654c-.578.179-.757,2.752-.557,5.091a.337.337,0,0,1-.31.371Z" transform="translate(-230.193 -308.103)" fill="#263238"/>
        <path id="Trazado_798404" data-name="Trazado 798404" d="M296.85,311.2c.819-1.692,1.7-3.474,3.254-4.533s4-1.073,5.063.482c1.19,1.734-.124,4.286-2.064,5.139s-4.128.509-6.191.158v-.929Z" transform="translate(-229.971 -305.924)" fill="#ffce1f"/>
        <path id="Trazado_798405" data-name="Trazado 798405" d="M288.328,416.332c5.6,1.08,16.1-2.477,20.748-6.879s-6.59-3.158-4.815-7.01,14.543,1.431,18-3.935-6.349-5.7-5.455-8.592,10.7-.571,14.948-6.191-5.07-3.667-3.261-5.985,14.6-11.165,10.415-14.192-16.366,6.377-20.011,7.031-3.109-7.209-8.214-4.286-4.561,19.654-10.188,20.871c-4.189.915-1.245-6.191-6.074-5.111C285.989,383.952,286.058,415.892,288.328,416.332Z" transform="translate(-226.904 -323.721)" fill="#ffce1f"/>
        <g id="Grupo_1064960" data-name="Grupo 1064960" transform="translate(60.119 39.229)" opacity="0.2">
          <path id="Trazado_798406" data-name="Trazado 798406" d="M288.328,416.332c5.6,1.08,16.1-2.477,20.748-6.879s-6.59-3.158-4.815-7.01,14.543,1.431,18-3.935-6.349-5.7-5.455-8.592,10.7-.571,14.948-6.191-5.07-3.667-3.261-5.985,14.6-11.165,10.415-14.192-16.366,6.377-20.011,7.031-3.109-7.209-8.214-4.286-4.561,19.654-10.188,20.871c-4.189.915-1.245-6.191-6.074-5.111C285.989,383.952,286.058,415.892,288.328,416.332Z" transform="translate(-287.023 -362.95)" fill="#fff"/>
        </g>
        <path id="Trazado_798407" data-name="Trazado 798407" d="M285.967,427.413a.323.323,0,0,1-.117,0,.344.344,0,0,1-.2-.44l.1-.268c.255-.688.516-1.321.777-1.967.578-1.417,1.135-2.69,1.685-3.894.97-2.133,2.064-4.3,3.206-6.432a112.756,112.756,0,0,1,8.365-13.18c1.458-1.981,3.047-4,4.726-6a107.693,107.693,0,0,1,18.574-17.679.344.344,0,1,1,.385.571,106.564,106.564,0,0,0-18.436,17.549c-1.665,1.988-3.247,4-4.692,5.964a111.446,111.446,0,0,0-8.317,13.07c-1.149,2.119-2.222,4.265-3.185,6.391-.55,1.19-1.1,2.456-1.672,3.866-.261.647-.523,1.293-.77,1.954l-.1.261a.344.344,0,0,1-.323.234Z" transform="translate(-226.469 -328.26)" fill="#263238"/>
        <path id="Trazado_798408" data-name="Trazado 798408" d="M320.273,396.993a.337.337,0,0,1-.344-.323.33.33,0,0,1,.241-.344.117.117,0,0,1,.069,0l.158-.041a29.966,29.966,0,0,1,12.128-.268.343.343,0,0,1-.131.674,29.285,29.285,0,0,0-11.839.268l-.165.034h-.1Z" transform="translate(-237.173 -333.886)" fill="#263238"/>
        <path id="Trazado_798409" data-name="Trazado 798409" d="M313.3,394.322h0a.344.344,0,0,1-.316-.371c.977-12.383,9.012-21.325,9.087-21.435a.344.344,0,0,1,.509.461c-.076.089-7.952,8.874-8.943,21.03A.337.337,0,0,1,313.3,394.322Z" transform="translate(-235.004 -326.675)" fill="#263238"/>
        <path id="Trazado_798410" data-name="Trazado 798410" d="M305.686,412.093a.358.358,0,0,1-.275-.144.351.351,0,0,1,.076-.482,13.07,13.07,0,0,1,12.383-.915.351.351,0,0,1,.172.454.344.344,0,0,1-.454.172,12.383,12.383,0,0,0-11.695.846A.323.323,0,0,1,305.686,412.093Z" transform="translate(-232.622 -338.22)" fill="#263238"/>
        <path id="Trazado_798411" data-name="Trazado 798411" d="M294.98,421.34a.344.344,0,0,1-.33-.234,30.674,30.674,0,0,1,.089-15.478.355.355,0,1,1,.688.172,29.9,29.9,0,0,0-.1,15.093.337.337,0,0,1-.22.433Z" transform="translate(-228.988 -336.956)" fill="#263238"/>
      </g>
      <g id="freepik--Graphics--inject-2" transform="translate(35.378 78.301)">
        <path id="Trazado_798412" data-name="Trazado 798412" d="M66.774,138a.351.351,0,0,1-.344-.344.344.344,0,0,1,.344-.344,16.949,16.949,0,1,0,0-33.9.344.344,0,0,1-.344-.341.351.351,0,0,1,.344-.344,17.636,17.636,0,1,1,0,35.273Z" transform="translate(-49.225 -102.727)" fill="#263238"/>
        <path id="Trazado_798413" data-name="Trazado 798413" d="M66.774,138.006a.358.358,0,0,1-.31-.193.344.344,0,0,1,.165-.461c.083-.034,8.448-4.238,8.448-16.971s-8.365-16.936-8.448-16.971a.346.346,0,1,1,.3-.626c.089.048,8.84,4.4,8.84,17.6s-8.75,17.563-8.84,17.624A.371.371,0,0,1,66.774,138.006Z" transform="translate(-49.225 -102.733)" fill="#263238"/>
        <path id="Trazado_798414" data-name="Trazado 798414" d="M66.774,138.006a.351.351,0,0,1-.344-.344V103.094a.351.351,0,0,1,.344-.344.344.344,0,0,1,.344.344v34.582a.344.344,0,0,1-.344.33Z" transform="translate(-49.225 -102.733)" fill="#263238"/>
        <path id="Trazado_798415" data-name="Trazado 798415" d="M59.058,138a17.636,17.636,0,1,1,0-35.273.346.346,0,0,1,0,.691,16.949,16.949,0,1,0,0,33.9.342.342,0,1,1,0,.684Z" transform="translate(-41.42 -102.725)" fill="#263238"/>
        <path id="Trazado_798416" data-name="Trazado 798416" d="M62.984,138a.372.372,0,0,1-.144-.034c-.089-.041-8.84-4.416-8.84-17.6s8.75-17.549,8.84-17.6a.337.337,0,0,1,.454.165.344.344,0,0,1-.158.461c-.083.034-8.448,4.224-8.448,16.971s8.365,16.95,8.448,17a.352.352,0,1,1-.151.688Z" transform="translate(-45.346 -102.727)" fill="#263238"/>
        <path id="Trazado_798417" data-name="Trazado 798417" d="M66.9,138.006a.351.351,0,0,1-.344-.344V103.094a.351.351,0,0,1,.344-.344.344.344,0,0,1,.344.344v34.582a.344.344,0,0,1-.344.33Z" transform="translate(-49.266 -102.733)" fill="#263238"/>
        <path id="Trazado_798418" data-name="Trazado 798418" d="M66.863,103.438h-.089a.344.344,0,0,1-.344-.344.351.351,0,0,1,.344-.344h.089a.344.344,0,1,1,0,.688Z" transform="translate(-49.225 -102.733)" fill="#263238"/>
        <path id="Trazado_798419" data-name="Trazado 798419" d="M75.729,120.2H43.2a.344.344,0,0,1,0-.688H75.729a.344.344,0,0,1,0,.688Z" transform="translate(-41.869 -107.963)" fill="#263238"/>
        <path id="Trazado_798420" data-name="Trazado 798420" d="M75.729,136.948H43.2a.344.344,0,1,1,0-.688H75.729a.344.344,0,1,1,0,.688Z" transform="translate(-41.869 -113.191)" fill="#263238"/>
        <path id="Trazado_798421" data-name="Trazado 798421" d="M66.863,153.688h-.089a.351.351,0,0,1-.344-.344.344.344,0,0,1,.344-.344h.089a.344.344,0,0,1,0,.688Z" transform="translate(-49.225 -118.415)" fill="#263238"/>
        <path id="Trazado_798422" data-name="Trazado 798422" d="M461.031,221.689h0a.33.33,0,0,1-.234-.124l-3.316-4.024-3.845,3.068a.358.358,0,0,1-.323.055.33.33,0,0,1-.22-.234l-4.657-17a.351.351,0,0,1,.117-.358.33.33,0,0,1,.378-.034l15.588,8.255a.358.358,0,0,1,.186.275.365.365,0,0,1-.131.3l-3.942,3.144,3.247,3.942a.344.344,0,0,1-.048.482l-2.552,2.153A.358.358,0,0,1,461.031,221.689Zm-3.522-4.932a.337.337,0,0,1,.261.124l3.309,4.011,2.029-1.713-3.281-3.983a.372.372,0,0,1-.076-.255.351.351,0,0,1,.131-.234l3.8-3.034-14.446-7.657,4.306,15.726,3.694-2.951A.378.378,0,0,1,457.509,216.757Z" transform="translate(-168.439 -134.018)" fill="#263238"/>
        <path id="Trazado_798423" data-name="Trazado 798423" d="M442.519,197.166a.358.358,0,0,1-.241-.1l-2.064-2.064a.341.341,0,1,1,.482-.482l2.064,2.064a.351.351,0,0,1,0,.488A.372.372,0,0,1,442.519,197.166Z" transform="translate(-165.846 -131.343)" fill="#263238"/>
        <path id="Trazado_798424" data-name="Trazado 798424" d="M440.094,202.988h-2.931a.344.344,0,1,1,0-.688h2.931a.344.344,0,0,1,0,.688Z" transform="translate(-164.818 -133.801)" fill="#263238"/>
        <path id="Trazado_798425" data-name="Trazado 798425" d="M453.226,197.172a.344.344,0,0,1-.241-.585l2.064-2.064a.343.343,0,0,1,.488.482l-2.064,2.064a.351.351,0,0,1-.248.1Z" transform="translate(-169.832 -131.342)" fill="#263238"/>
        <path id="Trazado_798426" data-name="Trazado 798426" d="M440.446,209.952a.344.344,0,0,1-.241-.585l2.064-2.064a.343.343,0,1,1,.488.482l-2.064,2.064A.358.358,0,0,1,440.446,209.952Z" transform="translate(-165.844 -135.331)" fill="#263238"/>
        <path id="Trazado_798427" data-name="Trazado 798427" d="M448.344,194.748A.344.344,0,0,1,448,194.4v-2.931a.344.344,0,1,1,.688,0V194.4A.344.344,0,0,1,448.344,194.748Z" transform="translate(-168.307 -130.315)" fill="#263238"/>
        <path id="Trazado_798428" data-name="Trazado 798428" d="M352.87,317.654a6.591,6.591,0,0,1,1.8.248,7.635,7.635,0,0,1,.819.3,6.466,6.466,0,0,1,2.422,1.857,4.508,4.508,0,0,1,.426.612,6.4,6.4,0,0,1,.268,6.466,3.034,3.034,0,0,1-1.314-.385,5.166,5.166,0,0,0,.722-2.628,5.063,5.063,0,0,0-1.2-3.281,4.37,4.37,0,0,0-.55-.571,5.049,5.049,0,0,0-3.061-1.266,2.811,2.811,0,0,0-.33,0h-7.182a5.139,5.139,0,1,0,0,10.277h6.349l.124.158a8.391,8.391,0,0,0,1.149,1.169h-7.622a6.48,6.48,0,1,1,0-12.96h7.182m0-.688h-7.182a7.168,7.168,0,0,0,0,14.336h7.182a6.983,6.983,0,0,0,2.194-.344A7.725,7.725,0,0,1,352.7,329c-.11-.138-.22-.275-.316-.42h-6.693a4.451,4.451,0,1,1,0-8.9h7.182a1.618,1.618,0,0,1,.261,0,4.285,4.285,0,0,1,2.669,1.094,3.186,3.186,0,0,1,.475.488,4.334,4.334,0,0,1,1.052,2.848,4.4,4.4,0,0,1-.991,2.793,3.728,3.728,0,0,0,2.243.908h.413a7.079,7.079,0,0,0-.076-7.567,4.817,4.817,0,0,0-.468-.688,7.141,7.141,0,0,0-2.683-2.064,7.913,7.913,0,0,0-.908-.33,7.044,7.044,0,0,0-1.988-.275Z" transform="translate(-134.14 -169.562)" fill="#263238"/>
        <path id="Trazado_798429" data-name="Trazado 798429" d="M371.932,317.578a6.48,6.48,0,1,1,0,12.953h-7.189a6.321,6.321,0,0,1-1.809-.255,6.59,6.59,0,0,1-3.233-2.146,5.572,5.572,0,0,1-.433-.612,6.425,6.425,0,0,1-.261-6.473h0a3.136,3.136,0,0,1,1.314.385,5.111,5.111,0,0,0-.729,2.628,5,5,0,0,0,1.211,3.288,4.707,4.707,0,0,0,.55.578,5.1,5.1,0,0,0,3.054,1.252,2.88,2.88,0,0,0,.33,0h7.182a5.139,5.139,0,1,0,0-10.271h-6.349l-.124-.158a8.027,8.027,0,0,0-1.149-1.169h7.622m0-.688h-7.175a7.091,7.091,0,0,0-2.181.337,7.945,7.945,0,0,1,2.353,1.961c.11.138.213.275.31.42h6.7a4.451,4.451,0,1,1,0,8.895h-7.182a1.622,1.622,0,0,1-.261,0,4.361,4.361,0,0,1-2.669-1.087,3.143,3.143,0,0,1-.468-.488,4.327,4.327,0,0,1-1.059-2.855,4.382,4.382,0,0,1,.991-2.786,3.639,3.639,0,0,0-2.243-.915h-.413a7.106,7.106,0,0,0,.069,7.567,5.507,5.507,0,0,0,.475.688,7.2,7.2,0,0,0,2.69,2.064,7.666,7.666,0,0,0,.894.323,6.823,6.823,0,0,0,1.995.282h7.182a7.168,7.168,0,1,0,0-14.329Z" transform="translate(-140.083 -169.562)" fill="#263238"/>
      </g>
      <g id="freepik--Window--inject-2" transform="translate(73.454 41.92)">
        <rect id="Rectángulo_374135" data-name="Rectángulo 374135" width="230.074" height="171.814" transform="translate(0.344 0.344)" fill="#999"/>
        <path id="Trazado_798430" data-name="Trazado 798430" d="M327.531,222.342H96.77V49.84H327.531Zm-230.074-.688H326.844V50.528H97.458Z" transform="translate(-96.77 -49.84)" fill="#263238"/>
        <rect id="Rectángulo_374136" data-name="Rectángulo 374136" width="225.162" height="156.921" transform="translate(2.814 12.713)" fill="#fff"/>
        <rect id="Rectángulo_374137" data-name="Rectángulo 374137" width="230.074" height="9.665" transform="translate(0.275 0.344)" fill="#263238"/>
        <circle id="Elipse_8329" data-name="Elipse 8329" cx="2.889" cy="2.889" r="2.889" transform="translate(5.854 2.201)" fill="#fff"/>
        <circle id="Elipse_8330" data-name="Elipse 8330" cx="2.889" cy="2.889" r="2.889" transform="translate(14.715 2.201)" fill="#fff"/>
        <path id="Trazado_798431" data-name="Trazado 798431" d="M136.822,55.929a2.9,2.9,0,1,1-2.889-2.889A2.9,2.9,0,0,1,136.822,55.929Z" transform="translate(-107.462 -50.839)" fill="#fff"/>
        <rect id="Rectángulo_374138" data-name="Rectángulo 374138" width="65.084" height="25.405" rx="10.7" transform="translate(84.242 103.435)" fill="#ffce1f"/>
        <path id="Trazado_798432" data-name="Trazado 798432" d="M276.8,225.793H226.435a7.712,7.712,0,0,1-7.7-7.7V207.4a7.712,7.712,0,0,1,7.7-7.7H276.8a7.712,7.712,0,0,1,7.7,7.7v10.683a7.712,7.712,0,0,1-7.7,7.7Zm-50.362-25.4a7.017,7.017,0,0,0-7.017,7.017v10.683a7.017,7.017,0,0,0,7.017,7.017H276.8a7.017,7.017,0,0,0,7.017-7.017V207.4a7.017,7.017,0,0,0-7.017-7.017Z" transform="translate(-134.832 -96.609)" fill="#263238"/>
        <path id="Trazado_798433" data-name="Trazado 798433" d="M281.12,231.135H228.474a.344.344,0,1,1,0-.688H281.12A7.884,7.884,0,0,0,289,222.571V210.154a.344.344,0,0,1,.688,0v12.417a8.571,8.571,0,0,1-8.565,8.565Z" transform="translate(-137.765 -99.764)" fill="#263238"/>
        <path id="Trazado_798434" data-name="Trazado 798434" d="M245.84,218.539a1.926,1.926,0,0,1-.44,1.376,1.954,1.954,0,0,1-2.552,0,1.926,1.926,0,0,1-.44-1.376v-3.811a1.729,1.729,0,1,1,3.433,0v.688h-1.087v-.784q0-.722-.6-.722t-.6.722v3.962c0,.475.2.688.6.688s.6-.234.6-.688v-1.053h1.087Z" transform="translate(-142.219 -100.719)" fill="#263238"/>
        <path id="Trazado_798435" data-name="Trazado 798435" d="M249.576,213v6.288h1.9v1.046H248.42V213Z" transform="translate(-144.098 -100.76)" fill="#263238"/>
        <path id="Trazado_798436" data-name="Trazado 798436" d="M254.739,213v7.333H253.59V213Z" transform="translate(-145.711 -100.76)" fill="#263238"/>
        <path id="Trazado_798437" data-name="Trazado 798437" d="M259.78,218.539a1.926,1.926,0,0,1-.44,1.376,1.954,1.954,0,0,1-2.552,0,1.926,1.926,0,0,1-.44-1.376v-3.811a1.729,1.729,0,1,1,3.433,0v.688h-1.087v-.784q0-.722-.6-.722t-.6.722v3.962c0,.475.2.688.6.688s.6-.234.6-.688v-1.053h1.087Z" transform="translate(-146.57 -100.719)" fill="#263238"/>
        <path id="Trazado_798438" data-name="Trazado 798438" d="M263.476,218.091v2.249H262.32V213h1.156v3.192L264.982,213h1.156l-1.6,3.268,1.6,4.066h-1.183l-1.121-2.924Z" transform="translate(-148.435 -100.76)" fill="#263238"/>
        <path id="Trazado_798439" data-name="Trazado 798439" d="M271,220.34V213h1.156v3.144h1.307V213h1.176v7.333h-1.176V217.2h-1.307v3.144Z" transform="translate(-151.144 -100.76)" fill="#263238"/>
        <path id="Trazado_798440" data-name="Trazado 798440" d="M280.278,216.1v1.032h-1.589v2.153h1.995v1.046H277.54V213h3.144v1.046h-1.995v2.064Z" transform="translate(-153.185 -100.76)" fill="#263238"/>
        <path id="Trazado_798441" data-name="Trazado 798441" d="M285.484,219.993a5.027,5.027,0,0,1,0-.564V218.28a1.155,1.155,0,0,0-.179-.722.688.688,0,0,0-.578-.213h-.4v2.986H283.18v-7.34h1.734a1.479,1.479,0,0,1,1.713,1.685v.578a1.472,1.472,0,0,1-.757,1.486,1.046,1.046,0,0,1,.585.564,2.332,2.332,0,0,1,.179,1v1.135a5.076,5.076,0,0,0,0,.509,1.128,1.128,0,0,0,.11.378h-1.176A1.6,1.6,0,0,1,285.484,219.993Zm-1.176-3.694h.454a.688.688,0,0,0,.516-.179.853.853,0,0,0,.172-.6V214.8a.963.963,0,0,0-.138-.578.55.55,0,0,0-.447-.179h-.557Z" transform="translate(-154.946 -100.75)" fill="#263238"/>
        <path id="Trazado_798442" data-name="Trazado 798442" d="M292.023,216.1v1.032h-1.548v2.153h1.988v1.046H289.32V213h3.144v1.046h-1.988v2.064Z" transform="translate(-156.862 -100.76)" fill="#263238"/>
        <rect id="Rectángulo_374139" data-name="Rectángulo 374139" width="101.853" height="9.686" transform="translate(84.93 46.854)" fill="#999"/>
        <rect id="Rectángulo_374140" data-name="Rectángulo 374140" width="67.691" height="9.686" transform="translate(84.93 62.593)" fill="#999"/>
        <rect id="Rectángulo_374141" data-name="Rectángulo 374141" width="67.691" height="0.688" transform="translate(84.93 80.411)" fill="#263238"/>
        <rect id="Rectángulo_374142" data-name="Rectángulo 374142" width="74.013" height="0.688" transform="translate(84.93 86.567)" fill="#263238"/>
        <rect id="Rectángulo_374143" data-name="Rectángulo 374143" width="80.328" height="0.688" transform="translate(84.93 92.724)" fill="#263238"/>
        <rect id="Rectángulo_374144" data-name="Rectángulo 374144" width="12.795" height="0.688" transform="translate(210.31 17.487)" fill="#263238"/>
        <rect id="Rectángulo_374145" data-name="Rectángulo 374145" width="12.795" height="0.688" transform="translate(210.31 20.954)" fill="#263238"/>
        <rect id="Rectángulo_374146" data-name="Rectángulo 374146" width="12.795" height="0.688" transform="translate(210.31 24.428)" fill="#263238"/>
        <rect id="Rectángulo_374147" data-name="Rectángulo 374147" width="21.092" height="3.873" transform="translate(28.7 17.425)" fill="#999"/>
        <rect id="Rectángulo_374148" data-name="Rectángulo 374148" width="21.092" height="3.873" transform="translate(56.622 17.425)" fill="#999"/>
        <rect id="Rectángulo_374149" data-name="Rectángulo 374149" width="21.092" height="3.873" transform="translate(84.538 17.425)" fill="#999"/>
        <rect id="Rectángulo_374150" data-name="Rectángulo 374150" width="21.092" height="3.873" transform="translate(112.461 17.425)" fill="#999"/>
        <rect id="Rectángulo_374151" data-name="Rectángulo 374151" width="15.382" height="15.382" transform="translate(7.024 17.425)" fill="#fff"/>
        <path id="Trazado_798443" data-name="Trazado 798443" d="M122.212,90.719H106.844a.344.344,0,0,1-.344-.344V75.014a.344.344,0,0,1,.344-.344h15.382a.344.344,0,0,1,.344.344V90.4A.344.344,0,0,1,122.212,90.719Zm-15.038-.688h14.694V75.358H107.174Z" transform="translate(-99.807 -57.589)" fill="#263238"/>
      </g>
      <g id="freepik--Character--inject-2" transform="translate(37.737 116.46)">
        <path id="Trazado_798444" data-name="Trazado 798444" d="M235.346,228.132a.688.688,0,0,1-.5-1.169l1.988-2.064a.688.688,0,1,1,.97.977l-1.988,2.029A.688.688,0,0,1,235.346,228.132Z" transform="translate(-104.085 -178.951)" fill="#fff"/>
        <path id="Trazado_798445" data-name="Trazado 798445" d="M230.758,226.057h0a.688.688,0,0,1-.688-.688l.034-2.752a.688.688,0,1,1,1.376,0l-.034,2.752A.688.688,0,0,1,230.758,226.057Z" transform="translate(-102.654 -178.087)" fill="#fff"/>
        <path id="Trazado_798446" data-name="Trazado 798446" d="M225.236,228.523a.688.688,0,0,1-.475-.193l-1.926-1.878a.691.691,0,0,1,.963-.991l1.919,1.885a.691.691,0,0,1-.482,1.176Z" transform="translate(-100.331 -179.128)" fill="#fff"/>
        <path id="Trazado_798447" data-name="Trazado 798447" d="M237.2,233.562a.688.688,0,0,1,0-1.376l2.752-.1a.688.688,0,1,1,.048,1.376l-2.752.1Z" transform="translate(-104.664 -181.257)" fill="#fff"/>
        <path id="Trazado_798448" data-name="Trazado 798448" d="M128.86,207.632a40.972,40.972,0,0,1-1.85,18.849c-.509,1.479-1.376,3.151-2.917,3.364.083,2.139-2.263,4.6-4.389,4.9-1.094.158-2,1.589-2.752,2.4a4.815,4.815,0,0,1-8.3-4.327,11.007,11.007,0,0,1,2.855-5.07c2.7-3.047,4.451-7.9,6-11.695.537.1.867-9.961,1.211-14.061,1.376-.929,7.12-.227,8.523.688S128.64,205.988,128.86,207.632Z" transform="translate(-64.719 -171.728)" fill="#263238"/>
        <path id="Trazado_798449" data-name="Trazado 798449" d="M90.552,241.064a2.841,2.841,0,0,1-2.532,1.782c3.44,4.9,13.236,9.266,20.252,8.379,3.88-.688,3.969-1.727,2.9-2.655a13.236,13.236,0,0,1-3.9-8.482l-.062-2.889L91.632,229.08s-.777,8.255-.8,10.525a4.066,4.066,0,0,1-.275,1.458Z" transform="translate(-58.323 -180.318)" fill="#999"/>
        <path id="Trazado_798450" data-name="Trazado 798450" d="M106.116,251.441c-6.742,0-15.313-3.859-18.649-8.64l-.316-.447.537-.089c1.568-.261,2.064-.977,2.277-1.568h0a3.784,3.784,0,0,0,.248-1.341c0-2.284.77-10.209.8-10.546l.048-.509,16.207,8.448.069,3.082a13.09,13.09,0,0,0,3.777,8.255,1.5,1.5,0,0,1,.688,1.472c-.22.8-1.376,1.376-3.729,1.782a16.26,16.26,0,0,1-1.961.1ZM88.34,242.829c3.729,4.815,13.229,8.62,19.619,7.815,2.676-.482,3.109-1.059,3.171-1.286s-.213-.557-.461-.77a13.507,13.507,0,0,1-4.017-8.737l-.062-2.683L91.656,229.38c-.172,1.83-.729,8.055-.757,9.982a4.382,4.382,0,0,1-.3,1.589h0A3.116,3.116,0,0,1,88.34,242.829Z" transform="translate(-58.051 -180.075)" fill="#263238"/>
        <g id="Grupo_1064961" data-name="Grupo 1064961" transform="translate(29.697 48.762)" clip-path="url(#clip-path)">
          <path id="Trazado_798451" data-name="Trazado 798451" d="M89.436,238.782c-.131,1-.413,2.181-1.376,2.532-.468.172-1.073.144-1.341.564s.11,1.066.5,1.472a42.157,42.157,0,0,0,6.315,5.772,14.116,14.116,0,0,0,7.973,2.752,11.454,11.454,0,0,1,4.127-14c1.087-.688,2.5-1.575,2.236-2.834-.193-.908-1.169-1.376-2.064-1.706l-7.037-2.717c-2.174-.846-4.705-2.339-7-2.71-2.105-.344-1.52,2.284-1.644,3.845C89.987,234.1,89.746,236.443,89.436,238.782Z" transform="translate(-87.586 -228.704)" opacity="0.3"/>
        </g>
        <path id="Trazado_798454" data-name="Trazado 798454" d="M103.231,238.525c1.575.5,5.682,1.727,5.682,1.727h0l-.069-3.054h0L93.27,229.08h0C94.02,234,98.491,237.019,103.231,238.525Z" transform="translate(-59.961 -180.318)" fill="#263238"/>
        <path id="Trazado_798455" data-name="Trazado 798455" d="M108.746,240.454a.248.248,0,0,1-.1,0s-4.127-1.231-5.689-1.734c-3.44-1.08-9.294-3.784-10.2-9.713a.344.344,0,0,1,.144-.33.337.337,0,0,1,.358,0l15.574,8.117a.351.351,0,0,1,.186.3l.069,3.054a.33.33,0,0,1-.131.282A.344.344,0,0,1,108.746,240.454ZM93.612,229.571c1.183,5.084,6.466,7.485,9.631,8.475,1.252.4,4.127,1.259,5.228,1.6l-.062-2.38Z" transform="translate(-59.8 -180.176)" fill="#263238"/>
        <path id="Trazado_798456" data-name="Trazado 798456" d="M94.691,177.322c-4.705,3.034-8.668,6.191-10.415,16.09A25.232,25.232,0,0,0,86.7,210.039a25.838,25.838,0,0,0,3.508,4.637c2.676,2.992,14.309,6.838,17.707,6.611s7.808-6.074,9.479-14.446.048-10.319-2.325-21.064-8.186-11.8-8.186-11.8A19.467,19.467,0,0,0,94.691,177.322Z" transform="translate(-57.021 -163.1)" fill="#999"/>
        <g id="Grupo_1064962" data-name="Grupo 1064962" transform="translate(26.828 10.809)" clip-path="url(#clip-path-2)">
          <path id="Trazado_798457" data-name="Trazado 798457" d="M84.206,198.448a25.449,25.449,0,0,0,2.394,16.62,25.838,25.838,0,0,0,3.508,4.637c2.676,2.992,14.35,6.831,17.714,6.611a6.35,6.35,0,0,0,3.852-2.27,16.572,16.572,0,0,1-7.106-.337c-5.386-1.472-11.371-6.879-12.974-15.5-1.321-6.962-3.742-15.224-4.637-18.209A27.8,27.8,0,0,0,84.206,198.448Z" transform="translate(-83.827 -178.931)" opacity="0.3"/>
        </g>
        <path id="Trazado_798459" data-name="Trazado 798459" d="M107.442,221.49c-3.8,0-14.955-3.694-17.673-6.728a26.333,26.333,0,0,1-3.55-4.7,26.006,26.006,0,0,1-2.435-16.854c1.747-9.878,5.827-13.27,10.566-16.324h0c6.46-4.183,12.19-3.405,12.431-3.371s6.04,1.211,8.441,12.032c.537,2.442,1.039,4.416,1.479,6.15,1.472,5.847,2.153,8.516.846,15.058-1.782,8.943-6.377,14.5-9.789,14.728Zm-1.981-47.356a20.039,20.039,0,0,0-10.738,3.329h0c-4.767,3.075-8.551,6.191-10.264,15.863A25.172,25.172,0,0,0,86.8,209.713a25.88,25.88,0,0,0,3.44,4.582c2.648,2.951,14.164,6.721,17.439,6.5,3.089-.2,7.471-5.682,9.163-14.178,1.273-6.384.612-9-.839-14.749-.44-1.747-.942-3.722-1.486-6.191-2.3-10.374-7.822-11.488-7.877-11.5a8.647,8.647,0,0,0-1.183-.048Zm-10.924,3.041Z" transform="translate(-56.867 -162.952)" fill="#263238"/>
        <path id="Trazado_798460" data-name="Trazado 798460" d="M117.584,165.222a40.993,40.993,0,0,1,10.821,6.611,1.2,1.2,0,0,1-.241,2.016,4.816,4.816,0,0,1-3.391.172,55.185,55.185,0,0,1,14.137,15.671,1.6,1.6,0,0,1-1.452,2.421,6.543,6.543,0,0,1-2.133-.543c2.752,2.3,4.265,4.162,3.44,5.345-1.108.206-2.5-2.573-3.529-2.992a19.447,19.447,0,0,1,3.1,9.342,2.064,2.064,0,0,1-3.44,1.672l-.179-.151.461,4.932a1.431,1.431,0,0,1-2.8.537.722.722,0,0,1-.041-.165c.688,1.527,1.376,3.137.956,4.815a2.752,2.752,0,0,1-2.229,2.188c-1.8.241-3.047-1.61-3.756-3.247,0,0,.956-22.756-10.209-37.361-6.267-8.193-9.252-9.225-9.252-9.225C107.953,162.677,115.348,164.286,117.584,165.222Z" transform="translate(-64.511 -160.06)" fill="#263238"/>
        <path id="Trazado_798461" data-name="Trazado 798461" d="M92.048,164.418a64.876,64.876,0,0,0-10.511-4.712c-7.044-2.752-15.574-1.754-21.429,3.109a1.224,1.224,0,0,0,.475,2.126l1.878.5a13.022,13.022,0,0,0-7.3,3.8,1.307,1.307,0,0,0,1.28,2.167h0a25.4,25.4,0,0,0-11.364,14.783,2.2,2.2,0,0,0,3.316,2.477,12.692,12.692,0,0,0,2.332-1.954,36.851,36.851,0,0,0-5.565,10.676c-.323.984-.585,2.146.248,2.931a2.064,2.064,0,0,0,2.194.33,5.456,5.456,0,0,0,2.573-3.034,16.42,16.42,0,0,0-1.2,5.909,1.025,1.025,0,0,0,1.85.633l.8-1.1a12.726,12.726,0,0,0,1.314,12.286,1.032,1.032,0,0,0,1.734-.069l2.146-3.729c-.64,1.555-1.28,3.357-.516,4.857.688,1.376,3.054,1.527,3.618.323-.151,1.238,1.314,2.442,2.655,2.3,1.507-.144,2.7-1.293,3.749-2.373,7.691,5.5,11.695,4.4,12.589-3.811.241-2.181-1.637-2.882-4.423-7.7,0,0-3.274-6.315-1.541-9.906a10.883,10.883,0,0,1,1.582,2.559l2.36,3.653s-.743-.516-.275-4.63A62.264,62.264,0,0,1,78.8,187c5.3-17.232,22.309-10.209,22.013-8.117C100.819,178.878,98.679,168.545,92.048,164.418Z" transform="translate(-44.85 -158.196)" fill="#263238"/>
        <path id="Trazado_798462" data-name="Trazado 798462" d="M119.175,228.851a4.355,4.355,0,0,1-2.841-.949.343.343,0,1,1,.482-.488,4,4,0,0,0,3.667.55,1.465,1.465,0,0,0,1.025-1.245,1.121,1.121,0,0,0-.371-.647.261.261,0,0,0-.255,0,.345.345,0,1,1-.241-.647.949.949,0,0,1,.832.041,1.816,1.816,0,0,1,.688,1.163.365.365,0,0,1,0,.089A2.126,2.126,0,0,1,120.7,228.6a4.176,4.176,0,0,1-1.527.255Z" transform="translate(-67.127 -179.154)" fill="#263238"/>
        <path id="Trazado_798463" data-name="Trazado 798463" d="M117.227,225.574c-.475,0-.949,0-1.376-.041a.344.344,0,1,1,.034-.688,10.313,10.313,0,0,0,4.994-.605.784.784,0,0,0,.31-.757.564.564,0,0,0-.585-.344.349.349,0,0,1-.117-.688,1.238,1.238,0,0,1,1.376.784,1.438,1.438,0,0,1-.647,1.6,8.689,8.689,0,0,1-3.99.736Z" transform="translate(-66.906 -178.243)" fill="#263238"/>
        <path id="Trazado_798464" data-name="Trazado 798464" d="M118.582,214.709a1.933,1.933,0,0,1-1.513-.605.351.351,0,0,1,.062-.482.344.344,0,0,1,.482.055c.041.048.812.908,2.924-.3a1.768,1.768,0,0,0,.984-1.176c.234-1.183-1.025-2.752-2.126-4.2a5.613,5.613,0,0,1-.915-4.9.356.356,0,0,1,.688.186,4.953,4.953,0,0,0,.8,4.3c1.19,1.527,2.545,3.268,2.256,4.753a2.456,2.456,0,0,1-1.314,1.644,4.739,4.739,0,0,1-2.325.736Z" transform="translate(-67.367 -172.125)" fill="#263238"/>
        <path id="Trazado_798465" data-name="Trazado 798465" d="M106.289,207.927c.53-.083,1.087.688,1.245,1.727s-.144,1.94-.688,2.016-1.087-.688-1.245-1.727S105.76,207.975,106.289,207.927Z" transform="translate(-63.797 -173.715)" fill="#263238"/>
        <path id="Trazado_798466" data-name="Trazado 798466" d="M124,206.084c.158,1.039-.144,1.94-.688,2.022s-1.094-.688-1.252-1.727.144-1.94.688-2.022S123.843,205.052,124,206.084Z" transform="translate(-68.933 -172.601)" fill="#263238"/>
        <path id="Trazado_798467" data-name="Trazado 798467" d="M100.675,204.764h-.089a.344.344,0,0,1-.241-.42,3.55,3.55,0,0,1,1.823-2.339c2.8-1.507,7.567.069,7.739.138a.344.344,0,0,1,.213.44.337.337,0,0,1-.433.213c-.048,0-4.664-1.548-7.189-.186a2.862,2.862,0,0,0-1.479,1.892A.344.344,0,0,1,100.675,204.764Z" transform="translate(-62.165 -171.666)" fill="#263238"/>
        <path id="Trazado_798468" data-name="Trazado 798468" d="M120.513,200.99a.372.372,0,0,1-.22-.076.351.351,0,0,1-.048-.488c1.245-1.541,2.5-2.332,3.715-2.346h0a2.752,2.752,0,0,1,1.995.874.342.342,0,1,1-.523.44,2.064,2.064,0,0,0-1.507-.626c-.984,0-2.064.743-3.171,2.064a.337.337,0,0,1-.241.158Z" transform="translate(-68.355 -170.643)" fill="#263238"/>
        <path id="Trazado_798469" data-name="Trazado 798469" d="M86.31,220.332S84.054,222,81.736,219.4s-4.031-7.072-1.376-8.812,5.414,4.492,5.414,4.492Z" transform="translate(-55.512 -174.452)" fill="#999"/>
        <g id="Grupo_1064963" data-name="Grupo 1064963" transform="translate(23.503 35.832)" clip-path="url(#clip-path-3)">
          <path id="Trazado_798470" data-name="Trazado 798470" d="M86.31,220.332S84.054,222,81.736,219.4s-4.031-7.072-1.376-8.812,5.414,4.492,5.414,4.492" transform="translate(-79.015 -210.284)" opacity="0.3"/>
        </g>
        <path id="Trazado_798472" data-name="Trazado 798472" d="M84.392,221.042a4.045,4.045,0,0,1-3.061-1.568c-1.6-1.8-3.075-4.637-2.752-6.927a3.247,3.247,0,0,1,1.486-2.4,2.064,2.064,0,0,1,1.809-.261c2.229.688,4.031,4.733,4.128,4.9a.346.346,0,0,1-.633.282c0-.041-1.747-3.949-3.673-4.527a1.376,1.376,0,0,0-1.238.179,2.594,2.594,0,0,0-1.176,1.919c-.282,2.064,1.142,4.753,2.593,6.377,2.064,2.325,4.024.936,4.127.874a.351.351,0,0,1,.482.076.344.344,0,0,1-.069.482,3.68,3.68,0,0,1-2.022.592Z" transform="translate(-55.362 -174.296)" fill="#263238"/>
        <path id="Trazado_798473" data-name="Trazado 798473" d="M119.416,257.964c-11.3-3.5-24.455-7.464-32.256-11.571,0,0,1.637-4.313,3.151-4.994,0,0,3.722-.131,9.734,2.236C108.031,246.786,119.176,257.5,119.416,257.964Z" transform="translate(-58.054 -184.162)" fill="#fff"/>
        <path id="Trazado_798474" data-name="Trazado 798474" d="M119.259,258.183h-.1l-1.974-.612c-10.766-3.329-22.963-7.1-30.344-11.007a.344.344,0,0,1-.158-.427c.172-.454,1.734-4.465,3.336-5.18a.406.406,0,0,1,.131,0c.151,0,3.852-.1,9.865,2.263,8.014,3.158,19.262,13.868,19.557,14.488a.344.344,0,0,1-.048.378A.316.316,0,0,1,119.259,258.183ZM87.436,246.089c7.347,3.8,19.344,7.519,29.945,10.793l.736.227c-2.8-2.752-11.743-10.69-18.36-13.291A27.8,27.8,0,0,0,90.25,241.6h0C89.2,242.148,87.959,244.8,87.436,246.089Z" transform="translate(-57.897 -184.023)" fill="#263238"/>
        <path id="Trazado_798475" data-name="Trazado 798475" d="M89.091,329.075c-1.747,2.27-2.676,4.664-4.416,6.934-7.732-3.33-18.395-13.655-27.042-19.661-7.368-5.118-4.258-12.988-4.258-13,.3-1.376,11.206-41.963,12-43.862,2.064-4.9,5.5-11.364,10.649-10.1,15.3,3.729-6.707,57.276-6.707,57.276C70.208,307.5,82.886,322.086,89.091,329.075Z" transform="translate(-47.307 -186.605)" fill="#ffce1f"/>
        <path id="Trazado_798476" data-name="Trazado 798476" d="M84.512,336.207a.31.31,0,0,1-.138,0c-4.932-2.126-11.075-7.092-17.012-11.894-3.405-2.752-6.92-5.6-10.092-7.8a11.366,11.366,0,0,1-4.389-13.394h0c.557-2.105,11.137-41.812,12.011-43.875,2.153-5.056,5.641-11.619,11.048-10.319a6.3,6.3,0,0,1,4.217,3.44C86.349,264.512,71,302.85,69.55,306.413c1,1.046,5.187,5.82,9.982,11.289,3.495,3.983,7.106,8.1,9.631,11.007a.337.337,0,0,1,0,.433,29.735,29.735,0,0,0-2.194,3.44,29.948,29.948,0,0,1-2.229,3.495.337.337,0,0,1-.227.131Zm-9.934-86.781c-4.251,0-7.168,5.634-9.053,10.05-.688,1.665-11.461,41.454-11.977,43.793a10.7,10.7,0,0,0,4.127,12.651c3.192,2.215,6.721,5.07,10.126,7.828,5.806,4.692,11.8,9.548,16.613,11.695a31.952,31.952,0,0,0,2.009-3.206,33.781,33.781,0,0,1,2.064-3.3c-2.538-2.855-6.061-6.879-9.473-10.766-4.939-5.613-9.583-10.924-10.1-11.406a.351.351,0,0,1-.089-.385c.172-.413,16.93-41.488,10.718-53.657a5.641,5.641,0,0,0-3.763-3.116,4.975,4.975,0,0,0-1.2-.186Z" transform="translate(-47.145 -186.459)" fill="#263238"/>
        <g id="Grupo_1064964" data-name="Grupo 1064964" transform="translate(5.416 62.621)" clip-path="url(#clip-path-4)">
          <path id="Trazado_798477" data-name="Trazado 798477" d="M63.666,262.86a95.8,95.8,0,0,0,3.44,24.861l-2.937-3.55c.915,5.194,1.837,10.456,1.376,15.705a7.717,7.717,0,0,1-1.52,4.437c-1.046,1.19-3.041,1.692-4.258.688,1.3-.227,2.064,1.61,1.988,2.931a2.3,2.3,0,0,1-2.807,2c-.42.832.736,1.623,1.665,1.6s1.933-.385,2.752.1a3.034,3.034,0,0,1,.991,1.926,55.212,55.212,0,0,0,12.458,23c-8.922-6.191-18.237-12.74-26.216-20.177-2.9-2.71-5.964-6.226-5.173-10.112C48.6,290.8,56.856,277.107,63.666,262.86Z" transform="translate(-50.405 -253.481)" opacity="0.3"/>
        </g>
        <path id="Trazado_798480" data-name="Trazado 798480" d="M150.621,445.65a76.623,76.623,0,0,1-12.96-1.5c-18.347-3.818-36.46-16.758-47.019-39.211-1.018-2.174-1.961-4.41-2.848-6.7a2.319,2.319,0,0,0,0-.392,50.906,50.906,0,0,1,2.538-17.886h0l50.4-1.961h0a255.712,255.712,0,0,0,6.494,52.97Z" transform="translate(-58.241 -226.794)" fill="#263238"/>
        <path id="Trazado_798481" data-name="Trazado 798481" d="M119.852,264.192c7.024,6.879,12.527,19.069,11.633,28.892-1.218,13.311-.131,5.345,1.878,18.574,2.628,17.308,3,37.835,3,37.835-18.574,4.932-41.344,1.782-51.834-8.049-.371-17.452,7.505-25.226.688-41.275C81.087,290.539,74.291,279.691,73,269.276c-.949-7.656-1.816-13.593,2.47-17.6a10.814,10.814,0,0,1,6.982-2.752C105.563,247.93,119.852,264.192,119.852,264.192Z" transform="translate(-53.392 -186.496)" fill="#ffce1f"/>
        <path id="Trazado_798482" data-name="Trazado 798482" d="M118.169,351.856c-13.758,0-26.946-3.763-34.045-10.422a.33.33,0,0,1-.11-.241,72.1,72.1,0,0,1,1.933-16.923c1.575-7.753,2.944-14.446-1.218-24.242-1.176-2.752-2.559-5.6-4.017-8.592-3.591-7.34-7.3-14.928-8.255-22.4l-.076-.605c-.922-7.409-1.644-13.263,2.655-17.287a11.117,11.117,0,0,1,7.2-2.862C105,247.4,119.463,263.26,119.9,263.755c7.526,7.381,12.568,19.908,11.729,29.133-.729,7.945-.633,8.255,0,10.03a42.3,42.3,0,0,1,1.885,8.454c2.6,17.129,3,37.656,3.006,37.835a.344.344,0,0,1-.255.337A71.209,71.209,0,0,1,118.169,351.856ZM84.7,341.035c10.092,9.342,32.463,12.809,51.14,7.939a337.229,337.229,0,0,0-2.992-37.5,42.379,42.379,0,0,0-1.85-8.331c-.688-1.926-.764-2.229,0-10.319.826-9.046-4.127-21.325-11.529-28.59h0c-.144-.165-14.446-16.132-37.147-15.251a10.429,10.429,0,0,0-6.755,2.676c-4.052,3.784-3.343,9.486-2.442,16.7l.076.605c.881,7.313,4.568,14.88,8.131,22.165,1.465,3,2.848,5.833,4.031,8.626,4.244,9.989,2.862,16.785,1.259,24.648A71.109,71.109,0,0,0,84.7,341.035Z" transform="translate(-53.223 -186.3)" fill="#263238"/>
        <g id="Grupo_1064965" data-name="Grupo 1064965" transform="translate(18.829 62.38)" clip-path="url(#clip-path-5)">
          <path id="Trazado_798483" data-name="Trazado 798483" d="M97.764,268.982a111.064,111.064,0,0,1,7.657,20.17l-13.758-8a62.689,62.689,0,0,0,17.363,17.961,4.4,4.4,0,0,0-2.676,2.876,8.565,8.565,0,0,0,.151,3.543,46.964,46.964,0,0,0,10.319,21.387,31.644,31.644,0,0,1-10.539-7.567,168.532,168.532,0,0,1-13.614-15.774,3.675,3.675,0,0,0-2.9-1.451A43.208,43.208,0,0,0,112.754,332.2c-2.139,1.183-5.276,1.85-7.416.654a21.79,21.79,0,0,1-5.414-4.891l-7.581-8.592c1.713,11.165,9.074,21.945,19.475,26.347a19.454,19.454,0,0,1,8.028,6.274c-12.506,2.1-25.453-2.421-35.407-10.243-.433-8.943,3.164-17.232,3.44-28.892.179-6.838-5.414-19.09-9.473-26.54A58.875,58.875,0,0,1,72.1,264.683a17.414,17.414,0,0,1,3.247-12.72C76.528,250.292,85.561,244.1,97.764,268.982Z" transform="translate(-72.133 -249.244)" opacity="0.3"/>
        </g>
        <path id="Trazado_798486" data-name="Trazado 798486" d="M222.594,259.57l-.234.151a9.438,9.438,0,0,0-3.385,3.557h0l-9.9-5.338c.289-1.231,1.417-2.552.777-3.756a8.826,8.826,0,0,1-1.176-4.54c.034-.853.124-1.713.227-2.58a23.953,23.953,0,0,0-.31-6.879,4.547,4.547,0,0,1-.11-1.376,1.658,1.658,0,0,1,1.273-1.121c.977-.2,1.816.736,2.222,1.534a14.017,14.017,0,0,1,.688,2.518c.351,1.28.275,2.875,1.025,3.928a1.376,1.376,0,0,0,2.064-.131c1.218-2.263,6.576-12.493,6.576-12.493a2.27,2.27,0,0,1,1.266-1.156c1.8-.605,2.951,1.321,2.064,2.979l-5.82,10.5,3.068-5.627s.688-.942,1.954,0c.688.564,1.039,1.149.537,2.064l-2.752,5.084,2.373-4.334a1.52,1.52,0,0,1,1.9.117,1.981,1.981,0,0,1,.764,1.844l-2.621,4.87,1.548-2.882a1.665,1.665,0,0,1,1.8.117,1.885,1.885,0,0,1,.832,2.16c-.048.158-3.082,5.751-4.4,8.186A6.969,6.969,0,0,1,222.594,259.57Z" transform="translate(-95.914 -181.159)" fill="#999"/>
        <path id="Trazado_798487" data-name="Trazado 798487" d="M218.955,263.56l-10.429-5.62.062-.255a6.8,6.8,0,0,1,.468-1.259c.358-.819.688-1.589.337-2.256a9.1,9.1,0,0,1-1.218-4.719c.034-.757.11-1.582.234-2.607a23.7,23.7,0,0,0-.31-6.8v-.117a4.059,4.059,0,0,1-.083-1.431,2,2,0,0,1,1.534-1.376c1.156-.241,2.126.77,2.6,1.713a7.431,7.431,0,0,1,.523,1.782c.062.282.117.55.186.8a12.108,12.108,0,0,1,.268,1.424,5.62,5.62,0,0,0,.688,2.394.908.908,0,0,0,.736.234.894.894,0,0,0,.688-.33c1.2-2.229,6.521-12.382,6.576-12.493a2.566,2.566,0,0,1,1.458-1.314,2.064,2.064,0,0,1,2.284.564,2.607,2.607,0,0,1,.186,2.9l-2.188,4.011a2.064,2.064,0,0,1,1.376.509,1.792,1.792,0,0,1,.64,2.49,1.912,1.912,0,0,1,1.438.468,2.3,2.3,0,0,1,.88,2.174l-.034.1-.688,1.286a2.642,2.642,0,0,1,1.28.351,2.243,2.243,0,0,1,1,2.566c0,.069-.062.206-4.43,8.255a7.4,7.4,0,0,1-2.394,2.683h0l-.248.158a9.122,9.122,0,0,0-3.254,3.44Zm-9.631-5.971,9.363,5.049a9.789,9.789,0,0,1,3.336-3.391l.227-.138a6.8,6.8,0,0,0,2.167-2.435c2.655-4.884,4.293-7.932,4.389-8.145h0a1.575,1.575,0,0,0-.688-1.734,1.486,1.486,0,0,0-1.376-.172l-1.507,2.793-.605-.323h0l2.587-4.815a1.658,1.658,0,0,0-.654-1.465,1.183,1.183,0,0,0-1.417-.151l-2.339,4.265-.6-.323,2.752-5.091c.365-.688.255-1.094-.447-1.644-.853-.688-1.328-.248-1.452-.11l-3.054,5.6-.605-.323h0l3.061-5.613h0l2.731-4.919a1.926,1.926,0,0,0-.1-2.126,1.376,1.376,0,0,0-1.541-.358,1.892,1.892,0,0,0-1.066.977c-.062.11-5.38,10.271-6.583,12.5a1.734,1.734,0,0,1-2.621.172,6.192,6.192,0,0,1-.826-2.69,12.1,12.1,0,0,0-.248-1.376c-.076-.261-.138-.55-.193-.839a7.188,7.188,0,0,0-.475-1.617c-.289-.578-1.011-1.527-1.844-1.376a1.321,1.321,0,0,0-1,.867,3.955,3.955,0,0,0,.1,1.149v.117a24.077,24.077,0,0,1,.31,7c-.124,1-.193,1.823-.227,2.559A8.4,8.4,0,0,0,210,253.82a3.19,3.19,0,0,1-.316,2.855A8.872,8.872,0,0,0,209.324,257.589Z" transform="translate(-95.763 -180.981)" fill="#263238"/>
        <path id="Trazado_798488" data-name="Trazado 798488" d="M205.48,270.217l1.912-5.579s9-.371,12.912,6.563l-5.73,6.191S214.712,272.412,205.48,270.217Z" transform="translate(-94.98 -191.414)" fill="#fff"/>
        <path id="Trazado_798489" data-name="Trazado 798489" d="M214.412,277.584a.4.4,0,0,1-.131,0,.344.344,0,0,1-.213-.33c0-.048,0-4.74-8.833-6.831a.323.323,0,0,1-.248-.186.351.351,0,0,1,0-.275l1.912-5.579a.358.358,0,0,1,.316-.234c.089,0,9.259-.3,13.222,6.735a.344.344,0,0,1-.048.406l-5.73,6.191a.316.316,0,0,1-.248.1Zm-8.647-7.76c6.982,1.754,8.544,5.118,8.895,6.645L219.716,271c-3.44-5.847-10.842-6.191-12.245-6.191Z" transform="translate(-94.817 -191.262)" fill="#263238"/>
        <path id="Trazado_798490" data-name="Trazado 798490" d="M114.92,285.83s2.229,15.251,16.875,30.028c8.042,8.117,14.893,7.292,14.893,7.292S127.062,311.056,114.92,285.83Z" transform="translate(-66.718 -198.029)" fill="#263238"/>
        <path id="Trazado_798491" data-name="Trazado 798491" d="M187.536,275.863c-6.927,13.366-13.119,24.077-22.763,35.607a24.615,24.615,0,0,1-7.01,6.288c-2.786,1.472-5.091,2.208-7.856.688a83.355,83.355,0,0,1-32.229-32.029c-2.814-5.015-5.063-11.371-2.064-16.29,2.332-3.866,8.069-6.521,12.266-4.864,3.247,1.28,5.5,4.224,7.567,7.044,3.942,5.441,14.763,22.7,16.441,25.281,8.6-8.62,17.2-18.092,25.15-27.324C178.545,268.447,186.229,272.43,187.536,275.863Z" transform="translate(-66.49 -191.453)" fill="#ffce1f"/>
        <path id="Trazado_798492" data-name="Trazado 798492" d="M152.8,319.464a6.48,6.48,0,0,1-3.213-.881,84.325,84.325,0,0,1-32.332-32.167c-3.873-6.914-4.575-12.506-2.064-16.634,2.3-3.818,8.221-6.769,12.685-5,3.24,1.273,5.5,4.128,7.7,7.161,2.931,4.045,9.631,14.563,13.607,20.851,1.169,1.837,2.064,3.288,2.607,4.086,7.822-7.849,16.173-16.936,24.834-27a2.467,2.467,0,0,1,2.4-.5c3.068.537,7.7,3.5,8.73,6.191a.365.365,0,0,1,0,.282c-7.12,13.593-13.38,24.3-22.873,35.689-2.332,2.793-4.437,4.953-7.113,6.37A10.793,10.793,0,0,1,152.8,319.464Zm-27.881-54.531a11.516,11.516,0,0,0-9.191,5.208c-2.353,3.894-1.651,9.259,2.064,15.939a83.685,83.685,0,0,0,32.1,31.906c2.545,1.376,4.692.812,7.526-.688a23.209,23.209,0,0,0,6.879-6.191c9.418-11.289,15.664-21.924,22.653-35.407-1.032-2.36-5.393-5.146-8.145-5.62-.867-.151-1.493-.055-1.768.261-8.778,10.209-17.246,19.406-25.164,27.338a.337.337,0,0,1-.275.1.365.365,0,0,1-.255-.151c-.433-.688-1.472-2.291-2.841-4.451-3.99-6.281-10.67-16.792-13.586-20.816-2.153-2.965-4.334-5.723-7.4-6.927a7.127,7.127,0,0,0-2.6-.5Z" transform="translate(-66.342 -191.296)" fill="#263238"/>
        <g id="Grupo_1064966" data-name="Grupo 1064966" transform="translate(47.701 73.306)" clip-path="url(#clip-path-6)">
          <path id="Trazado_798493" data-name="Trazado 798493" d="M159.6,320a12.754,12.754,0,0,0,5.441-6.707c-1.967,1.293-4.086,2.607-6.439,2.655s-5.18-2.139-5.042-4.492c.4.144.344.826-.048,1a.936.936,0,0,1-1.1-.413,2.751,2.751,0,0,1-.337-1.218c-.213-1.823-.688-3.845-.908-5.668-.936,2.573-.929,1.885-1.864,4.465a3.914,3.914,0,0,1-.97,1.7c-.5.433-1.341-.2-1.871-.592-2.311-1.713-8.351-9.768-15.451-18.264-6.343-7.567-13.621-21.126-16.826-15.5,0,0-.076,5.682,4.128,13.889,6.769,13.242,22.123,28.019,35.269,31.892C155.923,323.442,156.769,321.543,159.6,320Z" transform="translate(-114.188 -268.153)" opacity="0.3"/>
        </g>
        <path id="Trazado_798496" data-name="Trazado 798496" d="M93.523,192a14.639,14.639,0,0,0-.44,9.631c-1.286,5.441.688,7.567,2.387,7.76a11.7,11.7,0,0,0-.585,2.841,2.972,2.972,0,0,0,.743,2.339,1.816,1.816,0,0,0,2.3.261,9.4,9.4,0,0,0,0,2.6,2.869,2.869,0,0,0,1.286,2.022,1.768,1.768,0,0,0,2.236-.365c-1.6,3.57,2.181,5.1,2.5,4.76-.371.034-.688-.365-.8-.77-.736-2.5.929-3.522.881-5.937-.069-3.281-3.006-2.648-2.869-1.94.11-.378.688-6.962-2.4-6.391-.53.1,1.892-5.152-1.149-5.909-.53-.138-1.218.3-1.059.832,4.733-23.8,17.652-18.925,17.652-18.925C110.246,180.558,97.651,180.345,93.523,192Z" transform="translate(-59.712 -165.669)" fill="#263238"/>
        <circle id="Elipse_8331" data-name="Elipse 8331" cx="1.754" cy="1.754" r="1.754" transform="translate(27.778 47.95)" fill="#999"/>
        <path id="Trazado_798497" data-name="Trazado 798497" d="M86.844,231.618a2.064,2.064,0,1,1,2.064-2.064A2.064,2.064,0,0,1,86.844,231.618Zm0-3.5a1.376,1.376,0,1,0,1.376,1.376,1.376,1.376,0,0,0-1.376-1.376Z" transform="translate(-57.311 -179.822)" fill="#263238"/>
        <path id="Trazado_798498" data-name="Trazado 798498" d="M120.843,260.548a.344.344,0,0,1-.255-.11,29.943,29.943,0,0,0-13.71-9.266.344.344,0,0,1,.227-.647,30.472,30.472,0,0,1,14,9.452.351.351,0,0,1,0,.488A.372.372,0,0,1,120.843,260.548Z" transform="translate(-64.145 -187.007)" fill="#263238"/>
        <path id="Trazado_798499" data-name="Trazado 798499" d="M169.8,313.72a21.477,21.477,0,0,0-.564,9.067" transform="translate(-83.594 -206.733)" fill="#ffce1f"/>
        <path id="Trazado_798500" data-name="Trazado 798500" d="M169.085,322.974a.344.344,0,0,1-.337-.289,21.958,21.958,0,0,1,.571-9.218.33.33,0,0,1,.42-.234.344.344,0,0,1,.241.42,21.277,21.277,0,0,0-.55,8.943.351.351,0,0,1-.289.392Z" transform="translate(-83.44 -206.576)" fill="#263238"/>
        <path id="Trazado_798501" data-name="Trazado 798501" d="M172.809,329.433a.344.344,0,0,1-.3-.186,13.173,13.173,0,0,1-1.52-7.092.345.345,0,1,1,.688.048,12.527,12.527,0,0,0,1.445,6.721.351.351,0,0,1-.138.468A.365.365,0,0,1,172.809,329.433Z" transform="translate(-84.206 -209.265)" fill="#263238"/>
        <path id="Trazado_798502" data-name="Trazado 798502" d="M95.58,336.127a.344.344,0,0,1-.337-.261,81.862,81.862,0,0,0-9.686-23.534.346.346,0,0,1,.592-.358A82.846,82.846,0,0,1,95.917,335.7a.358.358,0,0,1-.255.42Z" transform="translate(-57.539 -206.136)" fill="#263238"/>
        <path id="Trazado_798503" data-name="Trazado 798503" d="M122.054,311.831a.3.3,0,0,1-.151-.034,51.041,51.041,0,0,1-6.191-3.673.344.344,0,0,1-.089-.482.337.337,0,0,1,.475-.089,50.715,50.715,0,0,0,6.143,3.632.344.344,0,0,1-.158.647Z" transform="translate(-66.917 -204.789)" fill="#263238"/>
        <path id="Trazado_798504" data-name="Trazado 798504" d="M105.133,297.447a.385.385,0,0,1-.22-.076A52.922,52.922,0,0,1,91.8,281.549a.344.344,0,0,1,.144-.468.337.337,0,0,1,.461.144,52.186,52.186,0,0,0,12.94,15.609.344.344,0,0,1-.213.612Z" transform="translate(-59.49 -196.534)" fill="#263238"/>
        <path id="Trazado_798505" data-name="Trazado 798505" d="M150.2,380.32a.351.351,0,0,1-.344-.3l-4.382-38.42a.343.343,0,0,1,.681-.076l4.382,38.413a.344.344,0,0,1-.3.385Z" transform="translate(-76.251 -215.314)" fill="#263238"/>
        <path id="Trazado_798506" data-name="Trazado 798506" d="M145.09,335.585a.33.33,0,0,1-.337-.3l-.585-5.125a.33.33,0,0,1,.3-.378.337.337,0,0,1,.378.3l.585,5.125a.344.344,0,0,1-.3.378Z" transform="translate(-75.844 -211.744)" fill="#263238"/>
        <path id="Trazado_798507" data-name="Trazado 798507" d="M65.3,332.929a17.3,17.3,0,0,1-7.388-1.617.337.337,0,0,1,0-.619,9.342,9.342,0,0,1,7.567-.186.337.337,0,0,1,.186.447.351.351,0,0,1-.454.186,8.661,8.661,0,0,0-6.26-.131,16.661,16.661,0,0,0,10.422.736.355.355,0,0,1,.179.688,16.971,16.971,0,0,1-4.251.5Z" transform="translate(-48.861 -211.75)" fill="#263238"/>
        <path id="Trazado_798508" data-name="Trazado 798508" d="M70.1,325.99h-.041a11.13,11.13,0,0,1-8.021-5.228.346.346,0,1,1,.592-.358,10.532,10.532,0,0,0,7.512,4.877.356.356,0,0,1-.041.709Z" transform="translate(-50.198 -208.767)" fill="#263238"/>
        <path id="Trazado_798509" data-name="Trazado 798509" d="M78,300.21a.351.351,0,0,1-.275-.138L70.6,290.531a.351.351,0,0,1,.069-.482.344.344,0,0,1,.482.076l7.127,9.534a.351.351,0,0,1-.069.482A.337.337,0,0,1,78,300.21Z" transform="translate(-52.865 -199.325)" fill="#263238"/>
        <path id="Trazado_798510" data-name="Trazado 798510" d="M125.655,442.363a.37.37,0,0,1-.144,0c-6.315-2.917-13.449-9.7-18.175-17.287a.344.344,0,1,1,.578-.365c4.664,7.485,11.695,14.164,17.886,17.026a.344.344,0,0,1,.165.461.337.337,0,0,1-.31.165Z" transform="translate(-64.327 -241.31)" fill="#999"/>
        <path id="Trazado_798511" data-name="Trazado 798511" d="M105.251,420.6a.337.337,0,0,1-.31-.206c-.42-.908-.8-1.844-1.142-2.752a.337.337,0,0,1,.206-.44.351.351,0,0,1,.44.206c.33.915.688,1.837,1.121,2.752a.344.344,0,0,1-.172.454A.371.371,0,0,1,105.251,420.6Z" transform="translate(-63.24 -239.022)" fill="#999"/>
        <path id="Trazado_798512" data-name="Trazado 798512" d="M123.534,452.126a.344.344,0,0,1-.33-.261L120.315,440.8a.351.351,0,0,1,.248-.427.358.358,0,0,1,.42.248l2.882,11.1a.344.344,0,0,1-.248.42Z" transform="translate(-68.398 -246.258)" fill="#999"/>
        <path id="Trazado_798513" data-name="Trazado 798513" d="M124.427,349.772a.331.331,0,0,1-.193-.055,79.007,79.007,0,0,1-26.382-28.948A.351.351,0,0,1,98,320.3a.344.344,0,0,1,.468.144,78.257,78.257,0,0,0,26.141,28.686.351.351,0,0,1,.1.482.358.358,0,0,1-.282.158Z" transform="translate(-61.379 -208.774)" fill="#263238"/>
        <path id="Trazado_798514" data-name="Trazado 798514" d="M94.788,313.931a.337.337,0,0,1-.31-.2c-.764-1.6-1.472-3.254-2.119-4.9a.344.344,0,0,1,.2-.447.351.351,0,0,1,.447.193c.633,1.637,1.376,3.275,2.064,4.864a.344.344,0,0,1-.165.461A.372.372,0,0,1,94.788,313.931Z" transform="translate(-59.67 -205.059)" fill="#263238"/>
        <path id="Trazado_798515" data-name="Trazado 798515" d="M141.31,295.487l4.079-4.877" transform="translate(-74.954 -199.521)" fill="#ffce1f"/>
        <path id="Trazado_798516" data-name="Trazado 798516" d="M141.154,295.676a.351.351,0,0,1-.22-.083.337.337,0,0,1-.041-.482l4.072-4.877a.351.351,0,0,1,.488-.041.337.337,0,0,1,.041.482l-4.072,4.864A.344.344,0,0,1,141.154,295.676Z" transform="translate(-74.798 -199.366)" fill="#263238"/>
        <path id="Trazado_798517" data-name="Trazado 798517" d="M133.9,295.322a12.816,12.816,0,0,0,7.2-5.9" transform="translate(-72.641 -199.149)" fill="#ffce1f"/>
        <path id="Trazado_798518" data-name="Trazado 798518" d="M133.742,295.47a.346.346,0,0,1-.11-.674,12.445,12.445,0,0,0,7-5.737.345.345,0,0,1,.605.33,13.146,13.146,0,0,1-7.4,6.061Z" transform="translate(-72.484 -198.98)" fill="#263238"/>
      </g>
    </g>
  </g>
</svg>
