<svg id="Grupo_1064987" data-name="Grupo 1064987" xmlns="http://www.w3.org/2000/svg" xmlns:xlink="http://www.w3.org/1999/xlink" width="294.615" height="319" viewBox="0 0 294.615 319">
  <defs>
    <clipPath id="clip-path">
      <rect id="Rectángulo_374161" data-name="Rectángulo 374161" width="294.615" height="319" fill="none"/>
    </clipPath>
    <clipPath id="clip-path-3">
      <rect id="Rectángulo_374157" data-name="Rectángulo 374157" width="79.182" height="117.399" fill="none"/>
    </clipPath>
    <clipPath id="clip-path-4">
      <rect id="Rectángulo_374158" data-name="Rectángulo 374158" width="177.707" height="239.332" fill="none"/>
    </clipPath>
    <clipPath id="clip-path-5">
      <rect id="Rectángulo_374159" data-name="Rectángulo 374159" width="199.557" height="192.245" fill="none"/>
    </clipPath>
  </defs>
  <g id="Grupo_1064986" data-name="Grupo 1064986" clip-path="url(#clip-path)">
    <g id="Grupo_1064985" data-name="Grupo 1064985">
      <g id="Grupo_1064984" data-name="Grupo 1064984" clip-path="url(#clip-path)">
        <path id="Trazado_798521" data-name="Trazado 798521" d="M294.609,145.242c.015,2.942,0,5.883-.015,8.84-.06,5.733-.166,11.48-.166,17.183V319H0V145.257q0-2.082.045-4.164A142.618,142.618,0,0,1,10.319,92.065a150.253,150.253,0,0,1,30.1-46.917A136.293,136.293,0,0,1,52.86,33.442c2.534-2.157,5.159-4.209,7.845-6.155,1.69-1.237,3.424-2.429,5.174-3.59,3.756-2.5,7.664-4.827,11.661-6.97.513-.272,1.011-.543,1.524-.784.875-.453,1.765-.905,2.655-1.343A146.5,146.5,0,0,1,111.906,3.617c1.116-.287,2.248-.543,3.394-.784h.045q6.789-1.516,13.8-2.368c.2-.015.422-.045.634-.06A165.057,165.057,0,0,1,215.017,17.5l.045.015a156.212,156.212,0,0,1,14.754,8.4h.015q5.657,3.643,10.967,7.769c1.554,1.192,3.077,2.414,4.586,3.681h.015c.407.347.83.694,1.237,1.041a144.079,144.079,0,0,1,17.183,17.409c1.3,1.539,2.549,3.108,3.771,4.707q2.037,2.67,3.937,5.446a136.276,136.276,0,0,1,14.135,26.31c.483,1.162.935,2.338,1.373,3.515.573,1.539,1.116,3.077,1.629,4.646.06.166.106.347.166.513,4.677,14.362,5.672,29.281,5.778,44.292" transform="translate(0 0)" fill="#825bb2"/>
        <path id="Trazado_798522" data-name="Trazado 798522" d="M29.228,99.532l7.777,3.553a1.358,1.358,0,0,1,0,2.471l-7.777,3.551a1.359,1.359,0,0,0-.671.671l-3.551,7.777a1.358,1.358,0,0,1-2.471,0L19,109.813a1.364,1.364,0,0,0-.733-.7L10.6,106.062a1.358,1.358,0,0,1-.119-2.47l7.872-4.055a1.35,1.35,0,0,0,.614-.643l3.568-7.81a1.359,1.359,0,0,1,2.471,0l3.551,7.777a1.359,1.359,0,0,0,.671.671" transform="translate(4.956 45.92)" fill="#ffe7d9"/>
        <path id="Trazado_798523" data-name="Trazado 798523" d="M68.546,17.643,60.762,21.2a1.353,1.353,0,0,0-.664.664l-3.56,7.784a1.362,1.362,0,0,1-2.474,0l-3.53-7.739a1.414,1.414,0,0,0-.739-.709L43.67,18.775c3.756-2.5,7.664-4.827,11.661-6.97.513-.272,1.011-.543,1.524-.784.875-.453,1.765-.905,2.655-1.343L60.1,10.96a1.353,1.353,0,0,0,.664.664l7.784,3.56a1.35,1.35,0,0,1,0,2.459" transform="translate(22.209 4.922)" fill="#ffe7d9"/>
        <path id="Trazado_798524" data-name="Trazado 798524" d="M192.973,198.255l7.777,3.553a1.359,1.359,0,0,1,0,2.471l-7.777,3.551a1.359,1.359,0,0,0-.671.671l-3.551,7.777a1.358,1.358,0,0,1-2.471,0l-3.538-7.742a1.356,1.356,0,0,0-.732-.7l-7.665-3.055a1.358,1.358,0,0,1-.119-2.47l7.872-4.055a1.35,1.35,0,0,0,.614-.643l3.568-7.81a1.359,1.359,0,0,1,2.471,0l3.551,7.777a1.359,1.359,0,0,0,.671.671" transform="translate(88.232 96.128)" fill="#ffe7d9"/>
        <path id="Trazado_798525" data-name="Trazado 798525" d="M193.252,84.975c-3.13,7.116-25.251,40.82-42.128,66.169-3.921,5.889-7.567,11.31-10.616,15.861-5.422,8.1-9,13.392-9,13.392l-15.442-65.475S144.605,88.137,164.4,73.035c.5-.355.984-.726,1.451-1.08,7.229-5.405,13.1-9.051,15.7-8.955,11.7.468,16.845,10.295,11.7,21.975" transform="translate(59.027 32.039)" fill="#ffa4a5"/>
        <g id="Grupo_1064977" data-name="Grupo 1064977" transform="translate(175.09 95.037)" opacity="0.51">
          <g id="Grupo_1064976" data-name="Grupo 1064976">
            <g id="Grupo_1064975" data-name="Grupo 1064975" clip-path="url(#clip-path-3)">
              <path id="Trazado_798526" data-name="Trazado 798526" d="M193.252,84.975c-3.13,7.116-25.251,40.82-42.128,66.169-3.921,5.889-7.567,11.31-10.616,15.861-5.422,8.1-9,13.392-9,13.392l-15.442-65.475S144.605,88.137,164.4,73.035c.5-.355.984-.726,1.451-1.08,7.229-5.405,13.1-9.051,15.7-8.955,11.7.468,16.845,10.295,11.7,21.975" transform="translate(-116.063 -62.998)" fill="#ab4c5d"/>
            </g>
          </g>
        </g>
        <path id="Trazado_798527" data-name="Trazado 798527" d="M161.728,64.357l-1.291,6.908-14.731,79.188c-3.921,5.889-7.567,11.31-10.616,15.86l-8.374.21,32.27-94.177Z" transform="translate(64.444 32.73)" fill="#3c2238"/>
        <path id="Trazado_798528" data-name="Trazado 798528" d="M219.529,32.728l-15.508,68.188-.045.181-.468,2.021-19.747,86.773v.015l-3.832,16.79-.287,1.282-.09.422-7.105,31.182a2.03,2.03,0,0,1-2.368,1.584l-44.111-8.9-1.991-.407-31.469-6.351L89.988,225l-18.133-3.651a.015.015,0,0,0-.015-.015l-2.5-.5-14.709-2.972-11.163-2.248a2.106,2.106,0,0,1-1.584-2.565L61.37,128.794l.075-.332.317-1.418L90.395,3.251a1.675,1.675,0,0,1,.241-.588c1.116-.287,2.248-.543,3.394-.784h.045l5.582.815,94.09,13.849.045.015a156.212,156.212,0,0,1,14.754,8.4h.015q5.657,3.643,10.967,7.769" transform="translate(21.27 0.955)" fill="#825bb2"/>
        <g id="Grupo_1064980" data-name="Grupo 1064980" transform="translate(63.092 2.833)" opacity="0.53">
          <g id="Grupo_1064979" data-name="Grupo 1064979">
            <g id="Grupo_1064978" data-name="Grupo 1064978" clip-path="url(#clip-path-4)">
              <path id="Trazado_798529" data-name="Trazado 798529" d="M219.529,32.728l-15.508,68.188-.045.181-.468,2.021-19.747,86.773v.015l-3.832,16.79-.287,1.282-.09.422-7.105,31.182a2.03,2.03,0,0,1-2.368,1.584l-44.111-8.9-1.991-.407-31.469-6.351L89.988,225l-18.133-3.651a.015.015,0,0,0-.015-.015l-2.5-.5-14.709-2.972-11.163-2.248a2.106,2.106,0,0,1-1.584-2.565L61.37,128.794l.075-.332.317-1.418L90.395,3.251a1.675,1.675,0,0,1,.241-.588c1.116-.287,2.248-.543,3.394-.784h.045l5.582.815,94.09,13.849.045.015a156.212,156.212,0,0,1,14.754,8.4h.015q5.657,3.643,10.967,7.769" transform="translate(-41.822 -1.878)" fill="#3c2238"/>
            </g>
          </g>
        </g>
        <path id="Trazado_798530" data-name="Trazado 798530" d="M99.658,2.693,71.1,139.143l-.422,2.021-.106.483L54.627,217.861l-11.163-2.248a2.106,2.106,0,0,1-1.584-2.565L61.37,128.794l.075-.332.317-1.418L90.395,3.251a1.675,1.675,0,0,1,.241-.588c1.116-.287,2.248-.543,3.394-.784h.045Z" transform="translate(21.27 0.955)" fill="#3c2238"/>
        <path id="Trazado_798531" data-name="Trazado 798531" d="M203.874,28.014,162.941,207.079,58.725,185.926l.6-2.839L96.206,9.2l103.28,18.055Z" transform="translate(29.866 4.679)" fill="#3c2238"/>
        <path id="Trazado_798532" data-name="Trazado 798532" d="M199.284,27.256l-40.24,176.111L59.121,183.086,96.006,9.2Z" transform="translate(30.067 4.68)" fill="#ffe7d9"/>
        <path id="Trazado_798533" data-name="Trazado 798533" d="M70.106,54.205a2.417,2.417,0,0,1-2.367-2.871L74.92,17.161a2.37,2.37,0,0,1,4.64.972L72.429,52.319a2.371,2.371,0,0,1-2.323,1.886m-1.578-2.7a1.6,1.6,0,0,0,2.387,1.675,1.554,1.554,0,0,0,.726-1.02l7.131-34.189a1.567,1.567,0,0,0-1.2-1.848,1.563,1.563,0,0,0-1.859,1.208Z" transform="translate(34.425 7.769)" fill="#ffe7d9"/>
        <path id="Trazado_798534" data-name="Trazado 798534" d="M212.549,190.6a37.712,37.712,0,0,1-9.263,10.409c0,.015,0,.015-.015.015-.981.83-2.067,1.644-3.213,2.474,0,0,.241.211.634.588a19.735,19.735,0,0,1,5.129,17.952c-2.187,10.213-16.323,21.392-19.536,23.82-.422.317-.649.468-.649.468s.256.121.709.362c2.9,1.554,13.366,8.161,8.357,20.652-.784,1.961-3.424,5.039-7.422,8.931H15.71c4.058-5.159,6.834-9.187,7.211-10.982,1.644-7.829,9.9-112.479,14-119.479.121-.2.241-.437.392-.709,2.157-4.058,7.452-16.247,13.245-28.693.06-.136.136-.287.2-.422h.015v-.015a2.51,2.51,0,0,1,.2-.407c.181-.407.362-.815.558-1.237a1.743,1.743,0,0,1,.121-.226c.453-.965.905-1.916,1.358-2.881.241-.483.468-.95.694-1.433.2-.422.392-.86.6-1.282.815-1.675,1.629-3.334,2.429-4.948.528-1.056,1.041-2.067,1.539-3.062.483-.92.95-1.825,1.418-2.715.362-.664.709-1.328,1.056-1.946.226-.407.453-.815.664-1.177q.543-1.018,1.086-1.946V92.69c.362-.588.694-1.162,1.026-1.69a33.46,33.46,0,0,1,4.149-5.733l.045-.045c.136-.136.256-.241.392-.362a2.625,2.625,0,0,1,.211-.181.055.055,0,0,1,.045-.015c.136-.121.256-.211.377-.3a2.478,2.478,0,0,1,1.147-.332,10.427,10.427,0,0,1,4.843,2.655,38.92,38.92,0,0,1,9.232,12.7,37.524,37.524,0,0,1,2.459,6.819c.015.045.015.091.03.121a28.218,28.218,0,0,1,.784,4.737.028.028,0,0,1,0,.045,21.739,21.739,0,0,1-.045,4.646q-.136,1.154-.317,2.534v.015c-.89,6.758-2.625,17.152-4.36,27l-.5,2.851c-2.233,12.627-4.3,23.609-4.3,23.609l.875.166H78.6l15.6,3.017,3.575.694,47.067,9.067,1.252.241s16.624-11.948,34.5-16.79h.015c.5-.121.981-.256,1.478-.377.679-.166,1.358-.332,2.052-.468h.015c.377-.075.724-.151,1.1-.226a47.762,47.762,0,0,1,7.664-.89c7.422-.256,14.452,1.539,19.913,6.789,0,0,5.657,7.2-.287,17.605" transform="translate(7.99 42.732)" fill="#ffa4a5"/>
        <g id="Grupo_1064983" data-name="Grupo 1064983" transform="translate(23.7 126.755)" opacity="0.51">
          <g id="Grupo_1064982" data-name="Grupo 1064982">
            <g id="Grupo_1064981" data-name="Grupo 1064981" clip-path="url(#clip-path-5)">
              <path id="Trazado_798535" data-name="Trazado 798535" d="M212.549,190.6a37.712,37.712,0,0,1-9.263,10.409c0,.015,0,.015-.015.015-.981.83-2.067,1.644-3.213,2.474,0,0,.241.211.634.588a19.735,19.735,0,0,1,5.129,17.952c-2.187,10.213-16.323,21.392-19.536,23.82-.422.317-.649.468-.649.468s.256.121.709.362c2.9,1.554,13.366,8.161,8.357,20.652-.784,1.961-3.424,5.039-7.422,8.931H15.71c4.058-5.159,6.834-9.187,7.211-10.982,1.644-7.829,9.9-112.479,14-119.479.121-.2.241-.437.392-.709,2.157-4.058,7.452-16.247,13.245-28.693.06-.136.136-.287.211-.422v-.015a2.51,2.51,0,0,1,.2-.407c.181-.407.362-.815.558-1.237a1.743,1.743,0,0,1,.121-.226c.453-.965.905-1.916,1.358-2.881.241-.483.468-.95.694-1.433.2-.422.392-.86.6-1.282.815-1.675,1.629-3.334,2.429-4.948.528-1.056,1.041-2.067,1.539-3.062.483-.92.95-1.825,1.418-2.715.362-.664.709-1.328,1.056-1.946.226-.407.453-.815.664-1.177q.543-1.018,1.086-1.946V92.69c.362-.588.694-1.162,1.026-1.69a33.46,33.46,0,0,1,4.149-5.733l.045-.045c.136-.136.256-.241.392-.362a2.625,2.625,0,0,1,.211-.181.055.055,0,0,1,.045-.015c.136-.121.256-.211.377-.3a2.478,2.478,0,0,1,1.147-.332,10.427,10.427,0,0,1,4.843,2.655,38.92,38.92,0,0,1,9.232,12.7,37.524,37.524,0,0,1,2.459,6.819c.015.045.015.091.03.121a28.218,28.218,0,0,1,.784,4.737.028.028,0,0,1,0,.045,21.739,21.739,0,0,1-.045,4.646q-.136,1.154-.317,2.534v.015c-.89,6.758-2.625,17.152-4.36,27l-.5,2.851c-2.233,12.627-4.3,23.609-4.3,23.609l.875.166H78.6l15.6,3.017,3.575.694,47.067,9.067,1.252.241s16.624-11.948,34.5-16.79h.015c.5-.121.981-.256,1.478-.377.679-.166,1.358-.332,2.052-.468h.015c.377-.075.724-.151,1.1-.226a47.762,47.762,0,0,1,7.664-.89c7.422-.256,14.452,1.539,19.913,6.789,0,0,5.657,7.2-.287,17.605" transform="translate(-15.71 -84.023)" fill="#ab4c5d"/>
            </g>
          </g>
        </g>
        <path id="Trazado_798536" data-name="Trazado 798536" d="M87.313,168.627a.654.654,0,0,1-.306.065.822.822,0,0,1-.742-.5,53.4,53.4,0,0,0-18.524-23.9l3.566.694a55.758,55.758,0,0,1,16.457,22.589.8.8,0,0,1-.451,1.048" transform="translate(34.451 73.385)" fill="#3c2238"/>
        <path id="Trazado_798537" data-name="Trazado 798537" d="M101.507,246.884a.794.794,0,0,1-1.026.483.811.811,0,0,1-.483-1.041c6.758-18.767-.709-41.818-9.157-55.832a110.936,110.936,0,0,0-6.985-10.183c-.151-.2-.468-.543-.86-.981-.272-.287-.573-.619-.89-.965-4.013-4.315-4.963-5.582-4.8-6.472.181-.965,2.067-11.556,4.194-23.639.166-.935.347-1.886.513-2.851.679-3.983,1.388-8.041,2.067-11.918,0-.03,0-.045.015-.06,1.72-10.092,3.2-18.918,3.5-21.618a1.945,1.945,0,0,0,.015-.422.028.028,0,0,0,0-.045,14.815,14.815,0,0,0-.784-4.737c-.015-.03-.015-.075-.03-.121a43.618,43.618,0,0,0-2.565-6.336,47.169,47.169,0,0,0-7.467-11.194,19.376,19.376,0,0,0-1.735-1.659c-1.78-1.509-3.364-2.263-4.722-2.187a1.939,1.939,0,0,0-.784.241,6.145,6.145,0,0,0-1.312,1.011c-3.952,3.862-10.243,16.021-15.991,28.225-.256.543-.513,1.1-.769,1.644-4.42,9.474-8.418,18.736-10.666,23.941-1.207,2.776-2.157,4.963-2.746,6.261-2.851,6.276-8.1,60.524-11.224,92.943-1.373,14.075-2.353,24.243-2.715,26.325-.3,1.674-3.047,5.672-7.12,10.847H14.96c4.36-5.461,7.286-9.579,7.558-11.133.347-2.022,1.388-12.687,2.685-26.189,3.349-34.622,8.4-86.939,11.375-93.471.588-1.282,1.524-3.455,2.731-6.23,3.59-8.327,7.181-16.474,10.62-23.866.151-.317.3-.649.437-.965h.015c8.3-17.786,15.629-30.971,19.838-31.2a7.97,7.97,0,0,1,5.2,2.052,20.261,20.261,0,0,1,2.519,2.308,47.077,47.077,0,0,1,6.819,9.791c2.293,4.3,3.968,8.75,4.375,12.023a10.21,10.21,0,0,1,.06,2.323c-.422,3.787-3.093,19.37-5.612,33.732q-.249,1.448-.5,2.851c-2.082,11.782-3.922,22.131-4.179,23.5a.952.952,0,0,0,.06.136h.015a45.235,45.235,0,0,0,4.3,5.069c.875.935,1.554,1.659,1.856,2.052.136.166.256.347.377.513a106.328,106.328,0,0,1,6.7,9.821c8.644,14.316,16.262,37.9,9.293,57.22" transform="translate(7.608 42.457)" fill="#3c2238"/>
        <path id="Trazado_798538" data-name="Trazado 798538" d="M39.321,115.758c-.14,0-.278,0-.416,0a.806.806,0,0,1,.02-1.613h.015a19.315,19.315,0,0,0,17.394-28.5.806.806,0,1,1,1.418-.766,20.926,20.926,0,0,1-18.43,30.888" transform="translate(19.385 42.947)" fill="#3c2238"/>
        <path id="Trazado_798539" data-name="Trazado 798539" d="M176.1,143.37c-5.054-4.36-11.375-5.9-18.1-5.718a46.48,46.48,0,0,0-7.648.89,2.4,2.4,0,0,0-.453.09c-1.1.211-2.187.468-3.289.754-1.207.3-2.414.649-3.605,1.026-16.489,5.174-31.484,15.825-32.48,16.549-.03.015-.347.166-.89.483a44.9,44.9,0,0,0-7.588,5.371c-5.552,4.858-11.209,12.491-7.8,21.889.181.317,3.862,6.8,11.284,8.388A45.5,45.5,0,0,0,100.28,196c-16.217,10.711-16.323,18.872-14.618,24.8,2.308,7.965,8.086,9.9,11.058,10.319a9.494,9.494,0,0,0,1.644.151,1.427,1.427,0,0,0,.211-.015.191.191,0,0,0,.091-.015h.03l.106-.03.136-.06c.015-.015.015-.03.03-.03H99l.03-.015c17.53-9.1,51.111-11.224,51.442-11.239a.718.718,0,0,0,.664-.453.577.577,0,0,0,.106-.407.557.557,0,0,0-.166-.422.719.719,0,0,0-.694-.332c-.332.03-34.2,2.157-52.046,11.4h-.015a11.325,11.325,0,0,1-5.34-1.463.015.015,0,0,1-.015-.015,10.037,10.037,0,0,1-1.629-1.147,14.574,14.574,0,0,1-3.394-16.7c0-.015.015-.015.015-.03a19.411,19.411,0,0,1,2.006-3.213.015.015,0,0,0,.015-.015v-.015c2.248-2.912,5.763-6.14,11.194-9.7,15.071-9.972,63.36-20.245,63.994-20.4a2.042,2.042,0,0,0,.317-.151c12.506-5.34,15.01-15.9,15.418-21.739a14.152,14.152,0,0,0-4.8-11.706m-8.026,30.368c0,.015,0,.015-.015.015a27.961,27.961,0,0,1-3.364,1.675c-1.75.377-37.367,7.965-56.8,16.579a.781.781,0,0,0-.5-.241,14.445,14.445,0,0,1-5.944-2.021.015.015,0,0,0-.015-.015,19.791,19.791,0,0,1-1.7-1.192,18.516,18.516,0,0,1-4.028-4.5c-1.9-5.235-.6-9.926,1.9-13.834,0-.015.015-.015.015-.03a23.324,23.324,0,0,1,1.916-2.58l.015-.015v-.015a34.508,34.508,0,0,1,4.48-4.345,42.587,42.587,0,0,1,7.332-4.873c.287-.211,17.53-12.476,35.255-17.2a3.522,3.522,0,0,1,.377-.106c.5-.136,1.011-.256,1.509-.362.468-.121.95-.226,1.418-.332a47.369,47.369,0,0,1,7.694-1c6.532-.287,12.642,1.1,17.424,5.235a12.488,12.488,0,0,1,4.239,10.364,25.686,25.686,0,0,1-1.946,8.373,21.53,21.53,0,0,1-9.263,10.409" transform="translate(43.201 69.999)" fill="#3c2238"/>
        <path id="Trazado_798540" data-name="Trazado 798540" d="M96.951,217.978H94.19a7.907,7.907,0,0,1-2.218-3.077c-2.987-7.618-.075-12.6,1.825-14.8a9.174,9.174,0,0,1,1.328-1.312.829.829,0,0,1,1.131.166.843.843,0,0,1-.151,1.131l-.03.015-.015.015a9.513,9.513,0,0,0-2.157,2.519c-1.4,2.308-2.595,6.185-.437,11.676a6.641,6.641,0,0,0,2.082,2.746,7.51,7.51,0,0,0,1.4.92" transform="translate(46.122 101.022)" fill="#3c2238"/>
        <path id="Trazado_798541" data-name="Trazado 798541" d="M123.527,211.868H117.07c3.319-.634,5.476-1.162,5.567-1.192a.8.8,0,0,1,.981.588.758.758,0,0,1-.091.6" transform="translate(59.539 107.132)" fill="#3c2238"/>
        <path id="Trazado_798542" data-name="Trazado 798542" d="M96.315,180.784a.807.807,0,0,1-.163-1.6,42.224,42.224,0,0,0,14.534-6.027c3.147-2.074,4.85-4.07,5.354-6.282.637-2.791-.907-6.081-3.669-7.823a13.089,13.089,0,0,0-9.29-1.4,40.882,40.882,0,0,0-9.407,3.346.807.807,0,1,1-.661-1.472,42.111,42.111,0,0,1,9.785-3.462,14.715,14.715,0,0,1,10.435,1.619,9.241,9.241,0,0,1,4.379,9.548c-.79,3.473-3.826,5.813-6.037,7.27a43.9,43.9,0,0,1-15.093,6.261.884.884,0,0,1-.166.017" transform="translate(47.061 79.224)" fill="#3c2238"/>
        <path id="Trazado_798543" data-name="Trazado 798543" d="M91.1,207.267a.807.807,0,0,1-.222-1.583c.143-.041,14.3-4.117,18.85-8.072,4.177-3.634,5.162-6.442.451-14.43a4.129,4.129,0,0,0-2.86-1.993c-6.752-1.433-19.74,7.709-19.871,7.8a.806.806,0,1,1-.932-1.315c.555-.4,13.717-9.644,21.138-8.065a5.736,5.736,0,0,1,3.916,2.752c4.716,8,4.533,11.842-.783,16.466-4.818,4.189-18.869,8.237-19.465,8.407a.872.872,0,0,1-.222.03" transform="translate(43.828 91.254)" fill="#3c2238"/>
        <path id="Trazado_798544" data-name="Trazado 798544" d="M113.377,212.066a17.5,17.5,0,0,1-7.633,4.692,38.272,38.272,0,0,1-6.577,1.69h-4.5a.857.857,0,0,1-.106-.332.751.751,0,0,1,.211-.588.821.821,0,0,1,.543-.272,36.788,36.788,0,0,0,9.881-2.021,15.861,15.861,0,0,0,6.97-4.224,7.4,7.4,0,0,0,1.72-7.211c-1.1-2.957-4.465-4.375-7.317-4.465-3.243-.091-6.517,1.162-9.414,2.263L93.3,203.06a.393.393,0,0,1-.166.045.806.806,0,0,1-.875-.513.815.815,0,0,1,.468-1.041l2.248-.86H95l.106-.03.136-.06.045-.015.015-.015.03-.015,1.252-.468c3.032-1.162,6.457-2.459,10.032-2.368,3.394.106,7.422,1.856,8.78,5.521a8.961,8.961,0,0,1-2.022,8.825" transform="translate(46.894 100.553)" fill="#3c2238"/>
        <path id="Trazado_798545" data-name="Trazado 798545" d="M165.355,94.653a44.346,44.346,0,1,1-37.563-50.22,44.349,44.349,0,0,1,37.563,50.22" transform="translate(39.217 22.364)" fill="#688ade"/>
        <path id="Trazado_798546" data-name="Trazado 798546" d="M121.277,74.312l-1.269,8.8,12,1.73-3.749,12.5-10.091-1.456-4.394,30.485a44.718,44.718,0,0,1-13.781-2.041l4.387-30.431-11.21-1.617,1.875-13,11.21,1.616,1.628-11.289A15.48,15.48,0,0,1,124.562,56.4l1.679.143s6.5.938,10.058,2.482l-1.521,10.539-6-.864a6.626,6.626,0,0,0-7.505,5.61" transform="translate(47.382 28.654)" fill="#ffe7d9"/>
        <path id="Trazado_798547" data-name="Trazado 798547" d="M98.8,59.561V69.2A18.169,18.169,0,0,1,84.049,86.972l2.037,15.991L70.653,87.3h-45.8A18.17,18.17,0,0,1,6.84,70.981,147.745,147.745,0,0,1,22.71,41.594a16.665,16.665,0,0,1,2.142-.136H80.7a18.156,18.156,0,0,1,18.1,18.1" transform="translate(3.479 21.084)" fill="#ffe7d9"/>
        <path id="Trazado_798548" data-name="Trazado 798548" d="M47.452,57.634a3.891,3.891,0,1,0,3.832-3.949,3.89,3.89,0,0,0-3.832,3.949" transform="translate(24.133 27.302)" fill="#3c2238"/>
        <path id="Trazado_798549" data-name="Trazado 798549" d="M35.6,57.812a3.891,3.891,0,1,0,3.832-3.949A3.892,3.892,0,0,0,35.6,57.812" transform="translate(18.106 27.393)" fill="#3c2238"/>
        <path id="Trazado_798550" data-name="Trazado 798550" d="M23.75,57.99a3.892,3.892,0,1,0,3.833-3.949A3.892,3.892,0,0,0,23.75,57.99" transform="translate(12.078 27.483)" fill="#3c2238"/>
        <path id="Trazado_798551" data-name="Trazado 798551" d="M223.109,102.87c-.06,5.733-.166,11.48-.166,17.183v24.379a17.906,17.906,0,0,1-8.433,2.1h-45.8l-15.433,15.659,2.037-15.976a18.186,18.186,0,0,1-14.754-17.786V118.8a18.156,18.156,0,0,1,18.1-18.1H214.51a18.18,18.18,0,0,1,8.6,2.172" transform="translate(71.485 51.212)" fill="#ffe7d9"/>
        <path id="Trazado_798552" data-name="Trazado 798552" d="M180.984,118.4a3.892,3.892,0,1,0,3.832-3.949,3.892,3.892,0,0,0-3.832,3.949" transform="translate(92.044 58.206)" fill="#3c2238"/>
        <path id="Trazado_798553" data-name="Trazado 798553" d="M169.133,118.578a3.892,3.892,0,1,0,3.832-3.949,3.892,3.892,0,0,0-3.832,3.949" transform="translate(86.016 58.297)" fill="#3c2238"/>
        <path id="Trazado_798554" data-name="Trazado 798554" d="M157.282,118.756a3.892,3.892,0,1,0,3.833-3.949,3.892,3.892,0,0,0-3.833,3.949" transform="translate(79.989 58.387)" fill="#3c2238"/>
        <path id="Trazado_798555" data-name="Trazado 798555" d="M196.98,191.874c-13.337,15.371-32.255,20.8-42.254,12.121s-7.291-28.17,6.046-43.539,32.255-20.8,42.252-12.123,7.292,28.17-6.045,43.54" transform="translate(75.621 73.337)" fill="#3c2238"/>
        <path id="Trazado_798556" data-name="Trazado 798556" d="M159.02,207.171s-10.72-7.383-11.812-9.694c-1.109-2.347,46.831-54.95,46.831-54.95s9.02,4.944,11.459,8.409l.641,20.029-8.6,17.2-17.2,14.764Z" transform="translate(74.856 72.485)" fill="#3c2238"/>
        <path id="Trazado_798557" data-name="Trazado 798557" d="M193.363,189.151c-13.337,15.371-32.255,20.8-42.254,12.121s-7.291-28.17,6.046-43.539,32.255-20.8,42.252-12.123,7.292,28.17-6.045,43.54" transform="translate(73.781 71.952)" fill="#db5d5c"/>
        <path id="Trazado_798558" data-name="Trazado 798558" d="M186.5,160.514c-.7-5.778-10.305-1.8-12.349-.87-.059-1.975-.659-12.841-6.258-10.791-12.989,4.757-11.23,38.244-11.348,39.063l-.065.107s31.648-14.093,30.019-27.509" transform="translate(79.582 75.572)" fill="#ffe7d9"/>
        <path id="Trazado_798559" data-name="Trazado 798559" d="M209.061,80.035a55.573,55.573,0,0,1-4.254,5.567c-11.888,13.713-28.225,19.506-38.71,14.452h-.015a.187.187,0,0,0-.045-.03,16,16,0,0,1-3.485-2.293c-.317-.287-.634-.573-.92-.875-.015-.015-.015-.015-.03-.015-.241-.241-.468-.5-.694-.769a18.544,18.544,0,0,1-4.149-9.806c-1.3-9.519,2.866-21.739,11.842-32.072a50.093,50.093,0,0,1,19.385-14.075q2.037,2.67,3.937,5.446a136.277,136.277,0,0,1,14.135,26.31c.483,1.162.935,2.338,1.373,3.515.573,1.539,1.116,3.077,1.629,4.646" transform="translate(79.605 20.403)" fill="#3c2238"/>
        <path id="Trazado_798560" data-name="Trazado 798560" d="M206.826,70.038c.483,1.162.935,2.338,1.373,3.515l-2.836,5.657-17.2,14.769-21.3,4.239h-.015a.186.186,0,0,0-.045-.03c-.3-.211-2.218-1.539-4.405-3.168-.015-.015-.015-.015-.03-.015-.543-.407-1.086-.83-1.629-1.252A34.529,34.529,0,0,1,155.353,89a.991.991,0,0,1-.181-.256.9.9,0,0,1-.136-.226c-.166-.347.769-1.825,2.489-4.088,2.549-3.394,6.864-8.554,11.827-14.3,5.416-6.276,11.586-13.275,17.092-19.446,2.218-2.489,4.33-4.843,6.245-6.955a136.278,136.278,0,0,1,14.135,26.31" transform="translate(78.838 22.239)" fill="#3c2238"/>
        <path id="Trazado_798561" data-name="Trazado 798561" d="M193.759,47.151a136.276,136.276,0,0,1,14.135,26.31,54.877,54.877,0,0,1-6.713,9.625C189.4,96.677,173.243,102.5,162.743,97.658c-.317-.151-.634-.3-.935-.483a15.5,15.5,0,0,1-2.881-1.976,15.058,15.058,0,0,1-2.5-2.776.99.99,0,0,1-.181-.256.9.9,0,0,1-.136-.226v0c-6.422-9.678-2.987-26.607,8.87-40.276,6.291-7.256,13.819-12.28,21.075-14.663,1.3,1.539,2.549,3.108,3.771,4.707q2.037,2.67,3.937,5.446" transform="translate(77.769 18.816)" fill="#db5d5c"/>
        <path id="Trazado_798562" data-name="Trazado 798562" d="M194.33,54.982c-.7-5.778-10.305-1.8-12.349-.87-.059-1.975-.659-12.841-6.258-10.791-12.989,4.757-11.23,38.244-11.348,39.063l-.065.107S195.959,68.4,194.33,54.982" transform="translate(83.564 21.901)" fill="#ffe7d9"/>
        <path id="Trazado_798563" data-name="Trazado 798563" d="M13.836,177.236c13.336,15.371,32.255,20.8,42.252,12.121s7.291-28.17-6.046-43.54S17.789,125.019,7.792,133.7s-7.292,28.17,6.045,43.54" transform="translate(0.893 65.892)" fill="#3c2238"/>
        <path id="Trazado_798564" data-name="Trazado 798564" d="M51.318,192.532s10.72-7.383,11.812-9.693C64.239,180.49,16.3,127.888,16.3,127.888S7.281,132.832,4.84,136.3L4.2,156.326l8.6,17.2L30,188.294Z" transform="translate(2.136 65.041)" fill="#3c2238"/>
        <path id="Trazado_798565" data-name="Trazado 798565" d="M17.452,174.513c13.337,15.371,32.255,20.8,42.254,12.121s7.291-28.17-6.046-43.54S21.4,122.3,11.407,130.972s-7.291,28.17,6.045,43.54" transform="translate(2.733 64.507)" fill="#db5d5c"/>
        <path id="Trazado_798566" data-name="Trazado 798566" d="M14.1,145.876c.7-5.778,10.305-1.8,12.349-.87.059-1.975.659-12.841,6.258-10.791,12.989,4.757,11.23,38.244,11.347,39.063l.065.107S12.475,159.293,14.1,145.876" transform="translate(7.142 68.128)" fill="#ffe7d9"/>
      </g>
    </g>
  </g>
</svg>
