<svg xmlns="http://www.w3.org/2000/svg" width="434" height="50" viewBox="0 0 434 50">
  <g id="Grupo_1066784" data-name="Grupo 1066784" transform="translate(6679 6056)">
    <path id="Trazado_800413" data-name="Trazado 800413" d="M25,0H409a25,25,0,0,1,0,50H25A25,25,0,0,1,25,0Z" transform="translate(-6679 -6056)" fill="#ff5a20"/>
    <path id="Trazado_800414" data-name="Trazado 800414" d="M1.074,0V-14.219H6.182a7.232,7.232,0,0,1,4.175,1.006,3.347,3.347,0,0,1,1.431,2.92,3.383,3.383,0,0,1-.508,1.885A2.959,2.959,0,0,1,9.785-7.256a3,3,0,0,1,1.709,1.094,3.18,3.18,0,0,1,.6,1.953,3.765,3.765,0,0,1-1.323,3.14A6.3,6.3,0,0,1,6.846,0ZM4.5-6.045v3.408H6.748a2.136,2.136,0,0,0,1.426-.425,1.487,1.487,0,0,0,.5-1.2A1.576,1.576,0,0,0,6.9-6.045Zm0-2.246H6.289a2.539,2.539,0,0,0,1.6-.411,1.46,1.46,0,0,0,.479-1.185,1.533,1.533,0,0,0-.518-1.3,2.77,2.77,0,0,0-1.67-.4H4.5ZM18.936.2A5.432,5.432,0,0,1,15-1.255a5.008,5.008,0,0,1-1.5-3.774V-5.3a6.489,6.489,0,0,1,.6-2.861,4.395,4.395,0,0,1,1.753-1.919,5.292,5.292,0,0,1,2.734-.679A4.574,4.574,0,0,1,22.1-9.38a5.43,5.43,0,0,1,1.289,3.853v1.279H16.846a2.372,2.372,0,0,0,.771,1.4,2.3,2.3,0,0,0,1.543.508A2.958,2.958,0,0,0,21.6-3.437l1.5,1.777A4.2,4.2,0,0,1,21.362-.308,5.891,5.891,0,0,1,18.936.2Zm-.371-8.418q-1.445,0-1.719,1.914h3.32v-.254a1.63,1.63,0,0,0-.4-1.226A1.593,1.593,0,0,0,18.564-8.223Zm9.17-2.344.107,1.24a3.583,3.583,0,0,1,3.018-1.436,3.015,3.015,0,0,1,2.466.986,4.7,4.7,0,0,1,.845,2.969V0h-3.3V-6.67a1.783,1.783,0,0,0-.322-1.177,1.491,1.491,0,0,0-1.172-.376,1.569,1.569,0,0,0-1.436.762V0H24.648V-10.566ZM41.1.2a5.432,5.432,0,0,1-3.936-1.45,5.008,5.008,0,0,1-1.5-3.774V-5.3a6.489,6.489,0,0,1,.6-2.861,4.395,4.395,0,0,1,1.753-1.919,5.292,5.292,0,0,1,2.734-.679A4.574,4.574,0,0,1,44.268-9.38a5.43,5.43,0,0,1,1.289,3.853v1.279H39.014a2.372,2.372,0,0,0,.771,1.4,2.3,2.3,0,0,0,1.543.508A2.958,2.958,0,0,0,43.77-3.437l1.5,1.777A4.2,4.2,0,0,1,43.53-.308,5.891,5.891,0,0,1,41.1.2Zm-.371-8.418q-1.445,0-1.719,1.914h3.32v-.254a1.63,1.63,0,0,0-.4-1.226A1.593,1.593,0,0,0,40.732-8.223ZM47.646,0V-8.281H46.113v-2.285h1.533v-.352a4.034,4.034,0,0,1,1.387-3.232,5.541,5.541,0,0,1,3.6-1.055,12.787,12.787,0,0,1,3.438.566l-.449,2.6-.547-.146a8.7,8.7,0,0,0-2.246-.283q-1.885,0-1.885,1.719v.186h2.07v2.285h-2.07V0Zm9.941,0H54.277V-10.566h3.311Zm6.475-2.344a1.464,1.464,0,0,0,1.074-.376,1.379,1.379,0,0,0,.371-1.05h3.086A3.653,3.653,0,0,1,67.349-.918,4.631,4.631,0,0,1,64.141.2,4.689,4.689,0,0,1,60.508-1.25a5.7,5.7,0,0,1-1.328-4v-.137a6.436,6.436,0,0,1,.591-2.827,4.3,4.3,0,0,1,1.7-1.885,5.081,5.081,0,0,1,2.637-.659,4.573,4.573,0,0,1,3.271,1.143,4.053,4.053,0,0,1,1.211,3.1H65.508a1.806,1.806,0,0,0-.4-1.26,1.382,1.382,0,0,0-1.074-.439q-1.279,0-1.494,1.631a11.507,11.507,0,0,0-.068,1.426,4.52,4.52,0,0,0,.381,2.207A1.319,1.319,0,0,0,64.063-2.344ZM73.457,0h-3.3V-10.566h3.3Zm-3.5-13.3a1.482,1.482,0,0,1,.508-1.159,1.909,1.909,0,0,1,1.318-.452,1.909,1.909,0,0,1,1.318.452,1.482,1.482,0,0,1,.508,1.159,1.482,1.482,0,0,1-.508,1.159,1.909,1.909,0,0,1-1.318.452,1.909,1.909,0,0,1-1.318-.452A1.482,1.482,0,0,1,69.961-13.3Zm5.107,7.92A6.236,6.236,0,0,1,75.684-8.2a4.4,4.4,0,0,1,1.768-1.9,5.323,5.323,0,0,1,2.705-.664,4.858,4.858,0,0,1,3.74,1.47,5.64,5.64,0,0,1,1.367,4v.117a5.472,5.472,0,0,1-1.372,3.921A4.871,4.871,0,0,1,80.176.2a4.927,4.927,0,0,1-3.623-1.353,5.29,5.29,0,0,1-1.475-3.667Zm3.291.205a3.932,3.932,0,0,0,.459,2.148,1.529,1.529,0,0,0,1.357.684q1.758,0,1.8-2.705v-.332q0-2.842-1.816-2.842-1.65,0-1.787,2.451ZM92.246-2.969a.76.76,0,0,0-.439-.674,6.685,6.685,0,0,0-1.67-.527,7.615,7.615,0,0,1-2.031-.718,3.4,3.4,0,0,1-1.221-1.079,2.577,2.577,0,0,1-.42-1.455,2.92,2.92,0,0,1,1.2-2.4,4.948,4.948,0,0,1,3.145-.942,5.482,5.482,0,0,1,3.359.947,2.962,2.962,0,0,1,1.27,2.49h-3.3q0-1.27-1.338-1.27a1.326,1.326,0,0,0-.869.288.892.892,0,0,0-.352.718.819.819,0,0,0,.43.713,4.06,4.06,0,0,0,1.372.449,11.857,11.857,0,0,1,1.655.42A3.007,3.007,0,0,1,95.42-3.066,2.767,2.767,0,0,1,94.136-.713,5.631,5.631,0,0,1,90.811.2a5.747,5.747,0,0,1-2.422-.488,4.05,4.05,0,0,1-1.66-1.328,3.007,3.007,0,0,1-.6-1.768h3.076A1.272,1.272,0,0,0,89.7-2.319a2.009,2.009,0,0,0,1.2.337,1.58,1.58,0,0,0,1.011-.273A.875.875,0,0,0,92.246-2.969Zm9.277-2.393a6.455,6.455,0,0,1,1.084-3.955,3.568,3.568,0,0,1,3.027-1.445,3.035,3.035,0,0,1,2.383,1.113V-15h3.3V0h-2.959l-.166-1.133A3.116,3.116,0,0,1,105.615.2a3.562,3.562,0,0,1-2.988-1.445A6.659,6.659,0,0,1,101.523-5.361Zm3.291.205q0,2.813,1.641,2.813a1.62,1.62,0,0,0,1.563-.918V-7.285a1.576,1.576,0,0,0-1.543-.937q-1.523,0-1.65,2.461ZM118.3.2a5.432,5.432,0,0,1-3.936-1.45,5.008,5.008,0,0,1-1.5-3.774V-5.3a6.489,6.489,0,0,1,.6-2.861,4.395,4.395,0,0,1,1.753-1.919,5.292,5.292,0,0,1,2.734-.679,4.574,4.574,0,0,1,3.516,1.382,5.43,5.43,0,0,1,1.289,3.853v1.279h-6.543a2.372,2.372,0,0,0,.771,1.4,2.3,2.3,0,0,0,1.543.508,2.958,2.958,0,0,0,2.441-1.094l1.5,1.777a4.2,4.2,0,0,1-1.743,1.353A5.891,5.891,0,0,1,118.3.2Zm-.371-8.418q-1.445,0-1.719,1.914h3.32v-.254a1.63,1.63,0,0,0-.4-1.226A1.593,1.593,0,0,0,117.93-8.223ZM132.529,0h-3.3V-15h3.3Zm7.979,0a3.716,3.716,0,0,1-.312-.947A3.06,3.06,0,0,1,137.656.2a3.749,3.749,0,0,1-2.539-.9,2.875,2.875,0,0,1-1.045-2.271,2.955,2.955,0,0,1,1.27-2.6,6.468,6.468,0,0,1,3.691-.879h1.016v-.559q0-1.462-1.26-1.462a1.03,1.03,0,0,0-1.172,1.158h-3.291a2.95,2.95,0,0,1,1.3-2.487,5.479,5.479,0,0,1,3.325-.956,4.8,4.8,0,0,1,3.193.986,3.429,3.429,0,0,1,1.2,2.705v4.678A4.79,4.79,0,0,0,143.8-.166V0Zm-2.061-2.148a1.836,1.836,0,0,0,1.021-.264,1.652,1.652,0,0,0,.581-.6V-4.7h-.957q-1.719,0-1.719,1.543a.942.942,0,0,0,.3.728A1.1,1.1,0,0,0,138.447-2.148Zm12.256-.82a.76.76,0,0,0-.439-.674,6.685,6.685,0,0,0-1.67-.527,7.615,7.615,0,0,1-2.031-.718,3.4,3.4,0,0,1-1.221-1.079,2.577,2.577,0,0,1-.42-1.455,2.92,2.92,0,0,1,1.2-2.4,4.948,4.948,0,0,1,3.145-.942,5.482,5.482,0,0,1,3.359.947,2.962,2.962,0,0,1,1.27,2.49h-3.3q0-1.27-1.338-1.27a1.326,1.326,0,0,0-.869.288.892.892,0,0,0-.352.718.819.819,0,0,0,.43.713,4.06,4.06,0,0,0,1.372.449,11.857,11.857,0,0,1,1.655.42,3.007,3.007,0,0,1,2.383,2.939,2.767,2.767,0,0,1-1.284,2.354A5.632,5.632,0,0,1,149.268.2a5.747,5.747,0,0,1-2.422-.488,4.05,4.05,0,0,1-1.66-1.328,3.007,3.007,0,0,1-.6-1.768h3.076a1.272,1.272,0,0,0,.488,1.069,2.009,2.009,0,0,0,1.2.337,1.58,1.58,0,0,0,1.011-.273A.875.875,0,0,0,150.7-2.969Zm14.16.625a1.464,1.464,0,0,0,1.074-.376,1.379,1.379,0,0,0,.371-1.05h3.086a3.653,3.653,0,0,1-1.245,2.852A4.631,4.631,0,0,1,164.941.2a4.689,4.689,0,0,1-3.633-1.445,5.7,5.7,0,0,1-1.328-4v-.137a6.436,6.436,0,0,1,.591-2.827,4.3,4.3,0,0,1,1.7-1.885,5.081,5.081,0,0,1,2.637-.659,4.573,4.573,0,0,1,3.271,1.143,4.053,4.053,0,0,1,1.211,3.1h-3.086a1.807,1.807,0,0,0-.4-1.26,1.382,1.382,0,0,0-1.074-.439q-1.279,0-1.494,1.631a11.507,11.507,0,0,0-.068,1.426,4.52,4.52,0,0,0,.381,2.207A1.319,1.319,0,0,0,164.863-2.344ZM176.738,0a3.716,3.716,0,0,1-.312-.947A3.06,3.06,0,0,1,173.887.2a3.749,3.749,0,0,1-2.539-.9A2.875,2.875,0,0,1,170.3-2.979a2.955,2.955,0,0,1,1.27-2.6,6.468,6.468,0,0,1,3.691-.879h1.016v-.559q0-1.462-1.26-1.462a1.03,1.03,0,0,0-1.172,1.158h-3.291a2.95,2.95,0,0,1,1.3-2.487,5.479,5.479,0,0,1,3.325-.956,4.8,4.8,0,0,1,3.193.986,3.429,3.429,0,0,1,1.2,2.705v4.678a4.79,4.79,0,0,0,.449,2.227V0Zm-2.061-2.148a1.836,1.836,0,0,0,1.021-.264,1.652,1.652,0,0,0,.581-.6V-4.7h-.957q-1.719,0-1.719,1.543a.942.942,0,0,0,.3.728A1.1,1.1,0,0,0,174.678-2.148Zm9.834-8.418.107,1.24a3.633,3.633,0,0,1,3.018-1.436,2.675,2.675,0,0,1,2.705,1.592,3.516,3.516,0,0,1,3.105-1.592q3.213,0,3.3,3.887V0h-3.3V-6.67a2.014,2.014,0,0,0-.273-1.182,1.164,1.164,0,0,0-1-.371,1.559,1.559,0,0,0-1.455.869l.01.137V0h-3.3V-6.65a2.117,2.117,0,0,0-.264-1.2,1.161,1.161,0,0,0-1.006-.371,1.578,1.578,0,0,0-1.445.869V0h-3.291V-10.566Zm23.926,5.361a6.372,6.372,0,0,1-1.108,3.931A3.554,3.554,0,0,1,204.336.2a3.046,3.046,0,0,1-2.393-1.064V4.063h-3.291V-10.566h3.076l.1.977a3.046,3.046,0,0,1,2.49-1.172,3.582,3.582,0,0,1,3.037,1.44,6.45,6.45,0,0,1,1.084,3.96Zm-3.291-.205q0-2.812-1.641-2.812a1.549,1.549,0,0,0-1.562.84v4.16a1.6,1.6,0,0,0,1.582.879q1.572,0,1.621-2.715ZM215.84,0a3.716,3.716,0,0,1-.312-.947A3.06,3.06,0,0,1,212.988.2a3.749,3.749,0,0,1-2.539-.9A2.875,2.875,0,0,1,209.4-2.979a2.955,2.955,0,0,1,1.27-2.6,6.468,6.468,0,0,1,3.691-.879h1.016v-.559q0-1.462-1.26-1.462a1.03,1.03,0,0,0-1.172,1.158h-3.291a2.95,2.95,0,0,1,1.3-2.487,5.479,5.479,0,0,1,3.325-.956,4.8,4.8,0,0,1,3.193.986,3.429,3.429,0,0,1,1.2,2.705v4.678a4.79,4.79,0,0,0,.449,2.227V0Zm-2.061-2.148a1.836,1.836,0,0,0,1.021-.264,1.652,1.652,0,0,0,.581-.6V-4.7h-.957q-1.719,0-1.719,1.543a.942.942,0,0,0,.3.728A1.1,1.1,0,0,0,213.779-2.148Zm9.746-8.418.107,1.24a3.583,3.583,0,0,1,3.018-1.436,3.015,3.015,0,0,1,2.466.986,4.7,4.7,0,0,1,.845,2.969V0h-3.3V-6.67a1.783,1.783,0,0,0-.322-1.177,1.491,1.491,0,0,0-1.172-.376,1.569,1.569,0,0,0-1.436.762V0h-3.291V-10.566Zm5.459-4.355a2.847,2.847,0,0,1-.649,1.89,2.015,2.015,0,0,1-1.606.776,3.169,3.169,0,0,1-1.436-.41,2.994,2.994,0,0,0-1.279-.41.733.733,0,0,0-.532.215.892.892,0,0,0-.22.664l-1.826-.1a2.863,2.863,0,0,1,.649-1.875,1.992,1.992,0,0,1,1.6-.791,3.3,3.3,0,0,1,1.279.361,7.856,7.856,0,0,0,1,.41,1.934,1.934,0,0,0,.444.049.746.746,0,0,0,.537-.217.9.9,0,0,0,.225-.671ZM237.734,0a3.716,3.716,0,0,1-.312-.947A3.06,3.06,0,0,1,234.883.2a3.749,3.749,0,0,1-2.539-.9A2.875,2.875,0,0,1,231.3-2.979a2.955,2.955,0,0,1,1.27-2.6,6.468,6.468,0,0,1,3.691-.879h1.016v-.559q0-1.462-1.26-1.462a1.03,1.03,0,0,0-1.172,1.158h-3.291a2.95,2.95,0,0,1,1.3-2.487,5.479,5.479,0,0,1,3.325-.956,4.8,4.8,0,0,1,3.193.986,3.429,3.429,0,0,1,1.2,2.705v4.678a4.79,4.79,0,0,0,.449,2.227V0Zm-2.061-2.148a1.836,1.836,0,0,0,1.021-.264,1.652,1.652,0,0,0,.581-.6V-4.7h-.957q-1.719,0-1.719,1.543a.942.942,0,0,0,.3.728A1.1,1.1,0,0,0,235.674-2.148Zm12.256-.82a.76.76,0,0,0-.439-.674,6.685,6.685,0,0,0-1.67-.527,7.615,7.615,0,0,1-2.031-.718,3.4,3.4,0,0,1-1.221-1.079,2.577,2.577,0,0,1-.42-1.455,2.92,2.92,0,0,1,1.2-2.4,4.948,4.948,0,0,1,3.145-.942,5.482,5.482,0,0,1,3.359.947,2.962,2.962,0,0,1,1.27,2.49h-3.3q0-1.27-1.338-1.27a1.326,1.326,0,0,0-.869.288.892.892,0,0,0-.352.718.819.819,0,0,0,.43.713,4.06,4.06,0,0,0,1.372.449,11.857,11.857,0,0,1,1.655.42A3.007,3.007,0,0,1,251.1-3.066a2.767,2.767,0,0,1-1.284,2.354A5.632,5.632,0,0,1,246.494.2a5.747,5.747,0,0,1-2.422-.488,4.05,4.05,0,0,1-1.66-1.328,3.007,3.007,0,0,1-.6-1.768h3.076a1.272,1.272,0,0,0,.488,1.069,2.009,2.009,0,0,0,1.2.337,1.58,1.58,0,0,0,1.011-.273A.875.875,0,0,0,247.93-2.969Zm17.178-.811a1.408,1.408,0,0,0-.532-1.172,6.615,6.615,0,0,0-1.87-.869,17.941,17.941,0,0,1-2.187-.869q-2.764-1.357-2.764-3.73a3.345,3.345,0,0,1,.688-2.085,4.453,4.453,0,0,1,1.948-1.406,7.582,7.582,0,0,1,2.832-.5,6.632,6.632,0,0,1,2.749.547,4.352,4.352,0,0,1,1.89,1.558,4.068,4.068,0,0,1,.674,2.31h-3.418a1.719,1.719,0,0,0-.532-1.348,2.075,2.075,0,0,0-1.44-.479,2.34,2.34,0,0,0-1.45.405,1.243,1.243,0,0,0-.532,1.03,1.252,1.252,0,0,0,.586.991,7.389,7.389,0,0,0,2.061.918,12.623,12.623,0,0,1,2.422,1.021,4.07,4.07,0,0,1,2.3,3.662,3.472,3.472,0,0,1-1.406,2.93A6.255,6.255,0,0,1,263.271.2a7.653,7.653,0,0,1-3.13-.62,4.719,4.719,0,0,1-2.109-1.7,4.427,4.427,0,0,1-.708-2.485h3.438a2.181,2.181,0,0,0,.591,1.685,2.793,2.793,0,0,0,1.919.542,2.206,2.206,0,0,0,1.343-.366A1.209,1.209,0,0,0,265.107-3.779Zm14-2.256h-5.391v3.4h6.367V0h-9.795V-14.219h9.814v2.646h-6.387v3h5.391Zm6.875-8.184,3.174,9.893,3.164-9.893h4.512V0H293.4V-3.32l.332-6.8L290.293,0h-2.266L284.58-10.127l.332,6.807V0h-3.428V-14.219Z" transform="translate(-6601 -6024)" fill="#12263f"/>
    <g id="Trazado_800415" data-name="Trazado 800415" transform="translate(-6662 -6049)" fill="none">
      <path d="M18,0A18,18,0,1,1,0,18,18,18,0,0,1,18,0Z" stroke="none"/>
      <path d="M 18 7 C 11.9345760345459 7 7 11.9345760345459 7 18 C 7 24.0654239654541 11.9345760345459 29 18 29 C 24.0654239654541 29 29 24.0654239654541 29 18 C 29 11.9345760345459 24.0654239654541 7 18 7 M 18 0 C 27.94112968444824 0 36 8.058870315551758 36 18 C 36 27.94112968444824 27.94112968444824 36 18 36 C 8.058870315551758 36 0 27.94112968444824 0 18 C 0 8.058870315551758 8.058870315551758 0 18 0 Z" stroke="none" fill="#fff"/>
    </g>
  </g>
</svg>
